<?xml version="1.0" encoding="utf-8" standalone="no"?>
<!DOCTYPE svg PUBLIC "-//W3C//DTD SVG 1.1//EN"
  "http://www.w3.org/Graphics/SVG/1.1/DTD/svg11.dtd">
<svg xmlns:xlink="http://www.w3.org/1999/xlink" width="853.543742pt" height="351.415687pt" viewBox="0 0 853.543742 351.415687" xmlns="http://www.w3.org/2000/svg" version="1.1">
 <metadata>
  <rdf:RDF xmlns:dc="http://purl.org/dc/elements/1.1/" xmlns:cc="http://creativecommons.org/ns#" xmlns:rdf="http://www.w3.org/1999/02/22-rdf-syntax-ns#">
   <cc:Work>
    <dc:type rdf:resource="http://purl.org/dc/dcmitype/StillImage"/>
    <dc:date>2026-06-26T03:10:17.485097</dc:date>
    <dc:format>image/svg+xml</dc:format>
    <dc:creator>
     <cc:Agent>
      <dc:title>Matplotlib v3.9.4, https://matplotlib.org/</dc:title>
     </cc:Agent>
    </dc:creator>
   </cc:Work>
  </rdf:RDF>
 </metadata>
 <defs>
  <style type="text/css">*{stroke-linejoin: round; stroke-linecap: butt}</style>
 </defs>
 <g id="figure_1">
  <g id="patch_1">
   <path d="M 0 351.415687 
L 853.543742 351.415687 
L 853.543742 0 
L 0 0 
z
" style="fill: #ffffff"/>
  </g>
  <g id="axes_1">
   <g id="patch_2">
    <path d="M 53.047188 310.956 
L 414.062455 310.956 
L 414.062455 25.16 
L 53.047188 25.16 
z
" style="fill: #ffffff"/>
   </g>
   <g id="matplotlib.axis_1">
    <g id="xtick_1">
     <g id="line2d_1">
      <path d="M 53.047188 310.956 
L 53.047188 25.16 
" clip-path="url(#p47cbf228d2)" style="fill: none; stroke: #b0b0b0; stroke-opacity: 0.3; stroke-width: 0.8; stroke-linecap: square"/>
     </g>
     <g id="line2d_2">
      <defs>
       <path id="m29d74aa342" d="M 0 0 
L 0 3.5 
" style="stroke: #000000; stroke-width: 0.8"/>
      </defs>
      <g>
       <use xlink:href="#m29d74aa342" x="53.047188" y="310.956" style="stroke: #000000; stroke-width: 0.8"/>
      </g>
     </g>
     <g id="text_1">
      <!-- 0.0 -->
      <g transform="translate(45.095625 325.554437) scale(0.1 -0.1)">
       <defs>
        <path id="DejaVuSans-30" d="M 2034 4250 
Q 1547 4250 1301 3770 
Q 1056 3291 1056 2328 
Q 1056 1369 1301 889 
Q 1547 409 2034 409 
Q 2525 409 2770 889 
Q 3016 1369 3016 2328 
Q 3016 3291 2770 3770 
Q 2525 4250 2034 4250 
z
M 2034 4750 
Q 2819 4750 3233 4129 
Q 3647 3509 3647 2328 
Q 3647 1150 3233 529 
Q 2819 -91 2034 -91 
Q 1250 -91 836 529 
Q 422 1150 422 2328 
Q 422 3509 836 4129 
Q 1250 4750 2034 4750 
z
" transform="scale(0.015625)"/>
        <path id="DejaVuSans-2e" d="M 684 794 
L 1344 794 
L 1344 0 
L 684 0 
L 684 794 
z
" transform="scale(0.015625)"/>
       </defs>
       <use xlink:href="#DejaVuSans-30"/>
       <use xlink:href="#DejaVuSans-2e" x="63.623047"/>
       <use xlink:href="#DejaVuSans-30" x="95.410156"/>
      </g>
     </g>
    </g>
    <g id="xtick_2">
     <g id="line2d_3">
      <path d="M 98.174096 310.956 
L 98.174096 25.16 
" clip-path="url(#p47cbf228d2)" style="fill: none; stroke: #b0b0b0; stroke-opacity: 0.3; stroke-width: 0.8; stroke-linecap: square"/>
     </g>
     <g id="line2d_4">
      <g>
       <use xlink:href="#m29d74aa342" x="98.174096" y="310.956" style="stroke: #000000; stroke-width: 0.8"/>
      </g>
     </g>
     <g id="text_2">
      <!-- 2.5 -->
      <g transform="translate(90.222533 325.554437) scale(0.1 -0.1)">
       <defs>
        <path id="DejaVuSans-32" d="M 1228 531 
L 3431 531 
L 3431 0 
L 469 0 
L 469 531 
Q 828 903 1448 1529 
Q 2069 2156 2228 2338 
Q 2531 2678 2651 2914 
Q 2772 3150 2772 3378 
Q 2772 3750 2511 3984 
Q 2250 4219 1831 4219 
Q 1534 4219 1204 4116 
Q 875 4013 500 3803 
L 500 4441 
Q 881 4594 1212 4672 
Q 1544 4750 1819 4750 
Q 2544 4750 2975 4387 
Q 3406 4025 3406 3419 
Q 3406 3131 3298 2873 
Q 3191 2616 2906 2266 
Q 2828 2175 2409 1742 
Q 1991 1309 1228 531 
z
" transform="scale(0.015625)"/>
        <path id="DejaVuSans-35" d="M 691 4666 
L 3169 4666 
L 3169 4134 
L 1269 4134 
L 1269 2991 
Q 1406 3038 1543 3061 
Q 1681 3084 1819 3084 
Q 2600 3084 3056 2656 
Q 3513 2228 3513 1497 
Q 3513 744 3044 326 
Q 2575 -91 1722 -91 
Q 1428 -91 1123 -41 
Q 819 9 494 109 
L 494 744 
Q 775 591 1075 516 
Q 1375 441 1709 441 
Q 2250 441 2565 725 
Q 2881 1009 2881 1497 
Q 2881 1984 2565 2268 
Q 2250 2553 1709 2553 
Q 1456 2553 1204 2497 
Q 953 2441 691 2322 
L 691 4666 
z
" transform="scale(0.015625)"/>
       </defs>
       <use xlink:href="#DejaVuSans-32"/>
       <use xlink:href="#DejaVuSans-2e" x="63.623047"/>
       <use xlink:href="#DejaVuSans-35" x="95.410156"/>
      </g>
     </g>
    </g>
    <g id="xtick_3">
     <g id="line2d_5">
      <path d="M 143.301004 310.956 
L 143.301004 25.16 
" clip-path="url(#p47cbf228d2)" style="fill: none; stroke: #b0b0b0; stroke-opacity: 0.3; stroke-width: 0.8; stroke-linecap: square"/>
     </g>
     <g id="line2d_6">
      <g>
       <use xlink:href="#m29d74aa342" x="143.301004" y="310.956" style="stroke: #000000; stroke-width: 0.8"/>
      </g>
     </g>
     <g id="text_3">
      <!-- 5.0 -->
      <g transform="translate(135.349442 325.554437) scale(0.1 -0.1)">
       <use xlink:href="#DejaVuSans-35"/>
       <use xlink:href="#DejaVuSans-2e" x="63.623047"/>
       <use xlink:href="#DejaVuSans-30" x="95.410156"/>
      </g>
     </g>
    </g>
    <g id="xtick_4">
     <g id="line2d_7">
      <path d="M 188.427913 310.956 
L 188.427913 25.16 
" clip-path="url(#p47cbf228d2)" style="fill: none; stroke: #b0b0b0; stroke-opacity: 0.3; stroke-width: 0.8; stroke-linecap: square"/>
     </g>
     <g id="line2d_8">
      <g>
       <use xlink:href="#m29d74aa342" x="188.427913" y="310.956" style="stroke: #000000; stroke-width: 0.8"/>
      </g>
     </g>
     <g id="text_4">
      <!-- 7.5 -->
      <g transform="translate(180.47635 325.554437) scale(0.1 -0.1)">
       <defs>
        <path id="DejaVuSans-37" d="M 525 4666 
L 3525 4666 
L 3525 4397 
L 1831 0 
L 1172 0 
L 2766 4134 
L 525 4134 
L 525 4666 
z
" transform="scale(0.015625)"/>
       </defs>
       <use xlink:href="#DejaVuSans-37"/>
       <use xlink:href="#DejaVuSans-2e" x="63.623047"/>
       <use xlink:href="#DejaVuSans-35" x="95.410156"/>
      </g>
     </g>
    </g>
    <g id="xtick_5">
     <g id="line2d_9">
      <path d="M 233.554821 310.956 
L 233.554821 25.16 
" clip-path="url(#p47cbf228d2)" style="fill: none; stroke: #b0b0b0; stroke-opacity: 0.3; stroke-width: 0.8; stroke-linecap: square"/>
     </g>
     <g id="line2d_10">
      <g>
       <use xlink:href="#m29d74aa342" x="233.554821" y="310.956" style="stroke: #000000; stroke-width: 0.8"/>
      </g>
     </g>
     <g id="text_5">
      <!-- 10.0 -->
      <g transform="translate(222.422009 325.554437) scale(0.1 -0.1)">
       <defs>
        <path id="DejaVuSans-31" d="M 794 531 
L 1825 531 
L 1825 4091 
L 703 3866 
L 703 4441 
L 1819 4666 
L 2450 4666 
L 2450 531 
L 3481 531 
L 3481 0 
L 794 0 
L 794 531 
z
" transform="scale(0.015625)"/>
       </defs>
       <use xlink:href="#DejaVuSans-31"/>
       <use xlink:href="#DejaVuSans-30" x="63.623047"/>
       <use xlink:href="#DejaVuSans-2e" x="127.246094"/>
       <use xlink:href="#DejaVuSans-30" x="159.033203"/>
      </g>
     </g>
    </g>
    <g id="xtick_6">
     <g id="line2d_11">
      <path d="M 278.68173 310.956 
L 278.68173 25.16 
" clip-path="url(#p47cbf228d2)" style="fill: none; stroke: #b0b0b0; stroke-opacity: 0.3; stroke-width: 0.8; stroke-linecap: square"/>
     </g>
     <g id="line2d_12">
      <g>
       <use xlink:href="#m29d74aa342" x="278.68173" y="310.956" style="stroke: #000000; stroke-width: 0.8"/>
      </g>
     </g>
     <g id="text_6">
      <!-- 12.5 -->
      <g transform="translate(267.548917 325.554437) scale(0.1 -0.1)">
       <use xlink:href="#DejaVuSans-31"/>
       <use xlink:href="#DejaVuSans-32" x="63.623047"/>
       <use xlink:href="#DejaVuSans-2e" x="127.246094"/>
       <use xlink:href="#DejaVuSans-35" x="159.033203"/>
      </g>
     </g>
    </g>
    <g id="xtick_7">
     <g id="line2d_13">
      <path d="M 323.808638 310.956 
L 323.808638 25.16 
" clip-path="url(#p47cbf228d2)" style="fill: none; stroke: #b0b0b0; stroke-opacity: 0.3; stroke-width: 0.8; stroke-linecap: square"/>
     </g>
     <g id="line2d_14">
      <g>
       <use xlink:href="#m29d74aa342" x="323.808638" y="310.956" style="stroke: #000000; stroke-width: 0.8"/>
      </g>
     </g>
     <g id="text_7">
      <!-- 15.0 -->
      <g transform="translate(312.675826 325.554437) scale(0.1 -0.1)">
       <use xlink:href="#DejaVuSans-31"/>
       <use xlink:href="#DejaVuSans-35" x="63.623047"/>
       <use xlink:href="#DejaVuSans-2e" x="127.246094"/>
       <use xlink:href="#DejaVuSans-30" x="159.033203"/>
      </g>
     </g>
    </g>
    <g id="xtick_8">
     <g id="line2d_15">
      <path d="M 368.935547 310.956 
L 368.935547 25.16 
" clip-path="url(#p47cbf228d2)" style="fill: none; stroke: #b0b0b0; stroke-opacity: 0.3; stroke-width: 0.8; stroke-linecap: square"/>
     </g>
     <g id="line2d_16">
      <g>
       <use xlink:href="#m29d74aa342" x="368.935547" y="310.956" style="stroke: #000000; stroke-width: 0.8"/>
      </g>
     </g>
     <g id="text_8">
      <!-- 17.5 -->
      <g transform="translate(357.802734 325.554437) scale(0.1 -0.1)">
       <use xlink:href="#DejaVuSans-31"/>
       <use xlink:href="#DejaVuSans-37" x="63.623047"/>
       <use xlink:href="#DejaVuSans-2e" x="127.246094"/>
       <use xlink:href="#DejaVuSans-35" x="159.033203"/>
      </g>
     </g>
    </g>
    <g id="xtick_9">
     <g id="line2d_17">
      <path d="M 414.062455 310.956 
L 414.062455 25.16 
" clip-path="url(#p47cbf228d2)" style="fill: none; stroke: #b0b0b0; stroke-opacity: 0.3; stroke-width: 0.8; stroke-linecap: square"/>
     </g>
     <g id="line2d_18">
      <g>
       <use xlink:href="#m29d74aa342" x="414.062455" y="310.956" style="stroke: #000000; stroke-width: 0.8"/>
      </g>
     </g>
     <g id="text_9">
      <!-- 20.0 -->
      <g transform="translate(402.929643 325.554437) scale(0.1 -0.1)">
       <use xlink:href="#DejaVuSans-32"/>
       <use xlink:href="#DejaVuSans-30" x="63.623047"/>
       <use xlink:href="#DejaVuSans-2e" x="127.246094"/>
       <use xlink:href="#DejaVuSans-30" x="159.033203"/>
      </g>
     </g>
    </g>
    <g id="text_10">
     <!-- Lattice size $L$ -->
     <g transform="translate(191.109821 341.512094) scale(0.13 -0.13)">
      <defs>
       <path id="DejaVuSans-4c" d="M 628 4666 
L 1259 4666 
L 1259 531 
L 3531 531 
L 3531 0 
L 628 0 
L 628 4666 
z
" transform="scale(0.015625)"/>
       <path id="DejaVuSans-61" d="M 2194 1759 
Q 1497 1759 1228 1600 
Q 959 1441 959 1056 
Q 959 750 1161 570 
Q 1363 391 1709 391 
Q 2188 391 2477 730 
Q 2766 1069 2766 1631 
L 2766 1759 
L 2194 1759 
z
M 3341 1997 
L 3341 0 
L 2766 0 
L 2766 531 
Q 2569 213 2275 61 
Q 1981 -91 1556 -91 
Q 1019 -91 701 211 
Q 384 513 384 1019 
Q 384 1609 779 1909 
Q 1175 2209 1959 2209 
L 2766 2209 
L 2766 2266 
Q 2766 2663 2505 2880 
Q 2244 3097 1772 3097 
Q 1472 3097 1187 3025 
Q 903 2953 641 2809 
L 641 3341 
Q 956 3463 1253 3523 
Q 1550 3584 1831 3584 
Q 2591 3584 2966 3190 
Q 3341 2797 3341 1997 
z
" transform="scale(0.015625)"/>
       <path id="DejaVuSans-74" d="M 1172 4494 
L 1172 3500 
L 2356 3500 
L 2356 3053 
L 1172 3053 
L 1172 1153 
Q 1172 725 1289 603 
Q 1406 481 1766 481 
L 2356 481 
L 2356 0 
L 1766 0 
Q 1100 0 847 248 
Q 594 497 594 1153 
L 594 3053 
L 172 3053 
L 172 3500 
L 594 3500 
L 594 4494 
L 1172 4494 
z
" transform="scale(0.015625)"/>
       <path id="DejaVuSans-69" d="M 603 3500 
L 1178 3500 
L 1178 0 
L 603 0 
L 603 3500 
z
M 603 4863 
L 1178 4863 
L 1178 4134 
L 603 4134 
L 603 4863 
z
" transform="scale(0.015625)"/>
       <path id="DejaVuSans-63" d="M 3122 3366 
L 3122 2828 
Q 2878 2963 2633 3030 
Q 2388 3097 2138 3097 
Q 1578 3097 1268 2742 
Q 959 2388 959 1747 
Q 959 1106 1268 751 
Q 1578 397 2138 397 
Q 2388 397 2633 464 
Q 2878 531 3122 666 
L 3122 134 
Q 2881 22 2623 -34 
Q 2366 -91 2075 -91 
Q 1284 -91 818 406 
Q 353 903 353 1747 
Q 353 2603 823 3093 
Q 1294 3584 2113 3584 
Q 2378 3584 2631 3529 
Q 2884 3475 3122 3366 
z
" transform="scale(0.015625)"/>
       <path id="DejaVuSans-65" d="M 3597 1894 
L 3597 1613 
L 953 1613 
Q 991 1019 1311 708 
Q 1631 397 2203 397 
Q 2534 397 2845 478 
Q 3156 559 3463 722 
L 3463 178 
Q 3153 47 2828 -22 
Q 2503 -91 2169 -91 
Q 1331 -91 842 396 
Q 353 884 353 1716 
Q 353 2575 817 3079 
Q 1281 3584 2069 3584 
Q 2775 3584 3186 3129 
Q 3597 2675 3597 1894 
z
M 3022 2063 
Q 3016 2534 2758 2815 
Q 2500 3097 2075 3097 
Q 1594 3097 1305 2825 
Q 1016 2553 972 2059 
L 3022 2063 
z
" transform="scale(0.015625)"/>
       <path id="DejaVuSans-20" transform="scale(0.015625)"/>
       <path id="DejaVuSans-73" d="M 2834 3397 
L 2834 2853 
Q 2591 2978 2328 3040 
Q 2066 3103 1784 3103 
Q 1356 3103 1142 2972 
Q 928 2841 928 2578 
Q 928 2378 1081 2264 
Q 1234 2150 1697 2047 
L 1894 2003 
Q 2506 1872 2764 1633 
Q 3022 1394 3022 966 
Q 3022 478 2636 193 
Q 2250 -91 1575 -91 
Q 1294 -91 989 -36 
Q 684 19 347 128 
L 347 722 
Q 666 556 975 473 
Q 1284 391 1588 391 
Q 1994 391 2212 530 
Q 2431 669 2431 922 
Q 2431 1156 2273 1281 
Q 2116 1406 1581 1522 
L 1381 1569 
Q 847 1681 609 1914 
Q 372 2147 372 2553 
Q 372 3047 722 3315 
Q 1072 3584 1716 3584 
Q 2034 3584 2315 3537 
Q 2597 3491 2834 3397 
z
" transform="scale(0.015625)"/>
       <path id="DejaVuSans-7a" d="M 353 3500 
L 3084 3500 
L 3084 2975 
L 922 459 
L 3084 459 
L 3084 0 
L 275 0 
L 275 525 
L 2438 3041 
L 353 3041 
L 353 3500 
z
" transform="scale(0.015625)"/>
       <path id="DejaVuSans-Oblique-4c" d="M 1075 4666 
L 1709 4666 
L 909 525 
L 3181 525 
L 3078 0 
L 172 0 
L 1075 4666 
z
" transform="scale(0.015625)"/>
      </defs>
      <use xlink:href="#DejaVuSans-4c" transform="translate(0 0.015625)"/>
      <use xlink:href="#DejaVuSans-61" transform="translate(55.712891 0.015625)"/>
      <use xlink:href="#DejaVuSans-74" transform="translate(116.992188 0.015625)"/>
      <use xlink:href="#DejaVuSans-74" transform="translate(156.201172 0.015625)"/>
      <use xlink:href="#DejaVuSans-69" transform="translate(195.410156 0.015625)"/>
      <use xlink:href="#DejaVuSans-63" transform="translate(223.193359 0.015625)"/>
      <use xlink:href="#DejaVuSans-65" transform="translate(278.173828 0.015625)"/>
      <use xlink:href="#DejaVuSans-20" transform="translate(339.697266 0.015625)"/>
      <use xlink:href="#DejaVuSans-73" transform="translate(371.484375 0.015625)"/>
      <use xlink:href="#DejaVuSans-69" transform="translate(423.583984 0.015625)"/>
      <use xlink:href="#DejaVuSans-7a" transform="translate(451.367188 0.015625)"/>
      <use xlink:href="#DejaVuSans-65" transform="translate(503.857422 0.015625)"/>
      <use xlink:href="#DejaVuSans-20" transform="translate(565.380859 0.015625)"/>
      <use xlink:href="#DejaVuSans-Oblique-4c" transform="translate(597.167969 0.015625)"/>
     </g>
    </g>
   </g>
   <g id="matplotlib.axis_2">
    <g id="ytick_1">
     <g id="line2d_19">
      <path d="M 53.047188 295.903897 
L 414.062455 295.903897 
" clip-path="url(#p47cbf228d2)" style="fill: none; stroke: #b0b0b0; stroke-opacity: 0.3; stroke-width: 0.8; stroke-linecap: square"/>
     </g>
     <g id="line2d_20">
      <defs>
       <path id="mf0c6ab7c6e" d="M 0 0 
L -3.5 0 
" style="stroke: #000000; stroke-width: 0.8"/>
      </defs>
      <g>
       <use xlink:href="#mf0c6ab7c6e" x="53.047188" y="295.903897" style="stroke: #000000; stroke-width: 0.8"/>
      </g>
     </g>
     <g id="text_11">
      <!-- 0.58 -->
      <g transform="translate(23.781563 299.703116) scale(0.1 -0.1)">
       <defs>
        <path id="DejaVuSans-38" d="M 2034 2216 
Q 1584 2216 1326 1975 
Q 1069 1734 1069 1313 
Q 1069 891 1326 650 
Q 1584 409 2034 409 
Q 2484 409 2743 651 
Q 3003 894 3003 1313 
Q 3003 1734 2745 1975 
Q 2488 2216 2034 2216 
z
M 1403 2484 
Q 997 2584 770 2862 
Q 544 3141 544 3541 
Q 544 4100 942 4425 
Q 1341 4750 2034 4750 
Q 2731 4750 3128 4425 
Q 3525 4100 3525 3541 
Q 3525 3141 3298 2862 
Q 3072 2584 2669 2484 
Q 3125 2378 3379 2068 
Q 3634 1759 3634 1313 
Q 3634 634 3220 271 
Q 2806 -91 2034 -91 
Q 1263 -91 848 271 
Q 434 634 434 1313 
Q 434 1759 690 2068 
Q 947 2378 1403 2484 
z
M 1172 3481 
Q 1172 3119 1398 2916 
Q 1625 2713 2034 2713 
Q 2441 2713 2670 2916 
Q 2900 3119 2900 3481 
Q 2900 3844 2670 4047 
Q 2441 4250 2034 4250 
Q 1625 4250 1398 4047 
Q 1172 3844 1172 3481 
z
" transform="scale(0.015625)"/>
       </defs>
       <use xlink:href="#DejaVuSans-30"/>
       <use xlink:href="#DejaVuSans-2e" x="63.623047"/>
       <use xlink:href="#DejaVuSans-35" x="95.410156"/>
       <use xlink:href="#DejaVuSans-38" x="159.033203"/>
      </g>
     </g>
    </g>
    <g id="ytick_2">
     <g id="line2d_21">
      <path d="M 53.047188 236.422397 
L 414.062455 236.422397 
" clip-path="url(#p47cbf228d2)" style="fill: none; stroke: #b0b0b0; stroke-opacity: 0.3; stroke-width: 0.8; stroke-linecap: square"/>
     </g>
     <g id="line2d_22">
      <g>
       <use xlink:href="#mf0c6ab7c6e" x="53.047188" y="236.422397" style="stroke: #000000; stroke-width: 0.8"/>
      </g>
     </g>
     <g id="text_12">
      <!-- 0.60 -->
      <g transform="translate(23.781563 240.221615) scale(0.1 -0.1)">
       <defs>
        <path id="DejaVuSans-36" d="M 2113 2584 
Q 1688 2584 1439 2293 
Q 1191 2003 1191 1497 
Q 1191 994 1439 701 
Q 1688 409 2113 409 
Q 2538 409 2786 701 
Q 3034 994 3034 1497 
Q 3034 2003 2786 2293 
Q 2538 2584 2113 2584 
z
M 3366 4563 
L 3366 3988 
Q 3128 4100 2886 4159 
Q 2644 4219 2406 4219 
Q 1781 4219 1451 3797 
Q 1122 3375 1075 2522 
Q 1259 2794 1537 2939 
Q 1816 3084 2150 3084 
Q 2853 3084 3261 2657 
Q 3669 2231 3669 1497 
Q 3669 778 3244 343 
Q 2819 -91 2113 -91 
Q 1303 -91 875 529 
Q 447 1150 447 2328 
Q 447 3434 972 4092 
Q 1497 4750 2381 4750 
Q 2619 4750 2861 4703 
Q 3103 4656 3366 4563 
z
" transform="scale(0.015625)"/>
       </defs>
       <use xlink:href="#DejaVuSans-30"/>
       <use xlink:href="#DejaVuSans-2e" x="63.623047"/>
       <use xlink:href="#DejaVuSans-36" x="95.410156"/>
       <use xlink:href="#DejaVuSans-30" x="159.033203"/>
      </g>
     </g>
    </g>
    <g id="ytick_3">
     <g id="line2d_23">
      <path d="M 53.047188 176.940896 
L 414.062455 176.940896 
" clip-path="url(#p47cbf228d2)" style="fill: none; stroke: #b0b0b0; stroke-opacity: 0.3; stroke-width: 0.8; stroke-linecap: square"/>
     </g>
     <g id="line2d_24">
      <g>
       <use xlink:href="#mf0c6ab7c6e" x="53.047188" y="176.940896" style="stroke: #000000; stroke-width: 0.8"/>
      </g>
     </g>
     <g id="text_13">
      <!-- 0.62 -->
      <g transform="translate(23.781563 180.740115) scale(0.1 -0.1)">
       <use xlink:href="#DejaVuSans-30"/>
       <use xlink:href="#DejaVuSans-2e" x="63.623047"/>
       <use xlink:href="#DejaVuSans-36" x="95.410156"/>
       <use xlink:href="#DejaVuSans-32" x="159.033203"/>
      </g>
     </g>
    </g>
    <g id="ytick_4">
     <g id="line2d_25">
      <path d="M 53.047188 117.459395 
L 414.062455 117.459395 
" clip-path="url(#p47cbf228d2)" style="fill: none; stroke: #b0b0b0; stroke-opacity: 0.3; stroke-width: 0.8; stroke-linecap: square"/>
     </g>
     <g id="line2d_26">
      <g>
       <use xlink:href="#mf0c6ab7c6e" x="53.047188" y="117.459395" style="stroke: #000000; stroke-width: 0.8"/>
      </g>
     </g>
     <g id="text_14">
      <!-- 0.64 -->
      <g transform="translate(23.781563 121.258614) scale(0.1 -0.1)">
       <defs>
        <path id="DejaVuSans-34" d="M 2419 4116 
L 825 1625 
L 2419 1625 
L 2419 4116 
z
M 2253 4666 
L 3047 4666 
L 3047 1625 
L 3713 1625 
L 3713 1100 
L 3047 1100 
L 3047 0 
L 2419 0 
L 2419 1100 
L 313 1100 
L 313 1709 
L 2253 4666 
z
" transform="scale(0.015625)"/>
       </defs>
       <use xlink:href="#DejaVuSans-30"/>
       <use xlink:href="#DejaVuSans-2e" x="63.623047"/>
       <use xlink:href="#DejaVuSans-36" x="95.410156"/>
       <use xlink:href="#DejaVuSans-34" x="159.033203"/>
      </g>
     </g>
    </g>
    <g id="ytick_5">
     <g id="line2d_27">
      <path d="M 53.047188 57.977894 
L 414.062455 57.977894 
" clip-path="url(#p47cbf228d2)" style="fill: none; stroke: #b0b0b0; stroke-opacity: 0.3; stroke-width: 0.8; stroke-linecap: square"/>
     </g>
     <g id="line2d_28">
      <g>
       <use xlink:href="#mf0c6ab7c6e" x="53.047188" y="57.977894" style="stroke: #000000; stroke-width: 0.8"/>
      </g>
     </g>
     <g id="text_15">
      <!-- 0.66 -->
      <g transform="translate(23.781563 61.777113) scale(0.1 -0.1)">
       <use xlink:href="#DejaVuSans-30"/>
       <use xlink:href="#DejaVuSans-2e" x="63.623047"/>
       <use xlink:href="#DejaVuSans-36" x="95.410156"/>
       <use xlink:href="#DejaVuSans-36" x="159.033203"/>
      </g>
     </g>
    </g>
    <g id="text_16">
     <!-- $U_{\min}(L)$ -->
     <g transform="translate(17.077969 190.288) rotate(-90) scale(0.13 -0.13)">
      <defs>
       <path id="DejaVuSans-Oblique-55" d="M 991 4666 
L 1625 4666 
L 1075 1831 
Q 1041 1641 1027 1517 
Q 1013 1394 1013 1300 
Q 1013 869 1253 645 
Q 1494 422 1959 422 
Q 2563 422 2898 753 
Q 3234 1084 3378 1831 
L 3928 4666 
L 4563 4666 
L 4000 1753 
Q 3816 809 3300 359 
Q 2784 -91 1888 -91 
Q 1188 -91 780 261 
Q 372 613 372 1216 
Q 372 1325 387 1461 
Q 403 1597 434 1753 
L 991 4666 
z
" transform="scale(0.015625)"/>
       <path id="DejaVuSans-6d" d="M 3328 2828 
Q 3544 3216 3844 3400 
Q 4144 3584 4550 3584 
Q 5097 3584 5394 3201 
Q 5691 2819 5691 2113 
L 5691 0 
L 5113 0 
L 5113 2094 
Q 5113 2597 4934 2840 
Q 4756 3084 4391 3084 
Q 3944 3084 3684 2787 
Q 3425 2491 3425 1978 
L 3425 0 
L 2847 0 
L 2847 2094 
Q 2847 2600 2669 2842 
Q 2491 3084 2119 3084 
Q 1678 3084 1418 2786 
Q 1159 2488 1159 1978 
L 1159 0 
L 581 0 
L 581 3500 
L 1159 3500 
L 1159 2956 
Q 1356 3278 1631 3431 
Q 1906 3584 2284 3584 
Q 2666 3584 2933 3390 
Q 3200 3197 3328 2828 
z
" transform="scale(0.015625)"/>
       <path id="DejaVuSans-6e" d="M 3513 2113 
L 3513 0 
L 2938 0 
L 2938 2094 
Q 2938 2591 2744 2837 
Q 2550 3084 2163 3084 
Q 1697 3084 1428 2787 
Q 1159 2491 1159 1978 
L 1159 0 
L 581 0 
L 581 3500 
L 1159 3500 
L 1159 2956 
Q 1366 3272 1645 3428 
Q 1925 3584 2291 3584 
Q 2894 3584 3203 3211 
Q 3513 2838 3513 2113 
z
" transform="scale(0.015625)"/>
       <path id="DejaVuSans-28" d="M 1984 4856 
Q 1566 4138 1362 3434 
Q 1159 2731 1159 2009 
Q 1159 1288 1364 580 
Q 1569 -128 1984 -844 
L 1484 -844 
Q 1016 -109 783 600 
Q 550 1309 550 2009 
Q 550 2706 781 3412 
Q 1013 4119 1484 4856 
L 1984 4856 
z
" transform="scale(0.015625)"/>
       <path id="DejaVuSans-29" d="M 513 4856 
L 1013 4856 
Q 1481 4119 1714 3412 
Q 1947 2706 1947 2009 
Q 1947 1309 1714 600 
Q 1481 -109 1013 -844 
L 513 -844 
Q 928 -128 1133 580 
Q 1338 1288 1338 2009 
Q 1338 2731 1133 3434 
Q 928 4138 513 4856 
z
" transform="scale(0.015625)"/>
      </defs>
      <use xlink:href="#DejaVuSans-Oblique-55" transform="translate(0 0.125)"/>
      <use xlink:href="#DejaVuSans-6d" transform="translate(73.193359 -16.28125) scale(0.7)"/>
      <use xlink:href="#DejaVuSans-69" transform="translate(141.381836 -16.28125) scale(0.7)"/>
      <use xlink:href="#DejaVuSans-6e" transform="translate(160.830078 -16.28125) scale(0.7)"/>
      <use xlink:href="#DejaVuSans-28" transform="translate(207.929688 0.125)"/>
      <use xlink:href="#DejaVuSans-Oblique-4c" transform="translate(246.943359 0.125)"/>
      <use xlink:href="#DejaVuSans-29" transform="translate(302.65625 0.125)"/>
     </g>
    </g>
   </g>
   <g id="line2d_29">
    <path d="M 125.250241 135.464098 
L 161.351768 66.249252 
L 197.453295 49.614843 
" clip-path="url(#p47cbf228d2)" style="fill: none; stroke: #000000; stroke-width: 2; stroke-linecap: square"/>
    <defs>
     <path id="m69ac1d2c37" d="M 0 5 
C 1.326016 5 2.597899 4.473168 3.535534 3.535534 
C 4.473168 2.597899 5 1.326016 5 0 
C 5 -1.326016 4.473168 -2.597899 3.535534 -3.535534 
C 2.597899 -4.473168 1.326016 -5 0 -5 
C -1.326016 -5 -2.597899 -4.473168 -3.535534 -3.535534 
C -4.473168 -2.597899 -5 -1.326016 -5 0 
C -5 1.326016 -4.473168 2.597899 -3.535534 3.535534 
C -2.597899 4.473168 -1.326016 5 0 5 
z
" style="stroke: #000000"/>
    </defs>
    <g clip-path="url(#p47cbf228d2)">
     <use xlink:href="#m69ac1d2c37" x="125.250241" y="135.464098" style="stroke: #000000"/>
     <use xlink:href="#m69ac1d2c37" x="161.351768" y="66.249252" style="stroke: #000000"/>
     <use xlink:href="#m69ac1d2c37" x="197.453295" y="49.614843" style="stroke: #000000"/>
    </g>
   </g>
   <g id="line2d_30">
    <path d="M 53.047188 38.150727 
L 414.062455 38.150727 
" clip-path="url(#p47cbf228d2)" style="fill: none; stroke-dasharray: 2,3.3; stroke-dashoffset: 0; stroke: #808080; stroke-opacity: 0.7; stroke-width: 2"/>
   </g>
   <g id="line2d_31">
    <path d="M 107.199478 297.965273 
L 110.299104 258.009533 
L 113.39873 225.844052 
L 116.498356 199.659113 
L 119.597982 178.126932 
L 122.697608 160.258334 
L 125.797234 145.306142 
L 128.89686 132.69883 
L 131.996486 121.994173 
L 135.096112 112.84637 
L 138.195738 104.982375 
L 141.295364 98.18465 
L 144.39499 92.278434 
L 147.494616 87.122241 
L 150.594242 82.600696 
L 153.693868 78.619085 
L 156.793494 75.099159 
L 159.89312 71.975895 
L 162.992746 69.194956 
L 166.092372 66.710697 
L 169.191998 64.484587 
L 172.291624 62.483946 
L 175.39125 60.680938 
L 178.490877 59.051748 
L 181.590503 57.575925 
L 184.690129 56.23584 
L 187.789755 55.016238 
L 190.889381 53.903878 
L 193.989007 52.887227 
L 197.088633 51.956208 
L 200.188259 51.101993 
L 203.287885 50.316821 
L 206.387511 49.593857 
L 209.487137 48.927059 
L 212.586763 48.311077 
L 215.686389 47.741161 
L 218.786015 47.213084 
L 221.885641 46.723076 
L 224.985267 46.267768 
L 228.084893 45.844141 
L 231.184519 45.449488 
L 234.284145 45.081372 
L 237.383771 44.737601 
L 240.483397 44.416195 
L 243.583023 44.115363 
L 246.682649 43.833487 
L 249.782275 43.569095 
L 252.881901 43.320854 
L 255.981527 43.087548 
L 259.081153 42.868071 
L 262.18078 42.661413 
L 265.280406 42.466652 
L 268.380032 42.282944 
L 271.479658 42.109516 
L 274.579284 41.945659 
L 277.67891 41.790721 
L 280.778536 41.644105 
L 283.878162 41.505257 
L 286.977788 41.373672 
L 290.077414 41.248879 
L 293.17704 41.130447 
L 296.276666 41.017976 
L 299.376292 40.911094 
L 302.475918 40.809459 
L 305.575544 40.712753 
L 308.67517 40.620681 
L 311.774796 40.532968 
L 314.874422 40.449359 
L 317.974048 40.369618 
L 321.073674 40.293523 
L 324.1733 40.220868 
L 327.272926 40.151461 
L 330.372552 40.085122 
L 333.472178 40.021684 
L 336.571804 39.96099 
L 339.67143 39.902893 
L 342.771056 39.847256 
L 345.870683 39.793949 
L 348.970309 39.742853 
L 352.069935 39.693853 
L 355.169561 39.646843 
L 358.269187 39.601724 
L 361.368813 39.558401 
L 364.468439 39.516785 
L 367.568065 39.476794 
L 370.667691 39.438349 
L 373.767317 39.401376 
L 376.866943 39.365805 
L 379.966569 39.33157 
L 383.066195 39.298609 
L 386.165821 39.266863 
L 389.265447 39.236278 
L 392.365073 39.2068 
L 395.464699 39.178379 
L 398.564325 39.150969 
L 401.663951 39.124526 
L 404.763577 39.099006 
L 407.863203 39.074371 
L 410.962829 39.050581 
L 414.062455 39.027601 
" clip-path="url(#p47cbf228d2)" style="fill: none; stroke-dasharray: 5.55,2.4; stroke-dashoffset: 0; stroke: #ff0000; stroke-opacity: 0.7; stroke-width: 1.5"/>
   </g>
   <g id="patch_3">
    <path d="M 53.047188 310.956 
L 53.047188 25.16 
" style="fill: none; stroke: #000000; stroke-width: 0.8; stroke-linejoin: miter; stroke-linecap: square"/>
   </g>
   <g id="patch_4">
    <path d="M 414.062455 310.956 
L 414.062455 25.16 
" style="fill: none; stroke: #000000; stroke-width: 0.8; stroke-linejoin: miter; stroke-linecap: square"/>
   </g>
   <g id="patch_5">
    <path d="M 53.047188 310.956 
L 414.062455 310.956 
" style="fill: none; stroke: #000000; stroke-width: 0.8; stroke-linejoin: miter; stroke-linecap: square"/>
   </g>
   <g id="patch_6">
    <path d="M 53.047188 25.16 
L 414.062455 25.16 
" style="fill: none; stroke: #000000; stroke-width: 0.8; stroke-linejoin: miter; stroke-linecap: square"/>
   </g>
   <g id="text_17">
    <!-- Binder Minimum Depth vs $L$ (first-order scaling) -->
    <g transform="translate(78.789821 19.16) scale(0.13 -0.13)">
     <defs>
      <path id="DejaVuSans-42" d="M 1259 2228 
L 1259 519 
L 2272 519 
Q 2781 519 3026 730 
Q 3272 941 3272 1375 
Q 3272 1813 3026 2020 
Q 2781 2228 2272 2228 
L 1259 2228 
z
M 1259 4147 
L 1259 2741 
L 2194 2741 
Q 2656 2741 2882 2914 
Q 3109 3088 3109 3444 
Q 3109 3797 2882 3972 
Q 2656 4147 2194 4147 
L 1259 4147 
z
M 628 4666 
L 2241 4666 
Q 2963 4666 3353 4366 
Q 3744 4066 3744 3513 
Q 3744 3084 3544 2831 
Q 3344 2578 2956 2516 
Q 3422 2416 3680 2098 
Q 3938 1781 3938 1306 
Q 3938 681 3513 340 
Q 3088 0 2303 0 
L 628 0 
L 628 4666 
z
" transform="scale(0.015625)"/>
      <path id="DejaVuSans-64" d="M 2906 2969 
L 2906 4863 
L 3481 4863 
L 3481 0 
L 2906 0 
L 2906 525 
Q 2725 213 2448 61 
Q 2172 -91 1784 -91 
Q 1150 -91 751 415 
Q 353 922 353 1747 
Q 353 2572 751 3078 
Q 1150 3584 1784 3584 
Q 2172 3584 2448 3432 
Q 2725 3281 2906 2969 
z
M 947 1747 
Q 947 1113 1208 752 
Q 1469 391 1925 391 
Q 2381 391 2643 752 
Q 2906 1113 2906 1747 
Q 2906 2381 2643 2742 
Q 2381 3103 1925 3103 
Q 1469 3103 1208 2742 
Q 947 2381 947 1747 
z
" transform="scale(0.015625)"/>
      <path id="DejaVuSans-72" d="M 2631 2963 
Q 2534 3019 2420 3045 
Q 2306 3072 2169 3072 
Q 1681 3072 1420 2755 
Q 1159 2438 1159 1844 
L 1159 0 
L 581 0 
L 581 3500 
L 1159 3500 
L 1159 2956 
Q 1341 3275 1631 3429 
Q 1922 3584 2338 3584 
Q 2397 3584 2469 3576 
Q 2541 3569 2628 3553 
L 2631 2963 
z
" transform="scale(0.015625)"/>
      <path id="DejaVuSans-4d" d="M 628 4666 
L 1569 4666 
L 2759 1491 
L 3956 4666 
L 4897 4666 
L 4897 0 
L 4281 0 
L 4281 4097 
L 3078 897 
L 2444 897 
L 1241 4097 
L 1241 0 
L 628 0 
L 628 4666 
z
" transform="scale(0.015625)"/>
      <path id="DejaVuSans-75" d="M 544 1381 
L 544 3500 
L 1119 3500 
L 1119 1403 
Q 1119 906 1312 657 
Q 1506 409 1894 409 
Q 2359 409 2629 706 
Q 2900 1003 2900 1516 
L 2900 3500 
L 3475 3500 
L 3475 0 
L 2900 0 
L 2900 538 
Q 2691 219 2414 64 
Q 2138 -91 1772 -91 
Q 1169 -91 856 284 
Q 544 659 544 1381 
z
M 1991 3584 
L 1991 3584 
z
" transform="scale(0.015625)"/>
      <path id="DejaVuSans-44" d="M 1259 4147 
L 1259 519 
L 2022 519 
Q 2988 519 3436 956 
Q 3884 1394 3884 2338 
Q 3884 3275 3436 3711 
Q 2988 4147 2022 4147 
L 1259 4147 
z
M 628 4666 
L 1925 4666 
Q 3281 4666 3915 4102 
Q 4550 3538 4550 2338 
Q 4550 1131 3912 565 
Q 3275 0 1925 0 
L 628 0 
L 628 4666 
z
" transform="scale(0.015625)"/>
      <path id="DejaVuSans-70" d="M 1159 525 
L 1159 -1331 
L 581 -1331 
L 581 3500 
L 1159 3500 
L 1159 2969 
Q 1341 3281 1617 3432 
Q 1894 3584 2278 3584 
Q 2916 3584 3314 3078 
Q 3713 2572 3713 1747 
Q 3713 922 3314 415 
Q 2916 -91 2278 -91 
Q 1894 -91 1617 61 
Q 1341 213 1159 525 
z
M 3116 1747 
Q 3116 2381 2855 2742 
Q 2594 3103 2138 3103 
Q 1681 3103 1420 2742 
Q 1159 2381 1159 1747 
Q 1159 1113 1420 752 
Q 1681 391 2138 391 
Q 2594 391 2855 752 
Q 3116 1113 3116 1747 
z
" transform="scale(0.015625)"/>
      <path id="DejaVuSans-68" d="M 3513 2113 
L 3513 0 
L 2938 0 
L 2938 2094 
Q 2938 2591 2744 2837 
Q 2550 3084 2163 3084 
Q 1697 3084 1428 2787 
Q 1159 2491 1159 1978 
L 1159 0 
L 581 0 
L 581 4863 
L 1159 4863 
L 1159 2956 
Q 1366 3272 1645 3428 
Q 1925 3584 2291 3584 
Q 2894 3584 3203 3211 
Q 3513 2838 3513 2113 
z
" transform="scale(0.015625)"/>
      <path id="DejaVuSans-76" d="M 191 3500 
L 800 3500 
L 1894 563 
L 2988 3500 
L 3597 3500 
L 2284 0 
L 1503 0 
L 191 3500 
z
" transform="scale(0.015625)"/>
      <path id="DejaVuSans-66" d="M 2375 4863 
L 2375 4384 
L 1825 4384 
Q 1516 4384 1395 4259 
Q 1275 4134 1275 3809 
L 1275 3500 
L 2222 3500 
L 2222 3053 
L 1275 3053 
L 1275 0 
L 697 0 
L 697 3053 
L 147 3053 
L 147 3500 
L 697 3500 
L 697 3744 
Q 697 4328 969 4595 
Q 1241 4863 1831 4863 
L 2375 4863 
z
" transform="scale(0.015625)"/>
      <path id="DejaVuSans-2d" d="M 313 2009 
L 1997 2009 
L 1997 1497 
L 313 1497 
L 313 2009 
z
" transform="scale(0.015625)"/>
      <path id="DejaVuSans-6f" d="M 1959 3097 
Q 1497 3097 1228 2736 
Q 959 2375 959 1747 
Q 959 1119 1226 758 
Q 1494 397 1959 397 
Q 2419 397 2687 759 
Q 2956 1122 2956 1747 
Q 2956 2369 2687 2733 
Q 2419 3097 1959 3097 
z
M 1959 3584 
Q 2709 3584 3137 3096 
Q 3566 2609 3566 1747 
Q 3566 888 3137 398 
Q 2709 -91 1959 -91 
Q 1206 -91 779 398 
Q 353 888 353 1747 
Q 353 2609 779 3096 
Q 1206 3584 1959 3584 
z
" transform="scale(0.015625)"/>
      <path id="DejaVuSans-6c" d="M 603 4863 
L 1178 4863 
L 1178 0 
L 603 0 
L 603 4863 
z
" transform="scale(0.015625)"/>
      <path id="DejaVuSans-67" d="M 2906 1791 
Q 2906 2416 2648 2759 
Q 2391 3103 1925 3103 
Q 1463 3103 1205 2759 
Q 947 2416 947 1791 
Q 947 1169 1205 825 
Q 1463 481 1925 481 
Q 2391 481 2648 825 
Q 2906 1169 2906 1791 
z
M 3481 434 
Q 3481 -459 3084 -895 
Q 2688 -1331 1869 -1331 
Q 1566 -1331 1297 -1286 
Q 1028 -1241 775 -1147 
L 775 -588 
Q 1028 -725 1275 -790 
Q 1522 -856 1778 -856 
Q 2344 -856 2625 -561 
Q 2906 -266 2906 331 
L 2906 616 
Q 2728 306 2450 153 
Q 2172 0 1784 0 
Q 1141 0 747 490 
Q 353 981 353 1791 
Q 353 2603 747 3093 
Q 1141 3584 1784 3584 
Q 2172 3584 2450 3431 
Q 2728 3278 2906 2969 
L 2906 3500 
L 3481 3500 
L 3481 434 
z
" transform="scale(0.015625)"/>
     </defs>
     <use xlink:href="#DejaVuSans-42" transform="translate(0 0.015625)"/>
     <use xlink:href="#DejaVuSans-69" transform="translate(68.603516 0.015625)"/>
     <use xlink:href="#DejaVuSans-6e" transform="translate(96.386719 0.015625)"/>
     <use xlink:href="#DejaVuSans-64" transform="translate(159.765625 0.015625)"/>
     <use xlink:href="#DejaVuSans-65" transform="translate(223.242188 0.015625)"/>
     <use xlink:href="#DejaVuSans-72" transform="translate(284.765625 0.015625)"/>
     <use xlink:href="#DejaVuSans-20" transform="translate(325.878906 0.015625)"/>
     <use xlink:href="#DejaVuSans-4d" transform="translate(357.666016 0.015625)"/>
     <use xlink:href="#DejaVuSans-69" transform="translate(443.945312 0.015625)"/>
     <use xlink:href="#DejaVuSans-6e" transform="translate(471.728516 0.015625)"/>
     <use xlink:href="#DejaVuSans-69" transform="translate(535.107422 0.015625)"/>
     <use xlink:href="#DejaVuSans-6d" transform="translate(562.890625 0.015625)"/>
     <use xlink:href="#DejaVuSans-75" transform="translate(660.302734 0.015625)"/>
     <use xlink:href="#DejaVuSans-6d" transform="translate(723.681641 0.015625)"/>
     <use xlink:href="#DejaVuSans-20" transform="translate(821.09375 0.015625)"/>
     <use xlink:href="#DejaVuSans-44" transform="translate(852.880859 0.015625)"/>
     <use xlink:href="#DejaVuSans-65" transform="translate(929.882812 0.015625)"/>
     <use xlink:href="#DejaVuSans-70" transform="translate(991.40625 0.015625)"/>
     <use xlink:href="#DejaVuSans-74" transform="translate(1054.882812 0.015625)"/>
     <use xlink:href="#DejaVuSans-68" transform="translate(1094.091797 0.015625)"/>
     <use xlink:href="#DejaVuSans-20" transform="translate(1157.470703 0.015625)"/>
     <use xlink:href="#DejaVuSans-76" transform="translate(1189.257812 0.015625)"/>
     <use xlink:href="#DejaVuSans-73" transform="translate(1248.4375 0.015625)"/>
     <use xlink:href="#DejaVuSans-20" transform="translate(1300.537109 0.015625)"/>
     <use xlink:href="#DejaVuSans-Oblique-4c" transform="translate(1332.324219 0.015625)"/>
     <use xlink:href="#DejaVuSans-20" transform="translate(1388.037109 0.015625)"/>
     <use xlink:href="#DejaVuSans-28" transform="translate(1419.824219 0.015625)"/>
     <use xlink:href="#DejaVuSans-66" transform="translate(1458.837891 0.015625)"/>
     <use xlink:href="#DejaVuSans-69" transform="translate(1494.042969 0.015625)"/>
     <use xlink:href="#DejaVuSans-72" transform="translate(1521.826172 0.015625)"/>
     <use xlink:href="#DejaVuSans-73" transform="translate(1562.939453 0.015625)"/>
     <use xlink:href="#DejaVuSans-74" transform="translate(1615.039062 0.015625)"/>
     <use xlink:href="#DejaVuSans-2d" transform="translate(1654.248047 0.015625)"/>
     <use xlink:href="#DejaVuSans-6f" transform="translate(1690.332031 0.015625)"/>
     <use xlink:href="#DejaVuSans-72" transform="translate(1751.513672 0.015625)"/>
     <use xlink:href="#DejaVuSans-64" transform="translate(1792.626953 0.015625)"/>
     <use xlink:href="#DejaVuSans-65" transform="translate(1856.103516 0.015625)"/>
     <use xlink:href="#DejaVuSans-72" transform="translate(1917.626953 0.015625)"/>
     <use xlink:href="#DejaVuSans-20" transform="translate(1958.740234 0.015625)"/>
     <use xlink:href="#DejaVuSans-73" transform="translate(1990.527344 0.015625)"/>
     <use xlink:href="#DejaVuSans-63" transform="translate(2042.626953 0.015625)"/>
     <use xlink:href="#DejaVuSans-61" transform="translate(2097.607422 0.015625)"/>
     <use xlink:href="#DejaVuSans-6c" transform="translate(2158.886719 0.015625)"/>
     <use xlink:href="#DejaVuSans-69" transform="translate(2186.669922 0.015625)"/>
     <use xlink:href="#DejaVuSans-6e" transform="translate(2214.453125 0.015625)"/>
     <use xlink:href="#DejaVuSans-67" transform="translate(2277.832031 0.015625)"/>
     <use xlink:href="#DejaVuSans-29" transform="translate(2341.308594 0.015625)"/>
    </g>
   </g>
   <g id="legend_1">
    <g id="patch_7">
     <path d="M 203.426518 305.956 
L 407.062455 305.956 
Q 409.062455 305.956 409.062455 303.956 
L 409.062455 260.6435 
Q 409.062455 258.6435 407.062455 258.6435 
L 203.426518 258.6435 
Q 201.426518 258.6435 201.426518 260.6435 
L 201.426518 303.956 
Q 201.426518 305.956 203.426518 305.956 
z
" style="fill: #ffffff; opacity: 0.8; stroke: #cccccc; stroke-linejoin: miter"/>
    </g>
    <g id="line2d_32">
     <path d="M 205.426518 266.741937 
L 215.426518 266.741937 
L 225.426518 266.741937 
" style="fill: none; stroke: #000000; stroke-width: 2; stroke-linecap: square"/>
     <g>
      <use xlink:href="#m69ac1d2c37" x="215.426518" y="266.741937" style="stroke: #000000"/>
     </g>
    </g>
    <g id="text_18">
     <!-- U_min(L) -->
     <g transform="translate(233.426518 270.241937) scale(0.1 -0.1)">
      <defs>
       <path id="DejaVuSans-55" d="M 556 4666 
L 1191 4666 
L 1191 1831 
Q 1191 1081 1462 751 
Q 1734 422 2344 422 
Q 2950 422 3222 751 
Q 3494 1081 3494 1831 
L 3494 4666 
L 4128 4666 
L 4128 1753 
Q 4128 841 3676 375 
Q 3225 -91 2344 -91 
Q 1459 -91 1007 375 
Q 556 841 556 1753 
L 556 4666 
z
" transform="scale(0.015625)"/>
       <path id="DejaVuSans-5f" d="M 3263 -1063 
L 3263 -1509 
L -63 -1509 
L -63 -1063 
L 3263 -1063 
z
" transform="scale(0.015625)"/>
      </defs>
      <use xlink:href="#DejaVuSans-55"/>
      <use xlink:href="#DejaVuSans-5f" x="73.193359"/>
      <use xlink:href="#DejaVuSans-6d" x="123.193359"/>
      <use xlink:href="#DejaVuSans-69" x="220.605469"/>
      <use xlink:href="#DejaVuSans-6e" x="248.388672"/>
      <use xlink:href="#DejaVuSans-28" x="311.767578"/>
      <use xlink:href="#DejaVuSans-4c" x="350.78125"/>
      <use xlink:href="#DejaVuSans-29" x="406.494141"/>
     </g>
    </g>
    <g id="line2d_33">
     <path d="M 205.426518 281.698187 
L 215.426518 281.698187 
L 225.426518 281.698187 
" style="fill: none; stroke-dasharray: 2,3.3; stroke-dashoffset: 0; stroke: #808080; stroke-opacity: 0.7; stroke-width: 2"/>
    </g>
    <g id="text_19">
     <!-- U = 2/3 (thermodynamic) -->
     <g transform="translate(233.426518 285.198187) scale(0.1 -0.1)">
      <defs>
       <path id="DejaVuSans-3d" d="M 678 2906 
L 4684 2906 
L 4684 2381 
L 678 2381 
L 678 2906 
z
M 678 1631 
L 4684 1631 
L 4684 1100 
L 678 1100 
L 678 1631 
z
" transform="scale(0.015625)"/>
       <path id="DejaVuSans-2f" d="M 1625 4666 
L 2156 4666 
L 531 -594 
L 0 -594 
L 1625 4666 
z
" transform="scale(0.015625)"/>
       <path id="DejaVuSans-33" d="M 2597 2516 
Q 3050 2419 3304 2112 
Q 3559 1806 3559 1356 
Q 3559 666 3084 287 
Q 2609 -91 1734 -91 
Q 1441 -91 1130 -33 
Q 819 25 488 141 
L 488 750 
Q 750 597 1062 519 
Q 1375 441 1716 441 
Q 2309 441 2620 675 
Q 2931 909 2931 1356 
Q 2931 1769 2642 2001 
Q 2353 2234 1838 2234 
L 1294 2234 
L 1294 2753 
L 1863 2753 
Q 2328 2753 2575 2939 
Q 2822 3125 2822 3475 
Q 2822 3834 2567 4026 
Q 2313 4219 1838 4219 
Q 1578 4219 1281 4162 
Q 984 4106 628 3988 
L 628 4550 
Q 988 4650 1302 4700 
Q 1616 4750 1894 4750 
Q 2613 4750 3031 4423 
Q 3450 4097 3450 3541 
Q 3450 3153 3228 2886 
Q 3006 2619 2597 2516 
z
" transform="scale(0.015625)"/>
       <path id="DejaVuSans-79" d="M 2059 -325 
Q 1816 -950 1584 -1140 
Q 1353 -1331 966 -1331 
L 506 -1331 
L 506 -850 
L 844 -850 
Q 1081 -850 1212 -737 
Q 1344 -625 1503 -206 
L 1606 56 
L 191 3500 
L 800 3500 
L 1894 763 
L 2988 3500 
L 3597 3500 
L 2059 -325 
z
" transform="scale(0.015625)"/>
      </defs>
      <use xlink:href="#DejaVuSans-55"/>
      <use xlink:href="#DejaVuSans-20" x="73.193359"/>
      <use xlink:href="#DejaVuSans-3d" x="104.980469"/>
      <use xlink:href="#DejaVuSans-20" x="188.769531"/>
      <use xlink:href="#DejaVuSans-32" x="220.556641"/>
      <use xlink:href="#DejaVuSans-2f" x="284.179688"/>
      <use xlink:href="#DejaVuSans-33" x="317.871094"/>
      <use xlink:href="#DejaVuSans-20" x="381.494141"/>
      <use xlink:href="#DejaVuSans-28" x="413.28125"/>
      <use xlink:href="#DejaVuSans-74" x="452.294922"/>
      <use xlink:href="#DejaVuSans-68" x="491.503906"/>
      <use xlink:href="#DejaVuSans-65" x="554.882812"/>
      <use xlink:href="#DejaVuSans-72" x="616.40625"/>
      <use xlink:href="#DejaVuSans-6d" x="655.769531"/>
      <use xlink:href="#DejaVuSans-6f" x="753.181641"/>
      <use xlink:href="#DejaVuSans-64" x="814.363281"/>
      <use xlink:href="#DejaVuSans-79" x="877.839844"/>
      <use xlink:href="#DejaVuSans-6e" x="937.019531"/>
      <use xlink:href="#DejaVuSans-61" x="1000.398438"/>
      <use xlink:href="#DejaVuSans-6d" x="1061.677734"/>
      <use xlink:href="#DejaVuSans-69" x="1159.089844"/>
      <use xlink:href="#DejaVuSans-63" x="1186.873047"/>
      <use xlink:href="#DejaVuSans-29" x="1241.853516"/>
     </g>
    </g>
    <g id="line2d_34">
     <path d="M 205.426518 296.376312 
L 215.426518 296.376312 
L 225.426518 296.376312 
" style="fill: none; stroke-dasharray: 5.55,2.4; stroke-dashoffset: 0; stroke: #ff0000; stroke-opacity: 0.7; stroke-width: 1.5"/>
    </g>
    <g id="text_20">
     <!-- Fit: U = 2/3 - 2.36e+00·L^{-3.08} -->
     <g transform="translate(233.426518 299.876312) scale(0.1 -0.1)">
      <defs>
       <path id="DejaVuSans-46" d="M 628 4666 
L 3309 4666 
L 3309 4134 
L 1259 4134 
L 1259 2759 
L 3109 2759 
L 3109 2228 
L 1259 2228 
L 1259 0 
L 628 0 
L 628 4666 
z
" transform="scale(0.015625)"/>
       <path id="DejaVuSans-3a" d="M 750 794 
L 1409 794 
L 1409 0 
L 750 0 
L 750 794 
z
M 750 3309 
L 1409 3309 
L 1409 2516 
L 750 2516 
L 750 3309 
z
" transform="scale(0.015625)"/>
       <path id="DejaVuSans-2b" d="M 2944 4013 
L 2944 2272 
L 4684 2272 
L 4684 1741 
L 2944 1741 
L 2944 0 
L 2419 0 
L 2419 1741 
L 678 1741 
L 678 2272 
L 2419 2272 
L 2419 4013 
L 2944 4013 
z
" transform="scale(0.015625)"/>
       <path id="DejaVuSans-b7" d="M 684 2619 
L 1344 2619 
L 1344 1825 
L 684 1825 
L 684 2619 
z
" transform="scale(0.015625)"/>
       <path id="DejaVuSans-5e" d="M 2988 4666 
L 4684 2925 
L 4056 2925 
L 2681 4159 
L 1306 2925 
L 678 2925 
L 2375 4666 
L 2988 4666 
z
" transform="scale(0.015625)"/>
       <path id="DejaVuSans-7b" d="M 3272 -594 
L 3272 -1044 
L 3078 -1044 
Q 2300 -1044 2036 -812 
Q 1772 -581 1772 109 
L 1772 856 
Q 1772 1328 1603 1509 
Q 1434 1691 991 1691 
L 800 1691 
L 800 2138 
L 991 2138 
Q 1438 2138 1605 2317 
Q 1772 2497 1772 2963 
L 1772 3713 
Q 1772 4403 2036 4633 
Q 2300 4863 3078 4863 
L 3272 4863 
L 3272 4416 
L 3059 4416 
Q 2619 4416 2484 4278 
Q 2350 4141 2350 3700 
L 2350 2925 
Q 2350 2434 2208 2212 
Q 2066 1991 1722 1913 
Q 2069 1828 2209 1606 
Q 2350 1384 2350 897 
L 2350 122 
Q 2350 -319 2484 -456 
Q 2619 -594 3059 -594 
L 3272 -594 
z
" transform="scale(0.015625)"/>
       <path id="DejaVuSans-7d" d="M 800 -594 
L 1019 -594 
Q 1456 -594 1589 -459 
Q 1722 -325 1722 122 
L 1722 897 
Q 1722 1384 1862 1606 
Q 2003 1828 2350 1913 
Q 2003 1991 1862 2212 
Q 1722 2434 1722 2925 
L 1722 3700 
Q 1722 4144 1589 4280 
Q 1456 4416 1019 4416 
L 800 4416 
L 800 4863 
L 997 4863 
Q 1775 4863 2036 4633 
Q 2297 4403 2297 3713 
L 2297 2963 
Q 2297 2497 2465 2317 
Q 2634 2138 3078 2138 
L 3272 2138 
L 3272 1691 
L 3078 1691 
Q 2634 1691 2465 1509 
Q 2297 1328 2297 856 
L 2297 109 
Q 2297 -581 2036 -812 
Q 1775 -1044 997 -1044 
L 800 -1044 
L 800 -594 
z
" transform="scale(0.015625)"/>
      </defs>
      <use xlink:href="#DejaVuSans-46"/>
      <use xlink:href="#DejaVuSans-69" x="50.269531"/>
      <use xlink:href="#DejaVuSans-74" x="78.052734"/>
      <use xlink:href="#DejaVuSans-3a" x="117.261719"/>
      <use xlink:href="#DejaVuSans-20" x="150.953125"/>
      <use xlink:href="#DejaVuSans-55" x="182.740234"/>
      <use xlink:href="#DejaVuSans-20" x="255.933594"/>
      <use xlink:href="#DejaVuSans-3d" x="287.720703"/>
      <use xlink:href="#DejaVuSans-20" x="371.509766"/>
      <use xlink:href="#DejaVuSans-32" x="403.296875"/>
      <use xlink:href="#DejaVuSans-2f" x="466.919922"/>
      <use xlink:href="#DejaVuSans-33" x="500.611328"/>
      <use xlink:href="#DejaVuSans-20" x="564.234375"/>
      <use xlink:href="#DejaVuSans-2d" x="596.021484"/>
      <use xlink:href="#DejaVuSans-20" x="632.105469"/>
      <use xlink:href="#DejaVuSans-32" x="663.892578"/>
      <use xlink:href="#DejaVuSans-2e" x="727.515625"/>
      <use xlink:href="#DejaVuSans-33" x="759.302734"/>
      <use xlink:href="#DejaVuSans-36" x="822.925781"/>
      <use xlink:href="#DejaVuSans-65" x="886.548828"/>
      <use xlink:href="#DejaVuSans-2b" x="948.072266"/>
      <use xlink:href="#DejaVuSans-30" x="1031.861328"/>
      <use xlink:href="#DejaVuSans-30" x="1095.484375"/>
      <use xlink:href="#DejaVuSans-b7" x="1159.107422"/>
      <use xlink:href="#DejaVuSans-4c" x="1190.894531"/>
      <use xlink:href="#DejaVuSans-5e" x="1246.607422"/>
      <use xlink:href="#DejaVuSans-7b" x="1330.396484"/>
      <use xlink:href="#DejaVuSans-2d" x="1394.019531"/>
      <use xlink:href="#DejaVuSans-33" x="1430.103516"/>
      <use xlink:href="#DejaVuSans-2e" x="1493.726562"/>
      <use xlink:href="#DejaVuSans-30" x="1525.513672"/>
      <use xlink:href="#DejaVuSans-38" x="1589.136719"/>
      <use xlink:href="#DejaVuSans-7d" x="1652.759766"/>
     </g>
    </g>
   </g>
  </g>
  <g id="axes_2">
   <g id="patch_8">
    <path d="M 483.638259 310.956 
L 844.653527 310.956 
L 844.653527 25.16 
L 483.638259 25.16 
z
" style="fill: #ffffff"/>
   </g>
   <g id="matplotlib.axis_3">
    <g id="xtick_10">
     <g id="line2d_35">
      <path d="M 708.331494 310.956 
L 708.331494 25.16 
" clip-path="url(#p0b28117c14)" style="fill: none; stroke: #b0b0b0; stroke-opacity: 0.3; stroke-width: 0.8; stroke-linecap: square"/>
     </g>
     <g id="line2d_36">
      <g>
       <use xlink:href="#m29d74aa342" x="708.331494" y="310.956" style="stroke: #000000; stroke-width: 0.8"/>
      </g>
     </g>
     <g id="text_21">
      <!-- $\mathdefault{10^{1}}$ -->
      <g transform="translate(699.531494 325.554437) scale(0.1 -0.1)">
       <use xlink:href="#DejaVuSans-31" transform="translate(0 0.684375)"/>
       <use xlink:href="#DejaVuSans-30" transform="translate(63.623047 0.684375)"/>
       <use xlink:href="#DejaVuSans-31" transform="translate(128.203125 38.965625) scale(0.7)"/>
      </g>
     </g>
    </g>
    <g id="xtick_11">
     <g id="line2d_37">
      <path d="M 500.048044 310.956 
L 500.048044 25.16 
" clip-path="url(#p0b28117c14)" style="fill: none; stroke: #b0b0b0; stroke-opacity: 0.3; stroke-width: 0.8; stroke-linecap: square"/>
     </g>
     <g id="line2d_38">
      <defs>
       <path id="m8bfd751d3a" d="M 0 0 
L 0 2 
" style="stroke: #000000; stroke-width: 0.6"/>
      </defs>
      <g>
       <use xlink:href="#m8bfd751d3a" x="500.048044" y="310.956" style="stroke: #000000; stroke-width: 0.6"/>
      </g>
     </g>
     <g id="text_22">
      <!-- $\mathdefault{3\times10^{0}}$ -->
      <g transform="translate(481.948044 323.954437) scale(0.1 -0.1)">
       <defs>
        <path id="DejaVuSans-d7" d="M 4488 3438 
L 3059 2003 
L 4488 575 
L 4116 197 
L 2681 1631 
L 1247 197 
L 878 575 
L 2303 2003 
L 878 3438 
L 1247 3816 
L 2681 2381 
L 4116 3816 
L 4488 3438 
z
" transform="scale(0.015625)"/>
       </defs>
       <use xlink:href="#DejaVuSans-33" transform="translate(0 0.765625)"/>
       <use xlink:href="#DejaVuSans-d7" transform="translate(83.105469 0.765625)"/>
       <use xlink:href="#DejaVuSans-31" transform="translate(186.376953 0.765625)"/>
       <use xlink:href="#DejaVuSans-30" transform="translate(250 0.765625)"/>
       <use xlink:href="#DejaVuSans-30" transform="translate(314.580078 39.046875) scale(0.7)"/>
      </g>
     </g>
    </g>
    <g id="xtick_12">
     <g id="line2d_39">
      <path d="M 549.816124 310.956 
L 549.816124 25.16 
" clip-path="url(#p0b28117c14)" style="fill: none; stroke: #b0b0b0; stroke-opacity: 0.3; stroke-width: 0.8; stroke-linecap: square"/>
     </g>
     <g id="line2d_40">
      <g>
       <use xlink:href="#m8bfd751d3a" x="549.816124" y="310.956" style="stroke: #000000; stroke-width: 0.6"/>
      </g>
     </g>
     <g id="text_23">
      <!-- $\mathdefault{4\times10^{0}}$ -->
      <g transform="translate(531.716124 323.954437) scale(0.1 -0.1)">
       <use xlink:href="#DejaVuSans-34" transform="translate(0 0.765625)"/>
       <use xlink:href="#DejaVuSans-d7" transform="translate(83.105469 0.765625)"/>
       <use xlink:href="#DejaVuSans-31" transform="translate(186.376953 0.765625)"/>
       <use xlink:href="#DejaVuSans-30" transform="translate(250 0.765625)"/>
       <use xlink:href="#DejaVuSans-30" transform="translate(314.580078 39.046875) scale(0.7)"/>
      </g>
     </g>
    </g>
    <g id="xtick_13">
     <g id="line2d_41">
      <path d="M 588.419245 310.956 
L 588.419245 25.16 
" clip-path="url(#p0b28117c14)" style="fill: none; stroke: #b0b0b0; stroke-opacity: 0.3; stroke-width: 0.8; stroke-linecap: square"/>
     </g>
     <g id="line2d_42">
      <g>
       <use xlink:href="#m8bfd751d3a" x="588.419245" y="310.956" style="stroke: #000000; stroke-width: 0.6"/>
      </g>
     </g>
    </g>
    <g id="xtick_14">
     <g id="line2d_43">
      <path d="M 619.960292 310.956 
L 619.960292 25.16 
" clip-path="url(#p0b28117c14)" style="fill: none; stroke: #b0b0b0; stroke-opacity: 0.3; stroke-width: 0.8; stroke-linecap: square"/>
     </g>
     <g id="line2d_44">
      <g>
       <use xlink:href="#m8bfd751d3a" x="619.960292" y="310.956" style="stroke: #000000; stroke-width: 0.6"/>
      </g>
     </g>
     <g id="text_24">
      <!-- $\mathdefault{6\times10^{0}}$ -->
      <g transform="translate(601.860292 323.954437) scale(0.1 -0.1)">
       <use xlink:href="#DejaVuSans-36" transform="translate(0 0.765625)"/>
       <use xlink:href="#DejaVuSans-d7" transform="translate(83.105469 0.765625)"/>
       <use xlink:href="#DejaVuSans-31" transform="translate(186.376953 0.765625)"/>
       <use xlink:href="#DejaVuSans-30" transform="translate(250 0.765625)"/>
       <use xlink:href="#DejaVuSans-30" transform="translate(314.580078 39.046875) scale(0.7)"/>
      </g>
     </g>
    </g>
    <g id="xtick_15">
     <g id="line2d_45">
      <path d="M 646.627868 310.956 
L 646.627868 25.16 
" clip-path="url(#p0b28117c14)" style="fill: none; stroke: #b0b0b0; stroke-opacity: 0.3; stroke-width: 0.8; stroke-linecap: square"/>
     </g>
     <g id="line2d_46">
      <g>
       <use xlink:href="#m8bfd751d3a" x="646.627868" y="310.956" style="stroke: #000000; stroke-width: 0.6"/>
      </g>
     </g>
    </g>
    <g id="xtick_16">
     <g id="line2d_47">
      <path d="M 669.728372 310.956 
L 669.728372 25.16 
" clip-path="url(#p0b28117c14)" style="fill: none; stroke: #b0b0b0; stroke-opacity: 0.3; stroke-width: 0.8; stroke-linecap: square"/>
     </g>
     <g id="line2d_48">
      <g>
       <use xlink:href="#m8bfd751d3a" x="669.728372" y="310.956" style="stroke: #000000; stroke-width: 0.6"/>
      </g>
     </g>
    </g>
    <g id="xtick_17">
     <g id="line2d_49">
      <path d="M 690.104461 310.956 
L 690.104461 25.16 
" clip-path="url(#p0b28117c14)" style="fill: none; stroke: #b0b0b0; stroke-opacity: 0.3; stroke-width: 0.8; stroke-linecap: square"/>
     </g>
     <g id="line2d_50">
      <g>
       <use xlink:href="#m8bfd751d3a" x="690.104461" y="310.956" style="stroke: #000000; stroke-width: 0.6"/>
      </g>
     </g>
    </g>
    <g id="xtick_18">
     <g id="line2d_51">
      <path d="M 828.243742 310.956 
L 828.243742 25.16 
" clip-path="url(#p0b28117c14)" style="fill: none; stroke: #b0b0b0; stroke-opacity: 0.3; stroke-width: 0.8; stroke-linecap: square"/>
     </g>
     <g id="line2d_52">
      <g>
       <use xlink:href="#m8bfd751d3a" x="828.243742" y="310.956" style="stroke: #000000; stroke-width: 0.6"/>
      </g>
     </g>
     <g id="text_25">
      <!-- $\mathdefault{2\times10^{1}}$ -->
      <g transform="translate(810.143742 323.954437) scale(0.1 -0.1)">
       <use xlink:href="#DejaVuSans-32" transform="translate(0 0.684375)"/>
       <use xlink:href="#DejaVuSans-d7" transform="translate(83.105469 0.684375)"/>
       <use xlink:href="#DejaVuSans-31" transform="translate(186.376953 0.684375)"/>
       <use xlink:href="#DejaVuSans-30" transform="translate(250 0.684375)"/>
       <use xlink:href="#DejaVuSans-31" transform="translate(314.580078 38.965625) scale(0.7)"/>
      </g>
     </g>
    </g>
    <g id="text_26">
     <!-- $L$ -->
     <g transform="translate(660.505893 341.512094) scale(0.13 -0.13)">
      <use xlink:href="#DejaVuSans-Oblique-4c" transform="translate(0 0.09375)"/>
     </g>
    </g>
   </g>
   <g id="matplotlib.axis_4">
    <g id="ytick_6">
     <g id="line2d_53">
      <path d="M 483.638259 232.545805 
L 844.653527 232.545805 
" clip-path="url(#p0b28117c14)" style="fill: none; stroke: #b0b0b0; stroke-opacity: 0.3; stroke-width: 0.8; stroke-linecap: square"/>
     </g>
     <g id="line2d_54">
      <g>
       <use xlink:href="#mf0c6ab7c6e" x="483.638259" y="232.545805" style="stroke: #000000; stroke-width: 0.8"/>
      </g>
     </g>
     <g id="text_27">
      <!-- $\mathdefault{10^{-3}}$ -->
      <g transform="translate(453.138259 236.345024) scale(0.1 -0.1)">
       <defs>
        <path id="DejaVuSans-2212" d="M 678 2272 
L 4684 2272 
L 4684 1741 
L 678 1741 
L 678 2272 
z
" transform="scale(0.015625)"/>
       </defs>
       <use xlink:href="#DejaVuSans-31" transform="translate(0 0.765625)"/>
       <use xlink:href="#DejaVuSans-30" transform="translate(63.623047 0.765625)"/>
       <use xlink:href="#DejaVuSans-2212" transform="translate(128.203125 39.046875) scale(0.7)"/>
       <use xlink:href="#DejaVuSans-33" transform="translate(186.855469 39.046875) scale(0.7)"/>
      </g>
     </g>
    </g>
    <g id="ytick_7">
     <g id="line2d_55">
      <path d="M 483.638259 130.296909 
L 844.653527 130.296909 
" clip-path="url(#p0b28117c14)" style="fill: none; stroke: #b0b0b0; stroke-opacity: 0.3; stroke-width: 0.8; stroke-linecap: square"/>
     </g>
     <g id="line2d_56">
      <g>
       <use xlink:href="#mf0c6ab7c6e" x="483.638259" y="130.296909" style="stroke: #000000; stroke-width: 0.8"/>
      </g>
     </g>
     <g id="text_28">
      <!-- $\mathdefault{10^{-2}}$ -->
      <g transform="translate(453.138259 134.096128) scale(0.1 -0.1)">
       <use xlink:href="#DejaVuSans-31" transform="translate(0 0.765625)"/>
       <use xlink:href="#DejaVuSans-30" transform="translate(63.623047 0.765625)"/>
       <use xlink:href="#DejaVuSans-2212" transform="translate(128.203125 39.046875) scale(0.7)"/>
       <use xlink:href="#DejaVuSans-32" transform="translate(186.855469 39.046875) scale(0.7)"/>
      </g>
     </g>
    </g>
    <g id="ytick_8">
     <g id="line2d_57">
      <path d="M 483.638259 28.048013 
L 844.653527 28.048013 
" clip-path="url(#p0b28117c14)" style="fill: none; stroke: #b0b0b0; stroke-opacity: 0.3; stroke-width: 0.8; stroke-linecap: square"/>
     </g>
     <g id="line2d_58">
      <g>
       <use xlink:href="#mf0c6ab7c6e" x="483.638259" y="28.048013" style="stroke: #000000; stroke-width: 0.8"/>
      </g>
     </g>
     <g id="text_29">
      <!-- $\mathdefault{10^{-1}}$ -->
      <g transform="translate(453.138259 31.847232) scale(0.1 -0.1)">
       <use xlink:href="#DejaVuSans-31" transform="translate(0 0.684375)"/>
       <use xlink:href="#DejaVuSans-30" transform="translate(63.623047 0.684375)"/>
       <use xlink:href="#DejaVuSans-2212" transform="translate(128.203125 38.965625) scale(0.7)"/>
       <use xlink:href="#DejaVuSans-31" transform="translate(186.855469 38.965625) scale(0.7)"/>
      </g>
     </g>
    </g>
    <g id="ytick_9">
     <g id="line2d_59">
      <path d="M 483.638259 304.014716 
L 844.653527 304.014716 
" clip-path="url(#p0b28117c14)" style="fill: none; stroke: #b0b0b0; stroke-opacity: 0.3; stroke-width: 0.8; stroke-linecap: square"/>
     </g>
     <g id="line2d_60">
      <defs>
       <path id="m2275c30872" d="M 0 0 
L -2 0 
" style="stroke: #000000; stroke-width: 0.6"/>
      </defs>
      <g>
       <use xlink:href="#m2275c30872" x="483.638259" y="304.014716" style="stroke: #000000; stroke-width: 0.6"/>
      </g>
     </g>
    </g>
    <g id="ytick_10">
     <g id="line2d_61">
      <path d="M 483.638259 286.009579 
L 844.653527 286.009579 
" clip-path="url(#p0b28117c14)" style="fill: none; stroke: #b0b0b0; stroke-opacity: 0.3; stroke-width: 0.8; stroke-linecap: square"/>
     </g>
     <g id="line2d_62">
      <g>
       <use xlink:href="#m2275c30872" x="483.638259" y="286.009579" style="stroke: #000000; stroke-width: 0.6"/>
      </g>
     </g>
    </g>
    <g id="ytick_11">
     <g id="line2d_63">
      <path d="M 483.638259 273.234732 
L 844.653527 273.234732 
" clip-path="url(#p0b28117c14)" style="fill: none; stroke: #b0b0b0; stroke-opacity: 0.3; stroke-width: 0.8; stroke-linecap: square"/>
     </g>
     <g id="line2d_64">
      <g>
       <use xlink:href="#m2275c30872" x="483.638259" y="273.234732" style="stroke: #000000; stroke-width: 0.6"/>
      </g>
     </g>
    </g>
    <g id="ytick_12">
     <g id="line2d_65">
      <path d="M 483.638259 263.32579 
L 844.653527 263.32579 
" clip-path="url(#p0b28117c14)" style="fill: none; stroke: #b0b0b0; stroke-opacity: 0.3; stroke-width: 0.8; stroke-linecap: square"/>
     </g>
     <g id="line2d_66">
      <g>
       <use xlink:href="#m2275c30872" x="483.638259" y="263.32579" style="stroke: #000000; stroke-width: 0.6"/>
      </g>
     </g>
    </g>
    <g id="ytick_13">
     <g id="line2d_67">
      <path d="M 483.638259 255.229595 
L 844.653527 255.229595 
" clip-path="url(#p0b28117c14)" style="fill: none; stroke: #b0b0b0; stroke-opacity: 0.3; stroke-width: 0.8; stroke-linecap: square"/>
     </g>
     <g id="line2d_68">
      <g>
       <use xlink:href="#m2275c30872" x="483.638259" y="255.229595" style="stroke: #000000; stroke-width: 0.6"/>
      </g>
     </g>
    </g>
    <g id="ytick_14">
     <g id="line2d_69">
      <path d="M 483.638259 248.384359 
L 844.653527 248.384359 
" clip-path="url(#p0b28117c14)" style="fill: none; stroke: #b0b0b0; stroke-opacity: 0.3; stroke-width: 0.8; stroke-linecap: square"/>
     </g>
     <g id="line2d_70">
      <g>
       <use xlink:href="#m2275c30872" x="483.638259" y="248.384359" style="stroke: #000000; stroke-width: 0.6"/>
      </g>
     </g>
    </g>
    <g id="ytick_15">
     <g id="line2d_71">
      <path d="M 483.638259 242.454747 
L 844.653527 242.454747 
" clip-path="url(#p0b28117c14)" style="fill: none; stroke: #b0b0b0; stroke-opacity: 0.3; stroke-width: 0.8; stroke-linecap: square"/>
     </g>
     <g id="line2d_72">
      <g>
       <use xlink:href="#m2275c30872" x="483.638259" y="242.454747" style="stroke: #000000; stroke-width: 0.6"/>
      </g>
     </g>
    </g>
    <g id="ytick_16">
     <g id="line2d_73">
      <path d="M 483.638259 237.224458 
L 844.653527 237.224458 
" clip-path="url(#p0b28117c14)" style="fill: none; stroke: #b0b0b0; stroke-opacity: 0.3; stroke-width: 0.8; stroke-linecap: square"/>
     </g>
     <g id="line2d_74">
      <g>
       <use xlink:href="#m2275c30872" x="483.638259" y="237.224458" style="stroke: #000000; stroke-width: 0.6"/>
      </g>
     </g>
    </g>
    <g id="ytick_17">
     <g id="line2d_75">
      <path d="M 483.638259 201.76582 
L 844.653527 201.76582 
" clip-path="url(#p0b28117c14)" style="fill: none; stroke: #b0b0b0; stroke-opacity: 0.3; stroke-width: 0.8; stroke-linecap: square"/>
     </g>
     <g id="line2d_76">
      <g>
       <use xlink:href="#m2275c30872" x="483.638259" y="201.76582" style="stroke: #000000; stroke-width: 0.6"/>
      </g>
     </g>
    </g>
    <g id="ytick_18">
     <g id="line2d_77">
      <path d="M 483.638259 183.760684 
L 844.653527 183.760684 
" clip-path="url(#p0b28117c14)" style="fill: none; stroke: #b0b0b0; stroke-opacity: 0.3; stroke-width: 0.8; stroke-linecap: square"/>
     </g>
     <g id="line2d_78">
      <g>
       <use xlink:href="#m2275c30872" x="483.638259" y="183.760684" style="stroke: #000000; stroke-width: 0.6"/>
      </g>
     </g>
    </g>
    <g id="ytick_19">
     <g id="line2d_79">
      <path d="M 483.638259 170.985836 
L 844.653527 170.985836 
" clip-path="url(#p0b28117c14)" style="fill: none; stroke: #b0b0b0; stroke-opacity: 0.3; stroke-width: 0.8; stroke-linecap: square"/>
     </g>
     <g id="line2d_80">
      <g>
       <use xlink:href="#m2275c30872" x="483.638259" y="170.985836" style="stroke: #000000; stroke-width: 0.6"/>
      </g>
     </g>
    </g>
    <g id="ytick_20">
     <g id="line2d_81">
      <path d="M 483.638259 161.076894 
L 844.653527 161.076894 
" clip-path="url(#p0b28117c14)" style="fill: none; stroke: #b0b0b0; stroke-opacity: 0.3; stroke-width: 0.8; stroke-linecap: square"/>
     </g>
     <g id="line2d_82">
      <g>
       <use xlink:href="#m2275c30872" x="483.638259" y="161.076894" style="stroke: #000000; stroke-width: 0.6"/>
      </g>
     </g>
    </g>
    <g id="ytick_21">
     <g id="line2d_83">
      <path d="M 483.638259 152.980699 
L 844.653527 152.980699 
" clip-path="url(#p0b28117c14)" style="fill: none; stroke: #b0b0b0; stroke-opacity: 0.3; stroke-width: 0.8; stroke-linecap: square"/>
     </g>
     <g id="line2d_84">
      <g>
       <use xlink:href="#m2275c30872" x="483.638259" y="152.980699" style="stroke: #000000; stroke-width: 0.6"/>
      </g>
     </g>
    </g>
    <g id="ytick_22">
     <g id="line2d_85">
      <path d="M 483.638259 146.135464 
L 844.653527 146.135464 
" clip-path="url(#p0b28117c14)" style="fill: none; stroke: #b0b0b0; stroke-opacity: 0.3; stroke-width: 0.8; stroke-linecap: square"/>
     </g>
     <g id="line2d_86">
      <g>
       <use xlink:href="#m2275c30872" x="483.638259" y="146.135464" style="stroke: #000000; stroke-width: 0.6"/>
      </g>
     </g>
    </g>
    <g id="ytick_23">
     <g id="line2d_87">
      <path d="M 483.638259 140.205851 
L 844.653527 140.205851 
" clip-path="url(#p0b28117c14)" style="fill: none; stroke: #b0b0b0; stroke-opacity: 0.3; stroke-width: 0.8; stroke-linecap: square"/>
     </g>
     <g id="line2d_88">
      <g>
       <use xlink:href="#m2275c30872" x="483.638259" y="140.205851" style="stroke: #000000; stroke-width: 0.6"/>
      </g>
     </g>
    </g>
    <g id="ytick_24">
     <g id="line2d_89">
      <path d="M 483.638259 134.975562 
L 844.653527 134.975562 
" clip-path="url(#p0b28117c14)" style="fill: none; stroke: #b0b0b0; stroke-opacity: 0.3; stroke-width: 0.8; stroke-linecap: square"/>
     </g>
     <g id="line2d_90">
      <g>
       <use xlink:href="#m2275c30872" x="483.638259" y="134.975562" style="stroke: #000000; stroke-width: 0.6"/>
      </g>
     </g>
    </g>
    <g id="ytick_25">
     <g id="line2d_91">
      <path d="M 483.638259 99.516924 
L 844.653527 99.516924 
" clip-path="url(#p0b28117c14)" style="fill: none; stroke: #b0b0b0; stroke-opacity: 0.3; stroke-width: 0.8; stroke-linecap: square"/>
     </g>
     <g id="line2d_92">
      <g>
       <use xlink:href="#m2275c30872" x="483.638259" y="99.516924" style="stroke: #000000; stroke-width: 0.6"/>
      </g>
     </g>
    </g>
    <g id="ytick_26">
     <g id="line2d_93">
      <path d="M 483.638259 81.511788 
L 844.653527 81.511788 
" clip-path="url(#p0b28117c14)" style="fill: none; stroke: #b0b0b0; stroke-opacity: 0.3; stroke-width: 0.8; stroke-linecap: square"/>
     </g>
     <g id="line2d_94">
      <g>
       <use xlink:href="#m2275c30872" x="483.638259" y="81.511788" style="stroke: #000000; stroke-width: 0.6"/>
      </g>
     </g>
    </g>
    <g id="ytick_27">
     <g id="line2d_95">
      <path d="M 483.638259 68.73694 
L 844.653527 68.73694 
" clip-path="url(#p0b28117c14)" style="fill: none; stroke: #b0b0b0; stroke-opacity: 0.3; stroke-width: 0.8; stroke-linecap: square"/>
     </g>
     <g id="line2d_96">
      <g>
       <use xlink:href="#m2275c30872" x="483.638259" y="68.73694" style="stroke: #000000; stroke-width: 0.6"/>
      </g>
     </g>
    </g>
    <g id="ytick_28">
     <g id="line2d_97">
      <path d="M 483.638259 58.827998 
L 844.653527 58.827998 
" clip-path="url(#p0b28117c14)" style="fill: none; stroke: #b0b0b0; stroke-opacity: 0.3; stroke-width: 0.8; stroke-linecap: square"/>
     </g>
     <g id="line2d_98">
      <g>
       <use xlink:href="#m2275c30872" x="483.638259" y="58.827998" style="stroke: #000000; stroke-width: 0.6"/>
      </g>
     </g>
    </g>
    <g id="ytick_29">
     <g id="line2d_99">
      <path d="M 483.638259 50.731803 
L 844.653527 50.731803 
" clip-path="url(#p0b28117c14)" style="fill: none; stroke: #b0b0b0; stroke-opacity: 0.3; stroke-width: 0.8; stroke-linecap: square"/>
     </g>
     <g id="line2d_100">
      <g>
       <use xlink:href="#m2275c30872" x="483.638259" y="50.731803" style="stroke: #000000; stroke-width: 0.6"/>
      </g>
     </g>
    </g>
    <g id="ytick_30">
     <g id="line2d_101">
      <path d="M 483.638259 43.886568 
L 844.653527 43.886568 
" clip-path="url(#p0b28117c14)" style="fill: none; stroke: #b0b0b0; stroke-opacity: 0.3; stroke-width: 0.8; stroke-linecap: square"/>
     </g>
     <g id="line2d_102">
      <g>
       <use xlink:href="#m2275c30872" x="483.638259" y="43.886568" style="stroke: #000000; stroke-width: 0.6"/>
      </g>
     </g>
    </g>
    <g id="ytick_31">
     <g id="line2d_103">
      <path d="M 483.638259 37.956955 
L 844.653527 37.956955 
" clip-path="url(#p0b28117c14)" style="fill: none; stroke: #b0b0b0; stroke-opacity: 0.3; stroke-width: 0.8; stroke-linecap: square"/>
     </g>
     <g id="line2d_104">
      <g>
       <use xlink:href="#m2275c30872" x="483.638259" y="37.956955" style="stroke: #000000; stroke-width: 0.6"/>
      </g>
     </g>
    </g>
    <g id="ytick_32">
     <g id="line2d_105">
      <path d="M 483.638259 32.726666 
L 844.653527 32.726666 
" clip-path="url(#p0b28117c14)" style="fill: none; stroke: #b0b0b0; stroke-opacity: 0.3; stroke-width: 0.8; stroke-linecap: square"/>
     </g>
     <g id="line2d_106">
      <g>
       <use xlink:href="#m2275c30872" x="483.638259" y="32.726666" style="stroke: #000000; stroke-width: 0.6"/>
      </g>
     </g>
    </g>
    <g id="text_30">
     <!-- $2/3 - U_{\min}(L)$ -->
     <g transform="translate(446.434665 208.748) rotate(-90) scale(0.13 -0.13)">
      <use xlink:href="#DejaVuSans-32" transform="translate(0 0.125)"/>
      <use xlink:href="#DejaVuSans-2f" transform="translate(63.623047 0.125)"/>
      <use xlink:href="#DejaVuSans-33" transform="translate(97.314453 0.125)"/>
      <use xlink:href="#DejaVuSans-2212" transform="translate(180.419922 0.125)"/>
      <use xlink:href="#DejaVuSans-Oblique-55" transform="translate(283.691406 0.125)"/>
      <use xlink:href="#DejaVuSans-6d" transform="translate(356.884766 -16.28125) scale(0.7)"/>
      <use xlink:href="#DejaVuSans-69" transform="translate(425.073242 -16.28125) scale(0.7)"/>
      <use xlink:href="#DejaVuSans-6e" transform="translate(444.521484 -16.28125) scale(0.7)"/>
      <use xlink:href="#DejaVuSans-28" transform="translate(491.621094 0.125)"/>
      <use xlink:href="#DejaVuSans-Oblique-4c" transform="translate(530.634766 0.125)"/>
      <use xlink:href="#DejaVuSans-29" transform="translate(586.347656 0.125)"/>
     </g>
    </g>
   </g>
   <g id="line2d_107">
    <g clip-path="url(#p0b28117c14)">
     <use xlink:href="#m69ac1d2c37" x="549.816124" y="77.657072" style="stroke: #000000"/>
     <use xlink:href="#m69ac1d2c37" x="619.960292" y="132.819226" style="stroke: #000000"/>
     <use xlink:href="#m69ac1d2c37" x="669.728372" y="172.629114" style="stroke: #000000"/>
    </g>
   </g>
   <g id="line2d_108">
    <path d="M 500.048044 38.150727 
L 509.677193 45.773597 
L 518.798517 52.994449 
L 527.462907 59.853572 
L 535.713968 66.385484 
L 543.589346 72.619989 
L 551.121766 78.582994 
L 558.339858 84.297161 
L 565.268807 89.78243 
L 571.930889 95.056435 
L 578.3459 100.134848 
L 584.531513 105.031659 
L 590.50357 109.759409 
L 596.276324 114.329382 
L 601.862652 118.751771 
L 607.274216 123.035811 
L 612.521623 127.189895 
L 617.614537 131.221676 
L 622.561797 135.138151 
L 627.371503 138.945731 
L 632.051097 142.650309 
L 636.607435 146.257312 
L 641.046842 149.771747 
L 645.37517 153.198247 
L 649.597843 156.541106 
L 653.719896 159.804309 
L 657.746013 162.991566 
L 661.680558 166.106329 
L 665.527604 169.151825 
L 669.290959 172.131067 
L 672.974186 175.046876 
L 676.580627 177.901897 
L 680.113417 180.698613 
L 683.575505 183.439359 
L 686.969665 186.126329 
L 690.298513 188.761595 
L 693.564513 191.347109 
L 696.769995 193.884713 
L 699.917161 196.376152 
L 703.008095 198.823075 
L 706.044772 201.227046 
L 709.029063 203.589545 
L 711.962744 205.91198 
L 714.847506 208.195688 
L 717.68495 210.441937 
L 720.476606 212.651938 
L 723.223928 214.826842 
L 725.928301 216.967746 
L 728.591047 219.075696 
L 731.21343 221.151693 
L 733.796654 223.19669 
L 736.341871 225.211599 
L 738.850184 227.197293 
L 741.322648 229.154607 
L 743.760273 231.084341 
L 746.164027 232.987261 
L 748.534839 234.864103 
L 750.873598 236.715571 
L 753.181162 238.542342 
L 755.45835 240.345067 
L 757.705951 242.12437 
L 759.924726 243.880852 
L 762.115404 245.615092 
L 764.278688 247.327645 
L 766.415254 249.019047 
L 768.525754 250.689815 
L 770.610817 252.340445 
L 772.671048 253.971417 
L 774.707033 255.583194 
L 776.719335 257.176223 
L 778.708498 258.750935 
L 780.675049 260.307746 
L 782.619497 261.847058 
L 784.542332 263.369261 
L 786.444029 264.874731 
L 788.325049 266.363831 
L 790.185836 267.836915 
L 792.026821 269.294321 
L 793.848421 270.736382 
L 795.65104 272.163417 
L 797.435069 273.575735 
L 799.200887 274.973636 
L 800.948864 276.357414 
L 802.679356 277.727349 
L 804.392708 279.083716 
L 806.089258 280.426782 
L 807.769332 281.756804 
L 809.433246 283.074034 
L 811.081309 284.378715 
L 812.713819 285.671084 
L 814.331068 286.951371 
L 815.933338 288.2198 
L 817.520904 289.47659 
L 819.094034 290.72195 
L 820.652987 291.956088 
L 822.198018 293.179204 
L 823.729371 294.391493 
L 825.247289 295.593145 
L 826.752003 296.784345 
L 828.243742 297.965273 
" clip-path="url(#p0b28117c14)" style="fill: none; stroke-dasharray: 5.55,2.4; stroke-dashoffset: 0; stroke: #ff0000; stroke-opacity: 0.7; stroke-width: 1.5"/>
   </g>
   <g id="patch_9">
    <path d="M 483.638259 310.956 
L 483.638259 25.16 
" style="fill: none; stroke: #000000; stroke-width: 0.8; stroke-linejoin: miter; stroke-linecap: square"/>
   </g>
   <g id="patch_10">
    <path d="M 844.653527 310.956 
L 844.653527 25.16 
" style="fill: none; stroke: #000000; stroke-width: 0.8; stroke-linejoin: miter; stroke-linecap: square"/>
   </g>
   <g id="patch_11">
    <path d="M 483.638259 310.956 
L 844.653527 310.956 
" style="fill: none; stroke: #000000; stroke-width: 0.8; stroke-linejoin: miter; stroke-linecap: square"/>
   </g>
   <g id="patch_12">
    <path d="M 483.638259 25.16 
L 844.653527 25.16 
" style="fill: none; stroke: #000000; stroke-width: 0.8; stroke-linejoin: miter; stroke-linecap: square"/>
   </g>
   <g id="text_31">
    <!-- Log-log: First-order scaling $\sim L^{-d}$ -->
    <g transform="translate(556.050893 19.16) scale(0.13 -0.13)">
     <defs>
      <path id="DejaVuSans-223c" d="M 4684 2556 
L 4684 1997 
Q 4356 1753 4076 1645 
Q 3797 1538 3494 1538 
Q 3150 1538 2694 1722 
Q 2663 1734 2641 1744 
Q 2622 1750 2575 1769 
Q 2091 1959 1797 1959 
Q 1522 1959 1253 1840 
Q 984 1722 678 1459 
L 678 2019 
Q 1006 2263 1286 2370 
Q 1566 2478 1869 2478 
Q 2213 2478 2672 2294 
Q 2706 2278 2722 2272 
Q 2741 2266 2788 2247 
Q 3272 2056 3566 2056 
Q 3834 2056 4098 2173 
Q 4363 2291 4684 2556 
z
" transform="scale(0.015625)"/>
      <path id="DejaVuSans-Oblique-64" d="M 2675 525 
Q 2444 222 2128 65 
Q 1813 -91 1428 -91 
Q 903 -91 598 267 
Q 294 625 294 1247 
Q 294 1766 478 2236 
Q 663 2706 1013 3078 
Q 1244 3325 1534 3454 
Q 1825 3584 2144 3584 
Q 2481 3584 2739 3421 
Q 2997 3259 3138 2956 
L 3513 4863 
L 4091 4863 
L 3144 0 
L 2566 0 
L 2675 525 
z
M 891 1350 
Q 891 897 1095 644 
Q 1300 391 1663 391 
Q 1931 391 2161 520 
Q 2391 650 2566 903 
Q 2750 1166 2856 1509 
Q 2963 1853 2963 2188 
Q 2963 2622 2758 2865 
Q 2553 3109 2194 3109 
Q 1922 3109 1687 2981 
Q 1453 2853 1288 2613 
Q 1106 2353 998 2009 
Q 891 1666 891 1350 
z
" transform="scale(0.015625)"/>
     </defs>
     <use xlink:href="#DejaVuSans-4c" transform="translate(0 0.529687)"/>
     <use xlink:href="#DejaVuSans-6f" transform="translate(55.712891 0.529687)"/>
     <use xlink:href="#DejaVuSans-67" transform="translate(116.894531 0.529687)"/>
     <use xlink:href="#DejaVuSans-2d" transform="translate(180.371094 0.529687)"/>
     <use xlink:href="#DejaVuSans-6c" transform="translate(216.455078 0.529687)"/>
     <use xlink:href="#DejaVuSans-6f" transform="translate(244.238281 0.529687)"/>
     <use xlink:href="#DejaVuSans-67" transform="translate(305.419922 0.529687)"/>
     <use xlink:href="#DejaVuSans-3a" transform="translate(368.896484 0.529687)"/>
     <use xlink:href="#DejaVuSans-20" transform="translate(402.587891 0.529687)"/>
     <use xlink:href="#DejaVuSans-46" transform="translate(434.375 0.529687)"/>
     <use xlink:href="#DejaVuSans-69" transform="translate(491.894531 0.529687)"/>
     <use xlink:href="#DejaVuSans-72" transform="translate(519.677734 0.529687)"/>
     <use xlink:href="#DejaVuSans-73" transform="translate(560.791016 0.529687)"/>
     <use xlink:href="#DejaVuSans-74" transform="translate(612.890625 0.529687)"/>
     <use xlink:href="#DejaVuSans-2d" transform="translate(652.099609 0.529687)"/>
     <use xlink:href="#DejaVuSans-6f" transform="translate(688.183594 0.529687)"/>
     <use xlink:href="#DejaVuSans-72" transform="translate(749.365234 0.529687)"/>
     <use xlink:href="#DejaVuSans-64" transform="translate(790.478516 0.529687)"/>
     <use xlink:href="#DejaVuSans-65" transform="translate(853.955078 0.529687)"/>
     <use xlink:href="#DejaVuSans-72" transform="translate(915.478516 0.529687)"/>
     <use xlink:href="#DejaVuSans-20" transform="translate(956.591797 0.529687)"/>
     <use xlink:href="#DejaVuSans-73" transform="translate(988.378906 0.529687)"/>
     <use xlink:href="#DejaVuSans-63" transform="translate(1040.478516 0.529687)"/>
     <use xlink:href="#DejaVuSans-61" transform="translate(1095.458984 0.529687)"/>
     <use xlink:href="#DejaVuSans-6c" transform="translate(1156.738281 0.529687)"/>
     <use xlink:href="#DejaVuSans-69" transform="translate(1184.521484 0.529687)"/>
     <use xlink:href="#DejaVuSans-6e" transform="translate(1212.304688 0.529687)"/>
     <use xlink:href="#DejaVuSans-67" transform="translate(1275.683594 0.529687)"/>
     <use xlink:href="#DejaVuSans-20" transform="translate(1339.160156 0.529687)"/>
     <use xlink:href="#DejaVuSans-223c" transform="translate(1390.429688 0.529687)"/>
     <use xlink:href="#DejaVuSans-Oblique-4c" transform="translate(1493.701172 0.529687)"/>
     <use xlink:href="#DejaVuSans-2212" transform="translate(1556.430833 38.810937) scale(0.7)"/>
     <use xlink:href="#DejaVuSans-Oblique-64" transform="translate(1615.083177 38.810937) scale(0.7)"/>
    </g>
   </g>
   <g id="legend_2">
    <g id="patch_13">
     <path d="M 720.164465 62.51625 
L 837.653527 62.51625 
Q 839.653527 62.51625 839.653527 60.51625 
L 839.653527 32.16 
Q 839.653527 30.16 837.653527 30.16 
L 720.164465 30.16 
Q 718.164465 30.16 718.164465 32.16 
L 718.164465 60.51625 
Q 718.164465 62.51625 720.164465 62.51625 
z
" style="fill: #ffffff; opacity: 0.8; stroke: #cccccc; stroke-linejoin: miter"/>
    </g>
    <g id="line2d_109">
     <g>
      <use xlink:href="#m69ac1d2c37" x="732.164465" y="38.258437" style="stroke: #000000"/>
     </g>
    </g>
    <g id="text_32">
     <!-- Data -->
     <g transform="translate(750.164465 41.758437) scale(0.1 -0.1)">
      <use xlink:href="#DejaVuSans-44"/>
      <use xlink:href="#DejaVuSans-61" x="77.001953"/>
      <use xlink:href="#DejaVuSans-74" x="138.28125"/>
      <use xlink:href="#DejaVuSans-61" x="177.490234"/>
     </g>
    </g>
    <g id="line2d_110">
     <path d="M 722.164465 52.936562 
L 732.164465 52.936562 
L 742.164465 52.936562 
" style="fill: none; stroke-dasharray: 5.55,2.4; stroke-dashoffset: 0; stroke: #ff0000; stroke-opacity: 0.7; stroke-width: 1.5"/>
    </g>
    <g id="text_33">
     <!-- Fit: slope = -3.08 -->
     <g transform="translate(750.164465 56.436562) scale(0.1 -0.1)">
      <use xlink:href="#DejaVuSans-46"/>
      <use xlink:href="#DejaVuSans-69" x="50.269531"/>
      <use xlink:href="#DejaVuSans-74" x="78.052734"/>
      <use xlink:href="#DejaVuSans-3a" x="117.261719"/>
      <use xlink:href="#DejaVuSans-20" x="150.953125"/>
      <use xlink:href="#DejaVuSans-73" x="182.740234"/>
      <use xlink:href="#DejaVuSans-6c" x="234.839844"/>
      <use xlink:href="#DejaVuSans-6f" x="262.623047"/>
      <use xlink:href="#DejaVuSans-70" x="323.804688"/>
      <use xlink:href="#DejaVuSans-65" x="387.28125"/>
      <use xlink:href="#DejaVuSans-20" x="448.804688"/>
      <use xlink:href="#DejaVuSans-3d" x="480.591797"/>
      <use xlink:href="#DejaVuSans-20" x="564.380859"/>
      <use xlink:href="#DejaVuSans-2d" x="596.167969"/>
      <use xlink:href="#DejaVuSans-33" x="632.251953"/>
      <use xlink:href="#DejaVuSans-2e" x="695.875"/>
      <use xlink:href="#DejaVuSans-30" x="727.662109"/>
      <use xlink:href="#DejaVuSans-38" x="791.285156"/>
     </g>
    </g>
   </g>
  </g>
 </g>
 <defs>
  <clipPath id="p47cbf228d2">
   <rect x="53.047188" y="25.16" width="361.015268" height="285.796"/>
  </clipPath>
  <clipPath id="p0b28117c14">
   <rect x="483.638259" y="25.16" width="361.015268" height="285.796"/>
  </clipPath>
 </defs>
</svg>
