<?xml version="1.0" encoding="utf-8" standalone="no"?>
<!DOCTYPE svg PUBLIC "-//W3C//DTD SVG 1.1//EN"
  "http://www.w3.org/Graphics/SVG/1.1/DTD/svg11.dtd">
<svg xmlns:xlink="http://www.w3.org/1999/xlink" width="999.378888pt" height="315.206pt" viewBox="0 0 999.378888 315.206" xmlns="http://www.w3.org/2000/svg" version="1.1">
 <metadata>
  <rdf:RDF xmlns:dc="http://purl.org/dc/elements/1.1/" xmlns:cc="http://creativecommons.org/ns#" xmlns:rdf="http://www.w3.org/1999/02/22-rdf-syntax-ns#">
   <cc:Work>
    <dc:type rdf:resource="http://purl.org/dc/dcmitype/StillImage"/>
    <dc:date>2026-06-26T03:48:21.083103</dc:date>
    <dc:format>image/svg+xml</dc:format>
    <dc:creator>
     <cc:Agent>
      <dc:title>Matplotlib v3.9.4, https://matplotlib.org/</dc:title>
     </cc:Agent>
    </dc:creator>
   </cc:Work>
  </rdf:RDF>
 </metadata>
 <defs>
  <style type="text/css">*{stroke-linejoin: round; stroke-linecap: butt}</style>
 </defs>
 <g id="figure_1">
  <g id="patch_1">
   <path d="M 0 315.206 
L 999.378888 315.206 
L 999.378888 0 
L 0 0 
z
" style="fill: #ffffff"/>
  </g>
  <g id="axes_1">
   <g id="patch_2">
    <path d="M 70.34 275.714125 
L 314.573777 275.714125 
L 314.573777 22.318125 
L 70.34 22.318125 
z
" style="fill: #ffffff"/>
   </g>
   <g id="matplotlib.axis_1">
    <g id="xtick_1">
     <g id="line2d_1">
      <path d="M 184.642833 275.714125 
L 184.642833 22.318125 
" clip-path="url(#p922bc5c7a5)" style="fill: none; stroke: #b0b0b0; stroke-opacity: 0.3; stroke-width: 0.8; stroke-linecap: square"/>
     </g>
     <g id="line2d_2">
      <defs>
       <path id="me20c042593" d="M 0 0 
L 0 3.5 
" style="stroke: #000000; stroke-width: 0.8"/>
      </defs>
      <g>
       <use xlink:href="#me20c042593" x="184.642833" y="275.714125" style="stroke: #000000; stroke-width: 0.8"/>
      </g>
     </g>
     <g id="text_1">
      <!-- $\mathdefault{10^{1}}$ -->
      <g transform="translate(175.842833 290.312563) scale(0.1 -0.1)">
       <defs>
        <path id="DejaVuSans-31" d="M 794 531 
L 1825 531 
L 1825 4091 
L 703 3866 
L 703 4441 
L 1819 4666 
L 2450 4666 
L 2450 531 
L 3481 531 
L 3481 0 
L 794 0 
L 794 531 
z
" transform="scale(0.015625)"/>
        <path id="DejaVuSans-30" d="M 2034 4250 
Q 1547 4250 1301 3770 
Q 1056 3291 1056 2328 
Q 1056 1369 1301 889 
Q 1547 409 2034 409 
Q 2525 409 2770 889 
Q 3016 1369 3016 2328 
Q 3016 3291 2770 3770 
Q 2525 4250 2034 4250 
z
M 2034 4750 
Q 2819 4750 3233 4129 
Q 3647 3509 3647 2328 
Q 3647 1150 3233 529 
Q 2819 -91 2034 -91 
Q 1250 -91 836 529 
Q 422 1150 422 2328 
Q 422 3509 836 4129 
Q 1250 4750 2034 4750 
z
" transform="scale(0.015625)"/>
       </defs>
       <use xlink:href="#DejaVuSans-31" transform="translate(0 0.684375)"/>
       <use xlink:href="#DejaVuSans-30" transform="translate(63.623047 0.684375)"/>
       <use xlink:href="#DejaVuSans-31" transform="translate(128.203125 38.965625) scale(0.7)"/>
      </g>
     </g>
    </g>
    <g id="xtick_2">
     <g id="line2d_3">
      <defs>
       <path id="mc64a6c959a" d="M 0 0 
L 0 2 
" style="stroke: #000000; stroke-width: 0.6"/>
      </defs>
      <g>
       <use xlink:href="#mc64a6c959a" x="81.441535" y="275.714125" style="stroke: #000000; stroke-width: 0.6"/>
      </g>
     </g>
    </g>
    <g id="xtick_3">
     <g id="line2d_4">
      <g>
       <use xlink:href="#mc64a6c959a" x="106.100866" y="275.714125" style="stroke: #000000; stroke-width: 0.6"/>
      </g>
     </g>
    </g>
    <g id="xtick_4">
     <g id="line2d_5">
      <g>
       <use xlink:href="#mc64a6c959a" x="125.228128" y="275.714125" style="stroke: #000000; stroke-width: 0.6"/>
      </g>
     </g>
    </g>
    <g id="xtick_5">
     <g id="line2d_6">
      <g>
       <use xlink:href="#mc64a6c959a" x="140.85624" y="275.714125" style="stroke: #000000; stroke-width: 0.6"/>
      </g>
     </g>
    </g>
    <g id="xtick_6">
     <g id="line2d_7">
      <g>
       <use xlink:href="#mc64a6c959a" x="154.06962" y="275.714125" style="stroke: #000000; stroke-width: 0.6"/>
      </g>
     </g>
    </g>
    <g id="xtick_7">
     <g id="line2d_8">
      <g>
       <use xlink:href="#mc64a6c959a" x="165.51557" y="275.714125" style="stroke: #000000; stroke-width: 0.6"/>
      </g>
     </g>
    </g>
    <g id="xtick_8">
     <g id="line2d_9">
      <g>
       <use xlink:href="#mc64a6c959a" x="175.611614" y="275.714125" style="stroke: #000000; stroke-width: 0.6"/>
      </g>
     </g>
    </g>
    <g id="xtick_9">
     <g id="line2d_10">
      <g>
       <use xlink:href="#mc64a6c959a" x="244.057537" y="275.714125" style="stroke: #000000; stroke-width: 0.6"/>
      </g>
     </g>
    </g>
    <g id="xtick_10">
     <g id="line2d_11">
      <g>
       <use xlink:href="#mc64a6c959a" x="278.812911" y="275.714125" style="stroke: #000000; stroke-width: 0.6"/>
      </g>
     </g>
    </g>
    <g id="xtick_11">
     <g id="line2d_12">
      <g>
       <use xlink:href="#mc64a6c959a" x="303.472242" y="275.714125" style="stroke: #000000; stroke-width: 0.6"/>
      </g>
     </g>
    </g>
    <g id="text_2">
     <!-- $L$ -->
     <g transform="translate(189.096889 305.510375) scale(0.12 -0.12)">
      <defs>
       <path id="DejaVuSans-Oblique-4c" d="M 1075 4666 
L 1709 4666 
L 909 525 
L 3181 525 
L 3078 0 
L 172 0 
L 1075 4666 
z
" transform="scale(0.015625)"/>
      </defs>
      <use xlink:href="#DejaVuSans-Oblique-4c" transform="translate(0 0.09375)"/>
     </g>
    </g>
   </g>
   <g id="matplotlib.axis_2">
    <g id="ytick_1">
     <g id="line2d_13">
      <defs>
       <path id="m517b386cb0" d="M 0 0 
L -2 0 
" style="stroke: #000000; stroke-width: 0.6"/>
      </defs>
      <g>
       <use xlink:href="#m517b386cb0" x="70.34" y="147.512766" style="stroke: #000000; stroke-width: 0.6"/>
      </g>
     </g>
     <g id="text_3">
      <!-- $\mathdefault{7\times10^{-1}}$ -->
      <g transform="translate(22.84 151.311985) scale(0.1 -0.1)">
       <defs>
        <path id="DejaVuSans-37" d="M 525 4666 
L 3525 4666 
L 3525 4397 
L 1831 0 
L 1172 0 
L 2766 4134 
L 525 4134 
L 525 4666 
z
" transform="scale(0.015625)"/>
        <path id="DejaVuSans-d7" d="M 4488 3438 
L 3059 2003 
L 4488 575 
L 4116 197 
L 2681 1631 
L 1247 197 
L 878 575 
L 2303 2003 
L 878 3438 
L 1247 3816 
L 2681 2381 
L 4116 3816 
L 4488 3438 
z
" transform="scale(0.015625)"/>
        <path id="DejaVuSans-2212" d="M 678 2272 
L 4684 2272 
L 4684 1741 
L 678 1741 
L 678 2272 
z
" transform="scale(0.015625)"/>
       </defs>
       <use xlink:href="#DejaVuSans-37" transform="translate(0 0.684375)"/>
       <use xlink:href="#DejaVuSans-d7" transform="translate(83.105469 0.684375)"/>
       <use xlink:href="#DejaVuSans-31" transform="translate(186.376953 0.684375)"/>
       <use xlink:href="#DejaVuSans-30" transform="translate(250 0.684375)"/>
       <use xlink:href="#DejaVuSans-2212" transform="translate(314.580078 38.965625) scale(0.7)"/>
       <use xlink:href="#DejaVuSans-31" transform="translate(373.232422 38.965625) scale(0.7)"/>
      </g>
     </g>
    </g>
    <g id="ytick_2">
     <g id="line2d_14">
      <g>
       <use xlink:href="#m517b386cb0" x="70.34" y="24.285419" style="stroke: #000000; stroke-width: 0.6"/>
      </g>
     </g>
     <g id="text_4">
      <!-- $\mathdefault{8\times10^{-1}}$ -->
      <g transform="translate(22.84 28.084637) scale(0.1 -0.1)">
       <defs>
        <path id="DejaVuSans-38" d="M 2034 2216 
Q 1584 2216 1326 1975 
Q 1069 1734 1069 1313 
Q 1069 891 1326 650 
Q 1584 409 2034 409 
Q 2484 409 2743 651 
Q 3003 894 3003 1313 
Q 3003 1734 2745 1975 
Q 2488 2216 2034 2216 
z
M 1403 2484 
Q 997 2584 770 2862 
Q 544 3141 544 3541 
Q 544 4100 942 4425 
Q 1341 4750 2034 4750 
Q 2731 4750 3128 4425 
Q 3525 4100 3525 3541 
Q 3525 3141 3298 2862 
Q 3072 2584 2669 2484 
Q 3125 2378 3379 2068 
Q 3634 1759 3634 1313 
Q 3634 634 3220 271 
Q 2806 -91 2034 -91 
Q 1263 -91 848 271 
Q 434 634 434 1313 
Q 434 1759 690 2068 
Q 947 2378 1403 2484 
z
M 1172 3481 
Q 1172 3119 1398 2916 
Q 1625 2713 2034 2713 
Q 2441 2713 2670 2916 
Q 2900 3119 2900 3481 
Q 2900 3844 2670 4047 
Q 2441 4250 2034 4250 
Q 1625 4250 1398 4047 
Q 1172 3844 1172 3481 
z
" transform="scale(0.015625)"/>
       </defs>
       <use xlink:href="#DejaVuSans-38" transform="translate(0 0.684375)"/>
       <use xlink:href="#DejaVuSans-d7" transform="translate(83.105469 0.684375)"/>
       <use xlink:href="#DejaVuSans-31" transform="translate(186.376953 0.684375)"/>
       <use xlink:href="#DejaVuSans-30" transform="translate(250 0.684375)"/>
       <use xlink:href="#DejaVuSans-2212" transform="translate(314.580078 38.965625) scale(0.7)"/>
       <use xlink:href="#DejaVuSans-31" transform="translate(373.232422 38.965625) scale(0.7)"/>
      </g>
     </g>
    </g>
    <g id="text_5">
     <!-- $\chi_{\max}(L)$ -->
     <g transform="translate(16.32 169.956125) rotate(-90) scale(0.12 -0.12)">
      <defs>
       <path id="DejaVuSans-Oblique-3c7" d="M 1922 -781 
L 1691 416 
L 394 -1334 
L -284 -1334 
L 1553 1141 
L 1269 2613 
Q 1194 3006 713 3006 
L 559 3006 
L 653 3500 
L 872 3494 
Q 1675 3472 1775 2950 
L 2006 1753 
L 3303 3503 
L 3981 3503 
L 2144 1028 
L 2428 -444 
Q 2503 -838 2984 -838 
L 3138 -838 
L 3044 -1331 
L 2825 -1325 
Q 2022 -1303 1922 -781 
z
" transform="scale(0.015625)"/>
       <path id="DejaVuSans-6d" d="M 3328 2828 
Q 3544 3216 3844 3400 
Q 4144 3584 4550 3584 
Q 5097 3584 5394 3201 
Q 5691 2819 5691 2113 
L 5691 0 
L 5113 0 
L 5113 2094 
Q 5113 2597 4934 2840 
Q 4756 3084 4391 3084 
Q 3944 3084 3684 2787 
Q 3425 2491 3425 1978 
L 3425 0 
L 2847 0 
L 2847 2094 
Q 2847 2600 2669 2842 
Q 2491 3084 2119 3084 
Q 1678 3084 1418 2786 
Q 1159 2488 1159 1978 
L 1159 0 
L 581 0 
L 581 3500 
L 1159 3500 
L 1159 2956 
Q 1356 3278 1631 3431 
Q 1906 3584 2284 3584 
Q 2666 3584 2933 3390 
Q 3200 3197 3328 2828 
z
" transform="scale(0.015625)"/>
       <path id="DejaVuSans-61" d="M 2194 1759 
Q 1497 1759 1228 1600 
Q 959 1441 959 1056 
Q 959 750 1161 570 
Q 1363 391 1709 391 
Q 2188 391 2477 730 
Q 2766 1069 2766 1631 
L 2766 1759 
L 2194 1759 
z
M 3341 1997 
L 3341 0 
L 2766 0 
L 2766 531 
Q 2569 213 2275 61 
Q 1981 -91 1556 -91 
Q 1019 -91 701 211 
Q 384 513 384 1019 
Q 384 1609 779 1909 
Q 1175 2209 1959 2209 
L 2766 2209 
L 2766 2266 
Q 2766 2663 2505 2880 
Q 2244 3097 1772 3097 
Q 1472 3097 1187 3025 
Q 903 2953 641 2809 
L 641 3341 
Q 956 3463 1253 3523 
Q 1550 3584 1831 3584 
Q 2591 3584 2966 3190 
Q 3341 2797 3341 1997 
z
" transform="scale(0.015625)"/>
       <path id="DejaVuSans-78" d="M 3513 3500 
L 2247 1797 
L 3578 0 
L 2900 0 
L 1881 1375 
L 863 0 
L 184 0 
L 1544 1831 
L 300 3500 
L 978 3500 
L 1906 2253 
L 2834 3500 
L 3513 3500 
z
" transform="scale(0.015625)"/>
       <path id="DejaVuSans-28" d="M 1984 4856 
Q 1566 4138 1362 3434 
Q 1159 2731 1159 2009 
Q 1159 1288 1364 580 
Q 1569 -128 1984 -844 
L 1484 -844 
Q 1016 -109 783 600 
Q 550 1309 550 2009 
Q 550 2706 781 3412 
Q 1013 4119 1484 4856 
L 1984 4856 
z
" transform="scale(0.015625)"/>
       <path id="DejaVuSans-29" d="M 513 4856 
L 1013 4856 
Q 1481 4119 1714 3412 
Q 1947 2706 1947 2009 
Q 1947 1309 1714 600 
Q 1481 -109 1013 -844 
L 513 -844 
Q 928 -128 1133 580 
Q 1338 1288 1338 2009 
Q 1338 2731 1133 3434 
Q 928 4138 513 4856 
z
" transform="scale(0.015625)"/>
      </defs>
      <use xlink:href="#DejaVuSans-Oblique-3c7" transform="translate(0 0.125)"/>
      <use xlink:href="#DejaVuSans-6d" transform="translate(59.179688 -16.28125) scale(0.7)"/>
      <use xlink:href="#DejaVuSans-61" transform="translate(127.368164 -16.28125) scale(0.7)"/>
      <use xlink:href="#DejaVuSans-78" transform="translate(170.263672 -16.28125) scale(0.7)"/>
      <use xlink:href="#DejaVuSans-28" transform="translate(214.423828 0.125)"/>
      <use xlink:href="#DejaVuSans-Oblique-4c" transform="translate(253.4375 0.125)"/>
      <use xlink:href="#DejaVuSans-29" transform="translate(309.150391 0.125)"/>
     </g>
    </g>
   </g>
   <g id="line2d_15">
    <defs>
     <path id="m111f2977cc" d="M 0 5 
C 1.326016 5 2.597899 4.473168 3.535534 3.535534 
C 4.473168 2.597899 5 1.326016 5 0 
C 5 -1.326016 4.473168 -2.597899 3.535534 -3.535534 
C 2.597899 -4.473168 1.326016 -5 0 -5 
C -1.326016 -5 -2.597899 -4.473168 -3.535534 -3.535534 
C -4.473168 -2.597899 -5 -1.326016 -5 0 
C -5 1.326016 -4.473168 2.597899 -3.535534 3.535534 
C -2.597899 4.473168 -1.326016 5 0 5 
z
" style="stroke: #000000"/>
    </defs>
    <g clip-path="url(#p922bc5c7a5)">
     <use xlink:href="#m111f2977cc" x="106.100866" y="264.196125" style="stroke: #000000"/>
     <use xlink:href="#m111f2977cc" x="140.85624" y="75.565399" style="stroke: #000000"/>
     <use xlink:href="#m111f2977cc" x="165.51557" y="33.836125" style="stroke: #000000"/>
     <use xlink:href="#m111f2977cc" x="224.930275" y="213.469218" style="stroke: #000000"/>
     <use xlink:href="#m111f2977cc" x="259.685649" y="223.973357" style="stroke: #000000"/>
     <use xlink:href="#m111f2977cc" x="284.344979" y="157.207657" style="stroke: #000000"/>
    </g>
   </g>
   <g id="line2d_16">
    <path d="M 81.441535 140.368126 
L 91.505505 142.199077 
L 100.511056 143.837468 
L 108.659781 145.319976 
L 116.100652 146.673702 
L 122.946878 147.919245 
L 129.28651 149.072622 
L 135.189381 150.146539 
L 140.711813 151.151242 
L 145.899889 152.095115 
L 150.791794 152.985105 
L 155.419526 153.827034 
L 159.810161 154.625828 
L 163.986814 155.385691 
L 167.969375 156.110244 
L 171.775088 156.802622 
L 175.418991 157.465562 
L 178.914285 158.101465 
L 182.272618 158.712451 
L 185.50432 159.300398 
L 188.618595 159.866982 
L 191.623678 160.413701 
L 194.526967 160.9419 
L 197.335133 161.452793 
L 200.054213 161.947478 
L 202.689684 162.426953 
L 205.246536 162.892124 
L 207.729325 163.343821 
L 210.142219 163.782802 
L 212.489047 164.209763 
L 214.773331 164.625346 
L 216.998317 165.03014 
L 219.167007 165.424693 
L 221.282179 165.809509 
L 223.346412 166.185057 
L 225.362101 166.551774 
L 227.331477 166.910065 
L 229.25662 167.260309 
L 231.139474 167.602859 
L 232.981857 167.938046 
L 234.785472 168.26618 
L 236.551917 168.587551 
L 238.282693 168.902434 
L 239.979213 169.211083 
L 241.642806 169.513743 
L 243.274725 169.81064 
L 244.876156 170.10199 
L 246.448215 170.387997 
L 247.99196 170.668853 
L 249.508395 170.944739 
L 250.998468 171.21583 
L 252.46308 171.482289 
L 253.903086 171.744271 
L 255.319301 172.001925 
L 256.712496 172.255391 
L 258.08341 172.504803 
L 259.432742 172.750288 
L 260.761162 172.991969 
L 262.069309 173.229962 
L 263.357792 173.464377 
L 264.627192 173.695321 
L 265.878068 173.922895 
L 267.110953 174.147195 
L 268.326355 174.368314 
L 269.524765 174.586343 
L 270.706651 174.801365 
L 271.872462 175.013462 
L 273.02263 175.222713 
L 274.157569 175.429194 
L 275.277676 175.632977 
L 276.383336 175.834131 
L 277.474915 176.032723 
L 278.552768 176.228818 
L 279.617235 176.422478 
L 280.668646 176.613763 
L 281.707316 176.802729 
L 282.73355 176.989433 
L 283.747644 177.173929 
L 284.74988 177.356267 
L 285.740533 177.536497 
L 286.719867 177.714669 
L 287.688139 177.890828 
L 288.645595 178.065019 
L 289.592474 178.237286 
L 290.529008 178.407671 
L 291.45542 178.576214 
L 292.371926 178.742955 
L 293.278737 178.907932 
L 294.176054 179.071182 
L 295.064076 179.232741 
L 295.942992 179.392643 
L 296.812987 179.550923 
L 297.67424 179.707612 
L 298.526927 179.862742 
L 299.371214 180.016344 
L 300.207267 180.168448 
L 301.035243 180.319083 
L 301.855299 180.468277 
L 302.667583 180.616057 
L 303.472242 180.762449 
" clip-path="url(#p922bc5c7a5)" style="fill: none; stroke-dasharray: 5.55,2.4; stroke-dashoffset: 0; stroke: #ff0000; stroke-opacity: 0.7; stroke-width: 1.5"/>
   </g>
   <g id="patch_3">
    <path d="M 70.34 275.714125 
L 70.34 22.318125 
" style="fill: none; stroke: #000000; stroke-width: 0.8; stroke-linejoin: miter; stroke-linecap: square"/>
   </g>
   <g id="patch_4">
    <path d="M 314.573777 275.714125 
L 314.573777 22.318125 
" style="fill: none; stroke: #000000; stroke-width: 0.8; stroke-linejoin: miter; stroke-linecap: square"/>
   </g>
   <g id="patch_5">
    <path d="M 70.34 275.714125 
L 314.573777 275.714125 
" style="fill: none; stroke: #000000; stroke-width: 0.8; stroke-linejoin: miter; stroke-linecap: square"/>
   </g>
   <g id="patch_6">
    <path d="M 70.34 22.318125 
L 314.573777 22.318125 
" style="fill: none; stroke: #000000; stroke-width: 0.8; stroke-linejoin: miter; stroke-linecap: square"/>
   </g>
   <g id="text_6">
    <!-- Susceptibility peak scaling -->
    <g transform="translate(112.674701 16.318125) scale(0.12 -0.12)">
     <defs>
      <path id="DejaVuSans-53" d="M 3425 4513 
L 3425 3897 
Q 3066 4069 2747 4153 
Q 2428 4238 2131 4238 
Q 1616 4238 1336 4038 
Q 1056 3838 1056 3469 
Q 1056 3159 1242 3001 
Q 1428 2844 1947 2747 
L 2328 2669 
Q 3034 2534 3370 2195 
Q 3706 1856 3706 1288 
Q 3706 609 3251 259 
Q 2797 -91 1919 -91 
Q 1588 -91 1214 -16 
Q 841 59 441 206 
L 441 856 
Q 825 641 1194 531 
Q 1563 422 1919 422 
Q 2459 422 2753 634 
Q 3047 847 3047 1241 
Q 3047 1584 2836 1778 
Q 2625 1972 2144 2069 
L 1759 2144 
Q 1053 2284 737 2584 
Q 422 2884 422 3419 
Q 422 4038 858 4394 
Q 1294 4750 2059 4750 
Q 2388 4750 2728 4690 
Q 3069 4631 3425 4513 
z
" transform="scale(0.015625)"/>
      <path id="DejaVuSans-75" d="M 544 1381 
L 544 3500 
L 1119 3500 
L 1119 1403 
Q 1119 906 1312 657 
Q 1506 409 1894 409 
Q 2359 409 2629 706 
Q 2900 1003 2900 1516 
L 2900 3500 
L 3475 3500 
L 3475 0 
L 2900 0 
L 2900 538 
Q 2691 219 2414 64 
Q 2138 -91 1772 -91 
Q 1169 -91 856 284 
Q 544 659 544 1381 
z
M 1991 3584 
L 1991 3584 
z
" transform="scale(0.015625)"/>
      <path id="DejaVuSans-73" d="M 2834 3397 
L 2834 2853 
Q 2591 2978 2328 3040 
Q 2066 3103 1784 3103 
Q 1356 3103 1142 2972 
Q 928 2841 928 2578 
Q 928 2378 1081 2264 
Q 1234 2150 1697 2047 
L 1894 2003 
Q 2506 1872 2764 1633 
Q 3022 1394 3022 966 
Q 3022 478 2636 193 
Q 2250 -91 1575 -91 
Q 1294 -91 989 -36 
Q 684 19 347 128 
L 347 722 
Q 666 556 975 473 
Q 1284 391 1588 391 
Q 1994 391 2212 530 
Q 2431 669 2431 922 
Q 2431 1156 2273 1281 
Q 2116 1406 1581 1522 
L 1381 1569 
Q 847 1681 609 1914 
Q 372 2147 372 2553 
Q 372 3047 722 3315 
Q 1072 3584 1716 3584 
Q 2034 3584 2315 3537 
Q 2597 3491 2834 3397 
z
" transform="scale(0.015625)"/>
      <path id="DejaVuSans-63" d="M 3122 3366 
L 3122 2828 
Q 2878 2963 2633 3030 
Q 2388 3097 2138 3097 
Q 1578 3097 1268 2742 
Q 959 2388 959 1747 
Q 959 1106 1268 751 
Q 1578 397 2138 397 
Q 2388 397 2633 464 
Q 2878 531 3122 666 
L 3122 134 
Q 2881 22 2623 -34 
Q 2366 -91 2075 -91 
Q 1284 -91 818 406 
Q 353 903 353 1747 
Q 353 2603 823 3093 
Q 1294 3584 2113 3584 
Q 2378 3584 2631 3529 
Q 2884 3475 3122 3366 
z
" transform="scale(0.015625)"/>
      <path id="DejaVuSans-65" d="M 3597 1894 
L 3597 1613 
L 953 1613 
Q 991 1019 1311 708 
Q 1631 397 2203 397 
Q 2534 397 2845 478 
Q 3156 559 3463 722 
L 3463 178 
Q 3153 47 2828 -22 
Q 2503 -91 2169 -91 
Q 1331 -91 842 396 
Q 353 884 353 1716 
Q 353 2575 817 3079 
Q 1281 3584 2069 3584 
Q 2775 3584 3186 3129 
Q 3597 2675 3597 1894 
z
M 3022 2063 
Q 3016 2534 2758 2815 
Q 2500 3097 2075 3097 
Q 1594 3097 1305 2825 
Q 1016 2553 972 2059 
L 3022 2063 
z
" transform="scale(0.015625)"/>
      <path id="DejaVuSans-70" d="M 1159 525 
L 1159 -1331 
L 581 -1331 
L 581 3500 
L 1159 3500 
L 1159 2969 
Q 1341 3281 1617 3432 
Q 1894 3584 2278 3584 
Q 2916 3584 3314 3078 
Q 3713 2572 3713 1747 
Q 3713 922 3314 415 
Q 2916 -91 2278 -91 
Q 1894 -91 1617 61 
Q 1341 213 1159 525 
z
M 3116 1747 
Q 3116 2381 2855 2742 
Q 2594 3103 2138 3103 
Q 1681 3103 1420 2742 
Q 1159 2381 1159 1747 
Q 1159 1113 1420 752 
Q 1681 391 2138 391 
Q 2594 391 2855 752 
Q 3116 1113 3116 1747 
z
" transform="scale(0.015625)"/>
      <path id="DejaVuSans-74" d="M 1172 4494 
L 1172 3500 
L 2356 3500 
L 2356 3053 
L 1172 3053 
L 1172 1153 
Q 1172 725 1289 603 
Q 1406 481 1766 481 
L 2356 481 
L 2356 0 
L 1766 0 
Q 1100 0 847 248 
Q 594 497 594 1153 
L 594 3053 
L 172 3053 
L 172 3500 
L 594 3500 
L 594 4494 
L 1172 4494 
z
" transform="scale(0.015625)"/>
      <path id="DejaVuSans-69" d="M 603 3500 
L 1178 3500 
L 1178 0 
L 603 0 
L 603 3500 
z
M 603 4863 
L 1178 4863 
L 1178 4134 
L 603 4134 
L 603 4863 
z
" transform="scale(0.015625)"/>
      <path id="DejaVuSans-62" d="M 3116 1747 
Q 3116 2381 2855 2742 
Q 2594 3103 2138 3103 
Q 1681 3103 1420 2742 
Q 1159 2381 1159 1747 
Q 1159 1113 1420 752 
Q 1681 391 2138 391 
Q 2594 391 2855 752 
Q 3116 1113 3116 1747 
z
M 1159 2969 
Q 1341 3281 1617 3432 
Q 1894 3584 2278 3584 
Q 2916 3584 3314 3078 
Q 3713 2572 3713 1747 
Q 3713 922 3314 415 
Q 2916 -91 2278 -91 
Q 1894 -91 1617 61 
Q 1341 213 1159 525 
L 1159 0 
L 581 0 
L 581 4863 
L 1159 4863 
L 1159 2969 
z
" transform="scale(0.015625)"/>
      <path id="DejaVuSans-6c" d="M 603 4863 
L 1178 4863 
L 1178 0 
L 603 0 
L 603 4863 
z
" transform="scale(0.015625)"/>
      <path id="DejaVuSans-79" d="M 2059 -325 
Q 1816 -950 1584 -1140 
Q 1353 -1331 966 -1331 
L 506 -1331 
L 506 -850 
L 844 -850 
Q 1081 -850 1212 -737 
Q 1344 -625 1503 -206 
L 1606 56 
L 191 3500 
L 800 3500 
L 1894 763 
L 2988 3500 
L 3597 3500 
L 2059 -325 
z
" transform="scale(0.015625)"/>
      <path id="DejaVuSans-20" transform="scale(0.015625)"/>
      <path id="DejaVuSans-6b" d="M 581 4863 
L 1159 4863 
L 1159 1991 
L 2875 3500 
L 3609 3500 
L 1753 1863 
L 3688 0 
L 2938 0 
L 1159 1709 
L 1159 0 
L 581 0 
L 581 4863 
z
" transform="scale(0.015625)"/>
      <path id="DejaVuSans-6e" d="M 3513 2113 
L 3513 0 
L 2938 0 
L 2938 2094 
Q 2938 2591 2744 2837 
Q 2550 3084 2163 3084 
Q 1697 3084 1428 2787 
Q 1159 2491 1159 1978 
L 1159 0 
L 581 0 
L 581 3500 
L 1159 3500 
L 1159 2956 
Q 1366 3272 1645 3428 
Q 1925 3584 2291 3584 
Q 2894 3584 3203 3211 
Q 3513 2838 3513 2113 
z
" transform="scale(0.015625)"/>
      <path id="DejaVuSans-67" d="M 2906 1791 
Q 2906 2416 2648 2759 
Q 2391 3103 1925 3103 
Q 1463 3103 1205 2759 
Q 947 2416 947 1791 
Q 947 1169 1205 825 
Q 1463 481 1925 481 
Q 2391 481 2648 825 
Q 2906 1169 2906 1791 
z
M 3481 434 
Q 3481 -459 3084 -895 
Q 2688 -1331 1869 -1331 
Q 1566 -1331 1297 -1286 
Q 1028 -1241 775 -1147 
L 775 -588 
Q 1028 -725 1275 -790 
Q 1522 -856 1778 -856 
Q 2344 -856 2625 -561 
Q 2906 -266 2906 331 
L 2906 616 
Q 2728 306 2450 153 
Q 2172 0 1784 0 
Q 1141 0 747 490 
Q 353 981 353 1791 
Q 353 2603 747 3093 
Q 1141 3584 1784 3584 
Q 2172 3584 2450 3431 
Q 2728 3278 2906 2969 
L 2906 3500 
L 3481 3500 
L 3481 434 
z
" transform="scale(0.015625)"/>
     </defs>
     <use xlink:href="#DejaVuSans-53"/>
     <use xlink:href="#DejaVuSans-75" x="63.476562"/>
     <use xlink:href="#DejaVuSans-73" x="126.855469"/>
     <use xlink:href="#DejaVuSans-63" x="178.955078"/>
     <use xlink:href="#DejaVuSans-65" x="233.935547"/>
     <use xlink:href="#DejaVuSans-70" x="295.458984"/>
     <use xlink:href="#DejaVuSans-74" x="358.935547"/>
     <use xlink:href="#DejaVuSans-69" x="398.144531"/>
     <use xlink:href="#DejaVuSans-62" x="425.927734"/>
     <use xlink:href="#DejaVuSans-69" x="489.404297"/>
     <use xlink:href="#DejaVuSans-6c" x="517.1875"/>
     <use xlink:href="#DejaVuSans-69" x="544.970703"/>
     <use xlink:href="#DejaVuSans-74" x="572.753906"/>
     <use xlink:href="#DejaVuSans-79" x="611.962891"/>
     <use xlink:href="#DejaVuSans-20" x="671.142578"/>
     <use xlink:href="#DejaVuSans-70" x="702.929688"/>
     <use xlink:href="#DejaVuSans-65" x="766.40625"/>
     <use xlink:href="#DejaVuSans-61" x="827.929688"/>
     <use xlink:href="#DejaVuSans-6b" x="889.208984"/>
     <use xlink:href="#DejaVuSans-20" x="947.119141"/>
     <use xlink:href="#DejaVuSans-73" x="978.90625"/>
     <use xlink:href="#DejaVuSans-63" x="1031.005859"/>
     <use xlink:href="#DejaVuSans-61" x="1085.986328"/>
     <use xlink:href="#DejaVuSans-6c" x="1147.265625"/>
     <use xlink:href="#DejaVuSans-69" x="1175.048828"/>
     <use xlink:href="#DejaVuSans-6e" x="1202.832031"/>
     <use xlink:href="#DejaVuSans-67" x="1266.210938"/>
    </g>
   </g>
   <g id="legend_1">
    <g id="patch_7">
     <path d="M 208.72534 55.942969 
L 308.273777 55.942969 
Q 310.073777 55.942969 310.073777 54.142969 
L 310.073777 28.618125 
Q 310.073777 26.818125 308.273777 26.818125 
L 208.72534 26.818125 
Q 206.92534 26.818125 206.92534 28.618125 
L 206.92534 54.142969 
Q 206.92534 55.942969 208.72534 55.942969 
z
" style="fill: #ffffff; opacity: 0.8; stroke: #cccccc; stroke-linejoin: miter"/>
    </g>
    <g id="line2d_17">
     <g>
      <use xlink:href="#m111f2977cc" x="219.52534" y="34.106719" style="stroke: #000000"/>
     </g>
    </g>
    <g id="text_7">
     <!-- Data -->
     <g transform="translate(235.72534 37.256719) scale(0.09 -0.09)">
      <defs>
       <path id="DejaVuSans-44" d="M 1259 4147 
L 1259 519 
L 2022 519 
Q 2988 519 3436 956 
Q 3884 1394 3884 2338 
Q 3884 3275 3436 3711 
Q 2988 4147 2022 4147 
L 1259 4147 
z
M 628 4666 
L 1925 4666 
Q 3281 4666 3915 4102 
Q 4550 3538 4550 2338 
Q 4550 1131 3912 565 
Q 3275 0 1925 0 
L 628 0 
L 628 4666 
z
" transform="scale(0.015625)"/>
      </defs>
      <use xlink:href="#DejaVuSans-44"/>
      <use xlink:href="#DejaVuSans-61" x="77.001953"/>
      <use xlink:href="#DejaVuSans-74" x="138.28125"/>
      <use xlink:href="#DejaVuSans-61" x="177.490234"/>
     </g>
    </g>
    <g id="line2d_18">
     <path d="M 210.52534 47.317031 
L 219.52534 47.317031 
L 228.52534 47.317031 
" style="fill: none; stroke-dasharray: 5.55,2.4; stroke-dashoffset: 0; stroke: #ff0000; stroke-opacity: 0.7; stroke-width: 1.5"/>
    </g>
    <g id="text_8">
     <!-- Fit: χ ~ L^-0.02 -->
     <g transform="translate(235.72534 50.467031) scale(0.09 -0.09)">
      <defs>
       <path id="DejaVuSans-46" d="M 628 4666 
L 3309 4666 
L 3309 4134 
L 1259 4134 
L 1259 2759 
L 3109 2759 
L 3109 2228 
L 1259 2228 
L 1259 0 
L 628 0 
L 628 4666 
z
" transform="scale(0.015625)"/>
       <path id="DejaVuSans-3a" d="M 750 794 
L 1409 794 
L 1409 0 
L 750 0 
L 750 794 
z
M 750 3309 
L 1409 3309 
L 1409 2516 
L 750 2516 
L 750 3309 
z
" transform="scale(0.015625)"/>
       <path id="DejaVuSans-3c7" d="M 2288 -781 
L 1822 416 
L 863 -1334 
L 184 -1334 
L 1541 1141 
L 972 2613 
Q 819 3006 338 3006 
L 184 3006 
L 184 3500 
L 403 3494 
Q 1209 3472 1413 2950 
L 1875 1753 
L 2834 3503 
L 3513 3503 
L 2156 1028 
L 2725 -444 
Q 2878 -838 3359 -838 
L 3513 -838 
L 3513 -1331 
L 3294 -1325 
Q 2488 -1303 2288 -781 
z
" transform="scale(0.015625)"/>
       <path id="DejaVuSans-7e" d="M 4684 2553 
L 4684 1997 
Q 4356 1750 4076 1644 
Q 3797 1538 3494 1538 
Q 3150 1538 2694 1722 
Q 2659 1734 2644 1741 
Q 2622 1750 2575 1766 
Q 2091 1959 1797 1959 
Q 1522 1959 1253 1839 
Q 984 1719 678 1459 
L 678 2016 
Q 1006 2263 1286 2370 
Q 1566 2478 1869 2478 
Q 2213 2478 2672 2291 
Q 2703 2278 2719 2272 
Q 2744 2263 2788 2247 
Q 3272 2053 3566 2053 
Q 3834 2053 4098 2172 
Q 4363 2291 4684 2553 
z
" transform="scale(0.015625)"/>
       <path id="DejaVuSans-4c" d="M 628 4666 
L 1259 4666 
L 1259 531 
L 3531 531 
L 3531 0 
L 628 0 
L 628 4666 
z
" transform="scale(0.015625)"/>
       <path id="DejaVuSans-5e" d="M 2988 4666 
L 4684 2925 
L 4056 2925 
L 2681 4159 
L 1306 2925 
L 678 2925 
L 2375 4666 
L 2988 4666 
z
" transform="scale(0.015625)"/>
       <path id="DejaVuSans-2d" d="M 313 2009 
L 1997 2009 
L 1997 1497 
L 313 1497 
L 313 2009 
z
" transform="scale(0.015625)"/>
       <path id="DejaVuSans-2e" d="M 684 794 
L 1344 794 
L 1344 0 
L 684 0 
L 684 794 
z
" transform="scale(0.015625)"/>
       <path id="DejaVuSans-32" d="M 1228 531 
L 3431 531 
L 3431 0 
L 469 0 
L 469 531 
Q 828 903 1448 1529 
Q 2069 2156 2228 2338 
Q 2531 2678 2651 2914 
Q 2772 3150 2772 3378 
Q 2772 3750 2511 3984 
Q 2250 4219 1831 4219 
Q 1534 4219 1204 4116 
Q 875 4013 500 3803 
L 500 4441 
Q 881 4594 1212 4672 
Q 1544 4750 1819 4750 
Q 2544 4750 2975 4387 
Q 3406 4025 3406 3419 
Q 3406 3131 3298 2873 
Q 3191 2616 2906 2266 
Q 2828 2175 2409 1742 
Q 1991 1309 1228 531 
z
" transform="scale(0.015625)"/>
      </defs>
      <use xlink:href="#DejaVuSans-46"/>
      <use xlink:href="#DejaVuSans-69" x="50.269531"/>
      <use xlink:href="#DejaVuSans-74" x="78.052734"/>
      <use xlink:href="#DejaVuSans-3a" x="117.261719"/>
      <use xlink:href="#DejaVuSans-20" x="150.953125"/>
      <use xlink:href="#DejaVuSans-3c7" x="182.740234"/>
      <use xlink:href="#DejaVuSans-20" x="240.503906"/>
      <use xlink:href="#DejaVuSans-7e" x="272.291016"/>
      <use xlink:href="#DejaVuSans-20" x="356.080078"/>
      <use xlink:href="#DejaVuSans-4c" x="387.867188"/>
      <use xlink:href="#DejaVuSans-5e" x="443.580078"/>
      <use xlink:href="#DejaVuSans-2d" x="527.369141"/>
      <use xlink:href="#DejaVuSans-30" x="563.453125"/>
      <use xlink:href="#DejaVuSans-2e" x="627.076172"/>
      <use xlink:href="#DejaVuSans-30" x="658.863281"/>
      <use xlink:href="#DejaVuSans-32" x="722.486328"/>
     </g>
    </g>
   </g>
  </g>
  <g id="axes_2">
   <g id="patch_8">
    <path d="M 405.961306 275.714125 
L 650.195083 275.714125 
L 650.195083 22.318125 
L 405.961306 22.318125 
z
" style="fill: #ffffff"/>
   </g>
   <g id="matplotlib.axis_3">
    <g id="xtick_12">
     <g id="line2d_19">
      <path d="M 520.264138 275.714125 
L 520.264138 22.318125 
" clip-path="url(#p0d36758ed2)" style="fill: none; stroke: #b0b0b0; stroke-opacity: 0.3; stroke-width: 0.8; stroke-linecap: square"/>
     </g>
     <g id="line2d_20">
      <g>
       <use xlink:href="#me20c042593" x="520.264138" y="275.714125" style="stroke: #000000; stroke-width: 0.8"/>
      </g>
     </g>
     <g id="text_9">
      <!-- $\mathdefault{10^{1}}$ -->
      <g transform="translate(511.464138 290.312563) scale(0.1 -0.1)">
       <use xlink:href="#DejaVuSans-31" transform="translate(0 0.684375)"/>
       <use xlink:href="#DejaVuSans-30" transform="translate(63.623047 0.684375)"/>
       <use xlink:href="#DejaVuSans-31" transform="translate(128.203125 38.965625) scale(0.7)"/>
      </g>
     </g>
    </g>
    <g id="xtick_13">
     <g id="line2d_21">
      <g>
       <use xlink:href="#mc64a6c959a" x="417.062841" y="275.714125" style="stroke: #000000; stroke-width: 0.6"/>
      </g>
     </g>
    </g>
    <g id="xtick_14">
     <g id="line2d_22">
      <g>
       <use xlink:href="#mc64a6c959a" x="441.722171" y="275.714125" style="stroke: #000000; stroke-width: 0.6"/>
      </g>
     </g>
    </g>
    <g id="xtick_15">
     <g id="line2d_23">
      <g>
       <use xlink:href="#mc64a6c959a" x="460.849434" y="275.714125" style="stroke: #000000; stroke-width: 0.6"/>
      </g>
     </g>
    </g>
    <g id="xtick_16">
     <g id="line2d_24">
      <g>
       <use xlink:href="#mc64a6c959a" x="476.477545" y="275.714125" style="stroke: #000000; stroke-width: 0.6"/>
      </g>
     </g>
    </g>
    <g id="xtick_17">
     <g id="line2d_25">
      <g>
       <use xlink:href="#mc64a6c959a" x="489.690925" y="275.714125" style="stroke: #000000; stroke-width: 0.6"/>
      </g>
     </g>
    </g>
    <g id="xtick_18">
     <g id="line2d_26">
      <g>
       <use xlink:href="#mc64a6c959a" x="501.136876" y="275.714125" style="stroke: #000000; stroke-width: 0.6"/>
      </g>
     </g>
    </g>
    <g id="xtick_19">
     <g id="line2d_27">
      <g>
       <use xlink:href="#mc64a6c959a" x="511.23292" y="275.714125" style="stroke: #000000; stroke-width: 0.6"/>
      </g>
     </g>
    </g>
    <g id="xtick_20">
     <g id="line2d_28">
      <g>
       <use xlink:href="#mc64a6c959a" x="579.678843" y="275.714125" style="stroke: #000000; stroke-width: 0.6"/>
      </g>
     </g>
    </g>
    <g id="xtick_21">
     <g id="line2d_29">
      <g>
       <use xlink:href="#mc64a6c959a" x="614.434217" y="275.714125" style="stroke: #000000; stroke-width: 0.6"/>
      </g>
     </g>
    </g>
    <g id="xtick_22">
     <g id="line2d_30">
      <g>
       <use xlink:href="#mc64a6c959a" x="639.093547" y="275.714125" style="stroke: #000000; stroke-width: 0.6"/>
      </g>
     </g>
    </g>
    <g id="text_10">
     <!-- $L$ -->
     <g transform="translate(524.718194 305.510375) scale(0.12 -0.12)">
      <use xlink:href="#DejaVuSans-Oblique-4c" transform="translate(0 0.09375)"/>
     </g>
    </g>
   </g>
   <g id="matplotlib.axis_4">
    <g id="ytick_3">
     <g id="line2d_31">
      <g>
       <use xlink:href="#m517b386cb0" x="405.961306" y="255.157962" style="stroke: #000000; stroke-width: 0.6"/>
      </g>
     </g>
     <g id="text_11">
      <!-- $\mathdefault{4.25\times10^{-1}}$ -->
      <g transform="translate(343.061306 258.957181) scale(0.1 -0.1)">
       <defs>
        <path id="DejaVuSans-34" d="M 2419 4116 
L 825 1625 
L 2419 1625 
L 2419 4116 
z
M 2253 4666 
L 3047 4666 
L 3047 1625 
L 3713 1625 
L 3713 1100 
L 3047 1100 
L 3047 0 
L 2419 0 
L 2419 1100 
L 313 1100 
L 313 1709 
L 2253 4666 
z
" transform="scale(0.015625)"/>
        <path id="DejaVuSans-35" d="M 691 4666 
L 3169 4666 
L 3169 4134 
L 1269 4134 
L 1269 2991 
Q 1406 3038 1543 3061 
Q 1681 3084 1819 3084 
Q 2600 3084 3056 2656 
Q 3513 2228 3513 1497 
Q 3513 744 3044 326 
Q 2575 -91 1722 -91 
Q 1428 -91 1123 -41 
Q 819 9 494 109 
L 494 744 
Q 775 591 1075 516 
Q 1375 441 1709 441 
Q 2250 441 2565 725 
Q 2881 1009 2881 1497 
Q 2881 1984 2565 2268 
Q 2250 2553 1709 2553 
Q 1456 2553 1204 2497 
Q 953 2441 691 2322 
L 691 4666 
z
" transform="scale(0.015625)"/>
       </defs>
       <use xlink:href="#DejaVuSans-34" transform="translate(0 0.684375)"/>
       <use xlink:href="#DejaVuSans-2e" transform="translate(63.623047 0.684375)"/>
       <use xlink:href="#DejaVuSans-32" transform="translate(89.910156 0.684375)"/>
       <use xlink:href="#DejaVuSans-35" transform="translate(153.533203 0.684375)"/>
       <use xlink:href="#DejaVuSans-d7" transform="translate(236.638672 0.684375)"/>
       <use xlink:href="#DejaVuSans-31" transform="translate(339.910156 0.684375)"/>
       <use xlink:href="#DejaVuSans-30" transform="translate(403.533203 0.684375)"/>
       <use xlink:href="#DejaVuSans-2212" transform="translate(468.113281 38.965625) scale(0.7)"/>
       <use xlink:href="#DejaVuSans-31" transform="translate(526.765625 38.965625) scale(0.7)"/>
      </g>
     </g>
    </g>
    <g id="ytick_4">
     <g id="line2d_32">
      <g>
       <use xlink:href="#m517b386cb0" x="405.961306" y="215.756965" style="stroke: #000000; stroke-width: 0.6"/>
      </g>
     </g>
     <g id="text_12">
      <!-- $\mathdefault{4.5\times10^{-1}}$ -->
      <g transform="translate(348.961306 219.556184) scale(0.1 -0.1)">
       <use xlink:href="#DejaVuSans-34" transform="translate(0 0.684375)"/>
       <use xlink:href="#DejaVuSans-2e" transform="translate(63.623047 0.684375)"/>
       <use xlink:href="#DejaVuSans-35" transform="translate(95.410156 0.684375)"/>
       <use xlink:href="#DejaVuSans-d7" transform="translate(178.515625 0.684375)"/>
       <use xlink:href="#DejaVuSans-31" transform="translate(281.787109 0.684375)"/>
       <use xlink:href="#DejaVuSans-30" transform="translate(345.410156 0.684375)"/>
       <use xlink:href="#DejaVuSans-2212" transform="translate(409.990234 38.965625) scale(0.7)"/>
       <use xlink:href="#DejaVuSans-31" transform="translate(468.642578 38.965625) scale(0.7)"/>
      </g>
     </g>
    </g>
    <g id="ytick_5">
     <g id="line2d_33">
      <g>
       <use xlink:href="#m517b386cb0" x="405.961306" y="178.486819" style="stroke: #000000; stroke-width: 0.6"/>
      </g>
     </g>
     <g id="text_13">
      <!-- $\mathdefault{4.75\times10^{-1}}$ -->
      <g transform="translate(343.361306 182.286038) scale(0.1 -0.1)">
       <use xlink:href="#DejaVuSans-34" transform="translate(0 0.684375)"/>
       <use xlink:href="#DejaVuSans-2e" transform="translate(63.623047 0.684375)"/>
       <use xlink:href="#DejaVuSans-37" transform="translate(87.660156 0.684375)"/>
       <use xlink:href="#DejaVuSans-35" transform="translate(151.283203 0.684375)"/>
       <use xlink:href="#DejaVuSans-d7" transform="translate(234.388672 0.684375)"/>
       <use xlink:href="#DejaVuSans-31" transform="translate(337.660156 0.684375)"/>
       <use xlink:href="#DejaVuSans-30" transform="translate(401.283203 0.684375)"/>
       <use xlink:href="#DejaVuSans-2212" transform="translate(465.863281 38.965625) scale(0.7)"/>
       <use xlink:href="#DejaVuSans-31" transform="translate(524.515625 38.965625) scale(0.7)"/>
      </g>
     </g>
    </g>
    <g id="ytick_6">
     <g id="line2d_34">
      <g>
       <use xlink:href="#m517b386cb0" x="405.961306" y="143.128823" style="stroke: #000000; stroke-width: 0.6"/>
      </g>
     </g>
     <g id="text_14">
      <!-- $\mathdefault{5\times10^{-1}}$ -->
      <g transform="translate(358.461306 146.928042) scale(0.1 -0.1)">
       <use xlink:href="#DejaVuSans-35" transform="translate(0 0.684375)"/>
       <use xlink:href="#DejaVuSans-d7" transform="translate(83.105469 0.684375)"/>
       <use xlink:href="#DejaVuSans-31" transform="translate(186.376953 0.684375)"/>
       <use xlink:href="#DejaVuSans-30" transform="translate(250 0.684375)"/>
       <use xlink:href="#DejaVuSans-2212" transform="translate(314.580078 38.965625) scale(0.7)"/>
       <use xlink:href="#DejaVuSans-31" transform="translate(373.232422 38.965625) scale(0.7)"/>
      </g>
     </g>
    </g>
    <g id="ytick_7">
     <g id="line2d_35">
      <g>
       <use xlink:href="#m517b386cb0" x="405.961306" y="109.49631" style="stroke: #000000; stroke-width: 0.6"/>
      </g>
     </g>
     <g id="text_15">
      <!-- $\mathdefault{5.25\times10^{-1}}$ -->
      <g transform="translate(343.061306 113.295529) scale(0.1 -0.1)">
       <use xlink:href="#DejaVuSans-35" transform="translate(0 0.684375)"/>
       <use xlink:href="#DejaVuSans-2e" transform="translate(63.623047 0.684375)"/>
       <use xlink:href="#DejaVuSans-32" transform="translate(89.910156 0.684375)"/>
       <use xlink:href="#DejaVuSans-35" transform="translate(153.533203 0.684375)"/>
       <use xlink:href="#DejaVuSans-d7" transform="translate(236.638672 0.684375)"/>
       <use xlink:href="#DejaVuSans-31" transform="translate(339.910156 0.684375)"/>
       <use xlink:href="#DejaVuSans-30" transform="translate(403.533203 0.684375)"/>
       <use xlink:href="#DejaVuSans-2212" transform="translate(468.113281 38.965625) scale(0.7)"/>
       <use xlink:href="#DejaVuSans-31" transform="translate(526.765625 38.965625) scale(0.7)"/>
      </g>
     </g>
    </g>
    <g id="ytick_8">
     <g id="line2d_36">
      <g>
       <use xlink:href="#m517b386cb0" x="405.961306" y="77.428677" style="stroke: #000000; stroke-width: 0.6"/>
      </g>
     </g>
     <g id="text_16">
      <!-- $\mathdefault{5.5\times10^{-1}}$ -->
      <g transform="translate(348.961306 81.227896) scale(0.1 -0.1)">
       <use xlink:href="#DejaVuSans-35" transform="translate(0 0.684375)"/>
       <use xlink:href="#DejaVuSans-2e" transform="translate(63.623047 0.684375)"/>
       <use xlink:href="#DejaVuSans-35" transform="translate(95.410156 0.684375)"/>
       <use xlink:href="#DejaVuSans-d7" transform="translate(178.515625 0.684375)"/>
       <use xlink:href="#DejaVuSans-31" transform="translate(281.787109 0.684375)"/>
       <use xlink:href="#DejaVuSans-30" transform="translate(345.410156 0.684375)"/>
       <use xlink:href="#DejaVuSans-2212" transform="translate(409.990234 38.965625) scale(0.7)"/>
       <use xlink:href="#DejaVuSans-31" transform="translate(468.642578 38.965625) scale(0.7)"/>
      </g>
     </g>
    </g>
    <g id="ytick_9">
     <g id="line2d_37">
      <g>
       <use xlink:href="#m517b386cb0" x="405.961306" y="46.786753" style="stroke: #000000; stroke-width: 0.6"/>
      </g>
     </g>
     <g id="text_17">
      <!-- $\mathdefault{5.75\times10^{-1}}$ -->
      <g transform="translate(343.361306 50.585972) scale(0.1 -0.1)">
       <use xlink:href="#DejaVuSans-35" transform="translate(0 0.684375)"/>
       <use xlink:href="#DejaVuSans-2e" transform="translate(63.623047 0.684375)"/>
       <use xlink:href="#DejaVuSans-37" transform="translate(87.660156 0.684375)"/>
       <use xlink:href="#DejaVuSans-35" transform="translate(151.283203 0.684375)"/>
       <use xlink:href="#DejaVuSans-d7" transform="translate(234.388672 0.684375)"/>
       <use xlink:href="#DejaVuSans-31" transform="translate(337.660156 0.684375)"/>
       <use xlink:href="#DejaVuSans-30" transform="translate(401.283203 0.684375)"/>
       <use xlink:href="#DejaVuSans-2212" transform="translate(465.863281 38.965625) scale(0.7)"/>
       <use xlink:href="#DejaVuSans-31" transform="translate(524.515625 38.965625) scale(0.7)"/>
      </g>
     </g>
    </g>
    <g id="text_18">
     <!-- $C_{V,\max}(L)$ -->
     <g transform="translate(336.061306 175.596125) rotate(-90) scale(0.12 -0.12)">
      <defs>
       <path id="DejaVuSans-Oblique-43" d="M 4447 4306 
L 4319 3641 
Q 4019 3944 3683 4091 
Q 3347 4238 2956 4238 
Q 2422 4238 2017 3981 
Q 1613 3725 1319 3200 
Q 1131 2863 1032 2486 
Q 934 2109 934 1728 
Q 934 1091 1264 756 
Q 1594 422 2222 422 
Q 2656 422 3056 561 
Q 3456 700 3834 978 
L 3688 231 
Q 3316 72 2936 -9 
Q 2556 -91 2175 -91 
Q 1278 -91 773 396 
Q 269 884 269 1753 
Q 269 2309 461 2846 
Q 653 3384 1013 3828 
Q 1394 4300 1883 4525 
Q 2372 4750 3022 4750 
Q 3422 4750 3780 4639 
Q 4138 4528 4447 4306 
z
" transform="scale(0.015625)"/>
       <path id="DejaVuSans-Oblique-56" d="M 1319 0 
L 500 4666 
L 1119 4666 
L 1797 653 
L 4063 4666 
L 4750 4666 
L 2053 0 
L 1319 0 
z
" transform="scale(0.015625)"/>
       <path id="DejaVuSans-2c" d="M 750 794 
L 1409 794 
L 1409 256 
L 897 -744 
L 494 -744 
L 750 256 
L 750 794 
z
" transform="scale(0.015625)"/>
      </defs>
      <use xlink:href="#DejaVuSans-Oblique-43" transform="translate(0 0.125)"/>
      <use xlink:href="#DejaVuSans-Oblique-56" transform="translate(69.824219 -16.28125) scale(0.7)"/>
      <use xlink:href="#DejaVuSans-2c" transform="translate(117.709961 -16.28125) scale(0.7)"/>
      <use xlink:href="#DejaVuSans-6d" transform="translate(153.598633 -16.28125) scale(0.7)"/>
      <use xlink:href="#DejaVuSans-61" transform="translate(221.787109 -16.28125) scale(0.7)"/>
      <use xlink:href="#DejaVuSans-78" transform="translate(264.682617 -16.28125) scale(0.7)"/>
      <use xlink:href="#DejaVuSans-28" transform="translate(308.842773 0.125)"/>
      <use xlink:href="#DejaVuSans-Oblique-4c" transform="translate(347.856445 0.125)"/>
      <use xlink:href="#DejaVuSans-29" transform="translate(403.569336 0.125)"/>
     </g>
    </g>
   </g>
   <g id="line2d_38">
    <g clip-path="url(#p0d36758ed2)">
     <use xlink:href="#m111f2977cc" x="441.722171" y="264.196125" style="stroke: #000000"/>
     <use xlink:href="#m111f2977cc" x="476.477545" y="83.893581" style="stroke: #000000"/>
     <use xlink:href="#m111f2977cc" x="501.136876" y="33.836125" style="stroke: #000000"/>
     <use xlink:href="#m111f2977cc" x="560.55158" y="168.016707" style="stroke: #000000"/>
     <use xlink:href="#m111f2977cc" x="595.306954" y="175.862986" style="stroke: #000000"/>
     <use xlink:href="#m111f2977cc" x="619.966285" y="107.607776" style="stroke: #000000"/>
    </g>
   </g>
   <g id="line2d_39">
    <path d="M 417.062841 160.348565 
L 427.126811 158.479278 
L 436.132362 156.806583 
L 444.281087 155.293035 
L 451.721958 153.910964 
L 458.568184 152.639343 
L 464.907816 151.461817 
L 470.810687 150.365415 
L 476.333119 149.339676 
L 481.521194 148.37604 
L 486.4131 147.467416 
L 491.040832 146.607858 
L 495.431467 145.79234 
L 499.608119 145.016567 
L 503.590681 144.276844 
L 507.396393 143.569969 
L 511.040296 142.893149 
L 514.535591 142.243931 
L 517.893924 141.620153 
L 521.125626 141.019895 
L 524.239901 140.441448 
L 527.244984 139.883283 
L 530.148273 139.344024 
L 532.956439 138.822434 
L 535.675518 138.317391 
L 538.31099 137.827878 
L 540.867842 137.352967 
L 543.35063 136.891812 
L 545.763525 136.44364 
L 548.110353 136.007739 
L 550.394636 135.583455 
L 552.619623 135.170185 
L 554.788313 134.767372 
L 556.903485 134.374499 
L 558.967718 133.991087 
L 560.983406 133.616692 
L 562.952782 133.2509 
L 564.877925 132.893323 
L 566.760779 132.5436 
L 568.603162 132.201395 
L 570.406777 131.866391 
L 572.173223 131.538291 
L 573.903999 131.216816 
L 575.600519 130.901703 
L 577.264111 130.592707 
L 578.896031 130.289593 
L 580.497461 129.992143 
L 582.06952 129.700148 
L 583.613266 129.413412 
L 585.129701 129.131749 
L 586.619773 128.854982 
L 588.084385 128.582944 
L 589.524392 128.315477 
L 590.940606 128.052428 
L 592.333802 127.793655 
L 593.704715 127.539021 
L 595.054048 127.288396 
L 596.382468 127.041654 
L 597.690615 126.798679 
L 598.979097 126.559355 
L 600.248498 126.323576 
L 601.499374 126.091238 
L 602.732258 125.862241 
L 603.947661 125.636492 
L 605.146071 125.413899 
L 606.327957 125.194375 
L 607.493768 124.977836 
L 608.643936 124.764204 
L 609.778874 124.5534 
L 610.898982 124.34535 
L 612.004642 124.139985 
L 613.096221 123.937234 
L 614.174073 123.737033 
L 615.238541 123.539319 
L 616.289951 123.344029 
L 617.328621 123.151106 
L 618.354856 122.960493 
L 619.368949 122.772135 
L 620.371185 122.585979 
L 621.361838 122.401975 
L 622.341173 122.220072 
L 623.309445 122.040225 
L 624.266901 121.862387 
L 625.21378 121.686513 
L 626.150314 121.512561 
L 627.076725 121.340489 
L 627.993232 121.170256 
L 628.900042 121.001825 
L 629.79736 120.835157 
L 630.685381 120.670215 
L 631.564297 120.506965 
L 632.434292 120.345372 
L 633.295546 120.185402 
L 634.148232 120.027024 
L 634.99252 119.870205 
L 635.828572 119.714917 
L 636.656549 119.561128 
L 637.476604 119.40881 
L 638.288889 119.257936 
L 639.093547 119.108479 
" clip-path="url(#p0d36758ed2)" style="fill: none; stroke-dasharray: 5.55,2.4; stroke-dashoffset: 0; stroke: #ff0000; stroke-opacity: 0.7; stroke-width: 1.5"/>
   </g>
   <g id="patch_9">
    <path d="M 405.961306 275.714125 
L 405.961306 22.318125 
" style="fill: none; stroke: #000000; stroke-width: 0.8; stroke-linejoin: miter; stroke-linecap: square"/>
   </g>
   <g id="patch_10">
    <path d="M 650.195083 275.714125 
L 650.195083 22.318125 
" style="fill: none; stroke: #000000; stroke-width: 0.8; stroke-linejoin: miter; stroke-linecap: square"/>
   </g>
   <g id="patch_11">
    <path d="M 405.961306 275.714125 
L 650.195083 275.714125 
" style="fill: none; stroke: #000000; stroke-width: 0.8; stroke-linejoin: miter; stroke-linecap: square"/>
   </g>
   <g id="patch_12">
    <path d="M 405.961306 22.318125 
L 650.195083 22.318125 
" style="fill: none; stroke: #000000; stroke-width: 0.8; stroke-linejoin: miter; stroke-linecap: square"/>
   </g>
   <g id="text_19">
    <!-- Specific heat peak scaling -->
    <g transform="translate(449.781007 16.318125) scale(0.12 -0.12)">
     <defs>
      <path id="DejaVuSans-66" d="M 2375 4863 
L 2375 4384 
L 1825 4384 
Q 1516 4384 1395 4259 
Q 1275 4134 1275 3809 
L 1275 3500 
L 2222 3500 
L 2222 3053 
L 1275 3053 
L 1275 0 
L 697 0 
L 697 3053 
L 147 3053 
L 147 3500 
L 697 3500 
L 697 3744 
Q 697 4328 969 4595 
Q 1241 4863 1831 4863 
L 2375 4863 
z
" transform="scale(0.015625)"/>
      <path id="DejaVuSans-68" d="M 3513 2113 
L 3513 0 
L 2938 0 
L 2938 2094 
Q 2938 2591 2744 2837 
Q 2550 3084 2163 3084 
Q 1697 3084 1428 2787 
Q 1159 2491 1159 1978 
L 1159 0 
L 581 0 
L 581 4863 
L 1159 4863 
L 1159 2956 
Q 1366 3272 1645 3428 
Q 1925 3584 2291 3584 
Q 2894 3584 3203 3211 
Q 3513 2838 3513 2113 
z
" transform="scale(0.015625)"/>
     </defs>
     <use xlink:href="#DejaVuSans-53"/>
     <use xlink:href="#DejaVuSans-70" x="63.476562"/>
     <use xlink:href="#DejaVuSans-65" x="126.953125"/>
     <use xlink:href="#DejaVuSans-63" x="188.476562"/>
     <use xlink:href="#DejaVuSans-69" x="243.457031"/>
     <use xlink:href="#DejaVuSans-66" x="271.240234"/>
     <use xlink:href="#DejaVuSans-69" x="306.445312"/>
     <use xlink:href="#DejaVuSans-63" x="334.228516"/>
     <use xlink:href="#DejaVuSans-20" x="389.208984"/>
     <use xlink:href="#DejaVuSans-68" x="420.996094"/>
     <use xlink:href="#DejaVuSans-65" x="484.375"/>
     <use xlink:href="#DejaVuSans-61" x="545.898438"/>
     <use xlink:href="#DejaVuSans-74" x="607.177734"/>
     <use xlink:href="#DejaVuSans-20" x="646.386719"/>
     <use xlink:href="#DejaVuSans-70" x="678.173828"/>
     <use xlink:href="#DejaVuSans-65" x="741.650391"/>
     <use xlink:href="#DejaVuSans-61" x="803.173828"/>
     <use xlink:href="#DejaVuSans-6b" x="864.453125"/>
     <use xlink:href="#DejaVuSans-20" x="922.363281"/>
     <use xlink:href="#DejaVuSans-73" x="954.150391"/>
     <use xlink:href="#DejaVuSans-63" x="1006.25"/>
     <use xlink:href="#DejaVuSans-61" x="1061.230469"/>
     <use xlink:href="#DejaVuSans-6c" x="1122.509766"/>
     <use xlink:href="#DejaVuSans-69" x="1150.292969"/>
     <use xlink:href="#DejaVuSans-6e" x="1178.076172"/>
     <use xlink:href="#DejaVuSans-67" x="1241.455078"/>
    </g>
   </g>
   <g id="legend_2">
    <g id="patch_13">
     <path d="M 546.508052 55.93875 
L 643.895083 55.93875 
Q 645.695083 55.93875 645.695083 54.13875 
L 645.695083 28.618125 
Q 645.695083 26.818125 643.895083 26.818125 
L 546.508052 26.818125 
Q 544.708052 26.818125 544.708052 28.618125 
L 544.708052 54.13875 
Q 544.708052 55.93875 546.508052 55.93875 
z
" style="fill: #ffffff; opacity: 0.8; stroke: #cccccc; stroke-linejoin: miter"/>
    </g>
    <g id="line2d_40">
     <g>
      <use xlink:href="#m111f2977cc" x="557.308052" y="34.106719" style="stroke: #000000"/>
     </g>
    </g>
    <g id="text_20">
     <!-- Data -->
     <g transform="translate(573.508052 37.256719) scale(0.09 -0.09)">
      <use xlink:href="#DejaVuSans-44"/>
      <use xlink:href="#DejaVuSans-61" x="77.001953"/>
      <use xlink:href="#DejaVuSans-74" x="138.28125"/>
      <use xlink:href="#DejaVuSans-61" x="177.490234"/>
     </g>
    </g>
    <g id="line2d_41">
     <path d="M 548.308052 47.317031 
L 557.308052 47.317031 
L 566.308052 47.317031 
" style="fill: none; stroke-dasharray: 5.55,2.4; stroke-dashoffset: 0; stroke: #ff0000; stroke-opacity: 0.7; stroke-width: 1.5"/>
    </g>
    <g id="text_21">
     <!-- Fit: C ~ L^0.02 -->
     <g transform="translate(573.508052 50.467031) scale(0.09 -0.09)">
      <defs>
       <path id="DejaVuSans-43" d="M 4122 4306 
L 4122 3641 
Q 3803 3938 3442 4084 
Q 3081 4231 2675 4231 
Q 1875 4231 1450 3742 
Q 1025 3253 1025 2328 
Q 1025 1406 1450 917 
Q 1875 428 2675 428 
Q 3081 428 3442 575 
Q 3803 722 4122 1019 
L 4122 359 
Q 3791 134 3420 21 
Q 3050 -91 2638 -91 
Q 1578 -91 968 557 
Q 359 1206 359 2328 
Q 359 3453 968 4101 
Q 1578 4750 2638 4750 
Q 3056 4750 3426 4639 
Q 3797 4528 4122 4306 
z
" transform="scale(0.015625)"/>
      </defs>
      <use xlink:href="#DejaVuSans-46"/>
      <use xlink:href="#DejaVuSans-69" x="50.269531"/>
      <use xlink:href="#DejaVuSans-74" x="78.052734"/>
      <use xlink:href="#DejaVuSans-3a" x="117.261719"/>
      <use xlink:href="#DejaVuSans-20" x="150.953125"/>
      <use xlink:href="#DejaVuSans-43" x="182.740234"/>
      <use xlink:href="#DejaVuSans-20" x="252.564453"/>
      <use xlink:href="#DejaVuSans-7e" x="284.351562"/>
      <use xlink:href="#DejaVuSans-20" x="368.140625"/>
      <use xlink:href="#DejaVuSans-4c" x="399.927734"/>
      <use xlink:href="#DejaVuSans-5e" x="455.640625"/>
      <use xlink:href="#DejaVuSans-30" x="539.429688"/>
      <use xlink:href="#DejaVuSans-2e" x="603.052734"/>
      <use xlink:href="#DejaVuSans-30" x="634.839844"/>
      <use xlink:href="#DejaVuSans-32" x="698.462891"/>
     </g>
    </g>
   </g>
  </g>
  <g id="axes_3">
   <g id="patch_14">
    <path d="M 741.582611 275.714125 
L 985.816388 275.714125 
L 985.816388 22.318125 
L 741.582611 22.318125 
z
" style="fill: #ffffff"/>
   </g>
   <g id="matplotlib.axis_5">
    <g id="xtick_23">
     <g id="line2d_42">
      <path d="M 741.582611 275.714125 
L 741.582611 22.318125 
" clip-path="url(#pff5b49ed42)" style="fill: none; stroke: #b0b0b0; stroke-opacity: 0.3; stroke-width: 0.8; stroke-linecap: square"/>
     </g>
     <g id="line2d_43">
      <g>
       <use xlink:href="#me20c042593" x="741.582611" y="275.714125" style="stroke: #000000; stroke-width: 0.8"/>
      </g>
     </g>
     <g id="text_22">
      <!-- 0 -->
      <g transform="translate(738.401361 290.312563) scale(0.1 -0.1)">
       <use xlink:href="#DejaVuSans-30"/>
      </g>
     </g>
    </g>
    <g id="xtick_24">
     <g id="line2d_44">
      <path d="M 772.111833 275.714125 
L 772.111833 22.318125 
" clip-path="url(#pff5b49ed42)" style="fill: none; stroke: #b0b0b0; stroke-opacity: 0.3; stroke-width: 0.8; stroke-linecap: square"/>
     </g>
     <g id="line2d_45">
      <g>
       <use xlink:href="#me20c042593" x="772.111833" y="275.714125" style="stroke: #000000; stroke-width: 0.8"/>
      </g>
     </g>
     <g id="text_23">
      <!-- 5 -->
      <g transform="translate(768.930583 290.312563) scale(0.1 -0.1)">
       <use xlink:href="#DejaVuSans-35"/>
      </g>
     </g>
    </g>
    <g id="xtick_25">
     <g id="line2d_46">
      <path d="M 802.641056 275.714125 
L 802.641056 22.318125 
" clip-path="url(#pff5b49ed42)" style="fill: none; stroke: #b0b0b0; stroke-opacity: 0.3; stroke-width: 0.8; stroke-linecap: square"/>
     </g>
     <g id="line2d_47">
      <g>
       <use xlink:href="#me20c042593" x="802.641056" y="275.714125" style="stroke: #000000; stroke-width: 0.8"/>
      </g>
     </g>
     <g id="text_24">
      <!-- 10 -->
      <g transform="translate(796.278556 290.312563) scale(0.1 -0.1)">
       <use xlink:href="#DejaVuSans-31"/>
       <use xlink:href="#DejaVuSans-30" x="63.623047"/>
      </g>
     </g>
    </g>
    <g id="xtick_26">
     <g id="line2d_48">
      <path d="M 833.170278 275.714125 
L 833.170278 22.318125 
" clip-path="url(#pff5b49ed42)" style="fill: none; stroke: #b0b0b0; stroke-opacity: 0.3; stroke-width: 0.8; stroke-linecap: square"/>
     </g>
     <g id="line2d_49">
      <g>
       <use xlink:href="#me20c042593" x="833.170278" y="275.714125" style="stroke: #000000; stroke-width: 0.8"/>
      </g>
     </g>
     <g id="text_25">
      <!-- 15 -->
      <g transform="translate(826.807778 290.312563) scale(0.1 -0.1)">
       <use xlink:href="#DejaVuSans-31"/>
       <use xlink:href="#DejaVuSans-35" x="63.623047"/>
      </g>
     </g>
    </g>
    <g id="xtick_27">
     <g id="line2d_50">
      <path d="M 863.6995 275.714125 
L 863.6995 22.318125 
" clip-path="url(#pff5b49ed42)" style="fill: none; stroke: #b0b0b0; stroke-opacity: 0.3; stroke-width: 0.8; stroke-linecap: square"/>
     </g>
     <g id="line2d_51">
      <g>
       <use xlink:href="#me20c042593" x="863.6995" y="275.714125" style="stroke: #000000; stroke-width: 0.8"/>
      </g>
     </g>
     <g id="text_26">
      <!-- 20 -->
      <g transform="translate(857.337 290.312563) scale(0.1 -0.1)">
       <use xlink:href="#DejaVuSans-32"/>
       <use xlink:href="#DejaVuSans-30" x="63.623047"/>
      </g>
     </g>
    </g>
    <g id="xtick_28">
     <g id="line2d_52">
      <path d="M 894.228722 275.714125 
L 894.228722 22.318125 
" clip-path="url(#pff5b49ed42)" style="fill: none; stroke: #b0b0b0; stroke-opacity: 0.3; stroke-width: 0.8; stroke-linecap: square"/>
     </g>
     <g id="line2d_53">
      <g>
       <use xlink:href="#me20c042593" x="894.228722" y="275.714125" style="stroke: #000000; stroke-width: 0.8"/>
      </g>
     </g>
     <g id="text_27">
      <!-- 25 -->
      <g transform="translate(887.866222 290.312563) scale(0.1 -0.1)">
       <use xlink:href="#DejaVuSans-32"/>
       <use xlink:href="#DejaVuSans-35" x="63.623047"/>
      </g>
     </g>
    </g>
    <g id="xtick_29">
     <g id="line2d_54">
      <path d="M 924.757944 275.714125 
L 924.757944 22.318125 
" clip-path="url(#pff5b49ed42)" style="fill: none; stroke: #b0b0b0; stroke-opacity: 0.3; stroke-width: 0.8; stroke-linecap: square"/>
     </g>
     <g id="line2d_55">
      <g>
       <use xlink:href="#me20c042593" x="924.757944" y="275.714125" style="stroke: #000000; stroke-width: 0.8"/>
      </g>
     </g>
     <g id="text_28">
      <!-- 30 -->
      <g transform="translate(918.395444 290.312563) scale(0.1 -0.1)">
       <defs>
        <path id="DejaVuSans-33" d="M 2597 2516 
Q 3050 2419 3304 2112 
Q 3559 1806 3559 1356 
Q 3559 666 3084 287 
Q 2609 -91 1734 -91 
Q 1441 -91 1130 -33 
Q 819 25 488 141 
L 488 750 
Q 750 597 1062 519 
Q 1375 441 1716 441 
Q 2309 441 2620 675 
Q 2931 909 2931 1356 
Q 2931 1769 2642 2001 
Q 2353 2234 1838 2234 
L 1294 2234 
L 1294 2753 
L 1863 2753 
Q 2328 2753 2575 2939 
Q 2822 3125 2822 3475 
Q 2822 3834 2567 4026 
Q 2313 4219 1838 4219 
Q 1578 4219 1281 4162 
Q 984 4106 628 3988 
L 628 4550 
Q 988 4650 1302 4700 
Q 1616 4750 1894 4750 
Q 2613 4750 3031 4423 
Q 3450 4097 3450 3541 
Q 3450 3153 3228 2886 
Q 3006 2619 2597 2516 
z
" transform="scale(0.015625)"/>
       </defs>
       <use xlink:href="#DejaVuSans-33"/>
       <use xlink:href="#DejaVuSans-30" x="63.623047"/>
      </g>
     </g>
    </g>
    <g id="xtick_30">
     <g id="line2d_56">
      <path d="M 955.287166 275.714125 
L 955.287166 22.318125 
" clip-path="url(#pff5b49ed42)" style="fill: none; stroke: #b0b0b0; stroke-opacity: 0.3; stroke-width: 0.8; stroke-linecap: square"/>
     </g>
     <g id="line2d_57">
      <g>
       <use xlink:href="#me20c042593" x="955.287166" y="275.714125" style="stroke: #000000; stroke-width: 0.8"/>
      </g>
     </g>
     <g id="text_29">
      <!-- 35 -->
      <g transform="translate(948.924666 290.312563) scale(0.1 -0.1)">
       <use xlink:href="#DejaVuSans-33"/>
       <use xlink:href="#DejaVuSans-35" x="63.623047"/>
      </g>
     </g>
    </g>
    <g id="xtick_31">
     <g id="line2d_58">
      <path d="M 985.816388 275.714125 
L 985.816388 22.318125 
" clip-path="url(#pff5b49ed42)" style="fill: none; stroke: #b0b0b0; stroke-opacity: 0.3; stroke-width: 0.8; stroke-linecap: square"/>
     </g>
     <g id="line2d_59">
      <g>
       <use xlink:href="#me20c042593" x="985.816388" y="275.714125" style="stroke: #000000; stroke-width: 0.8"/>
      </g>
     </g>
     <g id="text_30">
      <!-- 40 -->
      <g transform="translate(979.453888 290.312563) scale(0.1 -0.1)">
       <use xlink:href="#DejaVuSans-34"/>
       <use xlink:href="#DejaVuSans-30" x="63.623047"/>
      </g>
     </g>
    </g>
    <g id="text_31">
     <!-- $L$ -->
     <g transform="translate(860.3395 305.510375) scale(0.12 -0.12)">
      <use xlink:href="#DejaVuSans-Oblique-4c" transform="translate(0 0.09375)"/>
     </g>
    </g>
   </g>
   <g id="matplotlib.axis_6">
    <g id="ytick_10">
     <g id="line2d_60">
      <path d="M 741.582611 275.714125 
L 985.816388 275.714125 
" clip-path="url(#pff5b49ed42)" style="fill: none; stroke: #b0b0b0; stroke-opacity: 0.3; stroke-width: 0.8; stroke-linecap: square"/>
     </g>
     <g id="line2d_61">
      <defs>
       <path id="md5292cd7a8" d="M 0 0 
L -3.5 0 
" style="stroke: #000000; stroke-width: 0.8"/>
      </defs>
      <g>
       <use xlink:href="#md5292cd7a8" x="741.582611" y="275.714125" style="stroke: #000000; stroke-width: 0.8"/>
      </g>
     </g>
     <g id="text_32">
      <!-- 0.70 -->
      <g transform="translate(712.316986 279.513344) scale(0.1 -0.1)">
       <use xlink:href="#DejaVuSans-30"/>
       <use xlink:href="#DejaVuSans-2e" x="63.623047"/>
       <use xlink:href="#DejaVuSans-37" x="95.410156"/>
       <use xlink:href="#DejaVuSans-30" x="159.033203"/>
      </g>
     </g>
    </g>
    <g id="ytick_11">
     <g id="line2d_62">
      <path d="M 741.582611 244.039625 
L 985.816388 244.039625 
" clip-path="url(#pff5b49ed42)" style="fill: none; stroke: #b0b0b0; stroke-opacity: 0.3; stroke-width: 0.8; stroke-linecap: square"/>
     </g>
     <g id="line2d_63">
      <g>
       <use xlink:href="#md5292cd7a8" x="741.582611" y="244.039625" style="stroke: #000000; stroke-width: 0.8"/>
      </g>
     </g>
     <g id="text_33">
      <!-- 0.71 -->
      <g transform="translate(712.316986 247.838844) scale(0.1 -0.1)">
       <use xlink:href="#DejaVuSans-30"/>
       <use xlink:href="#DejaVuSans-2e" x="63.623047"/>
       <use xlink:href="#DejaVuSans-37" x="95.410156"/>
       <use xlink:href="#DejaVuSans-31" x="159.033203"/>
      </g>
     </g>
    </g>
    <g id="ytick_12">
     <g id="line2d_64">
      <path d="M 741.582611 212.365125 
L 985.816388 212.365125 
" clip-path="url(#pff5b49ed42)" style="fill: none; stroke: #b0b0b0; stroke-opacity: 0.3; stroke-width: 0.8; stroke-linecap: square"/>
     </g>
     <g id="line2d_65">
      <g>
       <use xlink:href="#md5292cd7a8" x="741.582611" y="212.365125" style="stroke: #000000; stroke-width: 0.8"/>
      </g>
     </g>
     <g id="text_34">
      <!-- 0.72 -->
      <g transform="translate(712.316986 216.164344) scale(0.1 -0.1)">
       <use xlink:href="#DejaVuSans-30"/>
       <use xlink:href="#DejaVuSans-2e" x="63.623047"/>
       <use xlink:href="#DejaVuSans-37" x="95.410156"/>
       <use xlink:href="#DejaVuSans-32" x="159.033203"/>
      </g>
     </g>
    </g>
    <g id="ytick_13">
     <g id="line2d_66">
      <path d="M 741.582611 180.690625 
L 985.816388 180.690625 
" clip-path="url(#pff5b49ed42)" style="fill: none; stroke: #b0b0b0; stroke-opacity: 0.3; stroke-width: 0.8; stroke-linecap: square"/>
     </g>
     <g id="line2d_67">
      <g>
       <use xlink:href="#md5292cd7a8" x="741.582611" y="180.690625" style="stroke: #000000; stroke-width: 0.8"/>
      </g>
     </g>
     <g id="text_35">
      <!-- 0.73 -->
      <g transform="translate(712.316986 184.489844) scale(0.1 -0.1)">
       <use xlink:href="#DejaVuSans-30"/>
       <use xlink:href="#DejaVuSans-2e" x="63.623047"/>
       <use xlink:href="#DejaVuSans-37" x="95.410156"/>
       <use xlink:href="#DejaVuSans-33" x="159.033203"/>
      </g>
     </g>
    </g>
    <g id="ytick_14">
     <g id="line2d_68">
      <path d="M 741.582611 149.016125 
L 985.816388 149.016125 
" clip-path="url(#pff5b49ed42)" style="fill: none; stroke: #b0b0b0; stroke-opacity: 0.3; stroke-width: 0.8; stroke-linecap: square"/>
     </g>
     <g id="line2d_69">
      <g>
       <use xlink:href="#md5292cd7a8" x="741.582611" y="149.016125" style="stroke: #000000; stroke-width: 0.8"/>
      </g>
     </g>
     <g id="text_36">
      <!-- 0.74 -->
      <g transform="translate(712.316986 152.815344) scale(0.1 -0.1)">
       <use xlink:href="#DejaVuSans-30"/>
       <use xlink:href="#DejaVuSans-2e" x="63.623047"/>
       <use xlink:href="#DejaVuSans-37" x="95.410156"/>
       <use xlink:href="#DejaVuSans-34" x="159.033203"/>
      </g>
     </g>
    </g>
    <g id="ytick_15">
     <g id="line2d_70">
      <path d="M 741.582611 117.341625 
L 985.816388 117.341625 
" clip-path="url(#pff5b49ed42)" style="fill: none; stroke: #b0b0b0; stroke-opacity: 0.3; stroke-width: 0.8; stroke-linecap: square"/>
     </g>
     <g id="line2d_71">
      <g>
       <use xlink:href="#md5292cd7a8" x="741.582611" y="117.341625" style="stroke: #000000; stroke-width: 0.8"/>
      </g>
     </g>
     <g id="text_37">
      <!-- 0.75 -->
      <g transform="translate(712.316986 121.140844) scale(0.1 -0.1)">
       <use xlink:href="#DejaVuSans-30"/>
       <use xlink:href="#DejaVuSans-2e" x="63.623047"/>
       <use xlink:href="#DejaVuSans-37" x="95.410156"/>
       <use xlink:href="#DejaVuSans-35" x="159.033203"/>
      </g>
     </g>
    </g>
    <g id="ytick_16">
     <g id="line2d_72">
      <path d="M 741.582611 85.667125 
L 985.816388 85.667125 
" clip-path="url(#pff5b49ed42)" style="fill: none; stroke: #b0b0b0; stroke-opacity: 0.3; stroke-width: 0.8; stroke-linecap: square"/>
     </g>
     <g id="line2d_73">
      <g>
       <use xlink:href="#md5292cd7a8" x="741.582611" y="85.667125" style="stroke: #000000; stroke-width: 0.8"/>
      </g>
     </g>
     <g id="text_38">
      <!-- 0.76 -->
      <g transform="translate(712.316986 89.466344) scale(0.1 -0.1)">
       <defs>
        <path id="DejaVuSans-36" d="M 2113 2584 
Q 1688 2584 1439 2293 
Q 1191 2003 1191 1497 
Q 1191 994 1439 701 
Q 1688 409 2113 409 
Q 2538 409 2786 701 
Q 3034 994 3034 1497 
Q 3034 2003 2786 2293 
Q 2538 2584 2113 2584 
z
M 3366 4563 
L 3366 3988 
Q 3128 4100 2886 4159 
Q 2644 4219 2406 4219 
Q 1781 4219 1451 3797 
Q 1122 3375 1075 2522 
Q 1259 2794 1537 2939 
Q 1816 3084 2150 3084 
Q 2853 3084 3261 2657 
Q 3669 2231 3669 1497 
Q 3669 778 3244 343 
Q 2819 -91 2113 -91 
Q 1303 -91 875 529 
Q 447 1150 447 2328 
Q 447 3434 972 4092 
Q 1497 4750 2381 4750 
Q 2619 4750 2861 4703 
Q 3103 4656 3366 4563 
z
" transform="scale(0.015625)"/>
       </defs>
       <use xlink:href="#DejaVuSans-30"/>
       <use xlink:href="#DejaVuSans-2e" x="63.623047"/>
       <use xlink:href="#DejaVuSans-37" x="95.410156"/>
       <use xlink:href="#DejaVuSans-36" x="159.033203"/>
      </g>
     </g>
    </g>
    <g id="ytick_17">
     <g id="line2d_74">
      <path d="M 741.582611 53.992625 
L 985.816388 53.992625 
" clip-path="url(#pff5b49ed42)" style="fill: none; stroke: #b0b0b0; stroke-opacity: 0.3; stroke-width: 0.8; stroke-linecap: square"/>
     </g>
     <g id="line2d_75">
      <g>
       <use xlink:href="#md5292cd7a8" x="741.582611" y="53.992625" style="stroke: #000000; stroke-width: 0.8"/>
      </g>
     </g>
     <g id="text_39">
      <!-- 0.77 -->
      <g transform="translate(712.316986 57.791844) scale(0.1 -0.1)">
       <use xlink:href="#DejaVuSans-30"/>
       <use xlink:href="#DejaVuSans-2e" x="63.623047"/>
       <use xlink:href="#DejaVuSans-37" x="95.410156"/>
       <use xlink:href="#DejaVuSans-37" x="159.033203"/>
      </g>
     </g>
    </g>
    <g id="ytick_18">
     <g id="line2d_76">
      <path d="M 741.582611 22.318125 
L 985.816388 22.318125 
" clip-path="url(#pff5b49ed42)" style="fill: none; stroke: #b0b0b0; stroke-opacity: 0.3; stroke-width: 0.8; stroke-linecap: square"/>
     </g>
     <g id="line2d_77">
      <g>
       <use xlink:href="#md5292cd7a8" x="741.582611" y="22.318125" style="stroke: #000000; stroke-width: 0.8"/>
      </g>
     </g>
     <g id="text_40">
      <!-- 0.78 -->
      <g transform="translate(712.316986 26.117344) scale(0.1 -0.1)">
       <use xlink:href="#DejaVuSans-30"/>
       <use xlink:href="#DejaVuSans-2e" x="63.623047"/>
       <use xlink:href="#DejaVuSans-37" x="95.410156"/>
       <use xlink:href="#DejaVuSans-38" x="159.033203"/>
      </g>
     </g>
    </g>
    <g id="text_41">
     <!-- $\beta_c(L)$ -->
     <g transform="translate(705.796986 163.356125) rotate(-90) scale(0.12 -0.12)">
      <defs>
       <path id="DejaVuSans-Oblique-3b2" d="M 872 216 
L 572 -1331 
L -6 -1331 
L 928 3478 
Q 1206 4903 2538 4903 
Q 3888 4903 3659 3700 
Q 3503 2844 2894 2531 
Q 3713 2250 3553 1416 
Q 3272 -69 1759 -66 
Q 1097 -63 872 216 
z
M 1019 966 
Q 1259 422 1875 425 
Q 2775 425 2966 1406 
Q 3138 2288 1675 2219 
L 1778 2750 
Q 2909 2731 3106 3750 
Q 3241 4438 2509 4434 
Q 1691 4434 1503 3459 
L 1019 966 
z
" transform="scale(0.015625)"/>
       <path id="DejaVuSans-Oblique-63" d="M 3431 3366 
L 3316 2797 
Q 3109 2947 2876 3022 
Q 2644 3097 2394 3097 
Q 2119 3097 1870 3000 
Q 1622 2903 1453 2725 
Q 1184 2453 1037 2087 
Q 891 1722 891 1331 
Q 891 859 1127 628 
Q 1363 397 1844 397 
Q 2081 397 2348 469 
Q 2616 541 2906 684 
L 2797 116 
Q 2547 13 2283 -39 
Q 2019 -91 1741 -91 
Q 1044 -91 669 257 
Q 294 606 294 1253 
Q 294 1797 489 2255 
Q 684 2713 1069 3078 
Q 1331 3328 1684 3456 
Q 2038 3584 2456 3584 
Q 2700 3584 2940 3529 
Q 3181 3475 3431 3366 
z
" transform="scale(0.015625)"/>
      </defs>
      <use xlink:href="#DejaVuSans-Oblique-3b2" transform="translate(0 0.390625)"/>
      <use xlink:href="#DejaVuSans-Oblique-63" transform="translate(63.818359 -16.015625) scale(0.7)"/>
      <use xlink:href="#DejaVuSans-28" transform="translate(105.039062 0.390625)"/>
      <use xlink:href="#DejaVuSans-Oblique-4c" transform="translate(144.052734 0.390625)"/>
      <use xlink:href="#DejaVuSans-29" transform="translate(199.765625 0.390625)"/>
     </g>
    </g>
   </g>
   <g id="line2d_78">
    <g clip-path="url(#pff5b49ed42)">
     <use xlink:href="#m111f2977cc" x="766.005989" y="339.063125" style="stroke: #000000"/>
     <use xlink:href="#m111f2977cc" x="778.217678" y="212.365125" style="stroke: #000000"/>
     <use xlink:href="#m111f2977cc" x="790.429367" y="149.016125" style="stroke: #000000"/>
     <use xlink:href="#m111f2977cc" x="839.276122" y="149.016125" style="stroke: #000000"/>
     <use xlink:href="#m111f2977cc" x="888.122878" y="149.016125" style="stroke: #000000"/>
     <use xlink:href="#m111f2977cc" x="936.969633" y="85.667125" style="stroke: #000000"/>
    </g>
   </g>
   <g id="line2d_79">
    <path d="M 741.582611 81.54944 
L 985.816388 81.54944 
" clip-path="url(#pff5b49ed42)" style="fill: none; stroke-dasharray: 2,3.3; stroke-dashoffset: 0; stroke: #808080; stroke-opacity: 0.7; stroke-width: 2"/>
   </g>
   <g id="patch_15">
    <path d="M 741.582611 275.714125 
L 741.582611 22.318125 
" style="fill: none; stroke: #000000; stroke-width: 0.8; stroke-linejoin: miter; stroke-linecap: square"/>
   </g>
   <g id="patch_16">
    <path d="M 985.816388 275.714125 
L 985.816388 22.318125 
" style="fill: none; stroke: #000000; stroke-width: 0.8; stroke-linejoin: miter; stroke-linecap: square"/>
   </g>
   <g id="patch_17">
    <path d="M 741.582611 275.714125 
L 985.816388 275.714125 
" style="fill: none; stroke: #000000; stroke-width: 0.8; stroke-linejoin: miter; stroke-linecap: square"/>
   </g>
   <g id="patch_18">
    <path d="M 741.582611 22.318125 
L 985.816388 22.318125 
" style="fill: none; stroke: #000000; stroke-width: 0.8; stroke-linejoin: miter; stroke-linecap: square"/>
   </g>
   <g id="text_42">
    <!-- Critical coupling shift -->
    <g transform="translate(800.419187 16.318125) scale(0.12 -0.12)">
     <defs>
      <path id="DejaVuSans-72" d="M 2631 2963 
Q 2534 3019 2420 3045 
Q 2306 3072 2169 3072 
Q 1681 3072 1420 2755 
Q 1159 2438 1159 1844 
L 1159 0 
L 581 0 
L 581 3500 
L 1159 3500 
L 1159 2956 
Q 1341 3275 1631 3429 
Q 1922 3584 2338 3584 
Q 2397 3584 2469 3576 
Q 2541 3569 2628 3553 
L 2631 2963 
z
" transform="scale(0.015625)"/>
      <path id="DejaVuSans-6f" d="M 1959 3097 
Q 1497 3097 1228 2736 
Q 959 2375 959 1747 
Q 959 1119 1226 758 
Q 1494 397 1959 397 
Q 2419 397 2687 759 
Q 2956 1122 2956 1747 
Q 2956 2369 2687 2733 
Q 2419 3097 1959 3097 
z
M 1959 3584 
Q 2709 3584 3137 3096 
Q 3566 2609 3566 1747 
Q 3566 888 3137 398 
Q 2709 -91 1959 -91 
Q 1206 -91 779 398 
Q 353 888 353 1747 
Q 353 2609 779 3096 
Q 1206 3584 1959 3584 
z
" transform="scale(0.015625)"/>
     </defs>
     <use xlink:href="#DejaVuSans-43"/>
     <use xlink:href="#DejaVuSans-72" x="69.824219"/>
     <use xlink:href="#DejaVuSans-69" x="110.9375"/>
     <use xlink:href="#DejaVuSans-74" x="138.720703"/>
     <use xlink:href="#DejaVuSans-69" x="177.929688"/>
     <use xlink:href="#DejaVuSans-63" x="205.712891"/>
     <use xlink:href="#DejaVuSans-61" x="260.693359"/>
     <use xlink:href="#DejaVuSans-6c" x="321.972656"/>
     <use xlink:href="#DejaVuSans-20" x="349.755859"/>
     <use xlink:href="#DejaVuSans-63" x="381.542969"/>
     <use xlink:href="#DejaVuSans-6f" x="436.523438"/>
     <use xlink:href="#DejaVuSans-75" x="497.705078"/>
     <use xlink:href="#DejaVuSans-70" x="561.083984"/>
     <use xlink:href="#DejaVuSans-6c" x="624.560547"/>
     <use xlink:href="#DejaVuSans-69" x="652.34375"/>
     <use xlink:href="#DejaVuSans-6e" x="680.126953"/>
     <use xlink:href="#DejaVuSans-67" x="743.505859"/>
     <use xlink:href="#DejaVuSans-20" x="806.982422"/>
     <use xlink:href="#DejaVuSans-73" x="838.769531"/>
     <use xlink:href="#DejaVuSans-68" x="890.869141"/>
     <use xlink:href="#DejaVuSans-69" x="954.248047"/>
     <use xlink:href="#DejaVuSans-66" x="982.03125"/>
     <use xlink:href="#DejaVuSans-74" x="1015.486328"/>
    </g>
   </g>
   <g id="legend_3">
    <g id="patch_19">
     <path d="M 876.251232 56.551875 
L 979.516388 56.551875 
Q 981.316388 56.551875 981.316388 54.751875 
L 981.316388 28.618125 
Q 981.316388 26.818125 979.516388 26.818125 
L 876.251232 26.818125 
Q 874.451232 26.818125 874.451232 28.618125 
L 874.451232 54.751875 
Q 874.451232 56.551875 876.251232 56.551875 
z
" style="fill: #ffffff; opacity: 0.8; stroke: #cccccc; stroke-linejoin: miter"/>
    </g>
    <g id="line2d_80">
     <g>
      <use xlink:href="#m111f2977cc" x="887.051232" y="34.162969" style="stroke: #000000"/>
     </g>
    </g>
    <g id="text_43">
     <!-- β_c from χ_peak -->
     <g transform="translate(903.251232 37.312969) scale(0.09 -0.09)">
      <defs>
       <path id="DejaVuSans-3b2" d="M 1178 216 
L 1178 -1331 
L 600 -1331 
L 600 3478 
Q 600 4903 1931 4903 
Q 3288 4903 3288 3700 
Q 3288 2844 2750 2531 
Q 3625 2250 3625 1416 
Q 3625 -66 2119 -66 
Q 1456 -66 1178 216 
z
M 1178 966 
Q 1525 425 2141 425 
Q 3041 425 3041 1406 
Q 3041 2288 1591 2219 
L 1591 2750 
Q 2725 2750 2725 3750 
Q 2725 4434 1994 4434 
Q 1178 4434 1178 3459 
L 1178 966 
z
" transform="scale(0.015625)"/>
       <path id="DejaVuSans-5f" d="M 3263 -1063 
L 3263 -1509 
L -63 -1509 
L -63 -1063 
L 3263 -1063 
z
" transform="scale(0.015625)"/>
      </defs>
      <use xlink:href="#DejaVuSans-3b2"/>
      <use xlink:href="#DejaVuSans-5f" x="63.818359"/>
      <use xlink:href="#DejaVuSans-63" x="113.818359"/>
      <use xlink:href="#DejaVuSans-20" x="168.798828"/>
      <use xlink:href="#DejaVuSans-66" x="200.585938"/>
      <use xlink:href="#DejaVuSans-72" x="235.791016"/>
      <use xlink:href="#DejaVuSans-6f" x="274.654297"/>
      <use xlink:href="#DejaVuSans-6d" x="335.835938"/>
      <use xlink:href="#DejaVuSans-20" x="433.248047"/>
      <use xlink:href="#DejaVuSans-3c7" x="465.035156"/>
      <use xlink:href="#DejaVuSans-5f" x="522.798828"/>
      <use xlink:href="#DejaVuSans-70" x="572.798828"/>
      <use xlink:href="#DejaVuSans-65" x="636.275391"/>
      <use xlink:href="#DejaVuSans-61" x="697.798828"/>
      <use xlink:href="#DejaVuSans-6b" x="759.078125"/>
     </g>
    </g>
    <g id="line2d_81">
     <path d="M 878.051232 47.679844 
L 887.051232 47.679844 
L 896.051232 47.679844 
" style="fill: none; stroke-dasharray: 2,3.3; stroke-dashoffset: 0; stroke: #808080; stroke-opacity: 0.7; stroke-width: 2"/>
    </g>
    <g id="text_44">
     <!-- β_c(∞) = 0.7613 -->
     <g transform="translate(903.251232 50.829844) scale(0.09 -0.09)">
      <defs>
       <path id="DejaVuSans-221e" d="M 2916 1091 
Q 2819 1203 2666 1466 
Q 2456 1091 2272 925 
Q 2041 725 1681 725 
Q 1259 725 981 1041 
Q 688 1372 688 1919 
Q 688 2444 981 2800 
Q 1244 3116 1688 3116 
Q 1916 3116 2084 3022 
Q 2281 2919 2416 2741 
Q 2541 2581 2666 2366 
Q 2875 2741 3059 2906 
Q 3291 3106 3650 3106 
Q 4072 3106 4350 2791 
Q 4644 2459 4644 1913 
Q 4644 1388 4350 1031 
Q 4088 716 3644 716 
Q 3416 716 3247 809 
Q 3078 894 2916 1091 
z
M 1647 1134 
Q 2163 1134 2472 1884 
Q 2075 2703 1647 2703 
Q 1334 2703 1175 2478 
Q 1003 2238 1003 1919 
Q 1003 1569 1175 1353 
Q 1350 1134 1647 1134 
z
M 3684 2697 
Q 3219 2697 2859 1947 
Q 3253 1128 3684 1128 
Q 3997 1128 4156 1353 
Q 4328 1594 4328 1913 
Q 4328 2263 4156 2478 
Q 3981 2697 3684 2697 
z
" transform="scale(0.015625)"/>
       <path id="DejaVuSans-3d" d="M 678 2906 
L 4684 2906 
L 4684 2381 
L 678 2381 
L 678 2906 
z
M 678 1631 
L 4684 1631 
L 4684 1100 
L 678 1100 
L 678 1631 
z
" transform="scale(0.015625)"/>
      </defs>
      <use xlink:href="#DejaVuSans-3b2"/>
      <use xlink:href="#DejaVuSans-5f" x="63.818359"/>
      <use xlink:href="#DejaVuSans-63" x="113.818359"/>
      <use xlink:href="#DejaVuSans-28" x="168.798828"/>
      <use xlink:href="#DejaVuSans-221e" x="207.8125"/>
      <use xlink:href="#DejaVuSans-29" x="291.113281"/>
      <use xlink:href="#DejaVuSans-20" x="330.126953"/>
      <use xlink:href="#DejaVuSans-3d" x="361.914062"/>
      <use xlink:href="#DejaVuSans-20" x="445.703125"/>
      <use xlink:href="#DejaVuSans-30" x="477.490234"/>
      <use xlink:href="#DejaVuSans-2e" x="541.113281"/>
      <use xlink:href="#DejaVuSans-37" x="572.900391"/>
      <use xlink:href="#DejaVuSans-36" x="636.523438"/>
      <use xlink:href="#DejaVuSans-31" x="700.146484"/>
      <use xlink:href="#DejaVuSans-33" x="763.769531"/>
     </g>
    </g>
   </g>
  </g>
 </g>
 <defs>
  <clipPath id="p922bc5c7a5">
   <rect x="70.34" y="22.318125" width="244.233777" height="253.396"/>
  </clipPath>
  <clipPath id="p0d36758ed2">
   <rect x="405.961306" y="22.318125" width="244.233777" height="253.396"/>
  </clipPath>
  <clipPath id="pff5b49ed42">
   <rect x="741.582611" y="22.318125" width="244.233777" height="253.396"/>
  </clipPath>
 </defs>
</svg>
