<?xml version="1.0" encoding="utf-8" standalone="no"?>
<!DOCTYPE svg PUBLIC "-//W3C//DTD SVG 1.1//EN"
  "http://www.w3.org/Graphics/SVG/1.1/DTD/svg11.dtd">
<svg xmlns:xlink="http://www.w3.org/1999/xlink" width="711.048125pt" height="422.996094pt" viewBox="0 0 711.048125 422.996094" xmlns="http://www.w3.org/2000/svg" version="1.1">
 <metadata>
  <rdf:RDF xmlns:dc="http://purl.org/dc/elements/1.1/" xmlns:cc="http://creativecommons.org/ns#" xmlns:rdf="http://www.w3.org/1999/02/22-rdf-syntax-ns#">
   <cc:Work>
    <dc:type rdf:resource="http://purl.org/dc/dcmitype/StillImage"/>
    <dc:date>2026-06-27T14:38:01.553582</dc:date>
    <dc:format>image/svg+xml</dc:format>
    <dc:creator>
     <cc:Agent>
      <dc:title>Matplotlib v3.9.4, https://matplotlib.org/</dc:title>
     </cc:Agent>
    </dc:creator>
   </cc:Work>
  </rdf:RDF>
 </metadata>
 <defs>
  <style type="text/css">*{stroke-linejoin: round; stroke-linecap: butt}</style>
 </defs>
 <g id="figure_1">
  <g id="patch_1">
   <path d="M 0 422.996094 
L 711.048125 422.996094 
L 711.048125 0 
L 0 0 
z
" style="fill: #ffffff"/>
  </g>
  <g id="axes_1">
   <g id="patch_2">
    <path d="M 45.743125 383.357969 
L 703.848125 383.357969 
L 703.848125 23.077969 
L 45.743125 23.077969 
z
" style="fill: #ffffff"/>
   </g>
   <g id="matplotlib.axis_1">
    <g id="xtick_1">
     <g id="line2d_1">
      <path d="M 144.458875 383.357969 
L 144.458875 23.077969 
" clip-path="url(#p929a76f11a)" style="fill: none; stroke: #b0b0b0; stroke-opacity: 0.3; stroke-width: 0.8; stroke-linecap: square"/>
     </g>
     <g id="line2d_2">
      <defs>
       <path id="m07d00556a3" d="M 0 0 
L 0 3.5 
" style="stroke: #000000; stroke-width: 0.8"/>
      </defs>
      <g>
       <use xlink:href="#m07d00556a3" x="144.458875" y="383.357969" style="stroke: #000000; stroke-width: 0.8"/>
      </g>
     </g>
     <g id="text_1">
      <!-- 0.4 -->
      <g transform="translate(136.507313 397.956406) scale(0.1 -0.1)">
       <defs>
        <path id="DejaVuSans-30" d="M 2034 4250 
Q 1547 4250 1301 3770 
Q 1056 3291 1056 2328 
Q 1056 1369 1301 889 
Q 1547 409 2034 409 
Q 2525 409 2770 889 
Q 3016 1369 3016 2328 
Q 3016 3291 2770 3770 
Q 2525 4250 2034 4250 
z
M 2034 4750 
Q 2819 4750 3233 4129 
Q 3647 3509 3647 2328 
Q 3647 1150 3233 529 
Q 2819 -91 2034 -91 
Q 1250 -91 836 529 
Q 422 1150 422 2328 
Q 422 3509 836 4129 
Q 1250 4750 2034 4750 
z
" transform="scale(0.015625)"/>
        <path id="DejaVuSans-2e" d="M 684 794 
L 1344 794 
L 1344 0 
L 684 0 
L 684 794 
z
" transform="scale(0.015625)"/>
        <path id="DejaVuSans-34" d="M 2419 4116 
L 825 1625 
L 2419 1625 
L 2419 4116 
z
M 2253 4666 
L 3047 4666 
L 3047 1625 
L 3713 1625 
L 3713 1100 
L 3047 1100 
L 3047 0 
L 2419 0 
L 2419 1100 
L 313 1100 
L 313 1709 
L 2253 4666 
z
" transform="scale(0.015625)"/>
       </defs>
       <use xlink:href="#DejaVuSans-30"/>
       <use xlink:href="#DejaVuSans-2e" x="63.623047"/>
       <use xlink:href="#DejaVuSans-34" x="95.410156"/>
      </g>
     </g>
    </g>
    <g id="xtick_2">
     <g id="line2d_3">
      <path d="M 276.079875 383.357969 
L 276.079875 23.077969 
" clip-path="url(#p929a76f11a)" style="fill: none; stroke: #b0b0b0; stroke-opacity: 0.3; stroke-width: 0.8; stroke-linecap: square"/>
     </g>
     <g id="line2d_4">
      <g>
       <use xlink:href="#m07d00556a3" x="276.079875" y="383.357969" style="stroke: #000000; stroke-width: 0.8"/>
      </g>
     </g>
     <g id="text_2">
      <!-- 0.6 -->
      <g transform="translate(268.128313 397.956406) scale(0.1 -0.1)">
       <defs>
        <path id="DejaVuSans-36" d="M 2113 2584 
Q 1688 2584 1439 2293 
Q 1191 2003 1191 1497 
Q 1191 994 1439 701 
Q 1688 409 2113 409 
Q 2538 409 2786 701 
Q 3034 994 3034 1497 
Q 3034 2003 2786 2293 
Q 2538 2584 2113 2584 
z
M 3366 4563 
L 3366 3988 
Q 3128 4100 2886 4159 
Q 2644 4219 2406 4219 
Q 1781 4219 1451 3797 
Q 1122 3375 1075 2522 
Q 1259 2794 1537 2939 
Q 1816 3084 2150 3084 
Q 2853 3084 3261 2657 
Q 3669 2231 3669 1497 
Q 3669 778 3244 343 
Q 2819 -91 2113 -91 
Q 1303 -91 875 529 
Q 447 1150 447 2328 
Q 447 3434 972 4092 
Q 1497 4750 2381 4750 
Q 2619 4750 2861 4703 
Q 3103 4656 3366 4563 
z
" transform="scale(0.015625)"/>
       </defs>
       <use xlink:href="#DejaVuSans-30"/>
       <use xlink:href="#DejaVuSans-2e" x="63.623047"/>
       <use xlink:href="#DejaVuSans-36" x="95.410156"/>
      </g>
     </g>
    </g>
    <g id="xtick_3">
     <g id="line2d_5">
      <path d="M 407.700875 383.357969 
L 407.700875 23.077969 
" clip-path="url(#p929a76f11a)" style="fill: none; stroke: #b0b0b0; stroke-opacity: 0.3; stroke-width: 0.8; stroke-linecap: square"/>
     </g>
     <g id="line2d_6">
      <g>
       <use xlink:href="#m07d00556a3" x="407.700875" y="383.357969" style="stroke: #000000; stroke-width: 0.8"/>
      </g>
     </g>
     <g id="text_3">
      <!-- 0.8 -->
      <g transform="translate(399.749313 397.956406) scale(0.1 -0.1)">
       <defs>
        <path id="DejaVuSans-38" d="M 2034 2216 
Q 1584 2216 1326 1975 
Q 1069 1734 1069 1313 
Q 1069 891 1326 650 
Q 1584 409 2034 409 
Q 2484 409 2743 651 
Q 3003 894 3003 1313 
Q 3003 1734 2745 1975 
Q 2488 2216 2034 2216 
z
M 1403 2484 
Q 997 2584 770 2862 
Q 544 3141 544 3541 
Q 544 4100 942 4425 
Q 1341 4750 2034 4750 
Q 2731 4750 3128 4425 
Q 3525 4100 3525 3541 
Q 3525 3141 3298 2862 
Q 3072 2584 2669 2484 
Q 3125 2378 3379 2068 
Q 3634 1759 3634 1313 
Q 3634 634 3220 271 
Q 2806 -91 2034 -91 
Q 1263 -91 848 271 
Q 434 634 434 1313 
Q 434 1759 690 2068 
Q 947 2378 1403 2484 
z
M 1172 3481 
Q 1172 3119 1398 2916 
Q 1625 2713 2034 2713 
Q 2441 2713 2670 2916 
Q 2900 3119 2900 3481 
Q 2900 3844 2670 4047 
Q 2441 4250 2034 4250 
Q 1625 4250 1398 4047 
Q 1172 3844 1172 3481 
z
" transform="scale(0.015625)"/>
       </defs>
       <use xlink:href="#DejaVuSans-30"/>
       <use xlink:href="#DejaVuSans-2e" x="63.623047"/>
       <use xlink:href="#DejaVuSans-38" x="95.410156"/>
      </g>
     </g>
    </g>
    <g id="xtick_4">
     <g id="line2d_7">
      <path d="M 539.321875 383.357969 
L 539.321875 23.077969 
" clip-path="url(#p929a76f11a)" style="fill: none; stroke: #b0b0b0; stroke-opacity: 0.3; stroke-width: 0.8; stroke-linecap: square"/>
     </g>
     <g id="line2d_8">
      <g>
       <use xlink:href="#m07d00556a3" x="539.321875" y="383.357969" style="stroke: #000000; stroke-width: 0.8"/>
      </g>
     </g>
     <g id="text_4">
      <!-- 1.0 -->
      <g transform="translate(531.370313 397.956406) scale(0.1 -0.1)">
       <defs>
        <path id="DejaVuSans-31" d="M 794 531 
L 1825 531 
L 1825 4091 
L 703 3866 
L 703 4441 
L 1819 4666 
L 2450 4666 
L 2450 531 
L 3481 531 
L 3481 0 
L 794 0 
L 794 531 
z
" transform="scale(0.015625)"/>
       </defs>
       <use xlink:href="#DejaVuSans-31"/>
       <use xlink:href="#DejaVuSans-2e" x="63.623047"/>
       <use xlink:href="#DejaVuSans-30" x="95.410156"/>
      </g>
     </g>
    </g>
    <g id="xtick_5">
     <g id="line2d_9">
      <path d="M 670.942875 383.357969 
L 670.942875 23.077969 
" clip-path="url(#p929a76f11a)" style="fill: none; stroke: #b0b0b0; stroke-opacity: 0.3; stroke-width: 0.8; stroke-linecap: square"/>
     </g>
     <g id="line2d_10">
      <g>
       <use xlink:href="#m07d00556a3" x="670.942875" y="383.357969" style="stroke: #000000; stroke-width: 0.8"/>
      </g>
     </g>
     <g id="text_5">
      <!-- 1.2 -->
      <g transform="translate(662.991313 397.956406) scale(0.1 -0.1)">
       <defs>
        <path id="DejaVuSans-32" d="M 1228 531 
L 3431 531 
L 3431 0 
L 469 0 
L 469 531 
Q 828 903 1448 1529 
Q 2069 2156 2228 2338 
Q 2531 2678 2651 2914 
Q 2772 3150 2772 3378 
Q 2772 3750 2511 3984 
Q 2250 4219 1831 4219 
Q 1534 4219 1204 4116 
Q 875 4013 500 3803 
L 500 4441 
Q 881 4594 1212 4672 
Q 1544 4750 1819 4750 
Q 2544 4750 2975 4387 
Q 3406 4025 3406 3419 
Q 3406 3131 3298 2873 
Q 3191 2616 2906 2266 
Q 2828 2175 2409 1742 
Q 1991 1309 1228 531 
z
" transform="scale(0.015625)"/>
       </defs>
       <use xlink:href="#DejaVuSans-31"/>
       <use xlink:href="#DejaVuSans-2e" x="63.623047"/>
       <use xlink:href="#DejaVuSans-32" x="95.410156"/>
      </g>
     </g>
    </g>
    <g id="text_6">
     <!-- Coupling $\beta$ -->
     <g transform="translate(342.635625 413.276094) scale(0.12 -0.12)">
      <defs>
       <path id="DejaVuSans-43" d="M 4122 4306 
L 4122 3641 
Q 3803 3938 3442 4084 
Q 3081 4231 2675 4231 
Q 1875 4231 1450 3742 
Q 1025 3253 1025 2328 
Q 1025 1406 1450 917 
Q 1875 428 2675 428 
Q 3081 428 3442 575 
Q 3803 722 4122 1019 
L 4122 359 
Q 3791 134 3420 21 
Q 3050 -91 2638 -91 
Q 1578 -91 968 557 
Q 359 1206 359 2328 
Q 359 3453 968 4101 
Q 1578 4750 2638 4750 
Q 3056 4750 3426 4639 
Q 3797 4528 4122 4306 
z
" transform="scale(0.015625)"/>
       <path id="DejaVuSans-6f" d="M 1959 3097 
Q 1497 3097 1228 2736 
Q 959 2375 959 1747 
Q 959 1119 1226 758 
Q 1494 397 1959 397 
Q 2419 397 2687 759 
Q 2956 1122 2956 1747 
Q 2956 2369 2687 2733 
Q 2419 3097 1959 3097 
z
M 1959 3584 
Q 2709 3584 3137 3096 
Q 3566 2609 3566 1747 
Q 3566 888 3137 398 
Q 2709 -91 1959 -91 
Q 1206 -91 779 398 
Q 353 888 353 1747 
Q 353 2609 779 3096 
Q 1206 3584 1959 3584 
z
" transform="scale(0.015625)"/>
       <path id="DejaVuSans-75" d="M 544 1381 
L 544 3500 
L 1119 3500 
L 1119 1403 
Q 1119 906 1312 657 
Q 1506 409 1894 409 
Q 2359 409 2629 706 
Q 2900 1003 2900 1516 
L 2900 3500 
L 3475 3500 
L 3475 0 
L 2900 0 
L 2900 538 
Q 2691 219 2414 64 
Q 2138 -91 1772 -91 
Q 1169 -91 856 284 
Q 544 659 544 1381 
z
M 1991 3584 
L 1991 3584 
z
" transform="scale(0.015625)"/>
       <path id="DejaVuSans-70" d="M 1159 525 
L 1159 -1331 
L 581 -1331 
L 581 3500 
L 1159 3500 
L 1159 2969 
Q 1341 3281 1617 3432 
Q 1894 3584 2278 3584 
Q 2916 3584 3314 3078 
Q 3713 2572 3713 1747 
Q 3713 922 3314 415 
Q 2916 -91 2278 -91 
Q 1894 -91 1617 61 
Q 1341 213 1159 525 
z
M 3116 1747 
Q 3116 2381 2855 2742 
Q 2594 3103 2138 3103 
Q 1681 3103 1420 2742 
Q 1159 2381 1159 1747 
Q 1159 1113 1420 752 
Q 1681 391 2138 391 
Q 2594 391 2855 752 
Q 3116 1113 3116 1747 
z
" transform="scale(0.015625)"/>
       <path id="DejaVuSans-6c" d="M 603 4863 
L 1178 4863 
L 1178 0 
L 603 0 
L 603 4863 
z
" transform="scale(0.015625)"/>
       <path id="DejaVuSans-69" d="M 603 3500 
L 1178 3500 
L 1178 0 
L 603 0 
L 603 3500 
z
M 603 4863 
L 1178 4863 
L 1178 4134 
L 603 4134 
L 603 4863 
z
" transform="scale(0.015625)"/>
       <path id="DejaVuSans-6e" d="M 3513 2113 
L 3513 0 
L 2938 0 
L 2938 2094 
Q 2938 2591 2744 2837 
Q 2550 3084 2163 3084 
Q 1697 3084 1428 2787 
Q 1159 2491 1159 1978 
L 1159 0 
L 581 0 
L 581 3500 
L 1159 3500 
L 1159 2956 
Q 1366 3272 1645 3428 
Q 1925 3584 2291 3584 
Q 2894 3584 3203 3211 
Q 3513 2838 3513 2113 
z
" transform="scale(0.015625)"/>
       <path id="DejaVuSans-67" d="M 2906 1791 
Q 2906 2416 2648 2759 
Q 2391 3103 1925 3103 
Q 1463 3103 1205 2759 
Q 947 2416 947 1791 
Q 947 1169 1205 825 
Q 1463 481 1925 481 
Q 2391 481 2648 825 
Q 2906 1169 2906 1791 
z
M 3481 434 
Q 3481 -459 3084 -895 
Q 2688 -1331 1869 -1331 
Q 1566 -1331 1297 -1286 
Q 1028 -1241 775 -1147 
L 775 -588 
Q 1028 -725 1275 -790 
Q 1522 -856 1778 -856 
Q 2344 -856 2625 -561 
Q 2906 -266 2906 331 
L 2906 616 
Q 2728 306 2450 153 
Q 2172 0 1784 0 
Q 1141 0 747 490 
Q 353 981 353 1791 
Q 353 2603 747 3093 
Q 1141 3584 1784 3584 
Q 2172 3584 2450 3431 
Q 2728 3278 2906 2969 
L 2906 3500 
L 3481 3500 
L 3481 434 
z
" transform="scale(0.015625)"/>
       <path id="DejaVuSans-20" transform="scale(0.015625)"/>
       <path id="DejaVuSans-Oblique-3b2" d="M 872 216 
L 572 -1331 
L -6 -1331 
L 928 3478 
Q 1206 4903 2538 4903 
Q 3888 4903 3659 3700 
Q 3503 2844 2894 2531 
Q 3713 2250 3553 1416 
Q 3272 -69 1759 -66 
Q 1097 -63 872 216 
z
M 1019 966 
Q 1259 422 1875 425 
Q 2775 425 2966 1406 
Q 3138 2288 1675 2219 
L 1778 2750 
Q 2909 2731 3106 3750 
Q 3241 4438 2509 4434 
Q 1691 4434 1503 3459 
L 1019 966 
z
" transform="scale(0.015625)"/>
      </defs>
      <use xlink:href="#DejaVuSans-43" transform="translate(0 0.390625)"/>
      <use xlink:href="#DejaVuSans-6f" transform="translate(69.824219 0.390625)"/>
      <use xlink:href="#DejaVuSans-75" transform="translate(131.005859 0.390625)"/>
      <use xlink:href="#DejaVuSans-70" transform="translate(194.384766 0.390625)"/>
      <use xlink:href="#DejaVuSans-6c" transform="translate(257.861328 0.390625)"/>
      <use xlink:href="#DejaVuSans-69" transform="translate(285.644531 0.390625)"/>
      <use xlink:href="#DejaVuSans-6e" transform="translate(313.427734 0.390625)"/>
      <use xlink:href="#DejaVuSans-67" transform="translate(376.806641 0.390625)"/>
      <use xlink:href="#DejaVuSans-20" transform="translate(440.283203 0.390625)"/>
      <use xlink:href="#DejaVuSans-Oblique-3b2" transform="translate(472.070312 0.390625)"/>
     </g>
    </g>
   </g>
   <g id="matplotlib.axis_2">
    <g id="ytick_1">
     <g id="line2d_11">
      <path d="M 45.743125 368.461314 
L 703.848125 368.461314 
" clip-path="url(#p929a76f11a)" style="fill: none; stroke: #b0b0b0; stroke-opacity: 0.3; stroke-width: 0.8; stroke-linecap: square"/>
     </g>
     <g id="line2d_12">
      <defs>
       <path id="md1064ae634" d="M 0 0 
L -3.5 0 
" style="stroke: #000000; stroke-width: 0.8"/>
      </defs>
      <g>
       <use xlink:href="#md1064ae634" x="45.743125" y="368.461314" style="stroke: #000000; stroke-width: 0.8"/>
      </g>
     </g>
     <g id="text_7">
      <!-- 0.0 -->
      <g transform="translate(22.84 372.260532) scale(0.1 -0.1)">
       <use xlink:href="#DejaVuSans-30"/>
       <use xlink:href="#DejaVuSans-2e" x="63.623047"/>
       <use xlink:href="#DejaVuSans-30" x="95.410156"/>
      </g>
     </g>
    </g>
    <g id="ytick_2">
     <g id="line2d_13">
      <path d="M 45.743125 305.964772 
L 703.848125 305.964772 
" clip-path="url(#p929a76f11a)" style="fill: none; stroke: #b0b0b0; stroke-opacity: 0.3; stroke-width: 0.8; stroke-linecap: square"/>
     </g>
     <g id="line2d_14">
      <g>
       <use xlink:href="#md1064ae634" x="45.743125" y="305.964772" style="stroke: #000000; stroke-width: 0.8"/>
      </g>
     </g>
     <g id="text_8">
      <!-- 0.1 -->
      <g transform="translate(22.84 309.76399) scale(0.1 -0.1)">
       <use xlink:href="#DejaVuSans-30"/>
       <use xlink:href="#DejaVuSans-2e" x="63.623047"/>
       <use xlink:href="#DejaVuSans-31" x="95.410156"/>
      </g>
     </g>
    </g>
    <g id="ytick_3">
     <g id="line2d_15">
      <path d="M 45.743125 243.46823 
L 703.848125 243.46823 
" clip-path="url(#p929a76f11a)" style="fill: none; stroke: #b0b0b0; stroke-opacity: 0.3; stroke-width: 0.8; stroke-linecap: square"/>
     </g>
     <g id="line2d_16">
      <g>
       <use xlink:href="#md1064ae634" x="45.743125" y="243.46823" style="stroke: #000000; stroke-width: 0.8"/>
      </g>
     </g>
     <g id="text_9">
      <!-- 0.2 -->
      <g transform="translate(22.84 247.267449) scale(0.1 -0.1)">
       <use xlink:href="#DejaVuSans-30"/>
       <use xlink:href="#DejaVuSans-2e" x="63.623047"/>
       <use xlink:href="#DejaVuSans-32" x="95.410156"/>
      </g>
     </g>
    </g>
    <g id="ytick_4">
     <g id="line2d_17">
      <path d="M 45.743125 180.971688 
L 703.848125 180.971688 
" clip-path="url(#p929a76f11a)" style="fill: none; stroke: #b0b0b0; stroke-opacity: 0.3; stroke-width: 0.8; stroke-linecap: square"/>
     </g>
     <g id="line2d_18">
      <g>
       <use xlink:href="#md1064ae634" x="45.743125" y="180.971688" style="stroke: #000000; stroke-width: 0.8"/>
      </g>
     </g>
     <g id="text_10">
      <!-- 0.3 -->
      <g transform="translate(22.84 184.770907) scale(0.1 -0.1)">
       <defs>
        <path id="DejaVuSans-33" d="M 2597 2516 
Q 3050 2419 3304 2112 
Q 3559 1806 3559 1356 
Q 3559 666 3084 287 
Q 2609 -91 1734 -91 
Q 1441 -91 1130 -33 
Q 819 25 488 141 
L 488 750 
Q 750 597 1062 519 
Q 1375 441 1716 441 
Q 2309 441 2620 675 
Q 2931 909 2931 1356 
Q 2931 1769 2642 2001 
Q 2353 2234 1838 2234 
L 1294 2234 
L 1294 2753 
L 1863 2753 
Q 2328 2753 2575 2939 
Q 2822 3125 2822 3475 
Q 2822 3834 2567 4026 
Q 2313 4219 1838 4219 
Q 1578 4219 1281 4162 
Q 984 4106 628 3988 
L 628 4550 
Q 988 4650 1302 4700 
Q 1616 4750 1894 4750 
Q 2613 4750 3031 4423 
Q 3450 4097 3450 3541 
Q 3450 3153 3228 2886 
Q 3006 2619 2597 2516 
z
" transform="scale(0.015625)"/>
       </defs>
       <use xlink:href="#DejaVuSans-30"/>
       <use xlink:href="#DejaVuSans-2e" x="63.623047"/>
       <use xlink:href="#DejaVuSans-33" x="95.410156"/>
      </g>
     </g>
    </g>
    <g id="ytick_5">
     <g id="line2d_19">
      <path d="M 45.743125 118.475146 
L 703.848125 118.475146 
" clip-path="url(#p929a76f11a)" style="fill: none; stroke: #b0b0b0; stroke-opacity: 0.3; stroke-width: 0.8; stroke-linecap: square"/>
     </g>
     <g id="line2d_20">
      <g>
       <use xlink:href="#md1064ae634" x="45.743125" y="118.475146" style="stroke: #000000; stroke-width: 0.8"/>
      </g>
     </g>
     <g id="text_11">
      <!-- 0.4 -->
      <g transform="translate(22.84 122.274365) scale(0.1 -0.1)">
       <use xlink:href="#DejaVuSans-30"/>
       <use xlink:href="#DejaVuSans-2e" x="63.623047"/>
       <use xlink:href="#DejaVuSans-34" x="95.410156"/>
      </g>
     </g>
    </g>
    <g id="ytick_6">
     <g id="line2d_21">
      <path d="M 45.743125 55.978604 
L 703.848125 55.978604 
" clip-path="url(#p929a76f11a)" style="fill: none; stroke: #b0b0b0; stroke-opacity: 0.3; stroke-width: 0.8; stroke-linecap: square"/>
     </g>
     <g id="line2d_22">
      <g>
       <use xlink:href="#md1064ae634" x="45.743125" y="55.978604" style="stroke: #000000; stroke-width: 0.8"/>
      </g>
     </g>
     <g id="text_12">
      <!-- 0.5 -->
      <g transform="translate(22.84 59.777823) scale(0.1 -0.1)">
       <defs>
        <path id="DejaVuSans-35" d="M 691 4666 
L 3169 4666 
L 3169 4134 
L 1269 4134 
L 1269 2991 
Q 1406 3038 1543 3061 
Q 1681 3084 1819 3084 
Q 2600 3084 3056 2656 
Q 3513 2228 3513 1497 
Q 3513 744 3044 326 
Q 2575 -91 1722 -91 
Q 1428 -91 1123 -41 
Q 819 9 494 109 
L 494 744 
Q 775 591 1075 516 
Q 1375 441 1709 441 
Q 2250 441 2565 725 
Q 2881 1009 2881 1497 
Q 2881 1984 2565 2268 
Q 2250 2553 1709 2553 
Q 1456 2553 1204 2497 
Q 953 2441 691 2322 
L 691 4666 
z
" transform="scale(0.015625)"/>
       </defs>
       <use xlink:href="#DejaVuSans-30"/>
       <use xlink:href="#DejaVuSans-2e" x="63.623047"/>
       <use xlink:href="#DejaVuSans-35" x="95.410156"/>
      </g>
     </g>
    </g>
    <g id="text_13">
     <!-- Specific Heat $C_V$ -->
     <g transform="translate(16.32 251.877969) rotate(-90) scale(0.12 -0.12)">
      <defs>
       <path id="DejaVuSans-53" d="M 3425 4513 
L 3425 3897 
Q 3066 4069 2747 4153 
Q 2428 4238 2131 4238 
Q 1616 4238 1336 4038 
Q 1056 3838 1056 3469 
Q 1056 3159 1242 3001 
Q 1428 2844 1947 2747 
L 2328 2669 
Q 3034 2534 3370 2195 
Q 3706 1856 3706 1288 
Q 3706 609 3251 259 
Q 2797 -91 1919 -91 
Q 1588 -91 1214 -16 
Q 841 59 441 206 
L 441 856 
Q 825 641 1194 531 
Q 1563 422 1919 422 
Q 2459 422 2753 634 
Q 3047 847 3047 1241 
Q 3047 1584 2836 1778 
Q 2625 1972 2144 2069 
L 1759 2144 
Q 1053 2284 737 2584 
Q 422 2884 422 3419 
Q 422 4038 858 4394 
Q 1294 4750 2059 4750 
Q 2388 4750 2728 4690 
Q 3069 4631 3425 4513 
z
" transform="scale(0.015625)"/>
       <path id="DejaVuSans-65" d="M 3597 1894 
L 3597 1613 
L 953 1613 
Q 991 1019 1311 708 
Q 1631 397 2203 397 
Q 2534 397 2845 478 
Q 3156 559 3463 722 
L 3463 178 
Q 3153 47 2828 -22 
Q 2503 -91 2169 -91 
Q 1331 -91 842 396 
Q 353 884 353 1716 
Q 353 2575 817 3079 
Q 1281 3584 2069 3584 
Q 2775 3584 3186 3129 
Q 3597 2675 3597 1894 
z
M 3022 2063 
Q 3016 2534 2758 2815 
Q 2500 3097 2075 3097 
Q 1594 3097 1305 2825 
Q 1016 2553 972 2059 
L 3022 2063 
z
" transform="scale(0.015625)"/>
       <path id="DejaVuSans-63" d="M 3122 3366 
L 3122 2828 
Q 2878 2963 2633 3030 
Q 2388 3097 2138 3097 
Q 1578 3097 1268 2742 
Q 959 2388 959 1747 
Q 959 1106 1268 751 
Q 1578 397 2138 397 
Q 2388 397 2633 464 
Q 2878 531 3122 666 
L 3122 134 
Q 2881 22 2623 -34 
Q 2366 -91 2075 -91 
Q 1284 -91 818 406 
Q 353 903 353 1747 
Q 353 2603 823 3093 
Q 1294 3584 2113 3584 
Q 2378 3584 2631 3529 
Q 2884 3475 3122 3366 
z
" transform="scale(0.015625)"/>
       <path id="DejaVuSans-66" d="M 2375 4863 
L 2375 4384 
L 1825 4384 
Q 1516 4384 1395 4259 
Q 1275 4134 1275 3809 
L 1275 3500 
L 2222 3500 
L 2222 3053 
L 1275 3053 
L 1275 0 
L 697 0 
L 697 3053 
L 147 3053 
L 147 3500 
L 697 3500 
L 697 3744 
Q 697 4328 969 4595 
Q 1241 4863 1831 4863 
L 2375 4863 
z
" transform="scale(0.015625)"/>
       <path id="DejaVuSans-48" d="M 628 4666 
L 1259 4666 
L 1259 2753 
L 3553 2753 
L 3553 4666 
L 4184 4666 
L 4184 0 
L 3553 0 
L 3553 2222 
L 1259 2222 
L 1259 0 
L 628 0 
L 628 4666 
z
" transform="scale(0.015625)"/>
       <path id="DejaVuSans-61" d="M 2194 1759 
Q 1497 1759 1228 1600 
Q 959 1441 959 1056 
Q 959 750 1161 570 
Q 1363 391 1709 391 
Q 2188 391 2477 730 
Q 2766 1069 2766 1631 
L 2766 1759 
L 2194 1759 
z
M 3341 1997 
L 3341 0 
L 2766 0 
L 2766 531 
Q 2569 213 2275 61 
Q 1981 -91 1556 -91 
Q 1019 -91 701 211 
Q 384 513 384 1019 
Q 384 1609 779 1909 
Q 1175 2209 1959 2209 
L 2766 2209 
L 2766 2266 
Q 2766 2663 2505 2880 
Q 2244 3097 1772 3097 
Q 1472 3097 1187 3025 
Q 903 2953 641 2809 
L 641 3341 
Q 956 3463 1253 3523 
Q 1550 3584 1831 3584 
Q 2591 3584 2966 3190 
Q 3341 2797 3341 1997 
z
" transform="scale(0.015625)"/>
       <path id="DejaVuSans-74" d="M 1172 4494 
L 1172 3500 
L 2356 3500 
L 2356 3053 
L 1172 3053 
L 1172 1153 
Q 1172 725 1289 603 
Q 1406 481 1766 481 
L 2356 481 
L 2356 0 
L 1766 0 
Q 1100 0 847 248 
Q 594 497 594 1153 
L 594 3053 
L 172 3053 
L 172 3500 
L 594 3500 
L 594 4494 
L 1172 4494 
z
" transform="scale(0.015625)"/>
       <path id="DejaVuSans-Oblique-43" d="M 4447 4306 
L 4319 3641 
Q 4019 3944 3683 4091 
Q 3347 4238 2956 4238 
Q 2422 4238 2017 3981 
Q 1613 3725 1319 3200 
Q 1131 2863 1032 2486 
Q 934 2109 934 1728 
Q 934 1091 1264 756 
Q 1594 422 2222 422 
Q 2656 422 3056 561 
Q 3456 700 3834 978 
L 3688 231 
Q 3316 72 2936 -9 
Q 2556 -91 2175 -91 
Q 1278 -91 773 396 
Q 269 884 269 1753 
Q 269 2309 461 2846 
Q 653 3384 1013 3828 
Q 1394 4300 1883 4525 
Q 2372 4750 3022 4750 
Q 3422 4750 3780 4639 
Q 4138 4528 4447 4306 
z
" transform="scale(0.015625)"/>
       <path id="DejaVuSans-Oblique-56" d="M 1319 0 
L 500 4666 
L 1119 4666 
L 1797 653 
L 4063 4666 
L 4750 4666 
L 2053 0 
L 1319 0 
z
" transform="scale(0.015625)"/>
      </defs>
      <use xlink:href="#DejaVuSans-53" transform="translate(0 0.015625)"/>
      <use xlink:href="#DejaVuSans-70" transform="translate(63.476562 0.015625)"/>
      <use xlink:href="#DejaVuSans-65" transform="translate(126.953125 0.015625)"/>
      <use xlink:href="#DejaVuSans-63" transform="translate(188.476562 0.015625)"/>
      <use xlink:href="#DejaVuSans-69" transform="translate(243.457031 0.015625)"/>
      <use xlink:href="#DejaVuSans-66" transform="translate(271.240234 0.015625)"/>
      <use xlink:href="#DejaVuSans-69" transform="translate(306.445312 0.015625)"/>
      <use xlink:href="#DejaVuSans-63" transform="translate(334.228516 0.015625)"/>
      <use xlink:href="#DejaVuSans-20" transform="translate(389.208984 0.015625)"/>
      <use xlink:href="#DejaVuSans-48" transform="translate(420.996094 0.015625)"/>
      <use xlink:href="#DejaVuSans-65" transform="translate(496.191406 0.015625)"/>
      <use xlink:href="#DejaVuSans-61" transform="translate(557.714844 0.015625)"/>
      <use xlink:href="#DejaVuSans-74" transform="translate(618.994141 0.015625)"/>
      <use xlink:href="#DejaVuSans-20" transform="translate(658.203125 0.015625)"/>
      <use xlink:href="#DejaVuSans-Oblique-43" transform="translate(689.990234 0.015625)"/>
      <use xlink:href="#DejaVuSans-Oblique-56" transform="translate(759.814453 -16.390625) scale(0.7)"/>
     </g>
    </g>
   </g>
   <g id="line2d_23">
    <path d="M 210.269375 308.805591 
L 276.079875 247.70432 
L 341.890375 131.883988 
L 374.795625 257.463161 
L 381.376675 281.004658 
L 387.957725 294.216054 
L 407.700875 318.289601 
L 440.606125 346.042087 
L 473.511375 354.317719 
L 539.321875 361.902041 
" clip-path="url(#p929a76f11a)" style="fill: none; stroke: #e74c3c; stroke-opacity: 0.8; stroke-width: 2; stroke-linecap: square"/>
    <defs>
     <path id="m7d18ca1b66" d="M 0 3 
C 0.795609 3 1.55874 2.683901 2.12132 2.12132 
C 2.683901 1.55874 3 0.795609 3 0 
C 3 -0.795609 2.683901 -1.55874 2.12132 -2.12132 
C 1.55874 -2.683901 0.795609 -3 0 -3 
C -0.795609 -3 -1.55874 -2.683901 -2.12132 -2.12132 
C -2.683901 -1.55874 -3 -0.795609 -3 0 
C -3 0.795609 -2.683901 1.55874 -2.12132 2.12132 
C -1.55874 2.683901 -0.795609 3 0 3 
z
" style="stroke: #e74c3c; stroke-opacity: 0.8"/>
    </defs>
    <g clip-path="url(#p929a76f11a)">
     <use xlink:href="#m7d18ca1b66" x="210.269375" y="308.805591" style="fill: #e74c3c; fill-opacity: 0.8; stroke: #e74c3c; stroke-opacity: 0.8"/>
     <use xlink:href="#m7d18ca1b66" x="276.079875" y="247.70432" style="fill: #e74c3c; fill-opacity: 0.8; stroke: #e74c3c; stroke-opacity: 0.8"/>
     <use xlink:href="#m7d18ca1b66" x="341.890375" y="131.883988" style="fill: #e74c3c; fill-opacity: 0.8; stroke: #e74c3c; stroke-opacity: 0.8"/>
     <use xlink:href="#m7d18ca1b66" x="374.795625" y="257.463161" style="fill: #e74c3c; fill-opacity: 0.8; stroke: #e74c3c; stroke-opacity: 0.8"/>
     <use xlink:href="#m7d18ca1b66" x="381.376675" y="281.004658" style="fill: #e74c3c; fill-opacity: 0.8; stroke: #e74c3c; stroke-opacity: 0.8"/>
     <use xlink:href="#m7d18ca1b66" x="387.957725" y="294.216054" style="fill: #e74c3c; fill-opacity: 0.8; stroke: #e74c3c; stroke-opacity: 0.8"/>
     <use xlink:href="#m7d18ca1b66" x="407.700875" y="318.289601" style="fill: #e74c3c; fill-opacity: 0.8; stroke: #e74c3c; stroke-opacity: 0.8"/>
     <use xlink:href="#m7d18ca1b66" x="440.606125" y="346.042087" style="fill: #e74c3c; fill-opacity: 0.8; stroke: #e74c3c; stroke-opacity: 0.8"/>
     <use xlink:href="#m7d18ca1b66" x="473.511375" y="354.317719" style="fill: #e74c3c; fill-opacity: 0.8; stroke: #e74c3c; stroke-opacity: 0.8"/>
     <use xlink:href="#m7d18ca1b66" x="539.321875" y="361.902041" style="fill: #e74c3c; fill-opacity: 0.8; stroke: #e74c3c; stroke-opacity: 0.8"/>
    </g>
   </g>
   <g id="line2d_24">
    <path d="M 210.269375 307.178395 
L 276.079875 265.022248 
L 341.890375 77.957815 
L 374.795625 194.3729 
L 381.376675 254.209475 
L 387.957725 277.392121 
L 407.700875 322.517522 
L 440.606125 344.249236 
L 473.511375 354.084776 
L 539.321875 362.035872 
" clip-path="url(#p929a76f11a)" style="fill: none; stroke: #e67e22; stroke-opacity: 0.8; stroke-width: 2; stroke-linecap: square"/>
    <defs>
     <path id="m03aa025cd7" d="M -3 3 
L 3 3 
L 3 -3 
L -3 -3 
z
" style="stroke: #e67e22; stroke-opacity: 0.8; stroke-linejoin: miter"/>
    </defs>
    <g clip-path="url(#p929a76f11a)">
     <use xlink:href="#m03aa025cd7" x="210.269375" y="307.178395" style="fill: #e67e22; fill-opacity: 0.8; stroke: #e67e22; stroke-opacity: 0.8; stroke-linejoin: miter"/>
     <use xlink:href="#m03aa025cd7" x="276.079875" y="265.022248" style="fill: #e67e22; fill-opacity: 0.8; stroke: #e67e22; stroke-opacity: 0.8; stroke-linejoin: miter"/>
     <use xlink:href="#m03aa025cd7" x="341.890375" y="77.957815" style="fill: #e67e22; fill-opacity: 0.8; stroke: #e67e22; stroke-opacity: 0.8; stroke-linejoin: miter"/>
     <use xlink:href="#m03aa025cd7" x="374.795625" y="194.3729" style="fill: #e67e22; fill-opacity: 0.8; stroke: #e67e22; stroke-opacity: 0.8; stroke-linejoin: miter"/>
     <use xlink:href="#m03aa025cd7" x="381.376675" y="254.209475" style="fill: #e67e22; fill-opacity: 0.8; stroke: #e67e22; stroke-opacity: 0.8; stroke-linejoin: miter"/>
     <use xlink:href="#m03aa025cd7" x="387.957725" y="277.392121" style="fill: #e67e22; fill-opacity: 0.8; stroke: #e67e22; stroke-opacity: 0.8; stroke-linejoin: miter"/>
     <use xlink:href="#m03aa025cd7" x="407.700875" y="322.517522" style="fill: #e67e22; fill-opacity: 0.8; stroke: #e67e22; stroke-opacity: 0.8; stroke-linejoin: miter"/>
     <use xlink:href="#m03aa025cd7" x="440.606125" y="344.249236" style="fill: #e67e22; fill-opacity: 0.8; stroke: #e67e22; stroke-opacity: 0.8; stroke-linejoin: miter"/>
     <use xlink:href="#m03aa025cd7" x="473.511375" y="354.084776" style="fill: #e67e22; fill-opacity: 0.8; stroke: #e67e22; stroke-opacity: 0.8; stroke-linejoin: miter"/>
     <use xlink:href="#m03aa025cd7" x="539.321875" y="362.035872" style="fill: #e67e22; fill-opacity: 0.8; stroke: #e67e22; stroke-opacity: 0.8; stroke-linejoin: miter"/>
    </g>
   </g>
   <g id="line2d_25">
    <path d="M 210.269375 309.83166 
L 276.079875 263.378567 
L 341.890375 162.441134 
L 374.795625 125.426163 
L 381.376675 222.028501 
L 387.957725 273.749519 
L 407.700875 320.720084 
L 440.606125 344.21617 
L 473.511375 354.042807 
L 539.321875 362.047846 
" clip-path="url(#p929a76f11a)" style="fill: none; stroke: #f1c40f; stroke-opacity: 0.8; stroke-width: 2; stroke-linecap: square"/>
    <defs>
     <path id="m34a0043ed1" d="M 0 -3 
L -3 3 
L 3 3 
z
" style="stroke: #f1c40f; stroke-opacity: 0.8; stroke-linejoin: miter"/>
    </defs>
    <g clip-path="url(#p929a76f11a)">
     <use xlink:href="#m34a0043ed1" x="210.269375" y="309.83166" style="fill: #f1c40f; fill-opacity: 0.8; stroke: #f1c40f; stroke-opacity: 0.8; stroke-linejoin: miter"/>
     <use xlink:href="#m34a0043ed1" x="276.079875" y="263.378567" style="fill: #f1c40f; fill-opacity: 0.8; stroke: #f1c40f; stroke-opacity: 0.8; stroke-linejoin: miter"/>
     <use xlink:href="#m34a0043ed1" x="341.890375" y="162.441134" style="fill: #f1c40f; fill-opacity: 0.8; stroke: #f1c40f; stroke-opacity: 0.8; stroke-linejoin: miter"/>
     <use xlink:href="#m34a0043ed1" x="374.795625" y="125.426163" style="fill: #f1c40f; fill-opacity: 0.8; stroke: #f1c40f; stroke-opacity: 0.8; stroke-linejoin: miter"/>
     <use xlink:href="#m34a0043ed1" x="381.376675" y="222.028501" style="fill: #f1c40f; fill-opacity: 0.8; stroke: #f1c40f; stroke-opacity: 0.8; stroke-linejoin: miter"/>
     <use xlink:href="#m34a0043ed1" x="387.957725" y="273.749519" style="fill: #f1c40f; fill-opacity: 0.8; stroke: #f1c40f; stroke-opacity: 0.8; stroke-linejoin: miter"/>
     <use xlink:href="#m34a0043ed1" x="407.700875" y="320.720084" style="fill: #f1c40f; fill-opacity: 0.8; stroke: #f1c40f; stroke-opacity: 0.8; stroke-linejoin: miter"/>
     <use xlink:href="#m34a0043ed1" x="440.606125" y="344.21617" style="fill: #f1c40f; fill-opacity: 0.8; stroke: #f1c40f; stroke-opacity: 0.8; stroke-linejoin: miter"/>
     <use xlink:href="#m34a0043ed1" x="473.511375" y="354.042807" style="fill: #f1c40f; fill-opacity: 0.8; stroke: #f1c40f; stroke-opacity: 0.8; stroke-linejoin: miter"/>
     <use xlink:href="#m34a0043ed1" x="539.321875" y="362.047846" style="fill: #f1c40f; fill-opacity: 0.8; stroke: #f1c40f; stroke-opacity: 0.8; stroke-linejoin: miter"/>
    </g>
   </g>
   <g id="line2d_26">
    <path d="M 355.052475 132.31352 
L 357.02679 123.68607 
L 359.001105 117.857959 
L 360.97542 109.321065 
L 362.949735 98.562581 
L 364.92405 89.756861 
L 366.898365 79.566517 
" clip-path="url(#p929a76f11a)" style="fill: none; stroke: #2ecc71; stroke-opacity: 0.8; stroke-width: 2; stroke-linecap: square"/>
    <defs>
     <path id="md5480a5379" d="M -0 4.242641 
L 4.242641 0 
L 0 -4.242641 
L -4.242641 -0 
z
" style="stroke: #2ecc71; stroke-opacity: 0.8; stroke-linejoin: miter"/>
    </defs>
    <g clip-path="url(#p929a76f11a)">
     <use xlink:href="#md5480a5379" x="355.052475" y="132.31352" style="fill: #2ecc71; fill-opacity: 0.8; stroke: #2ecc71; stroke-opacity: 0.8; stroke-linejoin: miter"/>
     <use xlink:href="#md5480a5379" x="357.02679" y="123.68607" style="fill: #2ecc71; fill-opacity: 0.8; stroke: #2ecc71; stroke-opacity: 0.8; stroke-linejoin: miter"/>
     <use xlink:href="#md5480a5379" x="359.001105" y="117.857959" style="fill: #2ecc71; fill-opacity: 0.8; stroke: #2ecc71; stroke-opacity: 0.8; stroke-linejoin: miter"/>
     <use xlink:href="#md5480a5379" x="360.97542" y="109.321065" style="fill: #2ecc71; fill-opacity: 0.8; stroke: #2ecc71; stroke-opacity: 0.8; stroke-linejoin: miter"/>
     <use xlink:href="#md5480a5379" x="362.949735" y="98.562581" style="fill: #2ecc71; fill-opacity: 0.8; stroke: #2ecc71; stroke-opacity: 0.8; stroke-linejoin: miter"/>
     <use xlink:href="#md5480a5379" x="364.92405" y="89.756861" style="fill: #2ecc71; fill-opacity: 0.8; stroke: #2ecc71; stroke-opacity: 0.8; stroke-linejoin: miter"/>
     <use xlink:href="#md5480a5379" x="366.898365" y="79.566517" style="fill: #2ecc71; fill-opacity: 0.8; stroke: #2ecc71; stroke-opacity: 0.8; stroke-linejoin: miter"/>
    </g>
   </g>
   <g id="line2d_27">
    <path d="M 78.648375 350.332762 
L 144.458875 334.315814 
L 210.269375 308.411577 
L 243.174625 289.888793 
L 276.079875 263.484794 
L 308.985125 226.942477 
L 328.728275 197.475583 
L 341.890375 164.123621 
L 355.052475 137.045784 
L 368.214575 70.470638 
L 381.376675 126.820771 
L 394.538775 299.239008 
L 407.700875 322.717446 
L 420.862975 334.68333 
L 434.025075 341.670533 
L 447.187175 346.934987 
L 473.511375 353.869348 
L 506.416625 358.798696 
L 539.321875 361.951566 
L 605.132375 365.377039 
L 670.942875 366.981605 
" clip-path="url(#p929a76f11a)" style="fill: none; stroke: #3498db; stroke-opacity: 0.8; stroke-width: 2; stroke-linecap: square"/>
    <defs>
     <path id="md7fd9fcea7" d="M -0 3 
L 3 -3 
L -3 -3 
z
" style="stroke: #3498db; stroke-opacity: 0.8; stroke-linejoin: miter"/>
    </defs>
    <g clip-path="url(#p929a76f11a)">
     <use xlink:href="#md7fd9fcea7" x="78.648375" y="350.332762" style="fill: #3498db; fill-opacity: 0.8; stroke: #3498db; stroke-opacity: 0.8; stroke-linejoin: miter"/>
     <use xlink:href="#md7fd9fcea7" x="144.458875" y="334.315814" style="fill: #3498db; fill-opacity: 0.8; stroke: #3498db; stroke-opacity: 0.8; stroke-linejoin: miter"/>
     <use xlink:href="#md7fd9fcea7" x="210.269375" y="308.411577" style="fill: #3498db; fill-opacity: 0.8; stroke: #3498db; stroke-opacity: 0.8; stroke-linejoin: miter"/>
     <use xlink:href="#md7fd9fcea7" x="243.174625" y="289.888793" style="fill: #3498db; fill-opacity: 0.8; stroke: #3498db; stroke-opacity: 0.8; stroke-linejoin: miter"/>
     <use xlink:href="#md7fd9fcea7" x="276.079875" y="263.484794" style="fill: #3498db; fill-opacity: 0.8; stroke: #3498db; stroke-opacity: 0.8; stroke-linejoin: miter"/>
     <use xlink:href="#md7fd9fcea7" x="308.985125" y="226.942477" style="fill: #3498db; fill-opacity: 0.8; stroke: #3498db; stroke-opacity: 0.8; stroke-linejoin: miter"/>
     <use xlink:href="#md7fd9fcea7" x="328.728275" y="197.475583" style="fill: #3498db; fill-opacity: 0.8; stroke: #3498db; stroke-opacity: 0.8; stroke-linejoin: miter"/>
     <use xlink:href="#md7fd9fcea7" x="341.890375" y="164.123621" style="fill: #3498db; fill-opacity: 0.8; stroke: #3498db; stroke-opacity: 0.8; stroke-linejoin: miter"/>
     <use xlink:href="#md7fd9fcea7" x="355.052475" y="137.045784" style="fill: #3498db; fill-opacity: 0.8; stroke: #3498db; stroke-opacity: 0.8; stroke-linejoin: miter"/>
     <use xlink:href="#md7fd9fcea7" x="368.214575" y="70.470638" style="fill: #3498db; fill-opacity: 0.8; stroke: #3498db; stroke-opacity: 0.8; stroke-linejoin: miter"/>
     <use xlink:href="#md7fd9fcea7" x="381.376675" y="126.820771" style="fill: #3498db; fill-opacity: 0.8; stroke: #3498db; stroke-opacity: 0.8; stroke-linejoin: miter"/>
     <use xlink:href="#md7fd9fcea7" x="394.538775" y="299.239008" style="fill: #3498db; fill-opacity: 0.8; stroke: #3498db; stroke-opacity: 0.8; stroke-linejoin: miter"/>
     <use xlink:href="#md7fd9fcea7" x="407.700875" y="322.717446" style="fill: #3498db; fill-opacity: 0.8; stroke: #3498db; stroke-opacity: 0.8; stroke-linejoin: miter"/>
     <use xlink:href="#md7fd9fcea7" x="420.862975" y="334.68333" style="fill: #3498db; fill-opacity: 0.8; stroke: #3498db; stroke-opacity: 0.8; stroke-linejoin: miter"/>
     <use xlink:href="#md7fd9fcea7" x="434.025075" y="341.670533" style="fill: #3498db; fill-opacity: 0.8; stroke: #3498db; stroke-opacity: 0.8; stroke-linejoin: miter"/>
     <use xlink:href="#md7fd9fcea7" x="447.187175" y="346.934987" style="fill: #3498db; fill-opacity: 0.8; stroke: #3498db; stroke-opacity: 0.8; stroke-linejoin: miter"/>
     <use xlink:href="#md7fd9fcea7" x="473.511375" y="353.869348" style="fill: #3498db; fill-opacity: 0.8; stroke: #3498db; stroke-opacity: 0.8; stroke-linejoin: miter"/>
     <use xlink:href="#md7fd9fcea7" x="506.416625" y="358.798696" style="fill: #3498db; fill-opacity: 0.8; stroke: #3498db; stroke-opacity: 0.8; stroke-linejoin: miter"/>
     <use xlink:href="#md7fd9fcea7" x="539.321875" y="361.951566" style="fill: #3498db; fill-opacity: 0.8; stroke: #3498db; stroke-opacity: 0.8; stroke-linejoin: miter"/>
     <use xlink:href="#md7fd9fcea7" x="605.132375" y="365.377039" style="fill: #3498db; fill-opacity: 0.8; stroke: #3498db; stroke-opacity: 0.8; stroke-linejoin: miter"/>
     <use xlink:href="#md7fd9fcea7" x="670.942875" y="366.981605" style="fill: #3498db; fill-opacity: 0.8; stroke: #3498db; stroke-opacity: 0.8; stroke-linejoin: miter"/>
    </g>
   </g>
   <g id="line2d_28">
    <path d="M 78.648375 350.049422 
L 144.458875 334.010939 
L 210.269375 307.830257 
L 243.174625 290.694527 
L 276.079875 264.558216 
L 308.985125 227.724876 
L 328.728275 194.898116 
L 341.890375 169.050631 
L 355.052475 130.251806 
L 368.214575 63.26192 
L 381.376675 39.454332 
L 394.538775 298.27607 
L 407.700875 322.298632 
L 420.862975 333.862454 
L 434.025075 341.992522 
L 447.187175 346.838835 
L 473.511375 353.898299 
L 506.416625 359.188552 
L 539.321875 361.935293 
L 605.132375 365.479193 
L 670.942875 366.968827 
" clip-path="url(#p929a76f11a)" style="fill: none; stroke: #9b59b6; stroke-opacity: 0.8; stroke-width: 2; stroke-linecap: square"/>
    <defs>
     <path id="m864bd28a9c" d="M 0 -3 
L -2.85317 -0.927051 
L -1.763356 2.427051 
L 1.763356 2.427051 
L 2.85317 -0.927051 
z
" style="stroke: #9b59b6; stroke-opacity: 0.8; stroke-linejoin: miter"/>
    </defs>
    <g clip-path="url(#p929a76f11a)">
     <use xlink:href="#m864bd28a9c" x="78.648375" y="350.049422" style="fill: #9b59b6; fill-opacity: 0.8; stroke: #9b59b6; stroke-opacity: 0.8; stroke-linejoin: miter"/>
     <use xlink:href="#m864bd28a9c" x="144.458875" y="334.010939" style="fill: #9b59b6; fill-opacity: 0.8; stroke: #9b59b6; stroke-opacity: 0.8; stroke-linejoin: miter"/>
     <use xlink:href="#m864bd28a9c" x="210.269375" y="307.830257" style="fill: #9b59b6; fill-opacity: 0.8; stroke: #9b59b6; stroke-opacity: 0.8; stroke-linejoin: miter"/>
     <use xlink:href="#m864bd28a9c" x="243.174625" y="290.694527" style="fill: #9b59b6; fill-opacity: 0.8; stroke: #9b59b6; stroke-opacity: 0.8; stroke-linejoin: miter"/>
     <use xlink:href="#m864bd28a9c" x="276.079875" y="264.558216" style="fill: #9b59b6; fill-opacity: 0.8; stroke: #9b59b6; stroke-opacity: 0.8; stroke-linejoin: miter"/>
     <use xlink:href="#m864bd28a9c" x="308.985125" y="227.724876" style="fill: #9b59b6; fill-opacity: 0.8; stroke: #9b59b6; stroke-opacity: 0.8; stroke-linejoin: miter"/>
     <use xlink:href="#m864bd28a9c" x="328.728275" y="194.898116" style="fill: #9b59b6; fill-opacity: 0.8; stroke: #9b59b6; stroke-opacity: 0.8; stroke-linejoin: miter"/>
     <use xlink:href="#m864bd28a9c" x="341.890375" y="169.050631" style="fill: #9b59b6; fill-opacity: 0.8; stroke: #9b59b6; stroke-opacity: 0.8; stroke-linejoin: miter"/>
     <use xlink:href="#m864bd28a9c" x="355.052475" y="130.251806" style="fill: #9b59b6; fill-opacity: 0.8; stroke: #9b59b6; stroke-opacity: 0.8; stroke-linejoin: miter"/>
     <use xlink:href="#m864bd28a9c" x="368.214575" y="63.26192" style="fill: #9b59b6; fill-opacity: 0.8; stroke: #9b59b6; stroke-opacity: 0.8; stroke-linejoin: miter"/>
     <use xlink:href="#m864bd28a9c" x="381.376675" y="39.454332" style="fill: #9b59b6; fill-opacity: 0.8; stroke: #9b59b6; stroke-opacity: 0.8; stroke-linejoin: miter"/>
     <use xlink:href="#m864bd28a9c" x="394.538775" y="298.27607" style="fill: #9b59b6; fill-opacity: 0.8; stroke: #9b59b6; stroke-opacity: 0.8; stroke-linejoin: miter"/>
     <use xlink:href="#m864bd28a9c" x="407.700875" y="322.298632" style="fill: #9b59b6; fill-opacity: 0.8; stroke: #9b59b6; stroke-opacity: 0.8; stroke-linejoin: miter"/>
     <use xlink:href="#m864bd28a9c" x="420.862975" y="333.862454" style="fill: #9b59b6; fill-opacity: 0.8; stroke: #9b59b6; stroke-opacity: 0.8; stroke-linejoin: miter"/>
     <use xlink:href="#m864bd28a9c" x="434.025075" y="341.992522" style="fill: #9b59b6; fill-opacity: 0.8; stroke: #9b59b6; stroke-opacity: 0.8; stroke-linejoin: miter"/>
     <use xlink:href="#m864bd28a9c" x="447.187175" y="346.838835" style="fill: #9b59b6; fill-opacity: 0.8; stroke: #9b59b6; stroke-opacity: 0.8; stroke-linejoin: miter"/>
     <use xlink:href="#m864bd28a9c" x="473.511375" y="353.898299" style="fill: #9b59b6; fill-opacity: 0.8; stroke: #9b59b6; stroke-opacity: 0.8; stroke-linejoin: miter"/>
     <use xlink:href="#m864bd28a9c" x="506.416625" y="359.188552" style="fill: #9b59b6; fill-opacity: 0.8; stroke: #9b59b6; stroke-opacity: 0.8; stroke-linejoin: miter"/>
     <use xlink:href="#m864bd28a9c" x="539.321875" y="361.935293" style="fill: #9b59b6; fill-opacity: 0.8; stroke: #9b59b6; stroke-opacity: 0.8; stroke-linejoin: miter"/>
     <use xlink:href="#m864bd28a9c" x="605.132375" y="365.479193" style="fill: #9b59b6; fill-opacity: 0.8; stroke: #9b59b6; stroke-opacity: 0.8; stroke-linejoin: miter"/>
     <use xlink:href="#m864bd28a9c" x="670.942875" y="366.968827" style="fill: #9b59b6; fill-opacity: 0.8; stroke: #9b59b6; stroke-opacity: 0.8; stroke-linejoin: miter"/>
    </g>
   </g>
   <g id="line2d_29">
    <path d="M 381.376675 383.357969 
L 381.376675 23.077969 
" clip-path="url(#p929a76f11a)" style="fill: none; stroke-dasharray: 5.55,2.4; stroke-dashoffset: 0; stroke: #808080; stroke-opacity: 0.5; stroke-width: 1.5"/>
   </g>
   <g id="patch_3">
    <path d="M 45.743125 383.357969 
L 45.743125 23.077969 
" style="fill: none; stroke: #000000; stroke-width: 0.8; stroke-linejoin: miter; stroke-linecap: square"/>
   </g>
   <g id="patch_4">
    <path d="M 703.848125 383.357969 
L 703.848125 23.077969 
" style="fill: none; stroke: #000000; stroke-width: 0.8; stroke-linejoin: miter; stroke-linecap: square"/>
   </g>
   <g id="patch_5">
    <path d="M 45.743125 383.357969 
L 703.848125 383.357969 
" style="fill: none; stroke: #000000; stroke-width: 0.8; stroke-linejoin: miter; stroke-linecap: square"/>
   </g>
   <g id="patch_6">
    <path d="M 45.743125 23.077969 
L 703.848125 23.077969 
" style="fill: none; stroke: #000000; stroke-width: 0.8; stroke-linejoin: miter; stroke-linecap: square"/>
   </g>
   <g id="text_14">
    <!-- 3D Z₂ LGT: Finite-Size Scaling — Specific Heat -->
    <g transform="translate(207.367813 17.077969) scale(0.13 -0.13)">
     <defs>
      <path id="DejaVuSans-Bold-33" d="M 2981 2516 
Q 3453 2394 3698 2092 
Q 3944 1791 3944 1325 
Q 3944 631 3412 270 
Q 2881 -91 1863 -91 
Q 1503 -91 1142 -33 
Q 781 25 428 141 
L 428 1069 
Q 766 900 1098 814 
Q 1431 728 1753 728 
Q 2231 728 2486 893 
Q 2741 1059 2741 1369 
Q 2741 1688 2480 1852 
Q 2219 2016 1709 2016 
L 1228 2016 
L 1228 2791 
L 1734 2791 
Q 2188 2791 2409 2933 
Q 2631 3075 2631 3366 
Q 2631 3634 2415 3781 
Q 2200 3928 1806 3928 
Q 1516 3928 1219 3862 
Q 922 3797 628 3669 
L 628 4550 
Q 984 4650 1334 4700 
Q 1684 4750 2022 4750 
Q 2931 4750 3382 4451 
Q 3834 4153 3834 3553 
Q 3834 3144 3618 2883 
Q 3403 2622 2981 2516 
z
" transform="scale(0.015625)"/>
      <path id="DejaVuSans-Bold-44" d="M 1791 3756 
L 1791 909 
L 2222 909 
Q 2959 909 3348 1275 
Q 3738 1641 3738 2338 
Q 3738 3031 3350 3393 
Q 2963 3756 2222 3756 
L 1791 3756 
z
M 588 4666 
L 1856 4666 
Q 2919 4666 3439 4514 
Q 3959 4363 4331 4000 
Q 4659 3684 4818 3271 
Q 4978 2859 4978 2338 
Q 4978 1809 4818 1395 
Q 4659 981 4331 666 
Q 3956 303 3431 151 
Q 2906 0 1856 0 
L 588 0 
L 588 4666 
z
" transform="scale(0.015625)"/>
      <path id="DejaVuSans-Bold-20" transform="scale(0.015625)"/>
      <path id="DejaVuSans-Bold-5a" d="M 359 4666 
L 4281 4666 
L 4281 3938 
L 1778 909 
L 4353 909 
L 4353 0 
L 288 0 
L 288 728 
L 2791 3756 
L 359 3756 
L 359 4666 
z
" transform="scale(0.015625)"/>
      <path id="DejaVuSans-Bold-2082" d="M 1288 501 
L 2444 501 
L 2444 -24 
L 341 -24 
L 341 454 
L 1319 1285 
Q 1509 1451 1590 1576 
Q 1672 1701 1672 1826 
Q 1672 1982 1558 2079 
Q 1444 2176 1259 2176 
Q 1066 2176 844 2105 
Q 622 2035 359 1888 
L 359 2469 
Q 631 2554 886 2596 
Q 1141 2638 1375 2638 
Q 1869 2638 2150 2436 
Q 2431 2235 2431 1888 
Q 2431 1663 2320 1474 
Q 2209 1285 1894 1016 
L 1288 501 
z
" transform="scale(0.015625)"/>
      <path id="DejaVuSans-Bold-4c" d="M 588 4666 
L 1791 4666 
L 1791 909 
L 3903 909 
L 3903 0 
L 588 0 
L 588 4666 
z
" transform="scale(0.015625)"/>
      <path id="DejaVuSans-Bold-47" d="M 4781 347 
Q 4331 128 3847 18 
Q 3363 -91 2847 -91 
Q 1681 -91 1000 561 
Q 319 1213 319 2328 
Q 319 3456 1012 4103 
Q 1706 4750 2913 4750 
Q 3378 4750 3804 4662 
Q 4231 4575 4609 4403 
L 4609 3438 
Q 4219 3659 3833 3768 
Q 3447 3878 3059 3878 
Q 2341 3878 1952 3476 
Q 1563 3075 1563 2328 
Q 1563 1588 1938 1184 
Q 2313 781 3003 781 
Q 3191 781 3352 804 
Q 3513 828 3641 878 
L 3641 1784 
L 2906 1784 
L 2906 2591 
L 4781 2591 
L 4781 347 
z
" transform="scale(0.015625)"/>
      <path id="DejaVuSans-Bold-54" d="M 31 4666 
L 4331 4666 
L 4331 3756 
L 2784 3756 
L 2784 0 
L 1581 0 
L 1581 3756 
L 31 3756 
L 31 4666 
z
" transform="scale(0.015625)"/>
      <path id="DejaVuSans-Bold-3a" d="M 716 3500 
L 1844 3500 
L 1844 2291 
L 716 2291 
L 716 3500 
z
M 716 1209 
L 1844 1209 
L 1844 0 
L 716 0 
L 716 1209 
z
" transform="scale(0.015625)"/>
      <path id="DejaVuSans-Bold-46" d="M 588 4666 
L 3834 4666 
L 3834 3756 
L 1791 3756 
L 1791 2888 
L 3713 2888 
L 3713 1978 
L 1791 1978 
L 1791 0 
L 588 0 
L 588 4666 
z
" transform="scale(0.015625)"/>
      <path id="DejaVuSans-Bold-69" d="M 538 3500 
L 1656 3500 
L 1656 0 
L 538 0 
L 538 3500 
z
M 538 4863 
L 1656 4863 
L 1656 3950 
L 538 3950 
L 538 4863 
z
" transform="scale(0.015625)"/>
      <path id="DejaVuSans-Bold-6e" d="M 4056 2131 
L 4056 0 
L 2931 0 
L 2931 347 
L 2931 1631 
Q 2931 2084 2911 2256 
Q 2891 2428 2841 2509 
Q 2775 2619 2662 2680 
Q 2550 2741 2406 2741 
Q 2056 2741 1856 2470 
Q 1656 2200 1656 1722 
L 1656 0 
L 538 0 
L 538 3500 
L 1656 3500 
L 1656 2988 
Q 1909 3294 2193 3439 
Q 2478 3584 2822 3584 
Q 3428 3584 3742 3212 
Q 4056 2841 4056 2131 
z
" transform="scale(0.015625)"/>
      <path id="DejaVuSans-Bold-74" d="M 1759 4494 
L 1759 3500 
L 2913 3500 
L 2913 2700 
L 1759 2700 
L 1759 1216 
Q 1759 972 1856 886 
Q 1953 800 2241 800 
L 2816 800 
L 2816 0 
L 1856 0 
Q 1194 0 917 276 
Q 641 553 641 1216 
L 641 2700 
L 84 2700 
L 84 3500 
L 641 3500 
L 641 4494 
L 1759 4494 
z
" transform="scale(0.015625)"/>
      <path id="DejaVuSans-Bold-65" d="M 4031 1759 
L 4031 1441 
L 1416 1441 
Q 1456 1047 1700 850 
Q 1944 653 2381 653 
Q 2734 653 3104 758 
Q 3475 863 3866 1075 
L 3866 213 
Q 3469 63 3072 -14 
Q 2675 -91 2278 -91 
Q 1328 -91 801 392 
Q 275 875 275 1747 
Q 275 2603 792 3093 
Q 1309 3584 2216 3584 
Q 3041 3584 3536 3087 
Q 4031 2591 4031 1759 
z
M 2881 2131 
Q 2881 2450 2695 2645 
Q 2509 2841 2209 2841 
Q 1884 2841 1681 2658 
Q 1478 2475 1428 2131 
L 2881 2131 
z
" transform="scale(0.015625)"/>
      <path id="DejaVuSans-Bold-2d" d="M 347 2297 
L 2309 2297 
L 2309 1388 
L 347 1388 
L 347 2297 
z
" transform="scale(0.015625)"/>
      <path id="DejaVuSans-Bold-53" d="M 3834 4519 
L 3834 3531 
Q 3450 3703 3084 3790 
Q 2719 3878 2394 3878 
Q 1963 3878 1756 3759 
Q 1550 3641 1550 3391 
Q 1550 3203 1689 3098 
Q 1828 2994 2194 2919 
L 2706 2816 
Q 3484 2659 3812 2340 
Q 4141 2022 4141 1434 
Q 4141 663 3683 286 
Q 3225 -91 2284 -91 
Q 1841 -91 1394 -6 
Q 947 78 500 244 
L 500 1259 
Q 947 1022 1364 901 
Q 1781 781 2169 781 
Q 2563 781 2772 912 
Q 2981 1044 2981 1288 
Q 2981 1506 2839 1625 
Q 2697 1744 2272 1838 
L 1806 1941 
Q 1106 2091 782 2419 
Q 459 2747 459 3303 
Q 459 4000 909 4375 
Q 1359 4750 2203 4750 
Q 2588 4750 2994 4692 
Q 3400 4634 3834 4519 
z
" transform="scale(0.015625)"/>
      <path id="DejaVuSans-Bold-7a" d="M 366 3500 
L 3419 3500 
L 3419 2719 
L 1575 800 
L 3419 800 
L 3419 0 
L 288 0 
L 288 781 
L 2131 2700 
L 366 2700 
L 366 3500 
z
" transform="scale(0.015625)"/>
      <path id="DejaVuSans-Bold-63" d="M 3366 3391 
L 3366 2478 
Q 3138 2634 2908 2709 
Q 2678 2784 2431 2784 
Q 1963 2784 1702 2511 
Q 1441 2238 1441 1747 
Q 1441 1256 1702 982 
Q 1963 709 2431 709 
Q 2694 709 2930 787 
Q 3166 866 3366 1019 
L 3366 103 
Q 3103 6 2833 -42 
Q 2563 -91 2291 -91 
Q 1344 -91 809 395 
Q 275 881 275 1747 
Q 275 2613 809 3098 
Q 1344 3584 2291 3584 
Q 2566 3584 2833 3536 
Q 3100 3488 3366 3391 
z
" transform="scale(0.015625)"/>
      <path id="DejaVuSans-Bold-61" d="M 2106 1575 
Q 1756 1575 1579 1456 
Q 1403 1338 1403 1106 
Q 1403 894 1545 773 
Q 1688 653 1941 653 
Q 2256 653 2472 879 
Q 2688 1106 2688 1447 
L 2688 1575 
L 2106 1575 
z
M 3816 1997 
L 3816 0 
L 2688 0 
L 2688 519 
Q 2463 200 2181 54 
Q 1900 -91 1497 -91 
Q 953 -91 614 226 
Q 275 544 275 1050 
Q 275 1666 698 1953 
Q 1122 2241 2028 2241 
L 2688 2241 
L 2688 2328 
Q 2688 2594 2478 2717 
Q 2269 2841 1825 2841 
Q 1466 2841 1156 2769 
Q 847 2697 581 2553 
L 581 3406 
Q 941 3494 1303 3539 
Q 1666 3584 2028 3584 
Q 2975 3584 3395 3211 
Q 3816 2838 3816 1997 
z
" transform="scale(0.015625)"/>
      <path id="DejaVuSans-Bold-6c" d="M 538 4863 
L 1656 4863 
L 1656 0 
L 538 0 
L 538 4863 
z
" transform="scale(0.015625)"/>
      <path id="DejaVuSans-Bold-67" d="M 2919 594 
Q 2688 288 2409 144 
Q 2131 0 1766 0 
Q 1125 0 706 504 
Q 288 1009 288 1791 
Q 288 2575 706 3076 
Q 1125 3578 1766 3578 
Q 2131 3578 2409 3434 
Q 2688 3291 2919 2981 
L 2919 3500 
L 4044 3500 
L 4044 353 
Q 4044 -491 3511 -936 
Q 2978 -1381 1966 -1381 
Q 1638 -1381 1331 -1331 
Q 1025 -1281 716 -1178 
L 716 -306 
Q 1009 -475 1290 -558 
Q 1572 -641 1856 -641 
Q 2406 -641 2662 -400 
Q 2919 -159 2919 353 
L 2919 594 
z
M 2181 2772 
Q 1834 2772 1640 2515 
Q 1447 2259 1447 1791 
Q 1447 1309 1634 1061 
Q 1822 813 2181 813 
Q 2531 813 2725 1069 
Q 2919 1325 2919 1791 
Q 2919 2259 2725 2515 
Q 2531 2772 2181 2772 
z
" transform="scale(0.015625)"/>
      <path id="DejaVuSans-Bold-2014" d="M 344 2156 
L 6056 2156 
L 6056 1350 
L 344 1350 
L 344 2156 
z
" transform="scale(0.015625)"/>
      <path id="DejaVuSans-Bold-70" d="M 1656 506 
L 1656 -1331 
L 538 -1331 
L 538 3500 
L 1656 3500 
L 1656 2988 
Q 1888 3294 2169 3439 
Q 2450 3584 2816 3584 
Q 3463 3584 3878 3070 
Q 4294 2556 4294 1747 
Q 4294 938 3878 423 
Q 3463 -91 2816 -91 
Q 2450 -91 2169 54 
Q 1888 200 1656 506 
z
M 2400 2772 
Q 2041 2772 1848 2508 
Q 1656 2244 1656 1747 
Q 1656 1250 1848 986 
Q 2041 722 2400 722 
Q 2759 722 2948 984 
Q 3138 1247 3138 1747 
Q 3138 2247 2948 2509 
Q 2759 2772 2400 2772 
z
" transform="scale(0.015625)"/>
      <path id="DejaVuSans-Bold-66" d="M 2841 4863 
L 2841 4128 
L 2222 4128 
Q 1984 4128 1890 4042 
Q 1797 3956 1797 3744 
L 1797 3500 
L 2753 3500 
L 2753 2700 
L 1797 2700 
L 1797 0 
L 678 0 
L 678 2700 
L 122 2700 
L 122 3500 
L 678 3500 
L 678 3744 
Q 678 4316 997 4589 
Q 1316 4863 1984 4863 
L 2841 4863 
z
" transform="scale(0.015625)"/>
      <path id="DejaVuSans-Bold-48" d="M 588 4666 
L 1791 4666 
L 1791 2888 
L 3566 2888 
L 3566 4666 
L 4769 4666 
L 4769 0 
L 3566 0 
L 3566 1978 
L 1791 1978 
L 1791 0 
L 588 0 
L 588 4666 
z
" transform="scale(0.015625)"/>
     </defs>
     <use xlink:href="#DejaVuSans-Bold-33"/>
     <use xlink:href="#DejaVuSans-Bold-44" x="69.580078"/>
     <use xlink:href="#DejaVuSans-Bold-20" x="152.587891"/>
     <use xlink:href="#DejaVuSans-Bold-5a" x="187.402344"/>
     <use xlink:href="#DejaVuSans-Bold-2082" x="259.912109"/>
     <use xlink:href="#DejaVuSans-Bold-20" x="303.710938"/>
     <use xlink:href="#DejaVuSans-Bold-4c" x="338.525391"/>
     <use xlink:href="#DejaVuSans-Bold-47" x="402.246094"/>
     <use xlink:href="#DejaVuSans-Bold-54" x="482.576172"/>
     <use xlink:href="#DejaVuSans-Bold-3a" x="545.289062"/>
     <use xlink:href="#DejaVuSans-Bold-20" x="585.279297"/>
     <use xlink:href="#DejaVuSans-Bold-46" x="620.09375"/>
     <use xlink:href="#DejaVuSans-Bold-69" x="688.404297"/>
     <use xlink:href="#DejaVuSans-Bold-6e" x="722.681641"/>
     <use xlink:href="#DejaVuSans-Bold-69" x="793.873047"/>
     <use xlink:href="#DejaVuSans-Bold-74" x="828.150391"/>
     <use xlink:href="#DejaVuSans-Bold-65" x="875.953125"/>
     <use xlink:href="#DejaVuSans-Bold-2d" x="943.775391"/>
     <use xlink:href="#DejaVuSans-Bold-53" x="985.279297"/>
     <use xlink:href="#DejaVuSans-Bold-69" x="1057.300781"/>
     <use xlink:href="#DejaVuSans-Bold-7a" x="1091.578125"/>
     <use xlink:href="#DejaVuSans-Bold-65" x="1149.78125"/>
     <use xlink:href="#DejaVuSans-Bold-20" x="1217.603516"/>
     <use xlink:href="#DejaVuSans-Bold-53" x="1252.417969"/>
     <use xlink:href="#DejaVuSans-Bold-63" x="1324.439453"/>
     <use xlink:href="#DejaVuSans-Bold-61" x="1383.716797"/>
     <use xlink:href="#DejaVuSans-Bold-6c" x="1451.197266"/>
     <use xlink:href="#DejaVuSans-Bold-69" x="1485.474609"/>
     <use xlink:href="#DejaVuSans-Bold-6e" x="1519.751953"/>
     <use xlink:href="#DejaVuSans-Bold-67" x="1590.943359"/>
     <use xlink:href="#DejaVuSans-Bold-20" x="1662.525391"/>
     <use xlink:href="#DejaVuSans-Bold-2014" x="1697.339844"/>
     <use xlink:href="#DejaVuSans-Bold-20" x="1797.339844"/>
     <use xlink:href="#DejaVuSans-Bold-53" x="1832.154297"/>
     <use xlink:href="#DejaVuSans-Bold-70" x="1904.175781"/>
     <use xlink:href="#DejaVuSans-Bold-65" x="1975.757812"/>
     <use xlink:href="#DejaVuSans-Bold-63" x="2043.580078"/>
     <use xlink:href="#DejaVuSans-Bold-69" x="2102.857422"/>
     <use xlink:href="#DejaVuSans-Bold-66" x="2137.134766"/>
     <use xlink:href="#DejaVuSans-Bold-69" x="2180.640625"/>
     <use xlink:href="#DejaVuSans-Bold-63" x="2214.917969"/>
     <use xlink:href="#DejaVuSans-Bold-20" x="2274.195312"/>
     <use xlink:href="#DejaVuSans-Bold-48" x="2309.009766"/>
     <use xlink:href="#DejaVuSans-Bold-65" x="2392.701172"/>
     <use xlink:href="#DejaVuSans-Bold-61" x="2460.523438"/>
     <use xlink:href="#DejaVuSans-Bold-74" x="2528.003906"/>
    </g>
   </g>
   <g id="legend_1">
    <g id="patch_7">
     <path d="M 539.515313 89.790469 
L 696.848125 89.790469 
Q 698.848125 89.790469 698.848125 87.790469 
L 698.848125 30.077969 
Q 698.848125 28.077969 696.848125 28.077969 
L 539.515313 28.077969 
Q 537.515313 28.077969 537.515313 30.077969 
L 537.515313 87.790469 
Q 537.515313 89.790469 539.515313 89.790469 
z
" style="fill: #ffffff; opacity: 0.8; stroke: #cccccc; stroke-linejoin: miter"/>
    </g>
    <g id="line2d_30">
     <path d="M 541.515313 36.176406 
L 551.515313 36.176406 
L 561.515313 36.176406 
" style="fill: none; stroke: #e74c3c; stroke-opacity: 0.8; stroke-width: 2; stroke-linecap: square"/>
     <g>
      <use xlink:href="#m7d18ca1b66" x="551.515313" y="36.176406" style="fill: #e74c3c; fill-opacity: 0.8; stroke: #e74c3c; stroke-opacity: 0.8"/>
     </g>
    </g>
    <g id="text_15">
     <!-- L = 4 -->
     <g transform="translate(569.515313 39.676406) scale(0.1 -0.1)">
      <defs>
       <path id="DejaVuSans-4c" d="M 628 4666 
L 1259 4666 
L 1259 531 
L 3531 531 
L 3531 0 
L 628 0 
L 628 4666 
z
" transform="scale(0.015625)"/>
       <path id="DejaVuSans-3d" d="M 678 2906 
L 4684 2906 
L 4684 2381 
L 678 2381 
L 678 2906 
z
M 678 1631 
L 4684 1631 
L 4684 1100 
L 678 1100 
L 678 1631 
z
" transform="scale(0.015625)"/>
      </defs>
      <use xlink:href="#DejaVuSans-4c"/>
      <use xlink:href="#DejaVuSans-20" x="55.712891"/>
      <use xlink:href="#DejaVuSans-3d" x="87.5"/>
      <use xlink:href="#DejaVuSans-20" x="171.289062"/>
      <use xlink:href="#DejaVuSans-34" x="203.076172"/>
     </g>
    </g>
    <g id="line2d_31">
     <path d="M 541.515313 50.854531 
L 551.515313 50.854531 
L 561.515313 50.854531 
" style="fill: none; stroke: #e67e22; stroke-opacity: 0.8; stroke-width: 2; stroke-linecap: square"/>
     <g>
      <use xlink:href="#m03aa025cd7" x="551.515313" y="50.854531" style="fill: #e67e22; fill-opacity: 0.8; stroke: #e67e22; stroke-opacity: 0.8; stroke-linejoin: miter"/>
     </g>
    </g>
    <g id="text_16">
     <!-- L = 6 -->
     <g transform="translate(569.515313 54.354531) scale(0.1 -0.1)">
      <use xlink:href="#DejaVuSans-4c"/>
      <use xlink:href="#DejaVuSans-20" x="55.712891"/>
      <use xlink:href="#DejaVuSans-3d" x="87.5"/>
      <use xlink:href="#DejaVuSans-20" x="171.289062"/>
      <use xlink:href="#DejaVuSans-36" x="203.076172"/>
     </g>
    </g>
    <g id="line2d_32">
     <path d="M 541.515313 65.532656 
L 551.515313 65.532656 
L 561.515313 65.532656 
" style="fill: none; stroke: #f1c40f; stroke-opacity: 0.8; stroke-width: 2; stroke-linecap: square"/>
     <g>
      <use xlink:href="#m34a0043ed1" x="551.515313" y="65.532656" style="fill: #f1c40f; fill-opacity: 0.8; stroke: #f1c40f; stroke-opacity: 0.8; stroke-linejoin: miter"/>
     </g>
    </g>
    <g id="text_17">
     <!-- L = 8 -->
     <g transform="translate(569.515313 69.032656) scale(0.1 -0.1)">
      <use xlink:href="#DejaVuSans-4c"/>
      <use xlink:href="#DejaVuSans-20" x="55.712891"/>
      <use xlink:href="#DejaVuSans-3d" x="87.5"/>
      <use xlink:href="#DejaVuSans-20" x="171.289062"/>
      <use xlink:href="#DejaVuSans-38" x="203.076172"/>
     </g>
    </g>
    <g id="line2d_33">
     <path d="M 541.515313 80.210781 
L 551.515313 80.210781 
L 561.515313 80.210781 
" style="fill: none; stroke: #2ecc71; stroke-opacity: 0.8; stroke-width: 2; stroke-linecap: square"/>
     <g>
      <use xlink:href="#md5480a5379" x="551.515313" y="80.210781" style="fill: #2ecc71; fill-opacity: 0.8; stroke: #2ecc71; stroke-opacity: 0.8; stroke-linejoin: miter"/>
     </g>
    </g>
    <g id="text_18">
     <!-- L = 16 -->
     <g transform="translate(569.515313 83.710781) scale(0.1 -0.1)">
      <use xlink:href="#DejaVuSans-4c"/>
      <use xlink:href="#DejaVuSans-20" x="55.712891"/>
      <use xlink:href="#DejaVuSans-3d" x="87.5"/>
      <use xlink:href="#DejaVuSans-20" x="171.289062"/>
      <use xlink:href="#DejaVuSans-31" x="203.076172"/>
      <use xlink:href="#DejaVuSans-36" x="266.699219"/>
     </g>
    </g>
    <g id="line2d_34">
     <path d="M 622.548125 36.176406 
L 632.548125 36.176406 
L 642.548125 36.176406 
" style="fill: none; stroke: #3498db; stroke-opacity: 0.8; stroke-width: 2; stroke-linecap: square"/>
     <g>
      <use xlink:href="#md7fd9fcea7" x="632.548125" y="36.176406" style="fill: #3498db; fill-opacity: 0.8; stroke: #3498db; stroke-opacity: 0.8; stroke-linejoin: miter"/>
     </g>
    </g>
    <g id="text_19">
     <!-- L = 24 -->
     <g transform="translate(650.548125 39.676406) scale(0.1 -0.1)">
      <use xlink:href="#DejaVuSans-4c"/>
      <use xlink:href="#DejaVuSans-20" x="55.712891"/>
      <use xlink:href="#DejaVuSans-3d" x="87.5"/>
      <use xlink:href="#DejaVuSans-20" x="171.289062"/>
      <use xlink:href="#DejaVuSans-32" x="203.076172"/>
      <use xlink:href="#DejaVuSans-34" x="266.699219"/>
     </g>
    </g>
    <g id="line2d_35">
     <path d="M 622.548125 50.854531 
L 632.548125 50.854531 
L 642.548125 50.854531 
" style="fill: none; stroke: #9b59b6; stroke-opacity: 0.8; stroke-width: 2; stroke-linecap: square"/>
     <g>
      <use xlink:href="#m864bd28a9c" x="632.548125" y="50.854531" style="fill: #9b59b6; fill-opacity: 0.8; stroke: #9b59b6; stroke-opacity: 0.8; stroke-linejoin: miter"/>
     </g>
    </g>
    <g id="text_20">
     <!-- L = 32 -->
     <g transform="translate(650.548125 54.354531) scale(0.1 -0.1)">
      <use xlink:href="#DejaVuSans-4c"/>
      <use xlink:href="#DejaVuSans-20" x="55.712891"/>
      <use xlink:href="#DejaVuSans-3d" x="87.5"/>
      <use xlink:href="#DejaVuSans-20" x="171.289062"/>
      <use xlink:href="#DejaVuSans-33" x="203.076172"/>
      <use xlink:href="#DejaVuSans-32" x="266.699219"/>
     </g>
    </g>
    <g id="line2d_36">
     <path d="M 622.548125 65.634219 
L 632.548125 65.634219 
L 642.548125 65.634219 
" style="fill: none; stroke-dasharray: 5.55,2.4; stroke-dashoffset: 0; stroke: #808080; stroke-opacity: 0.5; stroke-width: 1.5"/>
    </g>
    <g id="text_21">
     <!-- $\beta_c \approx 0.76$ -->
     <g transform="translate(650.548125 69.134219) scale(0.1 -0.1)">
      <defs>
       <path id="DejaVuSans-Oblique-63" d="M 3431 3366 
L 3316 2797 
Q 3109 2947 2876 3022 
Q 2644 3097 2394 3097 
Q 2119 3097 1870 3000 
Q 1622 2903 1453 2725 
Q 1184 2453 1037 2087 
Q 891 1722 891 1331 
Q 891 859 1127 628 
Q 1363 397 1844 397 
Q 2081 397 2348 469 
Q 2616 541 2906 684 
L 2797 116 
Q 2547 13 2283 -39 
Q 2019 -91 1741 -91 
Q 1044 -91 669 257 
Q 294 606 294 1253 
Q 294 1797 489 2255 
Q 684 2713 1069 3078 
Q 1331 3328 1684 3456 
Q 2038 3584 2456 3584 
Q 2700 3584 2940 3529 
Q 3181 3475 3431 3366 
z
" transform="scale(0.015625)"/>
       <path id="DejaVuSans-2248" d="M 4684 1947 
L 4684 1388 
Q 4356 1144 4076 1036 
Q 3797 928 3494 928 
Q 3150 928 2694 1113 
Q 2663 1125 2641 1134 
Q 2622 1141 2575 1159 
Q 2091 1350 1797 1350 
Q 1522 1350 1253 1231 
Q 984 1113 678 850 
L 678 1409 
Q 1006 1653 1286 1761 
Q 1566 1869 1869 1869 
Q 2213 1869 2672 1684 
Q 2706 1669 2722 1663 
Q 2741 1656 2788 1638 
Q 3272 1447 3566 1447 
Q 3834 1447 4098 1564 
Q 4363 1681 4684 1947 
z
M 4684 3163 
L 4684 2606 
Q 4356 2359 4076 2251 
Q 3797 2144 3494 2144 
Q 3150 2144 2694 2328 
Q 2663 2341 2641 2350 
Q 2622 2356 2575 2375 
Q 2091 2566 1797 2566 
Q 1522 2566 1253 2447 
Q 984 2328 678 2069 
L 678 2625 
Q 1006 2869 1286 2976 
Q 1566 3084 1869 3084 
Q 2213 3084 2672 2900 
Q 2703 2888 2719 2881 
Q 2741 2872 2788 2853 
Q 3272 2663 3566 2663 
Q 3834 2663 4098 2780 
Q 4363 2897 4684 3163 
z
" transform="scale(0.015625)"/>
       <path id="DejaVuSans-37" d="M 525 4666 
L 3525 4666 
L 3525 4397 
L 1831 0 
L 1172 0 
L 2766 4134 
L 525 4134 
L 525 4666 
z
" transform="scale(0.015625)"/>
      </defs>
      <use xlink:href="#DejaVuSans-Oblique-3b2" transform="translate(0 0.390625)"/>
      <use xlink:href="#DejaVuSans-Oblique-63" transform="translate(63.818359 -16.015625) scale(0.7)"/>
      <use xlink:href="#DejaVuSans-2248" transform="translate(124.521484 0.390625)"/>
      <use xlink:href="#DejaVuSans-30" transform="translate(227.792969 0.390625)"/>
      <use xlink:href="#DejaVuSans-2e" transform="translate(291.416016 0.390625)"/>
      <use xlink:href="#DejaVuSans-37" transform="translate(315.453125 0.390625)"/>
      <use xlink:href="#DejaVuSans-36" transform="translate(379.076172 0.390625)"/>
     </g>
    </g>
   </g>
  </g>
 </g>
 <defs>
  <clipPath id="p929a76f11a">
   <rect x="45.743125" y="23.077969" width="658.105" height="360.28"/>
  </clipPath>
 </defs>
</svg>
