<?xml version="1.0" encoding="utf-8" standalone="no"?>
<!DOCTYPE svg PUBLIC "-//W3C//DTD SVG 1.1//EN"
  "http://www.w3.org/Graphics/SVG/1.1/DTD/svg11.dtd">
<svg xmlns:xlink="http://www.w3.org/1999/xlink" width="609.003125pt" height="392.63625pt" viewBox="0 0 609.003125 392.63625" xmlns="http://www.w3.org/2000/svg" version="1.1">
 <metadata>
  <rdf:RDF xmlns:dc="http://purl.org/dc/elements/1.1/" xmlns:cc="http://creativecommons.org/ns#" xmlns:rdf="http://www.w3.org/1999/02/22-rdf-syntax-ns#">
   <cc:Work>
    <dc:type rdf:resource="http://purl.org/dc/dcmitype/StillImage"/>
    <dc:date>2026-06-27T21:25:24.332714</dc:date>
    <dc:format>image/svg+xml</dc:format>
    <dc:creator>
     <cc:Agent>
      <dc:title>Matplotlib v3.9.4, https://matplotlib.org/</dc:title>
     </cc:Agent>
    </dc:creator>
   </cc:Work>
  </rdf:RDF>
 </metadata>
 <defs>
  <style type="text/css">*{stroke-linejoin: round; stroke-linecap: butt}</style>
 </defs>
 <g id="figure_1">
  <g id="patch_1">
   <path d="M -0 392.63625 
L 609.003125 392.63625 
L 609.003125 0 
L -0 0 
z
" style="fill: #ffffff"/>
  </g>
  <g id="axes_1">
   <g id="patch_2">
    <path d="M 43.803125 354.958125 
L 601.803125 354.958125 
L 601.803125 22.318125 
L 43.803125 22.318125 
z
" style="fill: #ffffff"/>
   </g>
   <g id="matplotlib.axis_1">
    <g id="xtick_1">
     <g id="line2d_1">
      <path d="M 127.503125 354.958125 
L 127.503125 22.318125 
" clip-path="url(#p79d25636af)" style="fill: none; stroke: #b0b0b0; stroke-opacity: 0.3; stroke-width: 0.8; stroke-linecap: square"/>
     </g>
     <g id="line2d_2">
      <defs>
       <path id="m1937183f8e" d="M 0 0 
L 0 3.5 
" style="stroke: #000000; stroke-width: 0.8"/>
      </defs>
      <g>
       <use xlink:href="#m1937183f8e" x="127.503125" y="354.958125" style="stroke: #000000; stroke-width: 0.8"/>
      </g>
     </g>
     <g id="text_1">
      <!-- 0.4 -->
      <g transform="translate(119.551563 369.556563) scale(0.1 -0.1)">
       <defs>
        <path id="DejaVuSans-30" d="M 2034 4250 
Q 1547 4250 1301 3770 
Q 1056 3291 1056 2328 
Q 1056 1369 1301 889 
Q 1547 409 2034 409 
Q 2525 409 2770 889 
Q 3016 1369 3016 2328 
Q 3016 3291 2770 3770 
Q 2525 4250 2034 4250 
z
M 2034 4750 
Q 2819 4750 3233 4129 
Q 3647 3509 3647 2328 
Q 3647 1150 3233 529 
Q 2819 -91 2034 -91 
Q 1250 -91 836 529 
Q 422 1150 422 2328 
Q 422 3509 836 4129 
Q 1250 4750 2034 4750 
z
" transform="scale(0.015625)"/>
        <path id="DejaVuSans-2e" d="M 684 794 
L 1344 794 
L 1344 0 
L 684 0 
L 684 794 
z
" transform="scale(0.015625)"/>
        <path id="DejaVuSans-34" d="M 2419 4116 
L 825 1625 
L 2419 1625 
L 2419 4116 
z
M 2253 4666 
L 3047 4666 
L 3047 1625 
L 3713 1625 
L 3713 1100 
L 3047 1100 
L 3047 0 
L 2419 0 
L 2419 1100 
L 313 1100 
L 313 1709 
L 2253 4666 
z
" transform="scale(0.015625)"/>
       </defs>
       <use xlink:href="#DejaVuSans-30"/>
       <use xlink:href="#DejaVuSans-2e" x="63.623047"/>
       <use xlink:href="#DejaVuSans-34" x="95.410156"/>
      </g>
     </g>
    </g>
    <g id="xtick_2">
     <g id="line2d_3">
      <path d="M 239.103125 354.958125 
L 239.103125 22.318125 
" clip-path="url(#p79d25636af)" style="fill: none; stroke: #b0b0b0; stroke-opacity: 0.3; stroke-width: 0.8; stroke-linecap: square"/>
     </g>
     <g id="line2d_4">
      <g>
       <use xlink:href="#m1937183f8e" x="239.103125" y="354.958125" style="stroke: #000000; stroke-width: 0.8"/>
      </g>
     </g>
     <g id="text_2">
      <!-- 0.6 -->
      <g transform="translate(231.151563 369.556563) scale(0.1 -0.1)">
       <defs>
        <path id="DejaVuSans-36" d="M 2113 2584 
Q 1688 2584 1439 2293 
Q 1191 2003 1191 1497 
Q 1191 994 1439 701 
Q 1688 409 2113 409 
Q 2538 409 2786 701 
Q 3034 994 3034 1497 
Q 3034 2003 2786 2293 
Q 2538 2584 2113 2584 
z
M 3366 4563 
L 3366 3988 
Q 3128 4100 2886 4159 
Q 2644 4219 2406 4219 
Q 1781 4219 1451 3797 
Q 1122 3375 1075 2522 
Q 1259 2794 1537 2939 
Q 1816 3084 2150 3084 
Q 2853 3084 3261 2657 
Q 3669 2231 3669 1497 
Q 3669 778 3244 343 
Q 2819 -91 2113 -91 
Q 1303 -91 875 529 
Q 447 1150 447 2328 
Q 447 3434 972 4092 
Q 1497 4750 2381 4750 
Q 2619 4750 2861 4703 
Q 3103 4656 3366 4563 
z
" transform="scale(0.015625)"/>
       </defs>
       <use xlink:href="#DejaVuSans-30"/>
       <use xlink:href="#DejaVuSans-2e" x="63.623047"/>
       <use xlink:href="#DejaVuSans-36" x="95.410156"/>
      </g>
     </g>
    </g>
    <g id="xtick_3">
     <g id="line2d_5">
      <path d="M 350.703125 354.958125 
L 350.703125 22.318125 
" clip-path="url(#p79d25636af)" style="fill: none; stroke: #b0b0b0; stroke-opacity: 0.3; stroke-width: 0.8; stroke-linecap: square"/>
     </g>
     <g id="line2d_6">
      <g>
       <use xlink:href="#m1937183f8e" x="350.703125" y="354.958125" style="stroke: #000000; stroke-width: 0.8"/>
      </g>
     </g>
     <g id="text_3">
      <!-- 0.8 -->
      <g transform="translate(342.751563 369.556563) scale(0.1 -0.1)">
       <defs>
        <path id="DejaVuSans-38" d="M 2034 2216 
Q 1584 2216 1326 1975 
Q 1069 1734 1069 1313 
Q 1069 891 1326 650 
Q 1584 409 2034 409 
Q 2484 409 2743 651 
Q 3003 894 3003 1313 
Q 3003 1734 2745 1975 
Q 2488 2216 2034 2216 
z
M 1403 2484 
Q 997 2584 770 2862 
Q 544 3141 544 3541 
Q 544 4100 942 4425 
Q 1341 4750 2034 4750 
Q 2731 4750 3128 4425 
Q 3525 4100 3525 3541 
Q 3525 3141 3298 2862 
Q 3072 2584 2669 2484 
Q 3125 2378 3379 2068 
Q 3634 1759 3634 1313 
Q 3634 634 3220 271 
Q 2806 -91 2034 -91 
Q 1263 -91 848 271 
Q 434 634 434 1313 
Q 434 1759 690 2068 
Q 947 2378 1403 2484 
z
M 1172 3481 
Q 1172 3119 1398 2916 
Q 1625 2713 2034 2713 
Q 2441 2713 2670 2916 
Q 2900 3119 2900 3481 
Q 2900 3844 2670 4047 
Q 2441 4250 2034 4250 
Q 1625 4250 1398 4047 
Q 1172 3844 1172 3481 
z
" transform="scale(0.015625)"/>
       </defs>
       <use xlink:href="#DejaVuSans-30"/>
       <use xlink:href="#DejaVuSans-2e" x="63.623047"/>
       <use xlink:href="#DejaVuSans-38" x="95.410156"/>
      </g>
     </g>
    </g>
    <g id="xtick_4">
     <g id="line2d_7">
      <path d="M 462.303125 354.958125 
L 462.303125 22.318125 
" clip-path="url(#p79d25636af)" style="fill: none; stroke: #b0b0b0; stroke-opacity: 0.3; stroke-width: 0.8; stroke-linecap: square"/>
     </g>
     <g id="line2d_8">
      <g>
       <use xlink:href="#m1937183f8e" x="462.303125" y="354.958125" style="stroke: #000000; stroke-width: 0.8"/>
      </g>
     </g>
     <g id="text_4">
      <!-- 1.0 -->
      <g transform="translate(454.351562 369.556563) scale(0.1 -0.1)">
       <defs>
        <path id="DejaVuSans-31" d="M 794 531 
L 1825 531 
L 1825 4091 
L 703 3866 
L 703 4441 
L 1819 4666 
L 2450 4666 
L 2450 531 
L 3481 531 
L 3481 0 
L 794 0 
L 794 531 
z
" transform="scale(0.015625)"/>
       </defs>
       <use xlink:href="#DejaVuSans-31"/>
       <use xlink:href="#DejaVuSans-2e" x="63.623047"/>
       <use xlink:href="#DejaVuSans-30" x="95.410156"/>
      </g>
     </g>
    </g>
    <g id="xtick_5">
     <g id="line2d_9">
      <path d="M 573.903125 354.958125 
L 573.903125 22.318125 
" clip-path="url(#p79d25636af)" style="fill: none; stroke: #b0b0b0; stroke-opacity: 0.3; stroke-width: 0.8; stroke-linecap: square"/>
     </g>
     <g id="line2d_10">
      <g>
       <use xlink:href="#m1937183f8e" x="573.903125" y="354.958125" style="stroke: #000000; stroke-width: 0.8"/>
      </g>
     </g>
     <g id="text_5">
      <!-- 1.2 -->
      <g transform="translate(565.951563 369.556563) scale(0.1 -0.1)">
       <defs>
        <path id="DejaVuSans-32" d="M 1228 531 
L 3431 531 
L 3431 0 
L 469 0 
L 469 531 
Q 828 903 1448 1529 
Q 2069 2156 2228 2338 
Q 2531 2678 2651 2914 
Q 2772 3150 2772 3378 
Q 2772 3750 2511 3984 
Q 2250 4219 1831 4219 
Q 1534 4219 1204 4116 
Q 875 4013 500 3803 
L 500 4441 
Q 881 4594 1212 4672 
Q 1544 4750 1819 4750 
Q 2544 4750 2975 4387 
Q 3406 4025 3406 3419 
Q 3406 3131 3298 2873 
Q 3191 2616 2906 2266 
Q 2828 2175 2409 1742 
Q 1991 1309 1228 531 
z
" transform="scale(0.015625)"/>
       </defs>
       <use xlink:href="#DejaVuSans-31"/>
       <use xlink:href="#DejaVuSans-2e" x="63.623047"/>
       <use xlink:href="#DejaVuSans-32" x="95.410156"/>
      </g>
     </g>
    </g>
    <g id="text_6">
     <!-- Coupling $\beta$ -->
     <g transform="translate(296.003125 383.33625) scale(0.1 -0.1)">
      <defs>
       <path id="DejaVuSans-43" d="M 4122 4306 
L 4122 3641 
Q 3803 3938 3442 4084 
Q 3081 4231 2675 4231 
Q 1875 4231 1450 3742 
Q 1025 3253 1025 2328 
Q 1025 1406 1450 917 
Q 1875 428 2675 428 
Q 3081 428 3442 575 
Q 3803 722 4122 1019 
L 4122 359 
Q 3791 134 3420 21 
Q 3050 -91 2638 -91 
Q 1578 -91 968 557 
Q 359 1206 359 2328 
Q 359 3453 968 4101 
Q 1578 4750 2638 4750 
Q 3056 4750 3426 4639 
Q 3797 4528 4122 4306 
z
" transform="scale(0.015625)"/>
       <path id="DejaVuSans-6f" d="M 1959 3097 
Q 1497 3097 1228 2736 
Q 959 2375 959 1747 
Q 959 1119 1226 758 
Q 1494 397 1959 397 
Q 2419 397 2687 759 
Q 2956 1122 2956 1747 
Q 2956 2369 2687 2733 
Q 2419 3097 1959 3097 
z
M 1959 3584 
Q 2709 3584 3137 3096 
Q 3566 2609 3566 1747 
Q 3566 888 3137 398 
Q 2709 -91 1959 -91 
Q 1206 -91 779 398 
Q 353 888 353 1747 
Q 353 2609 779 3096 
Q 1206 3584 1959 3584 
z
" transform="scale(0.015625)"/>
       <path id="DejaVuSans-75" d="M 544 1381 
L 544 3500 
L 1119 3500 
L 1119 1403 
Q 1119 906 1312 657 
Q 1506 409 1894 409 
Q 2359 409 2629 706 
Q 2900 1003 2900 1516 
L 2900 3500 
L 3475 3500 
L 3475 0 
L 2900 0 
L 2900 538 
Q 2691 219 2414 64 
Q 2138 -91 1772 -91 
Q 1169 -91 856 284 
Q 544 659 544 1381 
z
M 1991 3584 
L 1991 3584 
z
" transform="scale(0.015625)"/>
       <path id="DejaVuSans-70" d="M 1159 525 
L 1159 -1331 
L 581 -1331 
L 581 3500 
L 1159 3500 
L 1159 2969 
Q 1341 3281 1617 3432 
Q 1894 3584 2278 3584 
Q 2916 3584 3314 3078 
Q 3713 2572 3713 1747 
Q 3713 922 3314 415 
Q 2916 -91 2278 -91 
Q 1894 -91 1617 61 
Q 1341 213 1159 525 
z
M 3116 1747 
Q 3116 2381 2855 2742 
Q 2594 3103 2138 3103 
Q 1681 3103 1420 2742 
Q 1159 2381 1159 1747 
Q 1159 1113 1420 752 
Q 1681 391 2138 391 
Q 2594 391 2855 752 
Q 3116 1113 3116 1747 
z
" transform="scale(0.015625)"/>
       <path id="DejaVuSans-6c" d="M 603 4863 
L 1178 4863 
L 1178 0 
L 603 0 
L 603 4863 
z
" transform="scale(0.015625)"/>
       <path id="DejaVuSans-69" d="M 603 3500 
L 1178 3500 
L 1178 0 
L 603 0 
L 603 3500 
z
M 603 4863 
L 1178 4863 
L 1178 4134 
L 603 4134 
L 603 4863 
z
" transform="scale(0.015625)"/>
       <path id="DejaVuSans-6e" d="M 3513 2113 
L 3513 0 
L 2938 0 
L 2938 2094 
Q 2938 2591 2744 2837 
Q 2550 3084 2163 3084 
Q 1697 3084 1428 2787 
Q 1159 2491 1159 1978 
L 1159 0 
L 581 0 
L 581 3500 
L 1159 3500 
L 1159 2956 
Q 1366 3272 1645 3428 
Q 1925 3584 2291 3584 
Q 2894 3584 3203 3211 
Q 3513 2838 3513 2113 
z
" transform="scale(0.015625)"/>
       <path id="DejaVuSans-67" d="M 2906 1791 
Q 2906 2416 2648 2759 
Q 2391 3103 1925 3103 
Q 1463 3103 1205 2759 
Q 947 2416 947 1791 
Q 947 1169 1205 825 
Q 1463 481 1925 481 
Q 2391 481 2648 825 
Q 2906 1169 2906 1791 
z
M 3481 434 
Q 3481 -459 3084 -895 
Q 2688 -1331 1869 -1331 
Q 1566 -1331 1297 -1286 
Q 1028 -1241 775 -1147 
L 775 -588 
Q 1028 -725 1275 -790 
Q 1522 -856 1778 -856 
Q 2344 -856 2625 -561 
Q 2906 -266 2906 331 
L 2906 616 
Q 2728 306 2450 153 
Q 2172 0 1784 0 
Q 1141 0 747 490 
Q 353 981 353 1791 
Q 353 2603 747 3093 
Q 1141 3584 1784 3584 
Q 2172 3584 2450 3431 
Q 2728 3278 2906 2969 
L 2906 3500 
L 3481 3500 
L 3481 434 
z
" transform="scale(0.015625)"/>
       <path id="DejaVuSans-20" transform="scale(0.015625)"/>
       <path id="DejaVuSans-Oblique-3b2" d="M 872 216 
L 572 -1331 
L -6 -1331 
L 928 3478 
Q 1206 4903 2538 4903 
Q 3888 4903 3659 3700 
Q 3503 2844 2894 2531 
Q 3713 2250 3553 1416 
Q 3272 -69 1759 -66 
Q 1097 -63 872 216 
z
M 1019 966 
Q 1259 422 1875 425 
Q 2775 425 2966 1406 
Q 3138 2288 1675 2219 
L 1778 2750 
Q 2909 2731 3106 3750 
Q 3241 4438 2509 4434 
Q 1691 4434 1503 3459 
L 1019 966 
z
" transform="scale(0.015625)"/>
      </defs>
      <use xlink:href="#DejaVuSans-43" transform="translate(0 0.390625)"/>
      <use xlink:href="#DejaVuSans-6f" transform="translate(69.824219 0.390625)"/>
      <use xlink:href="#DejaVuSans-75" transform="translate(131.005859 0.390625)"/>
      <use xlink:href="#DejaVuSans-70" transform="translate(194.384766 0.390625)"/>
      <use xlink:href="#DejaVuSans-6c" transform="translate(257.861328 0.390625)"/>
      <use xlink:href="#DejaVuSans-69" transform="translate(285.644531 0.390625)"/>
      <use xlink:href="#DejaVuSans-6e" transform="translate(313.427734 0.390625)"/>
      <use xlink:href="#DejaVuSans-67" transform="translate(376.806641 0.390625)"/>
      <use xlink:href="#DejaVuSans-20" transform="translate(440.283203 0.390625)"/>
      <use xlink:href="#DejaVuSans-Oblique-3b2" transform="translate(472.070312 0.390625)"/>
     </g>
    </g>
   </g>
   <g id="matplotlib.axis_2">
    <g id="ytick_1">
     <g id="line2d_11">
      <path d="M 43.803125 334.168125 
L 601.803125 334.168125 
" clip-path="url(#p79d25636af)" style="fill: none; stroke: #b0b0b0; stroke-opacity: 0.3; stroke-width: 0.8; stroke-linecap: square"/>
     </g>
     <g id="line2d_12">
      <defs>
       <path id="mbfd197b3ce" d="M 0 0 
L -3.5 0 
" style="stroke: #000000; stroke-width: 0.8"/>
      </defs>
      <g>
       <use xlink:href="#mbfd197b3ce" x="43.803125" y="334.168125" style="stroke: #000000; stroke-width: 0.8"/>
      </g>
     </g>
     <g id="text_7">
      <!-- 0.3 -->
      <g transform="translate(20.9 337.967344) scale(0.1 -0.1)">
       <defs>
        <path id="DejaVuSans-33" d="M 2597 2516 
Q 3050 2419 3304 2112 
Q 3559 1806 3559 1356 
Q 3559 666 3084 287 
Q 2609 -91 1734 -91 
Q 1441 -91 1130 -33 
Q 819 25 488 141 
L 488 750 
Q 750 597 1062 519 
Q 1375 441 1716 441 
Q 2309 441 2620 675 
Q 2931 909 2931 1356 
Q 2931 1769 2642 2001 
Q 2353 2234 1838 2234 
L 1294 2234 
L 1294 2753 
L 1863 2753 
Q 2328 2753 2575 2939 
Q 2822 3125 2822 3475 
Q 2822 3834 2567 4026 
Q 2313 4219 1838 4219 
Q 1578 4219 1281 4162 
Q 984 4106 628 3988 
L 628 4550 
Q 988 4650 1302 4700 
Q 1616 4750 1894 4750 
Q 2613 4750 3031 4423 
Q 3450 4097 3450 3541 
Q 3450 3153 3228 2886 
Q 3006 2619 2597 2516 
z
" transform="scale(0.015625)"/>
       </defs>
       <use xlink:href="#DejaVuSans-30"/>
       <use xlink:href="#DejaVuSans-2e" x="63.623047"/>
       <use xlink:href="#DejaVuSans-33" x="95.410156"/>
      </g>
     </g>
    </g>
    <g id="ytick_2">
     <g id="line2d_13">
      <path d="M 43.803125 292.588125 
L 601.803125 292.588125 
" clip-path="url(#p79d25636af)" style="fill: none; stroke: #b0b0b0; stroke-opacity: 0.3; stroke-width: 0.8; stroke-linecap: square"/>
     </g>
     <g id="line2d_14">
      <g>
       <use xlink:href="#mbfd197b3ce" x="43.803125" y="292.588125" style="stroke: #000000; stroke-width: 0.8"/>
      </g>
     </g>
     <g id="text_8">
      <!-- 0.4 -->
      <g transform="translate(20.9 296.387344) scale(0.1 -0.1)">
       <use xlink:href="#DejaVuSans-30"/>
       <use xlink:href="#DejaVuSans-2e" x="63.623047"/>
       <use xlink:href="#DejaVuSans-34" x="95.410156"/>
      </g>
     </g>
    </g>
    <g id="ytick_3">
     <g id="line2d_15">
      <path d="M 43.803125 251.008125 
L 601.803125 251.008125 
" clip-path="url(#p79d25636af)" style="fill: none; stroke: #b0b0b0; stroke-opacity: 0.3; stroke-width: 0.8; stroke-linecap: square"/>
     </g>
     <g id="line2d_16">
      <g>
       <use xlink:href="#mbfd197b3ce" x="43.803125" y="251.008125" style="stroke: #000000; stroke-width: 0.8"/>
      </g>
     </g>
     <g id="text_9">
      <!-- 0.5 -->
      <g transform="translate(20.9 254.807344) scale(0.1 -0.1)">
       <defs>
        <path id="DejaVuSans-35" d="M 691 4666 
L 3169 4666 
L 3169 4134 
L 1269 4134 
L 1269 2991 
Q 1406 3038 1543 3061 
Q 1681 3084 1819 3084 
Q 2600 3084 3056 2656 
Q 3513 2228 3513 1497 
Q 3513 744 3044 326 
Q 2575 -91 1722 -91 
Q 1428 -91 1123 -41 
Q 819 9 494 109 
L 494 744 
Q 775 591 1075 516 
Q 1375 441 1709 441 
Q 2250 441 2565 725 
Q 2881 1009 2881 1497 
Q 2881 1984 2565 2268 
Q 2250 2553 1709 2553 
Q 1456 2553 1204 2497 
Q 953 2441 691 2322 
L 691 4666 
z
" transform="scale(0.015625)"/>
       </defs>
       <use xlink:href="#DejaVuSans-30"/>
       <use xlink:href="#DejaVuSans-2e" x="63.623047"/>
       <use xlink:href="#DejaVuSans-35" x="95.410156"/>
      </g>
     </g>
    </g>
    <g id="ytick_4">
     <g id="line2d_17">
      <path d="M 43.803125 209.428125 
L 601.803125 209.428125 
" clip-path="url(#p79d25636af)" style="fill: none; stroke: #b0b0b0; stroke-opacity: 0.3; stroke-width: 0.8; stroke-linecap: square"/>
     </g>
     <g id="line2d_18">
      <g>
       <use xlink:href="#mbfd197b3ce" x="43.803125" y="209.428125" style="stroke: #000000; stroke-width: 0.8"/>
      </g>
     </g>
     <g id="text_10">
      <!-- 0.6 -->
      <g transform="translate(20.9 213.227344) scale(0.1 -0.1)">
       <use xlink:href="#DejaVuSans-30"/>
       <use xlink:href="#DejaVuSans-2e" x="63.623047"/>
       <use xlink:href="#DejaVuSans-36" x="95.410156"/>
      </g>
     </g>
    </g>
    <g id="ytick_5">
     <g id="line2d_19">
      <path d="M 43.803125 167.848125 
L 601.803125 167.848125 
" clip-path="url(#p79d25636af)" style="fill: none; stroke: #b0b0b0; stroke-opacity: 0.3; stroke-width: 0.8; stroke-linecap: square"/>
     </g>
     <g id="line2d_20">
      <g>
       <use xlink:href="#mbfd197b3ce" x="43.803125" y="167.848125" style="stroke: #000000; stroke-width: 0.8"/>
      </g>
     </g>
     <g id="text_11">
      <!-- 0.7 -->
      <g transform="translate(20.9 171.647344) scale(0.1 -0.1)">
       <defs>
        <path id="DejaVuSans-37" d="M 525 4666 
L 3525 4666 
L 3525 4397 
L 1831 0 
L 1172 0 
L 2766 4134 
L 525 4134 
L 525 4666 
z
" transform="scale(0.015625)"/>
       </defs>
       <use xlink:href="#DejaVuSans-30"/>
       <use xlink:href="#DejaVuSans-2e" x="63.623047"/>
       <use xlink:href="#DejaVuSans-37" x="95.410156"/>
      </g>
     </g>
    </g>
    <g id="ytick_6">
     <g id="line2d_21">
      <path d="M 43.803125 126.268125 
L 601.803125 126.268125 
" clip-path="url(#p79d25636af)" style="fill: none; stroke: #b0b0b0; stroke-opacity: 0.3; stroke-width: 0.8; stroke-linecap: square"/>
     </g>
     <g id="line2d_22">
      <g>
       <use xlink:href="#mbfd197b3ce" x="43.803125" y="126.268125" style="stroke: #000000; stroke-width: 0.8"/>
      </g>
     </g>
     <g id="text_12">
      <!-- 0.8 -->
      <g transform="translate(20.9 130.067344) scale(0.1 -0.1)">
       <use xlink:href="#DejaVuSans-30"/>
       <use xlink:href="#DejaVuSans-2e" x="63.623047"/>
       <use xlink:href="#DejaVuSans-38" x="95.410156"/>
      </g>
     </g>
    </g>
    <g id="ytick_7">
     <g id="line2d_23">
      <path d="M 43.803125 84.688125 
L 601.803125 84.688125 
" clip-path="url(#p79d25636af)" style="fill: none; stroke: #b0b0b0; stroke-opacity: 0.3; stroke-width: 0.8; stroke-linecap: square"/>
     </g>
     <g id="line2d_24">
      <g>
       <use xlink:href="#mbfd197b3ce" x="43.803125" y="84.688125" style="stroke: #000000; stroke-width: 0.8"/>
      </g>
     </g>
     <g id="text_13">
      <!-- 0.9 -->
      <g transform="translate(20.9 88.487344) scale(0.1 -0.1)">
       <defs>
        <path id="DejaVuSans-39" d="M 703 97 
L 703 672 
Q 941 559 1184 500 
Q 1428 441 1663 441 
Q 2288 441 2617 861 
Q 2947 1281 2994 2138 
Q 2813 1869 2534 1725 
Q 2256 1581 1919 1581 
Q 1219 1581 811 2004 
Q 403 2428 403 3163 
Q 403 3881 828 4315 
Q 1253 4750 1959 4750 
Q 2769 4750 3195 4129 
Q 3622 3509 3622 2328 
Q 3622 1225 3098 567 
Q 2575 -91 1691 -91 
Q 1453 -91 1209 -44 
Q 966 3 703 97 
z
M 1959 2075 
Q 2384 2075 2632 2365 
Q 2881 2656 2881 3163 
Q 2881 3666 2632 3958 
Q 2384 4250 1959 4250 
Q 1534 4250 1286 3958 
Q 1038 3666 1038 3163 
Q 1038 2656 1286 2365 
Q 1534 2075 1959 2075 
z
" transform="scale(0.015625)"/>
       </defs>
       <use xlink:href="#DejaVuSans-30"/>
       <use xlink:href="#DejaVuSans-2e" x="63.623047"/>
       <use xlink:href="#DejaVuSans-39" x="95.410156"/>
      </g>
     </g>
    </g>
    <g id="ytick_8">
     <g id="line2d_25">
      <path d="M 43.803125 43.108125 
L 601.803125 43.108125 
" clip-path="url(#p79d25636af)" style="fill: none; stroke: #b0b0b0; stroke-opacity: 0.3; stroke-width: 0.8; stroke-linecap: square"/>
     </g>
     <g id="line2d_26">
      <g>
       <use xlink:href="#mbfd197b3ce" x="43.803125" y="43.108125" style="stroke: #000000; stroke-width: 0.8"/>
      </g>
     </g>
     <g id="text_14">
      <!-- 1.0 -->
      <g transform="translate(20.9 46.907344) scale(0.1 -0.1)">
       <use xlink:href="#DejaVuSans-31"/>
       <use xlink:href="#DejaVuSans-2e" x="63.623047"/>
       <use xlink:href="#DejaVuSans-30" x="95.410156"/>
      </g>
     </g>
    </g>
    <g id="text_15">
     <!-- Plaquette $\langle P \rangle$ -->
     <g transform="translate(14.8 221.038125) rotate(-90) scale(0.1 -0.1)">
      <defs>
       <path id="DejaVuSans-50" d="M 1259 4147 
L 1259 2394 
L 2053 2394 
Q 2494 2394 2734 2622 
Q 2975 2850 2975 3272 
Q 2975 3691 2734 3919 
Q 2494 4147 2053 4147 
L 1259 4147 
z
M 628 4666 
L 2053 4666 
Q 2838 4666 3239 4311 
Q 3641 3956 3641 3272 
Q 3641 2581 3239 2228 
Q 2838 1875 2053 1875 
L 1259 1875 
L 1259 0 
L 628 0 
L 628 4666 
z
" transform="scale(0.015625)"/>
       <path id="DejaVuSans-61" d="M 2194 1759 
Q 1497 1759 1228 1600 
Q 959 1441 959 1056 
Q 959 750 1161 570 
Q 1363 391 1709 391 
Q 2188 391 2477 730 
Q 2766 1069 2766 1631 
L 2766 1759 
L 2194 1759 
z
M 3341 1997 
L 3341 0 
L 2766 0 
L 2766 531 
Q 2569 213 2275 61 
Q 1981 -91 1556 -91 
Q 1019 -91 701 211 
Q 384 513 384 1019 
Q 384 1609 779 1909 
Q 1175 2209 1959 2209 
L 2766 2209 
L 2766 2266 
Q 2766 2663 2505 2880 
Q 2244 3097 1772 3097 
Q 1472 3097 1187 3025 
Q 903 2953 641 2809 
L 641 3341 
Q 956 3463 1253 3523 
Q 1550 3584 1831 3584 
Q 2591 3584 2966 3190 
Q 3341 2797 3341 1997 
z
" transform="scale(0.015625)"/>
       <path id="DejaVuSans-71" d="M 947 1747 
Q 947 1113 1208 752 
Q 1469 391 1925 391 
Q 2381 391 2643 752 
Q 2906 1113 2906 1747 
Q 2906 2381 2643 2742 
Q 2381 3103 1925 3103 
Q 1469 3103 1208 2742 
Q 947 2381 947 1747 
z
M 2906 525 
Q 2725 213 2448 61 
Q 2172 -91 1784 -91 
Q 1150 -91 751 415 
Q 353 922 353 1747 
Q 353 2572 751 3078 
Q 1150 3584 1784 3584 
Q 2172 3584 2448 3432 
Q 2725 3281 2906 2969 
L 2906 3500 
L 3481 3500 
L 3481 -1331 
L 2906 -1331 
L 2906 525 
z
" transform="scale(0.015625)"/>
       <path id="DejaVuSans-65" d="M 3597 1894 
L 3597 1613 
L 953 1613 
Q 991 1019 1311 708 
Q 1631 397 2203 397 
Q 2534 397 2845 478 
Q 3156 559 3463 722 
L 3463 178 
Q 3153 47 2828 -22 
Q 2503 -91 2169 -91 
Q 1331 -91 842 396 
Q 353 884 353 1716 
Q 353 2575 817 3079 
Q 1281 3584 2069 3584 
Q 2775 3584 3186 3129 
Q 3597 2675 3597 1894 
z
M 3022 2063 
Q 3016 2534 2758 2815 
Q 2500 3097 2075 3097 
Q 1594 3097 1305 2825 
Q 1016 2553 972 2059 
L 3022 2063 
z
" transform="scale(0.015625)"/>
       <path id="DejaVuSans-74" d="M 1172 4494 
L 1172 3500 
L 2356 3500 
L 2356 3053 
L 1172 3053 
L 1172 1153 
Q 1172 725 1289 603 
Q 1406 481 1766 481 
L 2356 481 
L 2356 0 
L 1766 0 
Q 1100 0 847 248 
Q 594 497 594 1153 
L 594 3053 
L 172 3053 
L 172 3500 
L 594 3500 
L 594 4494 
L 1172 4494 
z
" transform="scale(0.015625)"/>
       <path id="DejaVuSans-27e8" d="M 572 2006 
L 1453 4856 
L 1984 4856 
L 1103 2006 
L 1984 -844 
L 1453 -844 
L 572 2006 
z
" transform="scale(0.015625)"/>
       <path id="DejaVuSans-Oblique-50" d="M 1081 4666 
L 2541 4666 
Q 3178 4666 3512 4369 
Q 3847 4072 3847 3500 
Q 3847 2731 3353 2303 
Q 2859 1875 1966 1875 
L 1172 1875 
L 806 0 
L 172 0 
L 1081 4666 
z
M 1613 4147 
L 1275 2394 
L 2069 2394 
Q 2606 2394 2893 2669 
Q 3181 2944 3181 3456 
Q 3181 3784 2986 3965 
Q 2791 4147 2438 4147 
L 1613 4147 
z
" transform="scale(0.015625)"/>
       <path id="DejaVuSans-27e9" d="M 1925 2006 
L 1044 -844 
L 513 -844 
L 1394 2006 
L 513 4856 
L 1044 4856 
L 1925 2006 
z
" transform="scale(0.015625)"/>
      </defs>
      <use xlink:href="#DejaVuSans-50" transform="translate(0 0.015625)"/>
      <use xlink:href="#DejaVuSans-6c" transform="translate(60.302734 0.015625)"/>
      <use xlink:href="#DejaVuSans-61" transform="translate(88.085938 0.015625)"/>
      <use xlink:href="#DejaVuSans-71" transform="translate(149.365234 0.015625)"/>
      <use xlink:href="#DejaVuSans-75" transform="translate(212.841797 0.015625)"/>
      <use xlink:href="#DejaVuSans-65" transform="translate(276.220703 0.015625)"/>
      <use xlink:href="#DejaVuSans-74" transform="translate(337.744141 0.015625)"/>
      <use xlink:href="#DejaVuSans-74" transform="translate(376.953125 0.015625)"/>
      <use xlink:href="#DejaVuSans-65" transform="translate(416.162109 0.015625)"/>
      <use xlink:href="#DejaVuSans-20" transform="translate(477.685547 0.015625)"/>
      <use xlink:href="#DejaVuSans-27e8" transform="translate(509.472656 0.015625)"/>
      <use xlink:href="#DejaVuSans-Oblique-50" transform="translate(548.486328 0.015625)"/>
      <use xlink:href="#DejaVuSans-27e9" transform="translate(608.789062 0.015625)"/>
     </g>
    </g>
   </g>
   <g id="line2d_27">
    <path d="M 183.303125 250.197315 
L 239.103125 195.222491 
L 294.903125 100.036343 
L 322.803125 67.055606 
L 328.383125 62.644661 
L 333.963125 59.864865 
L 350.703125 54.681225 
L 378.603125 49.059262 
L 406.503125 46.609507 
L 462.303125 44.52531 
" clip-path="url(#p79d25636af)" style="fill: none; stroke: #e94f37; stroke-opacity: 0.8; stroke-width: 2; stroke-linecap: square"/>
    <defs>
     <path id="m35bcd4938d" d="M 0 3 
C 0.795609 3 1.55874 2.683901 2.12132 2.12132 
C 2.683901 1.55874 3 0.795609 3 0 
C 3 -0.795609 2.683901 -1.55874 2.12132 -2.12132 
C 1.55874 -2.683901 0.795609 -3 0 -3 
C -0.795609 -3 -1.55874 -2.683901 -2.12132 -2.12132 
C -2.683901 -1.55874 -3 -0.795609 -3 0 
C -3 0.795609 -2.683901 1.55874 -2.12132 2.12132 
C -1.55874 2.683901 -0.795609 3 0 3 
z
" style="stroke: #e94f37; stroke-opacity: 0.8"/>
    </defs>
    <g clip-path="url(#p79d25636af)">
     <use xlink:href="#m35bcd4938d" x="183.303125" y="250.197315" style="fill: #e94f37; fill-opacity: 0.8; stroke: #e94f37; stroke-opacity: 0.8"/>
     <use xlink:href="#m35bcd4938d" x="239.103125" y="195.222491" style="fill: #e94f37; fill-opacity: 0.8; stroke: #e94f37; stroke-opacity: 0.8"/>
     <use xlink:href="#m35bcd4938d" x="294.903125" y="100.036343" style="fill: #e94f37; fill-opacity: 0.8; stroke: #e94f37; stroke-opacity: 0.8"/>
     <use xlink:href="#m35bcd4938d" x="322.803125" y="67.055606" style="fill: #e94f37; fill-opacity: 0.8; stroke: #e94f37; stroke-opacity: 0.8"/>
     <use xlink:href="#m35bcd4938d" x="328.383125" y="62.644661" style="fill: #e94f37; fill-opacity: 0.8; stroke: #e94f37; stroke-opacity: 0.8"/>
     <use xlink:href="#m35bcd4938d" x="333.963125" y="59.864865" style="fill: #e94f37; fill-opacity: 0.8; stroke: #e94f37; stroke-opacity: 0.8"/>
     <use xlink:href="#m35bcd4938d" x="350.703125" y="54.681225" style="fill: #e94f37; fill-opacity: 0.8; stroke: #e94f37; stroke-opacity: 0.8"/>
     <use xlink:href="#m35bcd4938d" x="378.603125" y="49.059262" style="fill: #e94f37; fill-opacity: 0.8; stroke: #e94f37; stroke-opacity: 0.8"/>
     <use xlink:href="#m35bcd4938d" x="406.503125" y="46.609507" style="fill: #e94f37; fill-opacity: 0.8; stroke: #e94f37; stroke-opacity: 0.8"/>
     <use xlink:href="#m35bcd4938d" x="462.303125" y="44.52531" style="fill: #e94f37; fill-opacity: 0.8; stroke: #e94f37; stroke-opacity: 0.8"/>
    </g>
   </g>
   <g id="line2d_28">
    <path d="M 183.303125 250.087462 
L 239.103125 198.250548 
L 294.903125 124.169875 
L 322.803125 69.617172 
L 328.383125 63.851412 
L 333.963125 60.326095 
L 350.703125 54.019025 
L 378.603125 49.054322 
L 406.503125 46.700945 
L 462.303125 44.506958 
" clip-path="url(#p79d25636af)" style="fill: none; stroke: #e67e22; stroke-opacity: 0.8; stroke-width: 2; stroke-linecap: square"/>
    <defs>
     <path id="m8e1c611fd1" d="M -3 3 
L 3 3 
L 3 -3 
L -3 -3 
z
" style="stroke: #e67e22; stroke-opacity: 0.8; stroke-linejoin: miter"/>
    </defs>
    <g clip-path="url(#p79d25636af)">
     <use xlink:href="#m8e1c611fd1" x="183.303125" y="250.087462" style="fill: #e67e22; fill-opacity: 0.8; stroke: #e67e22; stroke-opacity: 0.8; stroke-linejoin: miter"/>
     <use xlink:href="#m8e1c611fd1" x="239.103125" y="198.250548" style="fill: #e67e22; fill-opacity: 0.8; stroke: #e67e22; stroke-opacity: 0.8; stroke-linejoin: miter"/>
     <use xlink:href="#m8e1c611fd1" x="294.903125" y="124.169875" style="fill: #e67e22; fill-opacity: 0.8; stroke: #e67e22; stroke-opacity: 0.8; stroke-linejoin: miter"/>
     <use xlink:href="#m8e1c611fd1" x="322.803125" y="69.617172" style="fill: #e67e22; fill-opacity: 0.8; stroke: #e67e22; stroke-opacity: 0.8; stroke-linejoin: miter"/>
     <use xlink:href="#m8e1c611fd1" x="328.383125" y="63.851412" style="fill: #e67e22; fill-opacity: 0.8; stroke: #e67e22; stroke-opacity: 0.8; stroke-linejoin: miter"/>
     <use xlink:href="#m8e1c611fd1" x="333.963125" y="60.326095" style="fill: #e67e22; fill-opacity: 0.8; stroke: #e67e22; stroke-opacity: 0.8; stroke-linejoin: miter"/>
     <use xlink:href="#m8e1c611fd1" x="350.703125" y="54.019025" style="fill: #e67e22; fill-opacity: 0.8; stroke: #e67e22; stroke-opacity: 0.8; stroke-linejoin: miter"/>
     <use xlink:href="#m8e1c611fd1" x="378.603125" y="49.054322" style="fill: #e67e22; fill-opacity: 0.8; stroke: #e67e22; stroke-opacity: 0.8; stroke-linejoin: miter"/>
     <use xlink:href="#m8e1c611fd1" x="406.503125" y="46.700945" style="fill: #e67e22; fill-opacity: 0.8; stroke: #e67e22; stroke-opacity: 0.8; stroke-linejoin: miter"/>
     <use xlink:href="#m8e1c611fd1" x="462.303125" y="44.506958" style="fill: #e67e22; fill-opacity: 0.8; stroke: #e67e22; stroke-opacity: 0.8; stroke-linejoin: miter"/>
    </g>
   </g>
   <g id="line2d_29">
    <path d="M 183.303125 250.004466 
L 239.103125 198.161786 
L 294.903125 130.428507 
L 322.803125 71.336181 
L 328.383125 64.680565 
L 333.963125 60.347041 
L 350.703125 54.158985 
L 378.603125 49.214971 
L 406.503125 46.723311 
L 462.303125 44.486112 
" clip-path="url(#p79d25636af)" style="fill: none; stroke: #f1c40f; stroke-opacity: 0.8; stroke-width: 2; stroke-linecap: square"/>
    <defs>
     <path id="m750753df65" d="M 0 -3 
L -3 3 
L 3 3 
z
" style="stroke: #f1c40f; stroke-opacity: 0.8; stroke-linejoin: miter"/>
    </defs>
    <g clip-path="url(#p79d25636af)">
     <use xlink:href="#m750753df65" x="183.303125" y="250.004466" style="fill: #f1c40f; fill-opacity: 0.8; stroke: #f1c40f; stroke-opacity: 0.8; stroke-linejoin: miter"/>
     <use xlink:href="#m750753df65" x="239.103125" y="198.161786" style="fill: #f1c40f; fill-opacity: 0.8; stroke: #f1c40f; stroke-opacity: 0.8; stroke-linejoin: miter"/>
     <use xlink:href="#m750753df65" x="294.903125" y="130.428507" style="fill: #f1c40f; fill-opacity: 0.8; stroke: #f1c40f; stroke-opacity: 0.8; stroke-linejoin: miter"/>
     <use xlink:href="#m750753df65" x="322.803125" y="71.336181" style="fill: #f1c40f; fill-opacity: 0.8; stroke: #f1c40f; stroke-opacity: 0.8; stroke-linejoin: miter"/>
     <use xlink:href="#m750753df65" x="328.383125" y="64.680565" style="fill: #f1c40f; fill-opacity: 0.8; stroke: #f1c40f; stroke-opacity: 0.8; stroke-linejoin: miter"/>
     <use xlink:href="#m750753df65" x="333.963125" y="60.347041" style="fill: #f1c40f; fill-opacity: 0.8; stroke: #f1c40f; stroke-opacity: 0.8; stroke-linejoin: miter"/>
     <use xlink:href="#m750753df65" x="350.703125" y="54.158985" style="fill: #f1c40f; fill-opacity: 0.8; stroke: #f1c40f; stroke-opacity: 0.8; stroke-linejoin: miter"/>
     <use xlink:href="#m750753df65" x="378.603125" y="49.214971" style="fill: #f1c40f; fill-opacity: 0.8; stroke: #f1c40f; stroke-opacity: 0.8; stroke-linejoin: miter"/>
     <use xlink:href="#m750753df65" x="406.503125" y="46.723311" style="fill: #f1c40f; fill-opacity: 0.8; stroke: #f1c40f; stroke-opacity: 0.8; stroke-linejoin: miter"/>
     <use xlink:href="#m750753df65" x="462.303125" y="44.486112" style="fill: #f1c40f; fill-opacity: 0.8; stroke: #f1c40f; stroke-opacity: 0.8; stroke-linejoin: miter"/>
    </g>
   </g>
   <g id="line2d_30">
    <path d="M 306.063125 113.472832 
L 307.737125 110.704171 
L 309.411125 107.905543 
L 311.085125 105.028069 
L 312.759125 102.008463 
L 314.433125 98.978703 
L 316.107125 95.849728 
" clip-path="url(#p79d25636af)" style="fill: none; stroke: #1abc9c; stroke-opacity: 0.8; stroke-width: 2; stroke-linecap: square"/>
    <defs>
     <path id="m2f7e1be935" d="M -0 3 
L 3 -3 
L -3 -3 
z
" style="stroke: #1abc9c; stroke-opacity: 0.8; stroke-linejoin: miter"/>
    </defs>
    <g clip-path="url(#p79d25636af)">
     <use xlink:href="#m2f7e1be935" x="306.063125" y="113.472832" style="fill: #1abc9c; fill-opacity: 0.8; stroke: #1abc9c; stroke-opacity: 0.8; stroke-linejoin: miter"/>
     <use xlink:href="#m2f7e1be935" x="307.737125" y="110.704171" style="fill: #1abc9c; fill-opacity: 0.8; stroke: #1abc9c; stroke-opacity: 0.8; stroke-linejoin: miter"/>
     <use xlink:href="#m2f7e1be935" x="309.411125" y="107.905543" style="fill: #1abc9c; fill-opacity: 0.8; stroke: #1abc9c; stroke-opacity: 0.8; stroke-linejoin: miter"/>
     <use xlink:href="#m2f7e1be935" x="311.085125" y="105.028069" style="fill: #1abc9c; fill-opacity: 0.8; stroke: #1abc9c; stroke-opacity: 0.8; stroke-linejoin: miter"/>
     <use xlink:href="#m2f7e1be935" x="312.759125" y="102.008463" style="fill: #1abc9c; fill-opacity: 0.8; stroke: #1abc9c; stroke-opacity: 0.8; stroke-linejoin: miter"/>
     <use xlink:href="#m2f7e1be935" x="314.433125" y="98.978703" style="fill: #1abc9c; fill-opacity: 0.8; stroke: #1abc9c; stroke-opacity: 0.8; stroke-linejoin: miter"/>
     <use xlink:href="#m2f7e1be935" x="316.107125" y="95.849728" style="fill: #1abc9c; fill-opacity: 0.8; stroke: #1abc9c; stroke-opacity: 0.8; stroke-linejoin: miter"/>
    </g>
   </g>
   <g id="line2d_31">
    <path d="M 71.703125 336.153265 
L 127.503125 294.759377 
L 183.303125 250.042188 
L 211.203125 225.326127 
L 239.103125 198.071347 
L 267.003125 167.231215 
L 283.743125 146.164817 
L 294.903125 130.648563 
L 306.063125 113.493127 
L 317.223125 93.69214 
L 328.383125 65.107719 
L 339.543125 57.576513 
L 350.703125 54.027294 
L 361.863125 51.606158 
L 373.023125 49.864225 
L 384.183125 48.540166 
L 406.503125 46.709058 
L 434.403125 45.334047 
L 462.303125 44.512621 
L 518.103125 43.692731 
L 573.903125 43.354794 
" clip-path="url(#p79d25636af)" style="fill: none; stroke: #9b59b6; stroke-opacity: 0.8; stroke-width: 2; stroke-linecap: square"/>
    <defs>
     <path id="m0932752fce" d="M 0 -2.5 
L -2.165064 -1.25 
L -2.165064 1.25 
L -0 2.5 
L 2.165064 1.25 
L 2.165064 -1.25 
z
" style="stroke: #9b59b6; stroke-opacity: 0.8; stroke-linejoin: miter"/>
    </defs>
    <g clip-path="url(#p79d25636af)">
     <use xlink:href="#m0932752fce" x="71.703125" y="336.153265" style="fill: #9b59b6; fill-opacity: 0.8; stroke: #9b59b6; stroke-opacity: 0.8; stroke-linejoin: miter"/>
     <use xlink:href="#m0932752fce" x="127.503125" y="294.759377" style="fill: #9b59b6; fill-opacity: 0.8; stroke: #9b59b6; stroke-opacity: 0.8; stroke-linejoin: miter"/>
     <use xlink:href="#m0932752fce" x="183.303125" y="250.042188" style="fill: #9b59b6; fill-opacity: 0.8; stroke: #9b59b6; stroke-opacity: 0.8; stroke-linejoin: miter"/>
     <use xlink:href="#m0932752fce" x="211.203125" y="225.326127" style="fill: #9b59b6; fill-opacity: 0.8; stroke: #9b59b6; stroke-opacity: 0.8; stroke-linejoin: miter"/>
     <use xlink:href="#m0932752fce" x="239.103125" y="198.071347" style="fill: #9b59b6; fill-opacity: 0.8; stroke: #9b59b6; stroke-opacity: 0.8; stroke-linejoin: miter"/>
     <use xlink:href="#m0932752fce" x="267.003125" y="167.231215" style="fill: #9b59b6; fill-opacity: 0.8; stroke: #9b59b6; stroke-opacity: 0.8; stroke-linejoin: miter"/>
     <use xlink:href="#m0932752fce" x="283.743125" y="146.164817" style="fill: #9b59b6; fill-opacity: 0.8; stroke: #9b59b6; stroke-opacity: 0.8; stroke-linejoin: miter"/>
     <use xlink:href="#m0932752fce" x="294.903125" y="130.648563" style="fill: #9b59b6; fill-opacity: 0.8; stroke: #9b59b6; stroke-opacity: 0.8; stroke-linejoin: miter"/>
     <use xlink:href="#m0932752fce" x="306.063125" y="113.493127" style="fill: #9b59b6; fill-opacity: 0.8; stroke: #9b59b6; stroke-opacity: 0.8; stroke-linejoin: miter"/>
     <use xlink:href="#m0932752fce" x="317.223125" y="93.69214" style="fill: #9b59b6; fill-opacity: 0.8; stroke: #9b59b6; stroke-opacity: 0.8; stroke-linejoin: miter"/>
     <use xlink:href="#m0932752fce" x="328.383125" y="65.107719" style="fill: #9b59b6; fill-opacity: 0.8; stroke: #9b59b6; stroke-opacity: 0.8; stroke-linejoin: miter"/>
     <use xlink:href="#m0932752fce" x="339.543125" y="57.576513" style="fill: #9b59b6; fill-opacity: 0.8; stroke: #9b59b6; stroke-opacity: 0.8; stroke-linejoin: miter"/>
     <use xlink:href="#m0932752fce" x="350.703125" y="54.027294" style="fill: #9b59b6; fill-opacity: 0.8; stroke: #9b59b6; stroke-opacity: 0.8; stroke-linejoin: miter"/>
     <use xlink:href="#m0932752fce" x="361.863125" y="51.606158" style="fill: #9b59b6; fill-opacity: 0.8; stroke: #9b59b6; stroke-opacity: 0.8; stroke-linejoin: miter"/>
     <use xlink:href="#m0932752fce" x="373.023125" y="49.864225" style="fill: #9b59b6; fill-opacity: 0.8; stroke: #9b59b6; stroke-opacity: 0.8; stroke-linejoin: miter"/>
     <use xlink:href="#m0932752fce" x="384.183125" y="48.540166" style="fill: #9b59b6; fill-opacity: 0.8; stroke: #9b59b6; stroke-opacity: 0.8; stroke-linejoin: miter"/>
     <use xlink:href="#m0932752fce" x="406.503125" y="46.709058" style="fill: #9b59b6; fill-opacity: 0.8; stroke: #9b59b6; stroke-opacity: 0.8; stroke-linejoin: miter"/>
     <use xlink:href="#m0932752fce" x="434.403125" y="45.334047" style="fill: #9b59b6; fill-opacity: 0.8; stroke: #9b59b6; stroke-opacity: 0.8; stroke-linejoin: miter"/>
     <use xlink:href="#m0932752fce" x="462.303125" y="44.512621" style="fill: #9b59b6; fill-opacity: 0.8; stroke: #9b59b6; stroke-opacity: 0.8; stroke-linejoin: miter"/>
     <use xlink:href="#m0932752fce" x="518.103125" y="43.692731" style="fill: #9b59b6; fill-opacity: 0.8; stroke: #9b59b6; stroke-opacity: 0.8; stroke-linejoin: miter"/>
     <use xlink:href="#m0932752fce" x="573.903125" y="43.354794" style="fill: #9b59b6; fill-opacity: 0.8; stroke: #9b59b6; stroke-opacity: 0.8; stroke-linejoin: miter"/>
    </g>
   </g>
   <g id="line2d_32">
    <path d="M 71.703125 336.140852 
L 127.503125 294.75128 
L 183.303125 250.05327 
L 211.203125 225.301043 
L 239.103125 198.040533 
L 267.003125 167.163183 
L 283.743125 146.158501 
L 294.903125 130.675272 
L 306.063125 113.511069 
L 317.223125 93.668588 
L 328.383125 65.51773 
L 339.543125 57.602704 
L 350.703125 54.021432 
L 361.863125 51.62244 
L 373.023125 49.864552 
L 384.183125 48.538873 
L 406.503125 46.709175 
L 434.403125 45.332127 
L 462.303125 44.50751 
L 518.103125 43.688616 
L 573.903125 43.355331 
" clip-path="url(#p79d25636af)" style="fill: none; stroke: #e84393; stroke-opacity: 0.8; stroke-width: 2; stroke-linecap: square"/>
    <defs>
     <path id="m65fd796628" d="M 0 -2.5 
L -0.561285 -0.772542 
L -2.377641 -0.772542 
L -0.908178 0.295085 
L -1.469463 2.022542 
L -0 0.954915 
L 1.469463 2.022542 
L 0.908178 0.295085 
L 2.377641 -0.772542 
L 0.561285 -0.772542 
z
" style="stroke: #e84393; stroke-opacity: 0.8; stroke-linejoin: bevel"/>
    </defs>
    <g clip-path="url(#p79d25636af)">
     <use xlink:href="#m65fd796628" x="71.703125" y="336.140852" style="fill: #e84393; fill-opacity: 0.8; stroke: #e84393; stroke-opacity: 0.8; stroke-linejoin: bevel"/>
     <use xlink:href="#m65fd796628" x="127.503125" y="294.75128" style="fill: #e84393; fill-opacity: 0.8; stroke: #e84393; stroke-opacity: 0.8; stroke-linejoin: bevel"/>
     <use xlink:href="#m65fd796628" x="183.303125" y="250.05327" style="fill: #e84393; fill-opacity: 0.8; stroke: #e84393; stroke-opacity: 0.8; stroke-linejoin: bevel"/>
     <use xlink:href="#m65fd796628" x="211.203125" y="225.301043" style="fill: #e84393; fill-opacity: 0.8; stroke: #e84393; stroke-opacity: 0.8; stroke-linejoin: bevel"/>
     <use xlink:href="#m65fd796628" x="239.103125" y="198.040533" style="fill: #e84393; fill-opacity: 0.8; stroke: #e84393; stroke-opacity: 0.8; stroke-linejoin: bevel"/>
     <use xlink:href="#m65fd796628" x="267.003125" y="167.163183" style="fill: #e84393; fill-opacity: 0.8; stroke: #e84393; stroke-opacity: 0.8; stroke-linejoin: bevel"/>
     <use xlink:href="#m65fd796628" x="283.743125" y="146.158501" style="fill: #e84393; fill-opacity: 0.8; stroke: #e84393; stroke-opacity: 0.8; stroke-linejoin: bevel"/>
     <use xlink:href="#m65fd796628" x="294.903125" y="130.675272" style="fill: #e84393; fill-opacity: 0.8; stroke: #e84393; stroke-opacity: 0.8; stroke-linejoin: bevel"/>
     <use xlink:href="#m65fd796628" x="306.063125" y="113.511069" style="fill: #e84393; fill-opacity: 0.8; stroke: #e84393; stroke-opacity: 0.8; stroke-linejoin: bevel"/>
     <use xlink:href="#m65fd796628" x="317.223125" y="93.668588" style="fill: #e84393; fill-opacity: 0.8; stroke: #e84393; stroke-opacity: 0.8; stroke-linejoin: bevel"/>
     <use xlink:href="#m65fd796628" x="328.383125" y="65.51773" style="fill: #e84393; fill-opacity: 0.8; stroke: #e84393; stroke-opacity: 0.8; stroke-linejoin: bevel"/>
     <use xlink:href="#m65fd796628" x="339.543125" y="57.602704" style="fill: #e84393; fill-opacity: 0.8; stroke: #e84393; stroke-opacity: 0.8; stroke-linejoin: bevel"/>
     <use xlink:href="#m65fd796628" x="350.703125" y="54.021432" style="fill: #e84393; fill-opacity: 0.8; stroke: #e84393; stroke-opacity: 0.8; stroke-linejoin: bevel"/>
     <use xlink:href="#m65fd796628" x="361.863125" y="51.62244" style="fill: #e84393; fill-opacity: 0.8; stroke: #e84393; stroke-opacity: 0.8; stroke-linejoin: bevel"/>
     <use xlink:href="#m65fd796628" x="373.023125" y="49.864552" style="fill: #e84393; fill-opacity: 0.8; stroke: #e84393; stroke-opacity: 0.8; stroke-linejoin: bevel"/>
     <use xlink:href="#m65fd796628" x="384.183125" y="48.538873" style="fill: #e84393; fill-opacity: 0.8; stroke: #e84393; stroke-opacity: 0.8; stroke-linejoin: bevel"/>
     <use xlink:href="#m65fd796628" x="406.503125" y="46.709175" style="fill: #e84393; fill-opacity: 0.8; stroke: #e84393; stroke-opacity: 0.8; stroke-linejoin: bevel"/>
     <use xlink:href="#m65fd796628" x="434.403125" y="45.332127" style="fill: #e84393; fill-opacity: 0.8; stroke: #e84393; stroke-opacity: 0.8; stroke-linejoin: bevel"/>
     <use xlink:href="#m65fd796628" x="462.303125" y="44.50751" style="fill: #e84393; fill-opacity: 0.8; stroke: #e84393; stroke-opacity: 0.8; stroke-linejoin: bevel"/>
     <use xlink:href="#m65fd796628" x="518.103125" y="43.688616" style="fill: #e84393; fill-opacity: 0.8; stroke: #e84393; stroke-opacity: 0.8; stroke-linejoin: bevel"/>
     <use xlink:href="#m65fd796628" x="573.903125" y="43.355331" style="fill: #e84393; fill-opacity: 0.8; stroke: #e84393; stroke-opacity: 0.8; stroke-linejoin: bevel"/>
    </g>
   </g>
   <g id="line2d_33">
    <path d="M 328.383125 354.958125 
L 328.383125 22.318125 
" clip-path="url(#p79d25636af)" style="fill: none; stroke-dasharray: 3.7,1.6; stroke-dashoffset: 0; stroke: #808080; stroke-opacity: 0.5"/>
   </g>
   <g id="patch_3">
    <path d="M 43.803125 354.958125 
L 43.803125 22.318125 
" style="fill: none; stroke: #000000; stroke-width: 0.8; stroke-linejoin: miter; stroke-linecap: square"/>
   </g>
   <g id="patch_4">
    <path d="M 601.803125 354.958125 
L 601.803125 22.318125 
" style="fill: none; stroke: #000000; stroke-width: 0.8; stroke-linejoin: miter; stroke-linecap: square"/>
   </g>
   <g id="patch_5">
    <path d="M 43.803125 354.958125 
L 601.803125 354.958125 
" style="fill: none; stroke: #000000; stroke-width: 0.8; stroke-linejoin: miter; stroke-linecap: square"/>
   </g>
   <g id="patch_6">
    <path d="M 43.803125 22.318125 
L 601.803125 22.318125 
" style="fill: none; stroke: #000000; stroke-width: 0.8; stroke-linejoin: miter; stroke-linecap: square"/>
   </g>
   <g id="text_16">
    <!-- 3D Z₂ LGT: Finite-Size Scaling — Plaquette -->
    <g transform="translate(196.53875 16.318125) scale(0.12 -0.12)">
     <defs>
      <path id="DejaVuSans-44" d="M 1259 4147 
L 1259 519 
L 2022 519 
Q 2988 519 3436 956 
Q 3884 1394 3884 2338 
Q 3884 3275 3436 3711 
Q 2988 4147 2022 4147 
L 1259 4147 
z
M 628 4666 
L 1925 4666 
Q 3281 4666 3915 4102 
Q 4550 3538 4550 2338 
Q 4550 1131 3912 565 
Q 3275 0 1925 0 
L 628 0 
L 628 4666 
z
" transform="scale(0.015625)"/>
      <path id="DejaVuSans-5a" d="M 359 4666 
L 4025 4666 
L 4025 4184 
L 1075 531 
L 4097 531 
L 4097 0 
L 288 0 
L 288 481 
L 3238 4134 
L 359 4134 
L 359 4666 
z
" transform="scale(0.015625)"/>
      <path id="DejaVuSans-2082" d="M 838 332 
L 2163 332 
L 2163 -24 
L 294 -24 
L 294 319 
Q 400 416 597 591 
Q 1672 1544 1672 1838 
Q 1672 2044 1509 2170 
Q 1347 2297 1081 2297 
Q 919 2297 728 2242 
Q 538 2188 313 2079 
L 313 2463 
Q 553 2551 761 2594 
Q 969 2638 1147 2638 
Q 1600 2638 1872 2432 
Q 2144 2226 2144 1888 
Q 2144 1454 1109 566 
Q 934 416 838 332 
z
" transform="scale(0.015625)"/>
      <path id="DejaVuSans-4c" d="M 628 4666 
L 1259 4666 
L 1259 531 
L 3531 531 
L 3531 0 
L 628 0 
L 628 4666 
z
" transform="scale(0.015625)"/>
      <path id="DejaVuSans-47" d="M 3809 666 
L 3809 1919 
L 2778 1919 
L 2778 2438 
L 4434 2438 
L 4434 434 
Q 4069 175 3628 42 
Q 3188 -91 2688 -91 
Q 1594 -91 976 548 
Q 359 1188 359 2328 
Q 359 3472 976 4111 
Q 1594 4750 2688 4750 
Q 3144 4750 3555 4637 
Q 3966 4525 4313 4306 
L 4313 3634 
Q 3963 3931 3569 4081 
Q 3175 4231 2741 4231 
Q 1884 4231 1454 3753 
Q 1025 3275 1025 2328 
Q 1025 1384 1454 906 
Q 1884 428 2741 428 
Q 3075 428 3337 486 
Q 3600 544 3809 666 
z
" transform="scale(0.015625)"/>
      <path id="DejaVuSans-54" d="M -19 4666 
L 3928 4666 
L 3928 4134 
L 2272 4134 
L 2272 0 
L 1638 0 
L 1638 4134 
L -19 4134 
L -19 4666 
z
" transform="scale(0.015625)"/>
      <path id="DejaVuSans-3a" d="M 750 794 
L 1409 794 
L 1409 0 
L 750 0 
L 750 794 
z
M 750 3309 
L 1409 3309 
L 1409 2516 
L 750 2516 
L 750 3309 
z
" transform="scale(0.015625)"/>
      <path id="DejaVuSans-46" d="M 628 4666 
L 3309 4666 
L 3309 4134 
L 1259 4134 
L 1259 2759 
L 3109 2759 
L 3109 2228 
L 1259 2228 
L 1259 0 
L 628 0 
L 628 4666 
z
" transform="scale(0.015625)"/>
      <path id="DejaVuSans-2d" d="M 313 2009 
L 1997 2009 
L 1997 1497 
L 313 1497 
L 313 2009 
z
" transform="scale(0.015625)"/>
      <path id="DejaVuSans-53" d="M 3425 4513 
L 3425 3897 
Q 3066 4069 2747 4153 
Q 2428 4238 2131 4238 
Q 1616 4238 1336 4038 
Q 1056 3838 1056 3469 
Q 1056 3159 1242 3001 
Q 1428 2844 1947 2747 
L 2328 2669 
Q 3034 2534 3370 2195 
Q 3706 1856 3706 1288 
Q 3706 609 3251 259 
Q 2797 -91 1919 -91 
Q 1588 -91 1214 -16 
Q 841 59 441 206 
L 441 856 
Q 825 641 1194 531 
Q 1563 422 1919 422 
Q 2459 422 2753 634 
Q 3047 847 3047 1241 
Q 3047 1584 2836 1778 
Q 2625 1972 2144 2069 
L 1759 2144 
Q 1053 2284 737 2584 
Q 422 2884 422 3419 
Q 422 4038 858 4394 
Q 1294 4750 2059 4750 
Q 2388 4750 2728 4690 
Q 3069 4631 3425 4513 
z
" transform="scale(0.015625)"/>
      <path id="DejaVuSans-7a" d="M 353 3500 
L 3084 3500 
L 3084 2975 
L 922 459 
L 3084 459 
L 3084 0 
L 275 0 
L 275 525 
L 2438 3041 
L 353 3041 
L 353 3500 
z
" transform="scale(0.015625)"/>
      <path id="DejaVuSans-63" d="M 3122 3366 
L 3122 2828 
Q 2878 2963 2633 3030 
Q 2388 3097 2138 3097 
Q 1578 3097 1268 2742 
Q 959 2388 959 1747 
Q 959 1106 1268 751 
Q 1578 397 2138 397 
Q 2388 397 2633 464 
Q 2878 531 3122 666 
L 3122 134 
Q 2881 22 2623 -34 
Q 2366 -91 2075 -91 
Q 1284 -91 818 406 
Q 353 903 353 1747 
Q 353 2603 823 3093 
Q 1294 3584 2113 3584 
Q 2378 3584 2631 3529 
Q 2884 3475 3122 3366 
z
" transform="scale(0.015625)"/>
      <path id="DejaVuSans-2014" d="M 313 1978 
L 6088 1978 
L 6088 1528 
L 313 1528 
L 313 1978 
z
" transform="scale(0.015625)"/>
     </defs>
     <use xlink:href="#DejaVuSans-33"/>
     <use xlink:href="#DejaVuSans-44" x="63.623047"/>
     <use xlink:href="#DejaVuSans-20" x="140.625"/>
     <use xlink:href="#DejaVuSans-5a" x="172.412109"/>
     <use xlink:href="#DejaVuSans-2082" x="240.917969"/>
     <use xlink:href="#DejaVuSans-20" x="281.005859"/>
     <use xlink:href="#DejaVuSans-4c" x="312.792969"/>
     <use xlink:href="#DejaVuSans-47" x="368.505859"/>
     <use xlink:href="#DejaVuSans-54" x="442.371094"/>
     <use xlink:href="#DejaVuSans-3a" x="492.455078"/>
     <use xlink:href="#DejaVuSans-20" x="526.146484"/>
     <use xlink:href="#DejaVuSans-46" x="557.933594"/>
     <use xlink:href="#DejaVuSans-69" x="608.203125"/>
     <use xlink:href="#DejaVuSans-6e" x="635.986328"/>
     <use xlink:href="#DejaVuSans-69" x="699.365234"/>
     <use xlink:href="#DejaVuSans-74" x="727.148438"/>
     <use xlink:href="#DejaVuSans-65" x="766.357422"/>
     <use xlink:href="#DejaVuSans-2d" x="827.880859"/>
     <use xlink:href="#DejaVuSans-53" x="863.964844"/>
     <use xlink:href="#DejaVuSans-69" x="927.441406"/>
     <use xlink:href="#DejaVuSans-7a" x="955.224609"/>
     <use xlink:href="#DejaVuSans-65" x="1007.714844"/>
     <use xlink:href="#DejaVuSans-20" x="1069.238281"/>
     <use xlink:href="#DejaVuSans-53" x="1101.025391"/>
     <use xlink:href="#DejaVuSans-63" x="1164.501953"/>
     <use xlink:href="#DejaVuSans-61" x="1219.482422"/>
     <use xlink:href="#DejaVuSans-6c" x="1280.761719"/>
     <use xlink:href="#DejaVuSans-69" x="1308.544922"/>
     <use xlink:href="#DejaVuSans-6e" x="1336.328125"/>
     <use xlink:href="#DejaVuSans-67" x="1399.707031"/>
     <use xlink:href="#DejaVuSans-20" x="1463.183594"/>
     <use xlink:href="#DejaVuSans-2014" x="1494.970703"/>
     <use xlink:href="#DejaVuSans-20" x="1594.970703"/>
     <use xlink:href="#DejaVuSans-50" x="1626.757812"/>
     <use xlink:href="#DejaVuSans-6c" x="1687.060547"/>
     <use xlink:href="#DejaVuSans-61" x="1714.84375"/>
     <use xlink:href="#DejaVuSans-71" x="1776.123047"/>
     <use xlink:href="#DejaVuSans-75" x="1839.599609"/>
     <use xlink:href="#DejaVuSans-65" x="1902.978516"/>
     <use xlink:href="#DejaVuSans-74" x="1964.501953"/>
     <use xlink:href="#DejaVuSans-74" x="2003.710938"/>
     <use xlink:href="#DejaVuSans-65" x="2042.919922"/>
    </g>
   </g>
   <g id="legend_1">
    <g id="patch_7">
     <path d="M 50.103125 82.359375 
L 191.702656 82.359375 
Q 193.502656 82.359375 193.502656 80.559375 
L 193.502656 28.618125 
Q 193.502656 26.818125 191.702656 26.818125 
L 50.103125 26.818125 
Q 48.303125 26.818125 48.303125 28.618125 
L 48.303125 80.559375 
Q 48.303125 82.359375 50.103125 82.359375 
z
" style="fill: #ffffff; opacity: 0.8; stroke: #cccccc; stroke-linejoin: miter"/>
    </g>
    <g id="line2d_34">
     <path d="M 51.903125 34.106719 
L 60.903125 34.106719 
L 69.903125 34.106719 
" style="fill: none; stroke: #e94f37; stroke-opacity: 0.8; stroke-width: 2; stroke-linecap: square"/>
     <g>
      <use xlink:href="#m35bcd4938d" x="60.903125" y="34.106719" style="fill: #e94f37; fill-opacity: 0.8; stroke: #e94f37; stroke-opacity: 0.8"/>
     </g>
    </g>
    <g id="text_17">
     <!-- L = 4 -->
     <g transform="translate(77.103125 37.256719) scale(0.09 -0.09)">
      <defs>
       <path id="DejaVuSans-3d" d="M 678 2906 
L 4684 2906 
L 4684 2381 
L 678 2381 
L 678 2906 
z
M 678 1631 
L 4684 1631 
L 4684 1100 
L 678 1100 
L 678 1631 
z
" transform="scale(0.015625)"/>
      </defs>
      <use xlink:href="#DejaVuSans-4c"/>
      <use xlink:href="#DejaVuSans-20" x="55.712891"/>
      <use xlink:href="#DejaVuSans-3d" x="87.5"/>
      <use xlink:href="#DejaVuSans-20" x="171.289062"/>
      <use xlink:href="#DejaVuSans-34" x="203.076172"/>
     </g>
    </g>
    <g id="line2d_35">
     <path d="M 51.903125 47.317031 
L 60.903125 47.317031 
L 69.903125 47.317031 
" style="fill: none; stroke: #e67e22; stroke-opacity: 0.8; stroke-width: 2; stroke-linecap: square"/>
     <g>
      <use xlink:href="#m8e1c611fd1" x="60.903125" y="47.317031" style="fill: #e67e22; fill-opacity: 0.8; stroke: #e67e22; stroke-opacity: 0.8; stroke-linejoin: miter"/>
     </g>
    </g>
    <g id="text_18">
     <!-- L = 6 -->
     <g transform="translate(77.103125 50.467031) scale(0.09 -0.09)">
      <use xlink:href="#DejaVuSans-4c"/>
      <use xlink:href="#DejaVuSans-20" x="55.712891"/>
      <use xlink:href="#DejaVuSans-3d" x="87.5"/>
      <use xlink:href="#DejaVuSans-20" x="171.289062"/>
      <use xlink:href="#DejaVuSans-36" x="203.076172"/>
     </g>
    </g>
    <g id="line2d_36">
     <path d="M 51.903125 60.527344 
L 60.903125 60.527344 
L 69.903125 60.527344 
" style="fill: none; stroke: #f1c40f; stroke-opacity: 0.8; stroke-width: 2; stroke-linecap: square"/>
     <g>
      <use xlink:href="#m750753df65" x="60.903125" y="60.527344" style="fill: #f1c40f; fill-opacity: 0.8; stroke: #f1c40f; stroke-opacity: 0.8; stroke-linejoin: miter"/>
     </g>
    </g>
    <g id="text_19">
     <!-- L = 8 -->
     <g transform="translate(77.103125 63.677344) scale(0.09 -0.09)">
      <use xlink:href="#DejaVuSans-4c"/>
      <use xlink:href="#DejaVuSans-20" x="55.712891"/>
      <use xlink:href="#DejaVuSans-3d" x="87.5"/>
      <use xlink:href="#DejaVuSans-20" x="171.289062"/>
      <use xlink:href="#DejaVuSans-38" x="203.076172"/>
     </g>
    </g>
    <g id="line2d_37">
     <path d="M 51.903125 73.737656 
L 60.903125 73.737656 
L 69.903125 73.737656 
" style="fill: none; stroke: #1abc9c; stroke-opacity: 0.8; stroke-width: 2; stroke-linecap: square"/>
     <g>
      <use xlink:href="#m2f7e1be935" x="60.903125" y="73.737656" style="fill: #1abc9c; fill-opacity: 0.8; stroke: #1abc9c; stroke-opacity: 0.8; stroke-linejoin: miter"/>
     </g>
    </g>
    <g id="text_20">
     <!-- L = 16 -->
     <g transform="translate(77.103125 76.887656) scale(0.09 -0.09)">
      <use xlink:href="#DejaVuSans-4c"/>
      <use xlink:href="#DejaVuSans-20" x="55.712891"/>
      <use xlink:href="#DejaVuSans-3d" x="87.5"/>
      <use xlink:href="#DejaVuSans-20" x="171.289062"/>
      <use xlink:href="#DejaVuSans-31" x="203.076172"/>
      <use xlink:href="#DejaVuSans-36" x="266.699219"/>
     </g>
    </g>
    <g id="line2d_38">
     <path d="M 124.832656 34.106719 
L 133.832656 34.106719 
L 142.832656 34.106719 
" style="fill: none; stroke: #9b59b6; stroke-opacity: 0.8; stroke-width: 2; stroke-linecap: square"/>
     <g>
      <use xlink:href="#m0932752fce" x="133.832656" y="34.106719" style="fill: #9b59b6; fill-opacity: 0.8; stroke: #9b59b6; stroke-opacity: 0.8; stroke-linejoin: miter"/>
     </g>
    </g>
    <g id="text_21">
     <!-- L = 24 -->
     <g transform="translate(150.032656 37.256719) scale(0.09 -0.09)">
      <use xlink:href="#DejaVuSans-4c"/>
      <use xlink:href="#DejaVuSans-20" x="55.712891"/>
      <use xlink:href="#DejaVuSans-3d" x="87.5"/>
      <use xlink:href="#DejaVuSans-20" x="171.289062"/>
      <use xlink:href="#DejaVuSans-32" x="203.076172"/>
      <use xlink:href="#DejaVuSans-34" x="266.699219"/>
     </g>
    </g>
    <g id="line2d_39">
     <path d="M 124.832656 47.317031 
L 133.832656 47.317031 
L 142.832656 47.317031 
" style="fill: none; stroke: #e84393; stroke-opacity: 0.8; stroke-width: 2; stroke-linecap: square"/>
     <g>
      <use xlink:href="#m65fd796628" x="133.832656" y="47.317031" style="fill: #e84393; fill-opacity: 0.8; stroke: #e84393; stroke-opacity: 0.8; stroke-linejoin: bevel"/>
     </g>
    </g>
    <g id="text_22">
     <!-- L = 32 -->
     <g transform="translate(150.032656 50.467031) scale(0.09 -0.09)">
      <use xlink:href="#DejaVuSans-4c"/>
      <use xlink:href="#DejaVuSans-20" x="55.712891"/>
      <use xlink:href="#DejaVuSans-3d" x="87.5"/>
      <use xlink:href="#DejaVuSans-20" x="171.289062"/>
      <use xlink:href="#DejaVuSans-33" x="203.076172"/>
      <use xlink:href="#DejaVuSans-32" x="266.699219"/>
     </g>
    </g>
    <g id="line2d_40">
     <path d="M 124.832656 60.61875 
L 133.832656 60.61875 
L 142.832656 60.61875 
" style="fill: none; stroke-dasharray: 3.7,1.6; stroke-dashoffset: 0; stroke: #808080; stroke-opacity: 0.5"/>
    </g>
    <g id="text_23">
     <!-- $\beta_c \approx 0.76$ -->
     <g transform="translate(150.032656 63.76875) scale(0.09 -0.09)">
      <defs>
       <path id="DejaVuSans-Oblique-63" d="M 3431 3366 
L 3316 2797 
Q 3109 2947 2876 3022 
Q 2644 3097 2394 3097 
Q 2119 3097 1870 3000 
Q 1622 2903 1453 2725 
Q 1184 2453 1037 2087 
Q 891 1722 891 1331 
Q 891 859 1127 628 
Q 1363 397 1844 397 
Q 2081 397 2348 469 
Q 2616 541 2906 684 
L 2797 116 
Q 2547 13 2283 -39 
Q 2019 -91 1741 -91 
Q 1044 -91 669 257 
Q 294 606 294 1253 
Q 294 1797 489 2255 
Q 684 2713 1069 3078 
Q 1331 3328 1684 3456 
Q 2038 3584 2456 3584 
Q 2700 3584 2940 3529 
Q 3181 3475 3431 3366 
z
" transform="scale(0.015625)"/>
       <path id="DejaVuSans-2248" d="M 4684 1947 
L 4684 1388 
Q 4356 1144 4076 1036 
Q 3797 928 3494 928 
Q 3150 928 2694 1113 
Q 2663 1125 2641 1134 
Q 2622 1141 2575 1159 
Q 2091 1350 1797 1350 
Q 1522 1350 1253 1231 
Q 984 1113 678 850 
L 678 1409 
Q 1006 1653 1286 1761 
Q 1566 1869 1869 1869 
Q 2213 1869 2672 1684 
Q 2706 1669 2722 1663 
Q 2741 1656 2788 1638 
Q 3272 1447 3566 1447 
Q 3834 1447 4098 1564 
Q 4363 1681 4684 1947 
z
M 4684 3163 
L 4684 2606 
Q 4356 2359 4076 2251 
Q 3797 2144 3494 2144 
Q 3150 2144 2694 2328 
Q 2663 2341 2641 2350 
Q 2622 2356 2575 2375 
Q 2091 2566 1797 2566 
Q 1522 2566 1253 2447 
Q 984 2328 678 2069 
L 678 2625 
Q 1006 2869 1286 2976 
Q 1566 3084 1869 3084 
Q 2213 3084 2672 2900 
Q 2703 2888 2719 2881 
Q 2741 2872 2788 2853 
Q 3272 2663 3566 2663 
Q 3834 2663 4098 2780 
Q 4363 2897 4684 3163 
z
" transform="scale(0.015625)"/>
      </defs>
      <use xlink:href="#DejaVuSans-Oblique-3b2" transform="translate(0 0.390625)"/>
      <use xlink:href="#DejaVuSans-Oblique-63" transform="translate(63.818359 -16.015625) scale(0.7)"/>
      <use xlink:href="#DejaVuSans-2248" transform="translate(124.521484 0.390625)"/>
      <use xlink:href="#DejaVuSans-30" transform="translate(227.792969 0.390625)"/>
      <use xlink:href="#DejaVuSans-2e" transform="translate(291.416016 0.390625)"/>
      <use xlink:href="#DejaVuSans-37" transform="translate(315.453125 0.390625)"/>
      <use xlink:href="#DejaVuSans-36" transform="translate(379.076172 0.390625)"/>
     </g>
    </g>
   </g>
  </g>
 </g>
 <defs>
  <clipPath id="p79d25636af">
   <rect x="43.803125" y="22.318125" width="558" height="332.64"/>
  </clipPath>
 </defs>
</svg>
