<?xml version="1.0" encoding="utf-8" standalone="no"?>
<!DOCTYPE svg PUBLIC "-//W3C//DTD SVG 1.1//EN"
  "http://www.w3.org/Graphics/SVG/1.1/DTD/svg11.dtd">
<svg xmlns:xlink="http://www.w3.org/1999/xlink" width="720pt" height="432pt" viewBox="0 0 720 432" xmlns="http://www.w3.org/2000/svg" version="1.1">
 <metadata>
  <rdf:RDF xmlns:dc="http://purl.org/dc/elements/1.1/" xmlns:cc="http://creativecommons.org/ns#" xmlns:rdf="http://www.w3.org/1999/02/22-rdf-syntax-ns#">
   <cc:Work>
    <dc:type rdf:resource="http://purl.org/dc/dcmitype/StillImage"/>
    <dc:date>2026-06-29T10:14:17.584510</dc:date>
    <dc:format>image/svg+xml</dc:format>
    <dc:creator>
     <cc:Agent>
      <dc:title>Matplotlib v3.9.4, https://matplotlib.org/</dc:title>
     </cc:Agent>
    </dc:creator>
   </cc:Work>
  </rdf:RDF>
 </metadata>
 <defs>
  <style type="text/css">*{stroke-linejoin: round; stroke-linecap: butt}</style>
 </defs>
 <g id="figure_1">
  <g id="patch_1">
   <path d="M 0 432 
L 720 432 
L 720 0 
L 0 0 
z
" style="fill: #ffffff"/>
  </g>
  <g id="axes_1">
   <g id="patch_2">
    <path d="M 62.435 388.24 
L 709.2 388.24 
L 709.2 27.6 
L 62.435 27.6 
z
" style="fill: #ffffff"/>
   </g>
   <g id="matplotlib.axis_1">
    <g id="xtick_1">
     <g id="line2d_1">
      <path d="M 91.833409 388.24 
L 91.833409 27.6 
" clip-path="url(#p7cbd6a2b3b)" style="fill: none; stroke: #b0b0b0; stroke-opacity: 0.3; stroke-width: 0.8; stroke-linecap: square"/>
     </g>
     <g id="line2d_2">
      <defs>
       <path id="mf3acac6703" d="M 0 0 
L 0 3.5 
" style="stroke: #000000; stroke-width: 0.8"/>
      </defs>
      <g>
       <use xlink:href="#mf3acac6703" x="91.833409" y="388.24" style="stroke: #000000; stroke-width: 0.8"/>
      </g>
     </g>
     <g id="text_1">
      <!-- 0.70 -->
      <g transform="translate(80.700597 402.838437) scale(0.1 -0.1)">
       <defs>
        <path id="DejaVuSans-30" d="M 2034 4250 
Q 1547 4250 1301 3770 
Q 1056 3291 1056 2328 
Q 1056 1369 1301 889 
Q 1547 409 2034 409 
Q 2525 409 2770 889 
Q 3016 1369 3016 2328 
Q 3016 3291 2770 3770 
Q 2525 4250 2034 4250 
z
M 2034 4750 
Q 2819 4750 3233 4129 
Q 3647 3509 3647 2328 
Q 3647 1150 3233 529 
Q 2819 -91 2034 -91 
Q 1250 -91 836 529 
Q 422 1150 422 2328 
Q 422 3509 836 4129 
Q 1250 4750 2034 4750 
z
" transform="scale(0.015625)"/>
        <path id="DejaVuSans-2e" d="M 684 794 
L 1344 794 
L 1344 0 
L 684 0 
L 684 794 
z
" transform="scale(0.015625)"/>
        <path id="DejaVuSans-37" d="M 525 4666 
L 3525 4666 
L 3525 4397 
L 1831 0 
L 1172 0 
L 2766 4134 
L 525 4134 
L 525 4666 
z
" transform="scale(0.015625)"/>
       </defs>
       <use xlink:href="#DejaVuSans-30"/>
       <use xlink:href="#DejaVuSans-2e" x="63.623047"/>
       <use xlink:href="#DejaVuSans-37" x="95.410156"/>
       <use xlink:href="#DejaVuSans-30" x="159.033203"/>
      </g>
     </g>
    </g>
    <g id="xtick_2">
     <g id="line2d_3">
      <path d="M 189.828106 388.24 
L 189.828106 27.6 
" clip-path="url(#p7cbd6a2b3b)" style="fill: none; stroke: #b0b0b0; stroke-opacity: 0.3; stroke-width: 0.8; stroke-linecap: square"/>
     </g>
     <g id="line2d_4">
      <g>
       <use xlink:href="#mf3acac6703" x="189.828106" y="388.24" style="stroke: #000000; stroke-width: 0.8"/>
      </g>
     </g>
     <g id="text_2">
      <!-- 0.72 -->
      <g transform="translate(178.695294 402.838437) scale(0.1 -0.1)">
       <defs>
        <path id="DejaVuSans-32" d="M 1228 531 
L 3431 531 
L 3431 0 
L 469 0 
L 469 531 
Q 828 903 1448 1529 
Q 2069 2156 2228 2338 
Q 2531 2678 2651 2914 
Q 2772 3150 2772 3378 
Q 2772 3750 2511 3984 
Q 2250 4219 1831 4219 
Q 1534 4219 1204 4116 
Q 875 4013 500 3803 
L 500 4441 
Q 881 4594 1212 4672 
Q 1544 4750 1819 4750 
Q 2544 4750 2975 4387 
Q 3406 4025 3406 3419 
Q 3406 3131 3298 2873 
Q 3191 2616 2906 2266 
Q 2828 2175 2409 1742 
Q 1991 1309 1228 531 
z
" transform="scale(0.015625)"/>
       </defs>
       <use xlink:href="#DejaVuSans-30"/>
       <use xlink:href="#DejaVuSans-2e" x="63.623047"/>
       <use xlink:href="#DejaVuSans-37" x="95.410156"/>
       <use xlink:href="#DejaVuSans-32" x="159.033203"/>
      </g>
     </g>
    </g>
    <g id="xtick_3">
     <g id="line2d_5">
      <path d="M 287.822803 388.24 
L 287.822803 27.6 
" clip-path="url(#p7cbd6a2b3b)" style="fill: none; stroke: #b0b0b0; stroke-opacity: 0.3; stroke-width: 0.8; stroke-linecap: square"/>
     </g>
     <g id="line2d_6">
      <g>
       <use xlink:href="#mf3acac6703" x="287.822803" y="388.24" style="stroke: #000000; stroke-width: 0.8"/>
      </g>
     </g>
     <g id="text_3">
      <!-- 0.74 -->
      <g transform="translate(276.689991 402.838437) scale(0.1 -0.1)">
       <defs>
        <path id="DejaVuSans-34" d="M 2419 4116 
L 825 1625 
L 2419 1625 
L 2419 4116 
z
M 2253 4666 
L 3047 4666 
L 3047 1625 
L 3713 1625 
L 3713 1100 
L 3047 1100 
L 3047 0 
L 2419 0 
L 2419 1100 
L 313 1100 
L 313 1709 
L 2253 4666 
z
" transform="scale(0.015625)"/>
       </defs>
       <use xlink:href="#DejaVuSans-30"/>
       <use xlink:href="#DejaVuSans-2e" x="63.623047"/>
       <use xlink:href="#DejaVuSans-37" x="95.410156"/>
       <use xlink:href="#DejaVuSans-34" x="159.033203"/>
      </g>
     </g>
    </g>
    <g id="xtick_4">
     <g id="line2d_7">
      <path d="M 385.8175 388.24 
L 385.8175 27.6 
" clip-path="url(#p7cbd6a2b3b)" style="fill: none; stroke: #b0b0b0; stroke-opacity: 0.3; stroke-width: 0.8; stroke-linecap: square"/>
     </g>
     <g id="line2d_8">
      <g>
       <use xlink:href="#mf3acac6703" x="385.8175" y="388.24" style="stroke: #000000; stroke-width: 0.8"/>
      </g>
     </g>
     <g id="text_4">
      <!-- 0.76 -->
      <g transform="translate(374.684688 402.838437) scale(0.1 -0.1)">
       <defs>
        <path id="DejaVuSans-36" d="M 2113 2584 
Q 1688 2584 1439 2293 
Q 1191 2003 1191 1497 
Q 1191 994 1439 701 
Q 1688 409 2113 409 
Q 2538 409 2786 701 
Q 3034 994 3034 1497 
Q 3034 2003 2786 2293 
Q 2538 2584 2113 2584 
z
M 3366 4563 
L 3366 3988 
Q 3128 4100 2886 4159 
Q 2644 4219 2406 4219 
Q 1781 4219 1451 3797 
Q 1122 3375 1075 2522 
Q 1259 2794 1537 2939 
Q 1816 3084 2150 3084 
Q 2853 3084 3261 2657 
Q 3669 2231 3669 1497 
Q 3669 778 3244 343 
Q 2819 -91 2113 -91 
Q 1303 -91 875 529 
Q 447 1150 447 2328 
Q 447 3434 972 4092 
Q 1497 4750 2381 4750 
Q 2619 4750 2861 4703 
Q 3103 4656 3366 4563 
z
" transform="scale(0.015625)"/>
       </defs>
       <use xlink:href="#DejaVuSans-30"/>
       <use xlink:href="#DejaVuSans-2e" x="63.623047"/>
       <use xlink:href="#DejaVuSans-37" x="95.410156"/>
       <use xlink:href="#DejaVuSans-36" x="159.033203"/>
      </g>
     </g>
    </g>
    <g id="xtick_5">
     <g id="line2d_9">
      <path d="M 483.812197 388.24 
L 483.812197 27.6 
" clip-path="url(#p7cbd6a2b3b)" style="fill: none; stroke: #b0b0b0; stroke-opacity: 0.3; stroke-width: 0.8; stroke-linecap: square"/>
     </g>
     <g id="line2d_10">
      <g>
       <use xlink:href="#mf3acac6703" x="483.812197" y="388.24" style="stroke: #000000; stroke-width: 0.8"/>
      </g>
     </g>
     <g id="text_5">
      <!-- 0.78 -->
      <g transform="translate(472.679384 402.838437) scale(0.1 -0.1)">
       <defs>
        <path id="DejaVuSans-38" d="M 2034 2216 
Q 1584 2216 1326 1975 
Q 1069 1734 1069 1313 
Q 1069 891 1326 650 
Q 1584 409 2034 409 
Q 2484 409 2743 651 
Q 3003 894 3003 1313 
Q 3003 1734 2745 1975 
Q 2488 2216 2034 2216 
z
M 1403 2484 
Q 997 2584 770 2862 
Q 544 3141 544 3541 
Q 544 4100 942 4425 
Q 1341 4750 2034 4750 
Q 2731 4750 3128 4425 
Q 3525 4100 3525 3541 
Q 3525 3141 3298 2862 
Q 3072 2584 2669 2484 
Q 3125 2378 3379 2068 
Q 3634 1759 3634 1313 
Q 3634 634 3220 271 
Q 2806 -91 2034 -91 
Q 1263 -91 848 271 
Q 434 634 434 1313 
Q 434 1759 690 2068 
Q 947 2378 1403 2484 
z
M 1172 3481 
Q 1172 3119 1398 2916 
Q 1625 2713 2034 2713 
Q 2441 2713 2670 2916 
Q 2900 3119 2900 3481 
Q 2900 3844 2670 4047 
Q 2441 4250 2034 4250 
Q 1625 4250 1398 4047 
Q 1172 3844 1172 3481 
z
" transform="scale(0.015625)"/>
       </defs>
       <use xlink:href="#DejaVuSans-30"/>
       <use xlink:href="#DejaVuSans-2e" x="63.623047"/>
       <use xlink:href="#DejaVuSans-37" x="95.410156"/>
       <use xlink:href="#DejaVuSans-38" x="159.033203"/>
      </g>
     </g>
    </g>
    <g id="xtick_6">
     <g id="line2d_11">
      <path d="M 581.806894 388.24 
L 581.806894 27.6 
" clip-path="url(#p7cbd6a2b3b)" style="fill: none; stroke: #b0b0b0; stroke-opacity: 0.3; stroke-width: 0.8; stroke-linecap: square"/>
     </g>
     <g id="line2d_12">
      <g>
       <use xlink:href="#mf3acac6703" x="581.806894" y="388.24" style="stroke: #000000; stroke-width: 0.8"/>
      </g>
     </g>
     <g id="text_6">
      <!-- 0.80 -->
      <g transform="translate(570.674081 402.838437) scale(0.1 -0.1)">
       <use xlink:href="#DejaVuSans-30"/>
       <use xlink:href="#DejaVuSans-2e" x="63.623047"/>
       <use xlink:href="#DejaVuSans-38" x="95.410156"/>
       <use xlink:href="#DejaVuSans-30" x="159.033203"/>
      </g>
     </g>
    </g>
    <g id="xtick_7">
     <g id="line2d_13">
      <path d="M 679.801591 388.24 
L 679.801591 27.6 
" clip-path="url(#p7cbd6a2b3b)" style="fill: none; stroke: #b0b0b0; stroke-opacity: 0.3; stroke-width: 0.8; stroke-linecap: square"/>
     </g>
     <g id="line2d_14">
      <g>
       <use xlink:href="#mf3acac6703" x="679.801591" y="388.24" style="stroke: #000000; stroke-width: 0.8"/>
      </g>
     </g>
     <g id="text_7">
      <!-- 0.82 -->
      <g transform="translate(668.668778 402.838437) scale(0.1 -0.1)">
       <use xlink:href="#DejaVuSans-30"/>
       <use xlink:href="#DejaVuSans-2e" x="63.623047"/>
       <use xlink:href="#DejaVuSans-38" x="95.410156"/>
       <use xlink:href="#DejaVuSans-32" x="159.033203"/>
      </g>
     </g>
    </g>
    <g id="text_8">
     <!-- β -->
     <g transform="translate(381.98875 418.11125) scale(0.12 -0.12)">
      <defs>
       <path id="DejaVuSans-3b2" d="M 1178 216 
L 1178 -1331 
L 600 -1331 
L 600 3478 
Q 600 4903 1931 4903 
Q 3288 4903 3288 3700 
Q 3288 2844 2750 2531 
Q 3625 2250 3625 1416 
Q 3625 -66 2119 -66 
Q 1456 -66 1178 216 
z
M 1178 966 
Q 1525 425 2141 425 
Q 3041 425 3041 1406 
Q 3041 2288 1591 2219 
L 1591 2750 
Q 2725 2750 2725 3750 
Q 2725 4434 1994 4434 
Q 1178 4434 1178 3459 
L 1178 966 
z
" transform="scale(0.015625)"/>
      </defs>
      <use xlink:href="#DejaVuSans-3b2"/>
     </g>
    </g>
   </g>
   <g id="matplotlib.axis_2">
    <g id="ytick_1">
     <g id="line2d_15">
      <path d="M 62.435 354.654293 
L 709.2 354.654293 
" clip-path="url(#p7cbd6a2b3b)" style="fill: none; stroke: #b0b0b0; stroke-opacity: 0.3; stroke-width: 0.8; stroke-linecap: square"/>
     </g>
     <g id="line2d_16">
      <defs>
       <path id="m9325df8add" d="M 0 0 
L -3.5 0 
" style="stroke: #000000; stroke-width: 0.8"/>
      </defs>
      <g>
       <use xlink:href="#m9325df8add" x="62.435" y="354.654293" style="stroke: #000000; stroke-width: 0.8"/>
      </g>
     </g>
     <g id="text_9">
      <!-- 0.800 -->
      <g transform="translate(26.806875 358.453512) scale(0.1 -0.1)">
       <use xlink:href="#DejaVuSans-30"/>
       <use xlink:href="#DejaVuSans-2e" x="63.623047"/>
       <use xlink:href="#DejaVuSans-38" x="95.410156"/>
       <use xlink:href="#DejaVuSans-30" x="159.033203"/>
       <use xlink:href="#DejaVuSans-30" x="222.65625"/>
      </g>
     </g>
    </g>
    <g id="ytick_2">
     <g id="line2d_17">
      <path d="M 62.435 311.412731 
L 709.2 311.412731 
" clip-path="url(#p7cbd6a2b3b)" style="fill: none; stroke: #b0b0b0; stroke-opacity: 0.3; stroke-width: 0.8; stroke-linecap: square"/>
     </g>
     <g id="line2d_18">
      <g>
       <use xlink:href="#m9325df8add" x="62.435" y="311.412731" style="stroke: #000000; stroke-width: 0.8"/>
      </g>
     </g>
     <g id="text_10">
      <!-- 0.825 -->
      <g transform="translate(26.806875 315.21195) scale(0.1 -0.1)">
       <defs>
        <path id="DejaVuSans-35" d="M 691 4666 
L 3169 4666 
L 3169 4134 
L 1269 4134 
L 1269 2991 
Q 1406 3038 1543 3061 
Q 1681 3084 1819 3084 
Q 2600 3084 3056 2656 
Q 3513 2228 3513 1497 
Q 3513 744 3044 326 
Q 2575 -91 1722 -91 
Q 1428 -91 1123 -41 
Q 819 9 494 109 
L 494 744 
Q 775 591 1075 516 
Q 1375 441 1709 441 
Q 2250 441 2565 725 
Q 2881 1009 2881 1497 
Q 2881 1984 2565 2268 
Q 2250 2553 1709 2553 
Q 1456 2553 1204 2497 
Q 953 2441 691 2322 
L 691 4666 
z
" transform="scale(0.015625)"/>
       </defs>
       <use xlink:href="#DejaVuSans-30"/>
       <use xlink:href="#DejaVuSans-2e" x="63.623047"/>
       <use xlink:href="#DejaVuSans-38" x="95.410156"/>
       <use xlink:href="#DejaVuSans-32" x="159.033203"/>
       <use xlink:href="#DejaVuSans-35" x="222.65625"/>
      </g>
     </g>
    </g>
    <g id="ytick_3">
     <g id="line2d_19">
      <path d="M 62.435 268.17117 
L 709.2 268.17117 
" clip-path="url(#p7cbd6a2b3b)" style="fill: none; stroke: #b0b0b0; stroke-opacity: 0.3; stroke-width: 0.8; stroke-linecap: square"/>
     </g>
     <g id="line2d_20">
      <g>
       <use xlink:href="#m9325df8add" x="62.435" y="268.17117" style="stroke: #000000; stroke-width: 0.8"/>
      </g>
     </g>
     <g id="text_11">
      <!-- 0.850 -->
      <g transform="translate(26.806875 271.970389) scale(0.1 -0.1)">
       <use xlink:href="#DejaVuSans-30"/>
       <use xlink:href="#DejaVuSans-2e" x="63.623047"/>
       <use xlink:href="#DejaVuSans-38" x="95.410156"/>
       <use xlink:href="#DejaVuSans-35" x="159.033203"/>
       <use xlink:href="#DejaVuSans-30" x="222.65625"/>
      </g>
     </g>
    </g>
    <g id="ytick_4">
     <g id="line2d_21">
      <path d="M 62.435 224.929609 
L 709.2 224.929609 
" clip-path="url(#p7cbd6a2b3b)" style="fill: none; stroke: #b0b0b0; stroke-opacity: 0.3; stroke-width: 0.8; stroke-linecap: square"/>
     </g>
     <g id="line2d_22">
      <g>
       <use xlink:href="#m9325df8add" x="62.435" y="224.929609" style="stroke: #000000; stroke-width: 0.8"/>
      </g>
     </g>
     <g id="text_12">
      <!-- 0.875 -->
      <g transform="translate(26.806875 228.728827) scale(0.1 -0.1)">
       <use xlink:href="#DejaVuSans-30"/>
       <use xlink:href="#DejaVuSans-2e" x="63.623047"/>
       <use xlink:href="#DejaVuSans-38" x="95.410156"/>
       <use xlink:href="#DejaVuSans-37" x="159.033203"/>
       <use xlink:href="#DejaVuSans-35" x="222.65625"/>
      </g>
     </g>
    </g>
    <g id="ytick_5">
     <g id="line2d_23">
      <path d="M 62.435 181.688047 
L 709.2 181.688047 
" clip-path="url(#p7cbd6a2b3b)" style="fill: none; stroke: #b0b0b0; stroke-opacity: 0.3; stroke-width: 0.8; stroke-linecap: square"/>
     </g>
     <g id="line2d_24">
      <g>
       <use xlink:href="#m9325df8add" x="62.435" y="181.688047" style="stroke: #000000; stroke-width: 0.8"/>
      </g>
     </g>
     <g id="text_13">
      <!-- 0.900 -->
      <g transform="translate(26.806875 185.487266) scale(0.1 -0.1)">
       <defs>
        <path id="DejaVuSans-39" d="M 703 97 
L 703 672 
Q 941 559 1184 500 
Q 1428 441 1663 441 
Q 2288 441 2617 861 
Q 2947 1281 2994 2138 
Q 2813 1869 2534 1725 
Q 2256 1581 1919 1581 
Q 1219 1581 811 2004 
Q 403 2428 403 3163 
Q 403 3881 828 4315 
Q 1253 4750 1959 4750 
Q 2769 4750 3195 4129 
Q 3622 3509 3622 2328 
Q 3622 1225 3098 567 
Q 2575 -91 1691 -91 
Q 1453 -91 1209 -44 
Q 966 3 703 97 
z
M 1959 2075 
Q 2384 2075 2632 2365 
Q 2881 2656 2881 3163 
Q 2881 3666 2632 3958 
Q 2384 4250 1959 4250 
Q 1534 4250 1286 3958 
Q 1038 3666 1038 3163 
Q 1038 2656 1286 2365 
Q 1534 2075 1959 2075 
z
" transform="scale(0.015625)"/>
       </defs>
       <use xlink:href="#DejaVuSans-30"/>
       <use xlink:href="#DejaVuSans-2e" x="63.623047"/>
       <use xlink:href="#DejaVuSans-39" x="95.410156"/>
       <use xlink:href="#DejaVuSans-30" x="159.033203"/>
       <use xlink:href="#DejaVuSans-30" x="222.65625"/>
      </g>
     </g>
    </g>
    <g id="ytick_6">
     <g id="line2d_25">
      <path d="M 62.435 138.446486 
L 709.2 138.446486 
" clip-path="url(#p7cbd6a2b3b)" style="fill: none; stroke: #b0b0b0; stroke-opacity: 0.3; stroke-width: 0.8; stroke-linecap: square"/>
     </g>
     <g id="line2d_26">
      <g>
       <use xlink:href="#m9325df8add" x="62.435" y="138.446486" style="stroke: #000000; stroke-width: 0.8"/>
      </g>
     </g>
     <g id="text_14">
      <!-- 0.925 -->
      <g transform="translate(26.806875 142.245705) scale(0.1 -0.1)">
       <use xlink:href="#DejaVuSans-30"/>
       <use xlink:href="#DejaVuSans-2e" x="63.623047"/>
       <use xlink:href="#DejaVuSans-39" x="95.410156"/>
       <use xlink:href="#DejaVuSans-32" x="159.033203"/>
       <use xlink:href="#DejaVuSans-35" x="222.65625"/>
      </g>
     </g>
    </g>
    <g id="ytick_7">
     <g id="line2d_27">
      <path d="M 62.435 95.204925 
L 709.2 95.204925 
" clip-path="url(#p7cbd6a2b3b)" style="fill: none; stroke: #b0b0b0; stroke-opacity: 0.3; stroke-width: 0.8; stroke-linecap: square"/>
     </g>
     <g id="line2d_28">
      <g>
       <use xlink:href="#m9325df8add" x="62.435" y="95.204925" style="stroke: #000000; stroke-width: 0.8"/>
      </g>
     </g>
     <g id="text_15">
      <!-- 0.950 -->
      <g transform="translate(26.806875 99.004143) scale(0.1 -0.1)">
       <use xlink:href="#DejaVuSans-30"/>
       <use xlink:href="#DejaVuSans-2e" x="63.623047"/>
       <use xlink:href="#DejaVuSans-39" x="95.410156"/>
       <use xlink:href="#DejaVuSans-35" x="159.033203"/>
       <use xlink:href="#DejaVuSans-30" x="222.65625"/>
      </g>
     </g>
    </g>
    <g id="ytick_8">
     <g id="line2d_29">
      <path d="M 62.435 51.963363 
L 709.2 51.963363 
" clip-path="url(#p7cbd6a2b3b)" style="fill: none; stroke: #b0b0b0; stroke-opacity: 0.3; stroke-width: 0.8; stroke-linecap: square"/>
     </g>
     <g id="line2d_30">
      <g>
       <use xlink:href="#m9325df8add" x="62.435" y="51.963363" style="stroke: #000000; stroke-width: 0.8"/>
      </g>
     </g>
     <g id="text_16">
      <!-- 0.975 -->
      <g transform="translate(26.806875 55.762582) scale(0.1 -0.1)">
       <use xlink:href="#DejaVuSans-30"/>
       <use xlink:href="#DejaVuSans-2e" x="63.623047"/>
       <use xlink:href="#DejaVuSans-39" x="95.410156"/>
       <use xlink:href="#DejaVuSans-37" x="159.033203"/>
       <use xlink:href="#DejaVuSans-35" x="222.65625"/>
      </g>
     </g>
    </g>
    <g id="text_17">
     <!-- ⟨P⟩ -->
     <g transform="translate(20.31125 216.219687) rotate(-90) scale(0.12 -0.12)">
      <defs>
       <path id="DejaVuSans-27e8" d="M 572 2006 
L 1453 4856 
L 1984 4856 
L 1103 2006 
L 1984 -844 
L 1453 -844 
L 572 2006 
z
" transform="scale(0.015625)"/>
       <path id="DejaVuSans-50" d="M 1259 4147 
L 1259 2394 
L 2053 2394 
Q 2494 2394 2734 2622 
Q 2975 2850 2975 3272 
Q 2975 3691 2734 3919 
Q 2494 4147 2053 4147 
L 1259 4147 
z
M 628 4666 
L 2053 4666 
Q 2838 4666 3239 4311 
Q 3641 3956 3641 3272 
Q 3641 2581 3239 2228 
Q 2838 1875 2053 1875 
L 1259 1875 
L 1259 0 
L 628 0 
L 628 4666 
z
" transform="scale(0.015625)"/>
       <path id="DejaVuSans-27e9" d="M 1925 2006 
L 1044 -844 
L 513 -844 
L 1394 2006 
L 513 4856 
L 1044 4856 
L 1925 2006 
z
" transform="scale(0.015625)"/>
      </defs>
      <use xlink:href="#DejaVuSans-27e8"/>
      <use xlink:href="#DejaVuSans-50" x="39.013672"/>
      <use xlink:href="#DejaVuSans-27e9" x="99.316406"/>
     </g>
    </g>
   </g>
   <g id="line2d_31">
    <path d="M 91.833409 371.847273 
L 116.332083 353.088047 
L 140.830758 334.086129 
L 165.329432 313.119422 
L 189.828106 287.913195 
L 214.32678 260.933839 
L 238.825455 231.249093 
L 263.324129 199.202591 
L 287.822803 170.948465 
L 312.321477 145.495581 
L 336.820152 124.963182 
L 361.318826 110.368974 
L 385.8175 97.855587 
L 410.316174 88.648513 
L 434.814848 80.472795 
L 459.313523 74.528026 
L 483.812197 69.284176 
L 508.310871 64.841061 
L 532.809545 60.859999 
L 557.30822 57.274913 
L 581.806894 54.036976 
L 606.305568 51.349018 
L 630.804242 48.702004 
L 655.302917 46.316331 
L 679.801591 43.992727 
" clip-path="url(#p7cbd6a2b3b)" style="fill: none; stroke: #1f77b4; stroke-width: 1.5; stroke-linecap: square"/>
    <defs>
     <path id="mfa245decab" d="M 0 2 
C 0.530406 2 1.03916 1.789267 1.414214 1.414214 
C 1.789267 1.03916 2 0.530406 2 0 
C 2 -0.530406 1.789267 -1.03916 1.414214 -1.414214 
C 1.03916 -1.789267 0.530406 -2 0 -2 
C -0.530406 -2 -1.03916 -1.789267 -1.414214 -1.414214 
C -1.789267 -1.03916 -2 -0.530406 -2 0 
C -2 0.530406 -1.789267 1.03916 -1.414214 1.414214 
C -1.03916 1.789267 -0.530406 2 0 2 
z
" style="stroke: #1f77b4"/>
    </defs>
    <g clip-path="url(#p7cbd6a2b3b)">
     <use xlink:href="#mfa245decab" x="91.833409" y="371.847273" style="fill: #1f77b4; stroke: #1f77b4"/>
     <use xlink:href="#mfa245decab" x="116.332083" y="353.088047" style="fill: #1f77b4; stroke: #1f77b4"/>
     <use xlink:href="#mfa245decab" x="140.830758" y="334.086129" style="fill: #1f77b4; stroke: #1f77b4"/>
     <use xlink:href="#mfa245decab" x="165.329432" y="313.119422" style="fill: #1f77b4; stroke: #1f77b4"/>
     <use xlink:href="#mfa245decab" x="189.828106" y="287.913195" style="fill: #1f77b4; stroke: #1f77b4"/>
     <use xlink:href="#mfa245decab" x="214.32678" y="260.933839" style="fill: #1f77b4; stroke: #1f77b4"/>
     <use xlink:href="#mfa245decab" x="238.825455" y="231.249093" style="fill: #1f77b4; stroke: #1f77b4"/>
     <use xlink:href="#mfa245decab" x="263.324129" y="199.202591" style="fill: #1f77b4; stroke: #1f77b4"/>
     <use xlink:href="#mfa245decab" x="287.822803" y="170.948465" style="fill: #1f77b4; stroke: #1f77b4"/>
     <use xlink:href="#mfa245decab" x="312.321477" y="145.495581" style="fill: #1f77b4; stroke: #1f77b4"/>
     <use xlink:href="#mfa245decab" x="336.820152" y="124.963182" style="fill: #1f77b4; stroke: #1f77b4"/>
     <use xlink:href="#mfa245decab" x="361.318826" y="110.368974" style="fill: #1f77b4; stroke: #1f77b4"/>
     <use xlink:href="#mfa245decab" x="385.8175" y="97.855587" style="fill: #1f77b4; stroke: #1f77b4"/>
     <use xlink:href="#mfa245decab" x="410.316174" y="88.648513" style="fill: #1f77b4; stroke: #1f77b4"/>
     <use xlink:href="#mfa245decab" x="434.814848" y="80.472795" style="fill: #1f77b4; stroke: #1f77b4"/>
     <use xlink:href="#mfa245decab" x="459.313523" y="74.528026" style="fill: #1f77b4; stroke: #1f77b4"/>
     <use xlink:href="#mfa245decab" x="483.812197" y="69.284176" style="fill: #1f77b4; stroke: #1f77b4"/>
     <use xlink:href="#mfa245decab" x="508.310871" y="64.841061" style="fill: #1f77b4; stroke: #1f77b4"/>
     <use xlink:href="#mfa245decab" x="532.809545" y="60.859999" style="fill: #1f77b4; stroke: #1f77b4"/>
     <use xlink:href="#mfa245decab" x="557.30822" y="57.274913" style="fill: #1f77b4; stroke: #1f77b4"/>
     <use xlink:href="#mfa245decab" x="581.806894" y="54.036976" style="fill: #1f77b4; stroke: #1f77b4"/>
     <use xlink:href="#mfa245decab" x="606.305568" y="51.349018" style="fill: #1f77b4; stroke: #1f77b4"/>
     <use xlink:href="#mfa245decab" x="630.804242" y="48.702004" style="fill: #1f77b4; stroke: #1f77b4"/>
     <use xlink:href="#mfa245decab" x="655.302917" y="46.316331" style="fill: #1f77b4; stroke: #1f77b4"/>
     <use xlink:href="#mfa245decab" x="679.801591" y="43.992727" style="fill: #1f77b4; stroke: #1f77b4"/>
    </g>
   </g>
   <g id="line2d_32">
    <path d="M 287.822803 219.432469 
L 297.622273 209.327428 
L 307.421742 200.08781 
L 317.221212 187.678721 
L 327.020682 174.492606 
L 336.820152 161.527486 
L 346.619621 143.766014 
L 356.419091 130.522442 
L 366.218561 116.64922 
L 376.01803 108.70195 
L 385.8175 101.341904 
L 395.61697 94.636253 
L 405.416439 90.419778 
L 415.215909 86.846578 
L 425.015379 82.927333 
L 434.814848 80.164096 
L 444.614318 77.740992 
L 454.413788 75.253617 
L 464.213258 73.106122 
L 474.012727 71.039282 
L 483.812197 69.087782 
" clip-path="url(#p7cbd6a2b3b)" style="fill: none; stroke: #ff7f0e; stroke-width: 1.5; stroke-linecap: square"/>
    <defs>
     <path id="mce357f617c" d="M 0 2 
C 0.530406 2 1.03916 1.789267 1.414214 1.414214 
C 1.789267 1.03916 2 0.530406 2 0 
C 2 -0.530406 1.789267 -1.03916 1.414214 -1.414214 
C 1.03916 -1.789267 0.530406 -2 0 -2 
C -0.530406 -2 -1.03916 -1.789267 -1.414214 -1.414214 
C -1.789267 -1.03916 -2 -0.530406 -2 0 
C -2 0.530406 -1.789267 1.03916 -1.414214 1.414214 
C -1.03916 1.789267 -0.530406 2 0 2 
z
" style="stroke: #ff7f0e"/>
    </defs>
    <g clip-path="url(#p7cbd6a2b3b)">
     <use xlink:href="#mce357f617c" x="287.822803" y="219.432469" style="fill: #ff7f0e; stroke: #ff7f0e"/>
     <use xlink:href="#mce357f617c" x="297.622273" y="209.327428" style="fill: #ff7f0e; stroke: #ff7f0e"/>
     <use xlink:href="#mce357f617c" x="307.421742" y="200.08781" style="fill: #ff7f0e; stroke: #ff7f0e"/>
     <use xlink:href="#mce357f617c" x="317.221212" y="187.678721" style="fill: #ff7f0e; stroke: #ff7f0e"/>
     <use xlink:href="#mce357f617c" x="327.020682" y="174.492606" style="fill: #ff7f0e; stroke: #ff7f0e"/>
     <use xlink:href="#mce357f617c" x="336.820152" y="161.527486" style="fill: #ff7f0e; stroke: #ff7f0e"/>
     <use xlink:href="#mce357f617c" x="346.619621" y="143.766014" style="fill: #ff7f0e; stroke: #ff7f0e"/>
     <use xlink:href="#mce357f617c" x="356.419091" y="130.522442" style="fill: #ff7f0e; stroke: #ff7f0e"/>
     <use xlink:href="#mce357f617c" x="366.218561" y="116.64922" style="fill: #ff7f0e; stroke: #ff7f0e"/>
     <use xlink:href="#mce357f617c" x="376.01803" y="108.70195" style="fill: #ff7f0e; stroke: #ff7f0e"/>
     <use xlink:href="#mce357f617c" x="385.8175" y="101.341904" style="fill: #ff7f0e; stroke: #ff7f0e"/>
     <use xlink:href="#mce357f617c" x="395.61697" y="94.636253" style="fill: #ff7f0e; stroke: #ff7f0e"/>
     <use xlink:href="#mce357f617c" x="405.416439" y="90.419778" style="fill: #ff7f0e; stroke: #ff7f0e"/>
     <use xlink:href="#mce357f617c" x="415.215909" y="86.846578" style="fill: #ff7f0e; stroke: #ff7f0e"/>
     <use xlink:href="#mce357f617c" x="425.015379" y="82.927333" style="fill: #ff7f0e; stroke: #ff7f0e"/>
     <use xlink:href="#mce357f617c" x="434.814848" y="80.164096" style="fill: #ff7f0e; stroke: #ff7f0e"/>
     <use xlink:href="#mce357f617c" x="444.614318" y="77.740992" style="fill: #ff7f0e; stroke: #ff7f0e"/>
     <use xlink:href="#mce357f617c" x="454.413788" y="75.253617" style="fill: #ff7f0e; stroke: #ff7f0e"/>
     <use xlink:href="#mce357f617c" x="464.213258" y="73.106122" style="fill: #ff7f0e; stroke: #ff7f0e"/>
     <use xlink:href="#mce357f617c" x="474.012727" y="71.039282" style="fill: #ff7f0e; stroke: #ff7f0e"/>
     <use xlink:href="#mce357f617c" x="483.812197" y="69.087782" style="fill: #ff7f0e; stroke: #ff7f0e"/>
    </g>
   </g>
   <g id="line2d_33">
    <path d="M 287.822803 219.203071 
L 297.622273 209.635517 
L 307.421742 201.07383 
L 317.221212 191.236074 
L 327.020682 180.882707 
L 336.820152 170.576151 
L 346.619621 159.531744 
L 356.419091 147.84406 
L 366.218561 130.832042 
L 376.01803 113.470931 
L 385.8175 102.751394 
L 395.61697 95.671715 
L 405.416439 90.448937 
L 415.215909 86.403657 
L 425.015379 83.325498 
L 434.814848 80.400921 
L 444.614318 77.560524 
L 454.413788 75.298692 
L 464.213258 73.065387 
L 474.012727 70.905386 
L 483.812197 68.925299 
" clip-path="url(#p7cbd6a2b3b)" style="fill: none; stroke: #2ca02c; stroke-width: 1.5; stroke-linecap: square"/>
    <defs>
     <path id="m24c097dbc9" d="M 0 2 
C 0.530406 2 1.03916 1.789267 1.414214 1.414214 
C 1.789267 1.03916 2 0.530406 2 0 
C 2 -0.530406 1.789267 -1.03916 1.414214 -1.414214 
C 1.03916 -1.789267 0.530406 -2 0 -2 
C -0.530406 -2 -1.03916 -1.789267 -1.414214 -1.414214 
C -1.789267 -1.03916 -2 -0.530406 -2 0 
C -2 0.530406 -1.789267 1.03916 -1.414214 1.414214 
C -1.03916 1.789267 -0.530406 2 0 2 
z
" style="stroke: #2ca02c"/>
    </defs>
    <g clip-path="url(#p7cbd6a2b3b)">
     <use xlink:href="#m24c097dbc9" x="287.822803" y="219.203071" style="fill: #2ca02c; stroke: #2ca02c"/>
     <use xlink:href="#m24c097dbc9" x="297.622273" y="209.635517" style="fill: #2ca02c; stroke: #2ca02c"/>
     <use xlink:href="#m24c097dbc9" x="307.421742" y="201.07383" style="fill: #2ca02c; stroke: #2ca02c"/>
     <use xlink:href="#m24c097dbc9" x="317.221212" y="191.236074" style="fill: #2ca02c; stroke: #2ca02c"/>
     <use xlink:href="#m24c097dbc9" x="327.020682" y="180.882707" style="fill: #2ca02c; stroke: #2ca02c"/>
     <use xlink:href="#m24c097dbc9" x="336.820152" y="170.576151" style="fill: #2ca02c; stroke: #2ca02c"/>
     <use xlink:href="#m24c097dbc9" x="346.619621" y="159.531744" style="fill: #2ca02c; stroke: #2ca02c"/>
     <use xlink:href="#m24c097dbc9" x="356.419091" y="147.84406" style="fill: #2ca02c; stroke: #2ca02c"/>
     <use xlink:href="#m24c097dbc9" x="366.218561" y="130.832042" style="fill: #2ca02c; stroke: #2ca02c"/>
     <use xlink:href="#m24c097dbc9" x="376.01803" y="113.470931" style="fill: #2ca02c; stroke: #2ca02c"/>
     <use xlink:href="#m24c097dbc9" x="385.8175" y="102.751394" style="fill: #2ca02c; stroke: #2ca02c"/>
     <use xlink:href="#m24c097dbc9" x="395.61697" y="95.671715" style="fill: #2ca02c; stroke: #2ca02c"/>
     <use xlink:href="#m24c097dbc9" x="405.416439" y="90.448937" style="fill: #2ca02c; stroke: #2ca02c"/>
     <use xlink:href="#m24c097dbc9" x="415.215909" y="86.403657" style="fill: #2ca02c; stroke: #2ca02c"/>
     <use xlink:href="#m24c097dbc9" x="425.015379" y="83.325498" style="fill: #2ca02c; stroke: #2ca02c"/>
     <use xlink:href="#m24c097dbc9" x="434.814848" y="80.400921" style="fill: #2ca02c; stroke: #2ca02c"/>
     <use xlink:href="#m24c097dbc9" x="444.614318" y="77.560524" style="fill: #2ca02c; stroke: #2ca02c"/>
     <use xlink:href="#m24c097dbc9" x="454.413788" y="75.298692" style="fill: #2ca02c; stroke: #2ca02c"/>
     <use xlink:href="#m24c097dbc9" x="464.213258" y="73.065387" style="fill: #2ca02c; stroke: #2ca02c"/>
     <use xlink:href="#m24c097dbc9" x="474.012727" y="70.905386" style="fill: #2ca02c; stroke: #2ca02c"/>
     <use xlink:href="#m24c097dbc9" x="483.812197" y="68.925299" style="fill: #2ca02c; stroke: #2ca02c"/>
    </g>
   </g>
   <g id="line2d_34">
    <path d="M 287.822803 219.300607 
L 297.622273 210.105551 
L 307.421742 200.85284 
L 317.221212 190.950133 
L 327.020682 181.216397 
L 336.820152 171.010108 
L 346.619621 160.652365 
L 356.419091 149.251903 
L 366.218561 137.040598 
L 376.01803 119.72015 
L 385.8175 103.756391 
L 395.61697 94.850448 
L 405.416439 90.22411 
L 415.215909 86.487468 
L 425.015379 83.162987 
L 434.814848 80.291606 
L 444.614318 77.586046 
L 454.413788 75.288922 
L 464.213258 72.984923 
L 474.012727 70.96866 
L 483.812197 68.953107 
" clip-path="url(#p7cbd6a2b3b)" style="fill: none; stroke: #d62728; stroke-width: 1.5; stroke-linecap: square"/>
    <defs>
     <path id="mfcf824c2a7" d="M 0 2 
C 0.530406 2 1.03916 1.789267 1.414214 1.414214 
C 1.789267 1.03916 2 0.530406 2 0 
C 2 -0.530406 1.789267 -1.03916 1.414214 -1.414214 
C 1.03916 -1.789267 0.530406 -2 0 -2 
C -0.530406 -2 -1.03916 -1.789267 -1.414214 -1.414214 
C -1.789267 -1.03916 -2 -0.530406 -2 0 
C -2 0.530406 -1.789267 1.03916 -1.414214 1.414214 
C -1.03916 1.789267 -0.530406 2 0 2 
z
" style="stroke: #d62728"/>
    </defs>
    <g clip-path="url(#p7cbd6a2b3b)">
     <use xlink:href="#mfcf824c2a7" x="287.822803" y="219.300607" style="fill: #d62728; stroke: #d62728"/>
     <use xlink:href="#mfcf824c2a7" x="297.622273" y="210.105551" style="fill: #d62728; stroke: #d62728"/>
     <use xlink:href="#mfcf824c2a7" x="307.421742" y="200.85284" style="fill: #d62728; stroke: #d62728"/>
     <use xlink:href="#mfcf824c2a7" x="317.221212" y="190.950133" style="fill: #d62728; stroke: #d62728"/>
     <use xlink:href="#mfcf824c2a7" x="327.020682" y="181.216397" style="fill: #d62728; stroke: #d62728"/>
     <use xlink:href="#mfcf824c2a7" x="336.820152" y="171.010108" style="fill: #d62728; stroke: #d62728"/>
     <use xlink:href="#mfcf824c2a7" x="346.619621" y="160.652365" style="fill: #d62728; stroke: #d62728"/>
     <use xlink:href="#mfcf824c2a7" x="356.419091" y="149.251903" style="fill: #d62728; stroke: #d62728"/>
     <use xlink:href="#mfcf824c2a7" x="366.218561" y="137.040598" style="fill: #d62728; stroke: #d62728"/>
     <use xlink:href="#mfcf824c2a7" x="376.01803" y="119.72015" style="fill: #d62728; stroke: #d62728"/>
     <use xlink:href="#mfcf824c2a7" x="385.8175" y="103.756391" style="fill: #d62728; stroke: #d62728"/>
     <use xlink:href="#mfcf824c2a7" x="395.61697" y="94.850448" style="fill: #d62728; stroke: #d62728"/>
     <use xlink:href="#mfcf824c2a7" x="405.416439" y="90.22411" style="fill: #d62728; stroke: #d62728"/>
     <use xlink:href="#mfcf824c2a7" x="415.215909" y="86.487468" style="fill: #d62728; stroke: #d62728"/>
     <use xlink:href="#mfcf824c2a7" x="425.015379" y="83.162987" style="fill: #d62728; stroke: #d62728"/>
     <use xlink:href="#mfcf824c2a7" x="434.814848" y="80.291606" style="fill: #d62728; stroke: #d62728"/>
     <use xlink:href="#mfcf824c2a7" x="444.614318" y="77.586046" style="fill: #d62728; stroke: #d62728"/>
     <use xlink:href="#mfcf824c2a7" x="454.413788" y="75.288922" style="fill: #d62728; stroke: #d62728"/>
     <use xlink:href="#mfcf824c2a7" x="464.213258" y="72.984923" style="fill: #d62728; stroke: #d62728"/>
     <use xlink:href="#mfcf824c2a7" x="474.012727" y="70.96866" style="fill: #d62728; stroke: #d62728"/>
     <use xlink:href="#mfcf824c2a7" x="483.812197" y="68.953107" style="fill: #d62728; stroke: #d62728"/>
    </g>
   </g>
   <g id="patch_3">
    <path d="M 62.435 388.24 
L 62.435 27.6 
" style="fill: none; stroke: #000000; stroke-width: 0.8; stroke-linejoin: miter; stroke-linecap: square"/>
   </g>
   <g id="patch_4">
    <path d="M 709.2 388.24 
L 709.2 27.6 
" style="fill: none; stroke: #000000; stroke-width: 0.8; stroke-linejoin: miter; stroke-linecap: square"/>
   </g>
   <g id="patch_5">
    <path d="M 62.435 388.24 
L 709.2 388.24 
" style="fill: none; stroke: #000000; stroke-width: 0.8; stroke-linejoin: miter; stroke-linecap: square"/>
   </g>
   <g id="patch_6">
    <path d="M 62.435 27.6 
L 709.2 27.6 
" style="fill: none; stroke: #000000; stroke-width: 0.8; stroke-linejoin: miter; stroke-linecap: square"/>
   </g>
   <g id="text_18">
    <!-- Plaquette Expectation vs β (3D Z₂ LGT) -->
    <g transform="translate(248.912812 21.6) scale(0.14 -0.14)">
     <defs>
      <path id="DejaVuSans-6c" d="M 603 4863 
L 1178 4863 
L 1178 0 
L 603 0 
L 603 4863 
z
" transform="scale(0.015625)"/>
      <path id="DejaVuSans-61" d="M 2194 1759 
Q 1497 1759 1228 1600 
Q 959 1441 959 1056 
Q 959 750 1161 570 
Q 1363 391 1709 391 
Q 2188 391 2477 730 
Q 2766 1069 2766 1631 
L 2766 1759 
L 2194 1759 
z
M 3341 1997 
L 3341 0 
L 2766 0 
L 2766 531 
Q 2569 213 2275 61 
Q 1981 -91 1556 -91 
Q 1019 -91 701 211 
Q 384 513 384 1019 
Q 384 1609 779 1909 
Q 1175 2209 1959 2209 
L 2766 2209 
L 2766 2266 
Q 2766 2663 2505 2880 
Q 2244 3097 1772 3097 
Q 1472 3097 1187 3025 
Q 903 2953 641 2809 
L 641 3341 
Q 956 3463 1253 3523 
Q 1550 3584 1831 3584 
Q 2591 3584 2966 3190 
Q 3341 2797 3341 1997 
z
" transform="scale(0.015625)"/>
      <path id="DejaVuSans-71" d="M 947 1747 
Q 947 1113 1208 752 
Q 1469 391 1925 391 
Q 2381 391 2643 752 
Q 2906 1113 2906 1747 
Q 2906 2381 2643 2742 
Q 2381 3103 1925 3103 
Q 1469 3103 1208 2742 
Q 947 2381 947 1747 
z
M 2906 525 
Q 2725 213 2448 61 
Q 2172 -91 1784 -91 
Q 1150 -91 751 415 
Q 353 922 353 1747 
Q 353 2572 751 3078 
Q 1150 3584 1784 3584 
Q 2172 3584 2448 3432 
Q 2725 3281 2906 2969 
L 2906 3500 
L 3481 3500 
L 3481 -1331 
L 2906 -1331 
L 2906 525 
z
" transform="scale(0.015625)"/>
      <path id="DejaVuSans-75" d="M 544 1381 
L 544 3500 
L 1119 3500 
L 1119 1403 
Q 1119 906 1312 657 
Q 1506 409 1894 409 
Q 2359 409 2629 706 
Q 2900 1003 2900 1516 
L 2900 3500 
L 3475 3500 
L 3475 0 
L 2900 0 
L 2900 538 
Q 2691 219 2414 64 
Q 2138 -91 1772 -91 
Q 1169 -91 856 284 
Q 544 659 544 1381 
z
M 1991 3584 
L 1991 3584 
z
" transform="scale(0.015625)"/>
      <path id="DejaVuSans-65" d="M 3597 1894 
L 3597 1613 
L 953 1613 
Q 991 1019 1311 708 
Q 1631 397 2203 397 
Q 2534 397 2845 478 
Q 3156 559 3463 722 
L 3463 178 
Q 3153 47 2828 -22 
Q 2503 -91 2169 -91 
Q 1331 -91 842 396 
Q 353 884 353 1716 
Q 353 2575 817 3079 
Q 1281 3584 2069 3584 
Q 2775 3584 3186 3129 
Q 3597 2675 3597 1894 
z
M 3022 2063 
Q 3016 2534 2758 2815 
Q 2500 3097 2075 3097 
Q 1594 3097 1305 2825 
Q 1016 2553 972 2059 
L 3022 2063 
z
" transform="scale(0.015625)"/>
      <path id="DejaVuSans-74" d="M 1172 4494 
L 1172 3500 
L 2356 3500 
L 2356 3053 
L 1172 3053 
L 1172 1153 
Q 1172 725 1289 603 
Q 1406 481 1766 481 
L 2356 481 
L 2356 0 
L 1766 0 
Q 1100 0 847 248 
Q 594 497 594 1153 
L 594 3053 
L 172 3053 
L 172 3500 
L 594 3500 
L 594 4494 
L 1172 4494 
z
" transform="scale(0.015625)"/>
      <path id="DejaVuSans-20" transform="scale(0.015625)"/>
      <path id="DejaVuSans-45" d="M 628 4666 
L 3578 4666 
L 3578 4134 
L 1259 4134 
L 1259 2753 
L 3481 2753 
L 3481 2222 
L 1259 2222 
L 1259 531 
L 3634 531 
L 3634 0 
L 628 0 
L 628 4666 
z
" transform="scale(0.015625)"/>
      <path id="DejaVuSans-78" d="M 3513 3500 
L 2247 1797 
L 3578 0 
L 2900 0 
L 1881 1375 
L 863 0 
L 184 0 
L 1544 1831 
L 300 3500 
L 978 3500 
L 1906 2253 
L 2834 3500 
L 3513 3500 
z
" transform="scale(0.015625)"/>
      <path id="DejaVuSans-70" d="M 1159 525 
L 1159 -1331 
L 581 -1331 
L 581 3500 
L 1159 3500 
L 1159 2969 
Q 1341 3281 1617 3432 
Q 1894 3584 2278 3584 
Q 2916 3584 3314 3078 
Q 3713 2572 3713 1747 
Q 3713 922 3314 415 
Q 2916 -91 2278 -91 
Q 1894 -91 1617 61 
Q 1341 213 1159 525 
z
M 3116 1747 
Q 3116 2381 2855 2742 
Q 2594 3103 2138 3103 
Q 1681 3103 1420 2742 
Q 1159 2381 1159 1747 
Q 1159 1113 1420 752 
Q 1681 391 2138 391 
Q 2594 391 2855 752 
Q 3116 1113 3116 1747 
z
" transform="scale(0.015625)"/>
      <path id="DejaVuSans-63" d="M 3122 3366 
L 3122 2828 
Q 2878 2963 2633 3030 
Q 2388 3097 2138 3097 
Q 1578 3097 1268 2742 
Q 959 2388 959 1747 
Q 959 1106 1268 751 
Q 1578 397 2138 397 
Q 2388 397 2633 464 
Q 2878 531 3122 666 
L 3122 134 
Q 2881 22 2623 -34 
Q 2366 -91 2075 -91 
Q 1284 -91 818 406 
Q 353 903 353 1747 
Q 353 2603 823 3093 
Q 1294 3584 2113 3584 
Q 2378 3584 2631 3529 
Q 2884 3475 3122 3366 
z
" transform="scale(0.015625)"/>
      <path id="DejaVuSans-69" d="M 603 3500 
L 1178 3500 
L 1178 0 
L 603 0 
L 603 3500 
z
M 603 4863 
L 1178 4863 
L 1178 4134 
L 603 4134 
L 603 4863 
z
" transform="scale(0.015625)"/>
      <path id="DejaVuSans-6f" d="M 1959 3097 
Q 1497 3097 1228 2736 
Q 959 2375 959 1747 
Q 959 1119 1226 758 
Q 1494 397 1959 397 
Q 2419 397 2687 759 
Q 2956 1122 2956 1747 
Q 2956 2369 2687 2733 
Q 2419 3097 1959 3097 
z
M 1959 3584 
Q 2709 3584 3137 3096 
Q 3566 2609 3566 1747 
Q 3566 888 3137 398 
Q 2709 -91 1959 -91 
Q 1206 -91 779 398 
Q 353 888 353 1747 
Q 353 2609 779 3096 
Q 1206 3584 1959 3584 
z
" transform="scale(0.015625)"/>
      <path id="DejaVuSans-6e" d="M 3513 2113 
L 3513 0 
L 2938 0 
L 2938 2094 
Q 2938 2591 2744 2837 
Q 2550 3084 2163 3084 
Q 1697 3084 1428 2787 
Q 1159 2491 1159 1978 
L 1159 0 
L 581 0 
L 581 3500 
L 1159 3500 
L 1159 2956 
Q 1366 3272 1645 3428 
Q 1925 3584 2291 3584 
Q 2894 3584 3203 3211 
Q 3513 2838 3513 2113 
z
" transform="scale(0.015625)"/>
      <path id="DejaVuSans-76" d="M 191 3500 
L 800 3500 
L 1894 563 
L 2988 3500 
L 3597 3500 
L 2284 0 
L 1503 0 
L 191 3500 
z
" transform="scale(0.015625)"/>
      <path id="DejaVuSans-73" d="M 2834 3397 
L 2834 2853 
Q 2591 2978 2328 3040 
Q 2066 3103 1784 3103 
Q 1356 3103 1142 2972 
Q 928 2841 928 2578 
Q 928 2378 1081 2264 
Q 1234 2150 1697 2047 
L 1894 2003 
Q 2506 1872 2764 1633 
Q 3022 1394 3022 966 
Q 3022 478 2636 193 
Q 2250 -91 1575 -91 
Q 1294 -91 989 -36 
Q 684 19 347 128 
L 347 722 
Q 666 556 975 473 
Q 1284 391 1588 391 
Q 1994 391 2212 530 
Q 2431 669 2431 922 
Q 2431 1156 2273 1281 
Q 2116 1406 1581 1522 
L 1381 1569 
Q 847 1681 609 1914 
Q 372 2147 372 2553 
Q 372 3047 722 3315 
Q 1072 3584 1716 3584 
Q 2034 3584 2315 3537 
Q 2597 3491 2834 3397 
z
" transform="scale(0.015625)"/>
      <path id="DejaVuSans-28" d="M 1984 4856 
Q 1566 4138 1362 3434 
Q 1159 2731 1159 2009 
Q 1159 1288 1364 580 
Q 1569 -128 1984 -844 
L 1484 -844 
Q 1016 -109 783 600 
Q 550 1309 550 2009 
Q 550 2706 781 3412 
Q 1013 4119 1484 4856 
L 1984 4856 
z
" transform="scale(0.015625)"/>
      <path id="DejaVuSans-33" d="M 2597 2516 
Q 3050 2419 3304 2112 
Q 3559 1806 3559 1356 
Q 3559 666 3084 287 
Q 2609 -91 1734 -91 
Q 1441 -91 1130 -33 
Q 819 25 488 141 
L 488 750 
Q 750 597 1062 519 
Q 1375 441 1716 441 
Q 2309 441 2620 675 
Q 2931 909 2931 1356 
Q 2931 1769 2642 2001 
Q 2353 2234 1838 2234 
L 1294 2234 
L 1294 2753 
L 1863 2753 
Q 2328 2753 2575 2939 
Q 2822 3125 2822 3475 
Q 2822 3834 2567 4026 
Q 2313 4219 1838 4219 
Q 1578 4219 1281 4162 
Q 984 4106 628 3988 
L 628 4550 
Q 988 4650 1302 4700 
Q 1616 4750 1894 4750 
Q 2613 4750 3031 4423 
Q 3450 4097 3450 3541 
Q 3450 3153 3228 2886 
Q 3006 2619 2597 2516 
z
" transform="scale(0.015625)"/>
      <path id="DejaVuSans-44" d="M 1259 4147 
L 1259 519 
L 2022 519 
Q 2988 519 3436 956 
Q 3884 1394 3884 2338 
Q 3884 3275 3436 3711 
Q 2988 4147 2022 4147 
L 1259 4147 
z
M 628 4666 
L 1925 4666 
Q 3281 4666 3915 4102 
Q 4550 3538 4550 2338 
Q 4550 1131 3912 565 
Q 3275 0 1925 0 
L 628 0 
L 628 4666 
z
" transform="scale(0.015625)"/>
      <path id="DejaVuSans-5a" d="M 359 4666 
L 4025 4666 
L 4025 4184 
L 1075 531 
L 4097 531 
L 4097 0 
L 288 0 
L 288 481 
L 3238 4134 
L 359 4134 
L 359 4666 
z
" transform="scale(0.015625)"/>
      <path id="DejaVuSans-2082" d="M 838 332 
L 2163 332 
L 2163 -24 
L 294 -24 
L 294 319 
Q 400 416 597 591 
Q 1672 1544 1672 1838 
Q 1672 2044 1509 2170 
Q 1347 2297 1081 2297 
Q 919 2297 728 2242 
Q 538 2188 313 2079 
L 313 2463 
Q 553 2551 761 2594 
Q 969 2638 1147 2638 
Q 1600 2638 1872 2432 
Q 2144 2226 2144 1888 
Q 2144 1454 1109 566 
Q 934 416 838 332 
z
" transform="scale(0.015625)"/>
      <path id="DejaVuSans-4c" d="M 628 4666 
L 1259 4666 
L 1259 531 
L 3531 531 
L 3531 0 
L 628 0 
L 628 4666 
z
" transform="scale(0.015625)"/>
      <path id="DejaVuSans-47" d="M 3809 666 
L 3809 1919 
L 2778 1919 
L 2778 2438 
L 4434 2438 
L 4434 434 
Q 4069 175 3628 42 
Q 3188 -91 2688 -91 
Q 1594 -91 976 548 
Q 359 1188 359 2328 
Q 359 3472 976 4111 
Q 1594 4750 2688 4750 
Q 3144 4750 3555 4637 
Q 3966 4525 4313 4306 
L 4313 3634 
Q 3963 3931 3569 4081 
Q 3175 4231 2741 4231 
Q 1884 4231 1454 3753 
Q 1025 3275 1025 2328 
Q 1025 1384 1454 906 
Q 1884 428 2741 428 
Q 3075 428 3337 486 
Q 3600 544 3809 666 
z
" transform="scale(0.015625)"/>
      <path id="DejaVuSans-54" d="M -19 4666 
L 3928 4666 
L 3928 4134 
L 2272 4134 
L 2272 0 
L 1638 0 
L 1638 4134 
L -19 4134 
L -19 4666 
z
" transform="scale(0.015625)"/>
      <path id="DejaVuSans-29" d="M 513 4856 
L 1013 4856 
Q 1481 4119 1714 3412 
Q 1947 2706 1947 2009 
Q 1947 1309 1714 600 
Q 1481 -109 1013 -844 
L 513 -844 
Q 928 -128 1133 580 
Q 1338 1288 1338 2009 
Q 1338 2731 1133 3434 
Q 928 4138 513 4856 
z
" transform="scale(0.015625)"/>
     </defs>
     <use xlink:href="#DejaVuSans-50"/>
     <use xlink:href="#DejaVuSans-6c" x="60.302734"/>
     <use xlink:href="#DejaVuSans-61" x="88.085938"/>
     <use xlink:href="#DejaVuSans-71" x="149.365234"/>
     <use xlink:href="#DejaVuSans-75" x="212.841797"/>
     <use xlink:href="#DejaVuSans-65" x="276.220703"/>
     <use xlink:href="#DejaVuSans-74" x="337.744141"/>
     <use xlink:href="#DejaVuSans-74" x="376.953125"/>
     <use xlink:href="#DejaVuSans-65" x="416.162109"/>
     <use xlink:href="#DejaVuSans-20" x="477.685547"/>
     <use xlink:href="#DejaVuSans-45" x="509.472656"/>
     <use xlink:href="#DejaVuSans-78" x="572.65625"/>
     <use xlink:href="#DejaVuSans-70" x="631.835938"/>
     <use xlink:href="#DejaVuSans-65" x="695.3125"/>
     <use xlink:href="#DejaVuSans-63" x="756.835938"/>
     <use xlink:href="#DejaVuSans-74" x="811.816406"/>
     <use xlink:href="#DejaVuSans-61" x="851.025391"/>
     <use xlink:href="#DejaVuSans-74" x="912.304688"/>
     <use xlink:href="#DejaVuSans-69" x="951.513672"/>
     <use xlink:href="#DejaVuSans-6f" x="979.296875"/>
     <use xlink:href="#DejaVuSans-6e" x="1040.478516"/>
     <use xlink:href="#DejaVuSans-20" x="1103.857422"/>
     <use xlink:href="#DejaVuSans-76" x="1135.644531"/>
     <use xlink:href="#DejaVuSans-73" x="1194.824219"/>
     <use xlink:href="#DejaVuSans-20" x="1246.923828"/>
     <use xlink:href="#DejaVuSans-3b2" x="1278.710938"/>
     <use xlink:href="#DejaVuSans-20" x="1342.529297"/>
     <use xlink:href="#DejaVuSans-28" x="1374.316406"/>
     <use xlink:href="#DejaVuSans-33" x="1413.330078"/>
     <use xlink:href="#DejaVuSans-44" x="1476.953125"/>
     <use xlink:href="#DejaVuSans-20" x="1553.955078"/>
     <use xlink:href="#DejaVuSans-5a" x="1585.742188"/>
     <use xlink:href="#DejaVuSans-2082" x="1654.248047"/>
     <use xlink:href="#DejaVuSans-20" x="1694.335938"/>
     <use xlink:href="#DejaVuSans-4c" x="1726.123047"/>
     <use xlink:href="#DejaVuSans-47" x="1781.835938"/>
     <use xlink:href="#DejaVuSans-54" x="1855.701172"/>
     <use xlink:href="#DejaVuSans-29" x="1916.785156"/>
    </g>
   </g>
   <g id="legend_1">
    <g id="patch_7">
     <path d="M 69.435 94.3125 
L 128.111562 94.3125 
Q 130.111562 94.3125 130.111562 92.3125 
L 130.111562 34.6 
Q 130.111562 32.6 128.111562 32.6 
L 69.435 32.6 
Q 67.435 32.6 67.435 34.6 
L 67.435 92.3125 
Q 67.435 94.3125 69.435 94.3125 
z
" style="fill: #ffffff; opacity: 0.8; stroke: #cccccc; stroke-linejoin: miter"/>
    </g>
    <g id="line2d_35">
     <path d="M 71.435 40.698438 
L 81.435 40.698438 
L 91.435 40.698438 
" style="fill: none; stroke: #1f77b4; stroke-width: 1.5; stroke-linecap: square"/>
     <g>
      <use xlink:href="#mfa245decab" x="81.435" y="40.698438" style="fill: #1f77b4; stroke: #1f77b4"/>
     </g>
    </g>
    <g id="text_19">
     <!-- L=8 -->
     <g transform="translate(99.435 44.198438) scale(0.1 -0.1)">
      <defs>
       <path id="DejaVuSans-3d" d="M 678 2906 
L 4684 2906 
L 4684 2381 
L 678 2381 
L 678 2906 
z
M 678 1631 
L 4684 1631 
L 4684 1100 
L 678 1100 
L 678 1631 
z
" transform="scale(0.015625)"/>
      </defs>
      <use xlink:href="#DejaVuSans-4c"/>
      <use xlink:href="#DejaVuSans-3d" x="55.712891"/>
      <use xlink:href="#DejaVuSans-38" x="139.501953"/>
     </g>
    </g>
    <g id="line2d_36">
     <path d="M 71.435 55.376563 
L 81.435 55.376563 
L 91.435 55.376563 
" style="fill: none; stroke: #ff7f0e; stroke-width: 1.5; stroke-linecap: square"/>
     <g>
      <use xlink:href="#mce357f617c" x="81.435" y="55.376563" style="fill: #ff7f0e; stroke: #ff7f0e"/>
     </g>
    </g>
    <g id="text_20">
     <!-- L=16 -->
     <g transform="translate(99.435 58.876563) scale(0.1 -0.1)">
      <defs>
       <path id="DejaVuSans-31" d="M 794 531 
L 1825 531 
L 1825 4091 
L 703 3866 
L 703 4441 
L 1819 4666 
L 2450 4666 
L 2450 531 
L 3481 531 
L 3481 0 
L 794 0 
L 794 531 
z
" transform="scale(0.015625)"/>
      </defs>
      <use xlink:href="#DejaVuSans-4c"/>
      <use xlink:href="#DejaVuSans-3d" x="55.712891"/>
      <use xlink:href="#DejaVuSans-31" x="139.501953"/>
      <use xlink:href="#DejaVuSans-36" x="203.125"/>
     </g>
    </g>
    <g id="line2d_37">
     <path d="M 71.435 70.054688 
L 81.435 70.054688 
L 91.435 70.054688 
" style="fill: none; stroke: #2ca02c; stroke-width: 1.5; stroke-linecap: square"/>
     <g>
      <use xlink:href="#m24c097dbc9" x="81.435" y="70.054688" style="fill: #2ca02c; stroke: #2ca02c"/>
     </g>
    </g>
    <g id="text_21">
     <!-- L=24 -->
     <g transform="translate(99.435 73.554688) scale(0.1 -0.1)">
      <use xlink:href="#DejaVuSans-4c"/>
      <use xlink:href="#DejaVuSans-3d" x="55.712891"/>
      <use xlink:href="#DejaVuSans-32" x="139.501953"/>
      <use xlink:href="#DejaVuSans-34" x="203.125"/>
     </g>
    </g>
    <g id="line2d_38">
     <path d="M 71.435 84.732813 
L 81.435 84.732813 
L 91.435 84.732813 
" style="fill: none; stroke: #d62728; stroke-width: 1.5; stroke-linecap: square"/>
     <g>
      <use xlink:href="#mfcf824c2a7" x="81.435" y="84.732813" style="fill: #d62728; stroke: #d62728"/>
     </g>
    </g>
    <g id="text_22">
     <!-- L=32 -->
     <g transform="translate(99.435 88.232813) scale(0.1 -0.1)">
      <use xlink:href="#DejaVuSans-4c"/>
      <use xlink:href="#DejaVuSans-3d" x="55.712891"/>
      <use xlink:href="#DejaVuSans-33" x="139.501953"/>
      <use xlink:href="#DejaVuSans-32" x="203.125"/>
     </g>
    </g>
   </g>
  </g>
 </g>
 <defs>
  <clipPath id="p7cbd6a2b3b">
   <rect x="62.435" y="27.6" width="646.765" height="360.64"/>
  </clipPath>
 </defs>
</svg>
