<?xml version="1.0" encoding="utf-8" standalone="no"?>
<!DOCTYPE svg PUBLIC "-//W3C//DTD SVG 1.1//EN"
  "http://www.w3.org/Graphics/SVG/1.1/DTD/svg11.dtd">
<svg xmlns:xlink="http://www.w3.org/1999/xlink" width="711.895446pt" height="422.575938pt" viewBox="0 0 711.895446 422.575938" xmlns="http://www.w3.org/2000/svg" version="1.1">
 <metadata>
  <rdf:RDF xmlns:dc="http://purl.org/dc/elements/1.1/" xmlns:cc="http://creativecommons.org/ns#" xmlns:rdf="http://www.w3.org/1999/02/22-rdf-syntax-ns#">
   <cc:Work>
    <dc:type rdf:resource="http://purl.org/dc/dcmitype/StillImage"/>
    <dc:date>2026-06-26T02:13:43.518517</dc:date>
    <dc:format>image/svg+xml</dc:format>
    <dc:creator>
     <cc:Agent>
      <dc:title>Matplotlib v3.9.4, https://matplotlib.org/</dc:title>
     </cc:Agent>
    </dc:creator>
   </cc:Work>
  </rdf:RDF>
 </metadata>
 <defs>
  <style type="text/css">*{stroke-linejoin: round; stroke-linecap: butt}</style>
 </defs>
 <g id="figure_1">
  <g id="patch_1">
   <path d="M 0 422.575938 
L 711.895446 422.575938 
L 711.895446 0 
L 0 0 
z
" style="fill: #ffffff"/>
  </g>
  <g id="axes_1">
   <g id="patch_2">
    <path d="M 54.44 381.957812 
L 704.695446 381.957812 
L 704.695446 23.837812 
L 54.44 23.837812 
z
" style="fill: #ffffff"/>
   </g>
   <g id="patch_3">
    <path d="M 346.726539 381.957812 
L 412.408907 381.957812 
L 412.408907 23.837812 
L 346.726539 23.837812 
z
" clip-path="url(#p943f4b2cda)" style="fill: #ff0000; opacity: 0.15; stroke: #ff0000; stroke-linejoin: miter"/>
   </g>
   <g id="matplotlib.axis_1">
    <g id="xtick_1">
     <g id="line2d_1">
      <path d="M 149.679434 381.957812 
L 149.679434 23.837812 
" clip-path="url(#p943f4b2cda)" style="fill: none; stroke: #b0b0b0; stroke-opacity: 0.3; stroke-width: 0.8; stroke-linecap: square"/>
     </g>
     <g id="line2d_2">
      <defs>
       <path id="mecc6a27afa" d="M 0 0 
L 0 3.5 
" style="stroke: #000000; stroke-width: 0.8"/>
      </defs>
      <g>
       <use xlink:href="#mecc6a27afa" x="149.679434" y="381.957812" style="stroke: #000000; stroke-width: 0.8"/>
      </g>
     </g>
     <g id="text_1">
      <!-- 0.4 -->
      <g transform="translate(141.727872 396.55625) scale(0.1 -0.1)">
       <defs>
        <path id="DejaVuSans-30" d="M 2034 4250 
Q 1547 4250 1301 3770 
Q 1056 3291 1056 2328 
Q 1056 1369 1301 889 
Q 1547 409 2034 409 
Q 2525 409 2770 889 
Q 3016 1369 3016 2328 
Q 3016 3291 2770 3770 
Q 2525 4250 2034 4250 
z
M 2034 4750 
Q 2819 4750 3233 4129 
Q 3647 3509 3647 2328 
Q 3647 1150 3233 529 
Q 2819 -91 2034 -91 
Q 1250 -91 836 529 
Q 422 1150 422 2328 
Q 422 3509 836 4129 
Q 1250 4750 2034 4750 
z
" transform="scale(0.015625)"/>
        <path id="DejaVuSans-2e" d="M 684 794 
L 1344 794 
L 1344 0 
L 684 0 
L 684 794 
z
" transform="scale(0.015625)"/>
        <path id="DejaVuSans-34" d="M 2419 4116 
L 825 1625 
L 2419 1625 
L 2419 4116 
z
M 2253 4666 
L 3047 4666 
L 3047 1625 
L 3713 1625 
L 3713 1100 
L 3047 1100 
L 3047 0 
L 2419 0 
L 2419 1100 
L 313 1100 
L 313 1709 
L 2253 4666 
z
" transform="scale(0.015625)"/>
       </defs>
       <use xlink:href="#DejaVuSans-30"/>
       <use xlink:href="#DejaVuSans-2e" x="63.623047"/>
       <use xlink:href="#DejaVuSans-34" x="95.410156"/>
      </g>
     </g>
    </g>
    <g id="xtick_2">
     <g id="line2d_3">
      <path d="M 281.044171 381.957812 
L 281.044171 23.837812 
" clip-path="url(#p943f4b2cda)" style="fill: none; stroke: #b0b0b0; stroke-opacity: 0.3; stroke-width: 0.8; stroke-linecap: square"/>
     </g>
     <g id="line2d_4">
      <g>
       <use xlink:href="#mecc6a27afa" x="281.044171" y="381.957812" style="stroke: #000000; stroke-width: 0.8"/>
      </g>
     </g>
     <g id="text_2">
      <!-- 0.6 -->
      <g transform="translate(273.092608 396.55625) scale(0.1 -0.1)">
       <defs>
        <path id="DejaVuSans-36" d="M 2113 2584 
Q 1688 2584 1439 2293 
Q 1191 2003 1191 1497 
Q 1191 994 1439 701 
Q 1688 409 2113 409 
Q 2538 409 2786 701 
Q 3034 994 3034 1497 
Q 3034 2003 2786 2293 
Q 2538 2584 2113 2584 
z
M 3366 4563 
L 3366 3988 
Q 3128 4100 2886 4159 
Q 2644 4219 2406 4219 
Q 1781 4219 1451 3797 
Q 1122 3375 1075 2522 
Q 1259 2794 1537 2939 
Q 1816 3084 2150 3084 
Q 2853 3084 3261 2657 
Q 3669 2231 3669 1497 
Q 3669 778 3244 343 
Q 2819 -91 2113 -91 
Q 1303 -91 875 529 
Q 447 1150 447 2328 
Q 447 3434 972 4092 
Q 1497 4750 2381 4750 
Q 2619 4750 2861 4703 
Q 3103 4656 3366 4563 
z
" transform="scale(0.015625)"/>
       </defs>
       <use xlink:href="#DejaVuSans-30"/>
       <use xlink:href="#DejaVuSans-2e" x="63.623047"/>
       <use xlink:href="#DejaVuSans-36" x="95.410156"/>
      </g>
     </g>
    </g>
    <g id="xtick_3">
     <g id="line2d_5">
      <path d="M 412.408907 381.957812 
L 412.408907 23.837812 
" clip-path="url(#p943f4b2cda)" style="fill: none; stroke: #b0b0b0; stroke-opacity: 0.3; stroke-width: 0.8; stroke-linecap: square"/>
     </g>
     <g id="line2d_6">
      <g>
       <use xlink:href="#mecc6a27afa" x="412.408907" y="381.957812" style="stroke: #000000; stroke-width: 0.8"/>
      </g>
     </g>
     <g id="text_3">
      <!-- 0.8 -->
      <g transform="translate(404.457345 396.55625) scale(0.1 -0.1)">
       <defs>
        <path id="DejaVuSans-38" d="M 2034 2216 
Q 1584 2216 1326 1975 
Q 1069 1734 1069 1313 
Q 1069 891 1326 650 
Q 1584 409 2034 409 
Q 2484 409 2743 651 
Q 3003 894 3003 1313 
Q 3003 1734 2745 1975 
Q 2488 2216 2034 2216 
z
M 1403 2484 
Q 997 2584 770 2862 
Q 544 3141 544 3541 
Q 544 4100 942 4425 
Q 1341 4750 2034 4750 
Q 2731 4750 3128 4425 
Q 3525 4100 3525 3541 
Q 3525 3141 3298 2862 
Q 3072 2584 2669 2484 
Q 3125 2378 3379 2068 
Q 3634 1759 3634 1313 
Q 3634 634 3220 271 
Q 2806 -91 2034 -91 
Q 1263 -91 848 271 
Q 434 634 434 1313 
Q 434 1759 690 2068 
Q 947 2378 1403 2484 
z
M 1172 3481 
Q 1172 3119 1398 2916 
Q 1625 2713 2034 2713 
Q 2441 2713 2670 2916 
Q 2900 3119 2900 3481 
Q 2900 3844 2670 4047 
Q 2441 4250 2034 4250 
Q 1625 4250 1398 4047 
Q 1172 3844 1172 3481 
z
" transform="scale(0.015625)"/>
       </defs>
       <use xlink:href="#DejaVuSans-30"/>
       <use xlink:href="#DejaVuSans-2e" x="63.623047"/>
       <use xlink:href="#DejaVuSans-38" x="95.410156"/>
      </g>
     </g>
    </g>
    <g id="xtick_4">
     <g id="line2d_7">
      <path d="M 543.773644 381.957812 
L 543.773644 23.837812 
" clip-path="url(#p943f4b2cda)" style="fill: none; stroke: #b0b0b0; stroke-opacity: 0.3; stroke-width: 0.8; stroke-linecap: square"/>
     </g>
     <g id="line2d_8">
      <g>
       <use xlink:href="#mecc6a27afa" x="543.773644" y="381.957812" style="stroke: #000000; stroke-width: 0.8"/>
      </g>
     </g>
     <g id="text_4">
      <!-- 1.0 -->
      <g transform="translate(535.822081 396.55625) scale(0.1 -0.1)">
       <defs>
        <path id="DejaVuSans-31" d="M 794 531 
L 1825 531 
L 1825 4091 
L 703 3866 
L 703 4441 
L 1819 4666 
L 2450 4666 
L 2450 531 
L 3481 531 
L 3481 0 
L 794 0 
L 794 531 
z
" transform="scale(0.015625)"/>
       </defs>
       <use xlink:href="#DejaVuSans-31"/>
       <use xlink:href="#DejaVuSans-2e" x="63.623047"/>
       <use xlink:href="#DejaVuSans-30" x="95.410156"/>
      </g>
     </g>
    </g>
    <g id="xtick_5">
     <g id="line2d_9">
      <path d="M 675.13838 381.957812 
L 675.13838 23.837812 
" clip-path="url(#p943f4b2cda)" style="fill: none; stroke: #b0b0b0; stroke-opacity: 0.3; stroke-width: 0.8; stroke-linecap: square"/>
     </g>
     <g id="line2d_10">
      <g>
       <use xlink:href="#mecc6a27afa" x="675.13838" y="381.957812" style="stroke: #000000; stroke-width: 0.8"/>
      </g>
     </g>
     <g id="text_5">
      <!-- 1.2 -->
      <g transform="translate(667.186818 396.55625) scale(0.1 -0.1)">
       <defs>
        <path id="DejaVuSans-32" d="M 1228 531 
L 3431 531 
L 3431 0 
L 469 0 
L 469 531 
Q 828 903 1448 1529 
Q 2069 2156 2228 2338 
Q 2531 2678 2651 2914 
Q 2772 3150 2772 3378 
Q 2772 3750 2511 3984 
Q 2250 4219 1831 4219 
Q 1534 4219 1204 4116 
Q 875 4013 500 3803 
L 500 4441 
Q 881 4594 1212 4672 
Q 1544 4750 1819 4750 
Q 2544 4750 2975 4387 
Q 3406 4025 3406 3419 
Q 3406 3131 3298 2873 
Q 3191 2616 2906 2266 
Q 2828 2175 2409 1742 
Q 1991 1309 1228 531 
z
" transform="scale(0.015625)"/>
       </defs>
       <use xlink:href="#DejaVuSans-31"/>
       <use xlink:href="#DejaVuSans-2e" x="63.623047"/>
       <use xlink:href="#DejaVuSans-32" x="95.410156"/>
      </g>
     </g>
    </g>
    <g id="text_6">
     <!-- Inverse coupling $\beta$ -->
     <g transform="translate(319.637723 412.645938) scale(0.13 -0.13)">
      <defs>
       <path id="DejaVuSans-49" d="M 628 4666 
L 1259 4666 
L 1259 0 
L 628 0 
L 628 4666 
z
" transform="scale(0.015625)"/>
       <path id="DejaVuSans-6e" d="M 3513 2113 
L 3513 0 
L 2938 0 
L 2938 2094 
Q 2938 2591 2744 2837 
Q 2550 3084 2163 3084 
Q 1697 3084 1428 2787 
Q 1159 2491 1159 1978 
L 1159 0 
L 581 0 
L 581 3500 
L 1159 3500 
L 1159 2956 
Q 1366 3272 1645 3428 
Q 1925 3584 2291 3584 
Q 2894 3584 3203 3211 
Q 3513 2838 3513 2113 
z
" transform="scale(0.015625)"/>
       <path id="DejaVuSans-76" d="M 191 3500 
L 800 3500 
L 1894 563 
L 2988 3500 
L 3597 3500 
L 2284 0 
L 1503 0 
L 191 3500 
z
" transform="scale(0.015625)"/>
       <path id="DejaVuSans-65" d="M 3597 1894 
L 3597 1613 
L 953 1613 
Q 991 1019 1311 708 
Q 1631 397 2203 397 
Q 2534 397 2845 478 
Q 3156 559 3463 722 
L 3463 178 
Q 3153 47 2828 -22 
Q 2503 -91 2169 -91 
Q 1331 -91 842 396 
Q 353 884 353 1716 
Q 353 2575 817 3079 
Q 1281 3584 2069 3584 
Q 2775 3584 3186 3129 
Q 3597 2675 3597 1894 
z
M 3022 2063 
Q 3016 2534 2758 2815 
Q 2500 3097 2075 3097 
Q 1594 3097 1305 2825 
Q 1016 2553 972 2059 
L 3022 2063 
z
" transform="scale(0.015625)"/>
       <path id="DejaVuSans-72" d="M 2631 2963 
Q 2534 3019 2420 3045 
Q 2306 3072 2169 3072 
Q 1681 3072 1420 2755 
Q 1159 2438 1159 1844 
L 1159 0 
L 581 0 
L 581 3500 
L 1159 3500 
L 1159 2956 
Q 1341 3275 1631 3429 
Q 1922 3584 2338 3584 
Q 2397 3584 2469 3576 
Q 2541 3569 2628 3553 
L 2631 2963 
z
" transform="scale(0.015625)"/>
       <path id="DejaVuSans-73" d="M 2834 3397 
L 2834 2853 
Q 2591 2978 2328 3040 
Q 2066 3103 1784 3103 
Q 1356 3103 1142 2972 
Q 928 2841 928 2578 
Q 928 2378 1081 2264 
Q 1234 2150 1697 2047 
L 1894 2003 
Q 2506 1872 2764 1633 
Q 3022 1394 3022 966 
Q 3022 478 2636 193 
Q 2250 -91 1575 -91 
Q 1294 -91 989 -36 
Q 684 19 347 128 
L 347 722 
Q 666 556 975 473 
Q 1284 391 1588 391 
Q 1994 391 2212 530 
Q 2431 669 2431 922 
Q 2431 1156 2273 1281 
Q 2116 1406 1581 1522 
L 1381 1569 
Q 847 1681 609 1914 
Q 372 2147 372 2553 
Q 372 3047 722 3315 
Q 1072 3584 1716 3584 
Q 2034 3584 2315 3537 
Q 2597 3491 2834 3397 
z
" transform="scale(0.015625)"/>
       <path id="DejaVuSans-20" transform="scale(0.015625)"/>
       <path id="DejaVuSans-63" d="M 3122 3366 
L 3122 2828 
Q 2878 2963 2633 3030 
Q 2388 3097 2138 3097 
Q 1578 3097 1268 2742 
Q 959 2388 959 1747 
Q 959 1106 1268 751 
Q 1578 397 2138 397 
Q 2388 397 2633 464 
Q 2878 531 3122 666 
L 3122 134 
Q 2881 22 2623 -34 
Q 2366 -91 2075 -91 
Q 1284 -91 818 406 
Q 353 903 353 1747 
Q 353 2603 823 3093 
Q 1294 3584 2113 3584 
Q 2378 3584 2631 3529 
Q 2884 3475 3122 3366 
z
" transform="scale(0.015625)"/>
       <path id="DejaVuSans-6f" d="M 1959 3097 
Q 1497 3097 1228 2736 
Q 959 2375 959 1747 
Q 959 1119 1226 758 
Q 1494 397 1959 397 
Q 2419 397 2687 759 
Q 2956 1122 2956 1747 
Q 2956 2369 2687 2733 
Q 2419 3097 1959 3097 
z
M 1959 3584 
Q 2709 3584 3137 3096 
Q 3566 2609 3566 1747 
Q 3566 888 3137 398 
Q 2709 -91 1959 -91 
Q 1206 -91 779 398 
Q 353 888 353 1747 
Q 353 2609 779 3096 
Q 1206 3584 1959 3584 
z
" transform="scale(0.015625)"/>
       <path id="DejaVuSans-75" d="M 544 1381 
L 544 3500 
L 1119 3500 
L 1119 1403 
Q 1119 906 1312 657 
Q 1506 409 1894 409 
Q 2359 409 2629 706 
Q 2900 1003 2900 1516 
L 2900 3500 
L 3475 3500 
L 3475 0 
L 2900 0 
L 2900 538 
Q 2691 219 2414 64 
Q 2138 -91 1772 -91 
Q 1169 -91 856 284 
Q 544 659 544 1381 
z
M 1991 3584 
L 1991 3584 
z
" transform="scale(0.015625)"/>
       <path id="DejaVuSans-70" d="M 1159 525 
L 1159 -1331 
L 581 -1331 
L 581 3500 
L 1159 3500 
L 1159 2969 
Q 1341 3281 1617 3432 
Q 1894 3584 2278 3584 
Q 2916 3584 3314 3078 
Q 3713 2572 3713 1747 
Q 3713 922 3314 415 
Q 2916 -91 2278 -91 
Q 1894 -91 1617 61 
Q 1341 213 1159 525 
z
M 3116 1747 
Q 3116 2381 2855 2742 
Q 2594 3103 2138 3103 
Q 1681 3103 1420 2742 
Q 1159 2381 1159 1747 
Q 1159 1113 1420 752 
Q 1681 391 2138 391 
Q 2594 391 2855 752 
Q 3116 1113 3116 1747 
z
" transform="scale(0.015625)"/>
       <path id="DejaVuSans-6c" d="M 603 4863 
L 1178 4863 
L 1178 0 
L 603 0 
L 603 4863 
z
" transform="scale(0.015625)"/>
       <path id="DejaVuSans-69" d="M 603 3500 
L 1178 3500 
L 1178 0 
L 603 0 
L 603 3500 
z
M 603 4863 
L 1178 4863 
L 1178 4134 
L 603 4134 
L 603 4863 
z
" transform="scale(0.015625)"/>
       <path id="DejaVuSans-67" d="M 2906 1791 
Q 2906 2416 2648 2759 
Q 2391 3103 1925 3103 
Q 1463 3103 1205 2759 
Q 947 2416 947 1791 
Q 947 1169 1205 825 
Q 1463 481 1925 481 
Q 2391 481 2648 825 
Q 2906 1169 2906 1791 
z
M 3481 434 
Q 3481 -459 3084 -895 
Q 2688 -1331 1869 -1331 
Q 1566 -1331 1297 -1286 
Q 1028 -1241 775 -1147 
L 775 -588 
Q 1028 -725 1275 -790 
Q 1522 -856 1778 -856 
Q 2344 -856 2625 -561 
Q 2906 -266 2906 331 
L 2906 616 
Q 2728 306 2450 153 
Q 2172 0 1784 0 
Q 1141 0 747 490 
Q 353 981 353 1791 
Q 353 2603 747 3093 
Q 1141 3584 1784 3584 
Q 2172 3584 2450 3431 
Q 2728 3278 2906 2969 
L 2906 3500 
L 3481 3500 
L 3481 434 
z
" transform="scale(0.015625)"/>
       <path id="DejaVuSans-Oblique-3b2" d="M 872 216 
L 572 -1331 
L -6 -1331 
L 928 3478 
Q 1206 4903 2538 4903 
Q 3888 4903 3659 3700 
Q 3503 2844 2894 2531 
Q 3713 2250 3553 1416 
Q 3272 -69 1759 -66 
Q 1097 -63 872 216 
z
M 1019 966 
Q 1259 422 1875 425 
Q 2775 425 2966 1406 
Q 3138 2288 1675 2219 
L 1778 2750 
Q 2909 2731 3106 3750 
Q 3241 4438 2509 4434 
Q 1691 4434 1503 3459 
L 1019 966 
z
" transform="scale(0.015625)"/>
      </defs>
      <use xlink:href="#DejaVuSans-49" transform="translate(0 0.390625)"/>
      <use xlink:href="#DejaVuSans-6e" transform="translate(29.492188 0.390625)"/>
      <use xlink:href="#DejaVuSans-76" transform="translate(92.871094 0.390625)"/>
      <use xlink:href="#DejaVuSans-65" transform="translate(152.050781 0.390625)"/>
      <use xlink:href="#DejaVuSans-72" transform="translate(213.574219 0.390625)"/>
      <use xlink:href="#DejaVuSans-73" transform="translate(254.6875 0.390625)"/>
      <use xlink:href="#DejaVuSans-65" transform="translate(306.787109 0.390625)"/>
      <use xlink:href="#DejaVuSans-20" transform="translate(368.310547 0.390625)"/>
      <use xlink:href="#DejaVuSans-63" transform="translate(400.097656 0.390625)"/>
      <use xlink:href="#DejaVuSans-6f" transform="translate(455.078125 0.390625)"/>
      <use xlink:href="#DejaVuSans-75" transform="translate(516.259766 0.390625)"/>
      <use xlink:href="#DejaVuSans-70" transform="translate(579.638672 0.390625)"/>
      <use xlink:href="#DejaVuSans-6c" transform="translate(643.115234 0.390625)"/>
      <use xlink:href="#DejaVuSans-69" transform="translate(670.898438 0.390625)"/>
      <use xlink:href="#DejaVuSans-6e" transform="translate(698.681641 0.390625)"/>
      <use xlink:href="#DejaVuSans-67" transform="translate(762.060547 0.390625)"/>
      <use xlink:href="#DejaVuSans-20" transform="translate(825.537109 0.390625)"/>
      <use xlink:href="#DejaVuSans-Oblique-3b2" transform="translate(857.324219 0.390625)"/>
     </g>
    </g>
   </g>
   <g id="matplotlib.axis_2">
    <g id="ytick_1">
     <g id="line2d_11">
      <path d="M 54.44 368.978395 
L 704.695446 368.978395 
" clip-path="url(#p943f4b2cda)" style="fill: none; stroke: #b0b0b0; stroke-opacity: 0.3; stroke-width: 0.8; stroke-linecap: square"/>
     </g>
     <g id="line2d_12">
      <defs>
       <path id="m3199db0570" d="M 0 0 
L -3.5 0 
" style="stroke: #000000; stroke-width: 0.8"/>
      </defs>
      <g>
       <use xlink:href="#m3199db0570" x="54.44" y="368.978395" style="stroke: #000000; stroke-width: 0.8"/>
      </g>
     </g>
     <g id="text_7">
      <!-- $\mathdefault{10^{-4}}$ -->
      <g transform="translate(23.94 372.777613) scale(0.1 -0.1)">
       <defs>
        <path id="DejaVuSans-2212" d="M 678 2272 
L 4684 2272 
L 4684 1741 
L 678 1741 
L 678 2272 
z
" transform="scale(0.015625)"/>
       </defs>
       <use xlink:href="#DejaVuSans-31" transform="translate(0 0.684375)"/>
       <use xlink:href="#DejaVuSans-30" transform="translate(63.623047 0.684375)"/>
       <use xlink:href="#DejaVuSans-2212" transform="translate(128.203125 38.965625) scale(0.7)"/>
       <use xlink:href="#DejaVuSans-34" transform="translate(186.855469 38.965625) scale(0.7)"/>
      </g>
     </g>
    </g>
    <g id="ytick_2">
     <g id="line2d_13">
      <path d="M 54.44 282.781472 
L 704.695446 282.781472 
" clip-path="url(#p943f4b2cda)" style="fill: none; stroke: #b0b0b0; stroke-opacity: 0.3; stroke-width: 0.8; stroke-linecap: square"/>
     </g>
     <g id="line2d_14">
      <g>
       <use xlink:href="#m3199db0570" x="54.44" y="282.781472" style="stroke: #000000; stroke-width: 0.8"/>
      </g>
     </g>
     <g id="text_8">
      <!-- $\mathdefault{10^{-3}}$ -->
      <g transform="translate(23.94 286.580691) scale(0.1 -0.1)">
       <defs>
        <path id="DejaVuSans-33" d="M 2597 2516 
Q 3050 2419 3304 2112 
Q 3559 1806 3559 1356 
Q 3559 666 3084 287 
Q 2609 -91 1734 -91 
Q 1441 -91 1130 -33 
Q 819 25 488 141 
L 488 750 
Q 750 597 1062 519 
Q 1375 441 1716 441 
Q 2309 441 2620 675 
Q 2931 909 2931 1356 
Q 2931 1769 2642 2001 
Q 2353 2234 1838 2234 
L 1294 2234 
L 1294 2753 
L 1863 2753 
Q 2328 2753 2575 2939 
Q 2822 3125 2822 3475 
Q 2822 3834 2567 4026 
Q 2313 4219 1838 4219 
Q 1578 4219 1281 4162 
Q 984 4106 628 3988 
L 628 4550 
Q 988 4650 1302 4700 
Q 1616 4750 1894 4750 
Q 2613 4750 3031 4423 
Q 3450 4097 3450 3541 
Q 3450 3153 3228 2886 
Q 3006 2619 2597 2516 
z
" transform="scale(0.015625)"/>
       </defs>
       <use xlink:href="#DejaVuSans-31" transform="translate(0 0.765625)"/>
       <use xlink:href="#DejaVuSans-30" transform="translate(63.623047 0.765625)"/>
       <use xlink:href="#DejaVuSans-2212" transform="translate(128.203125 39.046875) scale(0.7)"/>
       <use xlink:href="#DejaVuSans-33" transform="translate(186.855469 39.046875) scale(0.7)"/>
      </g>
     </g>
    </g>
    <g id="ytick_3">
     <g id="line2d_15">
      <path d="M 54.44 196.58455 
L 704.695446 196.58455 
" clip-path="url(#p943f4b2cda)" style="fill: none; stroke: #b0b0b0; stroke-opacity: 0.3; stroke-width: 0.8; stroke-linecap: square"/>
     </g>
     <g id="line2d_16">
      <g>
       <use xlink:href="#m3199db0570" x="54.44" y="196.58455" style="stroke: #000000; stroke-width: 0.8"/>
      </g>
     </g>
     <g id="text_9">
      <!-- $\mathdefault{10^{-2}}$ -->
      <g transform="translate(23.94 200.383768) scale(0.1 -0.1)">
       <use xlink:href="#DejaVuSans-31" transform="translate(0 0.765625)"/>
       <use xlink:href="#DejaVuSans-30" transform="translate(63.623047 0.765625)"/>
       <use xlink:href="#DejaVuSans-2212" transform="translate(128.203125 39.046875) scale(0.7)"/>
       <use xlink:href="#DejaVuSans-32" transform="translate(186.855469 39.046875) scale(0.7)"/>
      </g>
     </g>
    </g>
    <g id="ytick_4">
     <g id="line2d_17">
      <path d="M 54.44 110.387627 
L 704.695446 110.387627 
" clip-path="url(#p943f4b2cda)" style="fill: none; stroke: #b0b0b0; stroke-opacity: 0.3; stroke-width: 0.8; stroke-linecap: square"/>
     </g>
     <g id="line2d_18">
      <g>
       <use xlink:href="#m3199db0570" x="54.44" y="110.387627" style="stroke: #000000; stroke-width: 0.8"/>
      </g>
     </g>
     <g id="text_10">
      <!-- $\mathdefault{10^{-1}}$ -->
      <g transform="translate(23.94 114.186846) scale(0.1 -0.1)">
       <use xlink:href="#DejaVuSans-31" transform="translate(0 0.684375)"/>
       <use xlink:href="#DejaVuSans-30" transform="translate(63.623047 0.684375)"/>
       <use xlink:href="#DejaVuSans-2212" transform="translate(128.203125 38.965625) scale(0.7)"/>
       <use xlink:href="#DejaVuSans-31" transform="translate(186.855469 38.965625) scale(0.7)"/>
      </g>
     </g>
    </g>
    <g id="ytick_5">
     <g id="line2d_19">
      <path d="M 54.44 24.190705 
L 704.695446 24.190705 
" clip-path="url(#p943f4b2cda)" style="fill: none; stroke: #b0b0b0; stroke-opacity: 0.3; stroke-width: 0.8; stroke-linecap: square"/>
     </g>
     <g id="line2d_20">
      <g>
       <use xlink:href="#m3199db0570" x="54.44" y="24.190705" style="stroke: #000000; stroke-width: 0.8"/>
      </g>
     </g>
     <g id="text_11">
      <!-- $\mathdefault{10^{0}}$ -->
      <g transform="translate(29.84 27.989923) scale(0.1 -0.1)">
       <use xlink:href="#DejaVuSans-31" transform="translate(0 0.765625)"/>
       <use xlink:href="#DejaVuSans-30" transform="translate(63.623047 0.765625)"/>
       <use xlink:href="#DejaVuSans-30" transform="translate(128.203125 39.046875) scale(0.7)"/>
      </g>
     </g>
    </g>
    <g id="ytick_6">
     <g id="line2d_21">
      <defs>
       <path id="m3c17ae7057" d="M 0 0 
L -2 0 
" style="stroke: #000000; stroke-width: 0.6"/>
      </defs>
      <g>
       <use xlink:href="#m3c17ae7057" x="54.44" y="377.33174" style="stroke: #000000; stroke-width: 0.6"/>
      </g>
     </g>
    </g>
    <g id="ytick_7">
     <g id="line2d_22">
      <g>
       <use xlink:href="#m3c17ae7057" x="54.44" y="372.92255" style="stroke: #000000; stroke-width: 0.6"/>
      </g>
     </g>
    </g>
    <g id="ytick_8">
     <g id="line2d_23">
      <g>
       <use xlink:href="#m3c17ae7057" x="54.44" y="343.030535" style="stroke: #000000; stroke-width: 0.6"/>
      </g>
     </g>
    </g>
    <g id="ytick_9">
     <g id="line2d_24">
      <g>
       <use xlink:href="#m3c17ae7057" x="54.44" y="327.852011" style="stroke: #000000; stroke-width: 0.6"/>
      </g>
     </g>
    </g>
    <g id="ytick_10">
     <g id="line2d_25">
      <g>
       <use xlink:href="#m3c17ae7057" x="54.44" y="317.082676" style="stroke: #000000; stroke-width: 0.6"/>
      </g>
     </g>
    </g>
    <g id="ytick_11">
     <g id="line2d_26">
      <g>
       <use xlink:href="#m3c17ae7057" x="54.44" y="308.729331" style="stroke: #000000; stroke-width: 0.6"/>
      </g>
     </g>
    </g>
    <g id="ytick_12">
     <g id="line2d_27">
      <g>
       <use xlink:href="#m3c17ae7057" x="54.44" y="301.904152" style="stroke: #000000; stroke-width: 0.6"/>
      </g>
     </g>
    </g>
    <g id="ytick_13">
     <g id="line2d_28">
      <g>
       <use xlink:href="#m3c17ae7057" x="54.44" y="296.133544" style="stroke: #000000; stroke-width: 0.6"/>
      </g>
     </g>
    </g>
    <g id="ytick_14">
     <g id="line2d_29">
      <g>
       <use xlink:href="#m3c17ae7057" x="54.44" y="291.134817" style="stroke: #000000; stroke-width: 0.6"/>
      </g>
     </g>
    </g>
    <g id="ytick_15">
     <g id="line2d_30">
      <g>
       <use xlink:href="#m3c17ae7057" x="54.44" y="286.725627" style="stroke: #000000; stroke-width: 0.6"/>
      </g>
     </g>
    </g>
    <g id="ytick_16">
     <g id="line2d_31">
      <g>
       <use xlink:href="#m3c17ae7057" x="54.44" y="256.833613" style="stroke: #000000; stroke-width: 0.6"/>
      </g>
     </g>
    </g>
    <g id="ytick_17">
     <g id="line2d_32">
      <g>
       <use xlink:href="#m3c17ae7057" x="54.44" y="241.655088" style="stroke: #000000; stroke-width: 0.6"/>
      </g>
     </g>
    </g>
    <g id="ytick_18">
     <g id="line2d_33">
      <g>
       <use xlink:href="#m3c17ae7057" x="54.44" y="230.885754" style="stroke: #000000; stroke-width: 0.6"/>
      </g>
     </g>
    </g>
    <g id="ytick_19">
     <g id="line2d_34">
      <g>
       <use xlink:href="#m3c17ae7057" x="54.44" y="222.532409" style="stroke: #000000; stroke-width: 0.6"/>
      </g>
     </g>
    </g>
    <g id="ytick_20">
     <g id="line2d_35">
      <g>
       <use xlink:href="#m3c17ae7057" x="54.44" y="215.707229" style="stroke: #000000; stroke-width: 0.6"/>
      </g>
     </g>
    </g>
    <g id="ytick_21">
     <g id="line2d_36">
      <g>
       <use xlink:href="#m3c17ae7057" x="54.44" y="209.936622" style="stroke: #000000; stroke-width: 0.6"/>
      </g>
     </g>
    </g>
    <g id="ytick_22">
     <g id="line2d_37">
      <g>
       <use xlink:href="#m3c17ae7057" x="54.44" y="204.937895" style="stroke: #000000; stroke-width: 0.6"/>
      </g>
     </g>
    </g>
    <g id="ytick_23">
     <g id="line2d_38">
      <g>
       <use xlink:href="#m3c17ae7057" x="54.44" y="200.528705" style="stroke: #000000; stroke-width: 0.6"/>
      </g>
     </g>
    </g>
    <g id="ytick_24">
     <g id="line2d_39">
      <g>
       <use xlink:href="#m3c17ae7057" x="54.44" y="170.63669" style="stroke: #000000; stroke-width: 0.6"/>
      </g>
     </g>
    </g>
    <g id="ytick_25">
     <g id="line2d_40">
      <g>
       <use xlink:href="#m3c17ae7057" x="54.44" y="155.458166" style="stroke: #000000; stroke-width: 0.6"/>
      </g>
     </g>
    </g>
    <g id="ytick_26">
     <g id="line2d_41">
      <g>
       <use xlink:href="#m3c17ae7057" x="54.44" y="144.688831" style="stroke: #000000; stroke-width: 0.6"/>
      </g>
     </g>
    </g>
    <g id="ytick_27">
     <g id="line2d_42">
      <g>
       <use xlink:href="#m3c17ae7057" x="54.44" y="136.335486" style="stroke: #000000; stroke-width: 0.6"/>
      </g>
     </g>
    </g>
    <g id="ytick_28">
     <g id="line2d_43">
      <g>
       <use xlink:href="#m3c17ae7057" x="54.44" y="129.510307" style="stroke: #000000; stroke-width: 0.6"/>
      </g>
     </g>
    </g>
    <g id="ytick_29">
     <g id="line2d_44">
      <g>
       <use xlink:href="#m3c17ae7057" x="54.44" y="123.739699" style="stroke: #000000; stroke-width: 0.6"/>
      </g>
     </g>
    </g>
    <g id="ytick_30">
     <g id="line2d_45">
      <g>
       <use xlink:href="#m3c17ae7057" x="54.44" y="118.740972" style="stroke: #000000; stroke-width: 0.6"/>
      </g>
     </g>
    </g>
    <g id="ytick_31">
     <g id="line2d_46">
      <g>
       <use xlink:href="#m3c17ae7057" x="54.44" y="114.331782" style="stroke: #000000; stroke-width: 0.6"/>
      </g>
     </g>
    </g>
    <g id="ytick_32">
     <g id="line2d_47">
      <g>
       <use xlink:href="#m3c17ae7057" x="54.44" y="84.439768" style="stroke: #000000; stroke-width: 0.6"/>
      </g>
     </g>
    </g>
    <g id="ytick_33">
     <g id="line2d_48">
      <g>
       <use xlink:href="#m3c17ae7057" x="54.44" y="69.261243" style="stroke: #000000; stroke-width: 0.6"/>
      </g>
     </g>
    </g>
    <g id="ytick_34">
     <g id="line2d_49">
      <g>
       <use xlink:href="#m3c17ae7057" x="54.44" y="58.491909" style="stroke: #000000; stroke-width: 0.6"/>
      </g>
     </g>
    </g>
    <g id="ytick_35">
     <g id="line2d_50">
      <g>
       <use xlink:href="#m3c17ae7057" x="54.44" y="50.138564" style="stroke: #000000; stroke-width: 0.6"/>
      </g>
     </g>
    </g>
    <g id="ytick_36">
     <g id="line2d_51">
      <g>
       <use xlink:href="#m3c17ae7057" x="54.44" y="43.313384" style="stroke: #000000; stroke-width: 0.6"/>
      </g>
     </g>
    </g>
    <g id="ytick_37">
     <g id="line2d_52">
      <g>
       <use xlink:href="#m3c17ae7057" x="54.44" y="37.542777" style="stroke: #000000; stroke-width: 0.6"/>
      </g>
     </g>
    </g>
    <g id="ytick_38">
     <g id="line2d_53">
      <g>
       <use xlink:href="#m3c17ae7057" x="54.44" y="32.54405" style="stroke: #000000; stroke-width: 0.6"/>
      </g>
     </g>
    </g>
    <g id="ytick_39">
     <g id="line2d_54">
      <g>
       <use xlink:href="#m3c17ae7057" x="54.44" y="28.13486" style="stroke: #000000; stroke-width: 0.6"/>
      </g>
     </g>
    </g>
    <g id="text_12">
     <!-- String tension $\sigma(\beta)$ -->
     <g transform="translate(17.21 263.737813) rotate(-90) scale(0.13 -0.13)">
      <defs>
       <path id="DejaVuSans-53" d="M 3425 4513 
L 3425 3897 
Q 3066 4069 2747 4153 
Q 2428 4238 2131 4238 
Q 1616 4238 1336 4038 
Q 1056 3838 1056 3469 
Q 1056 3159 1242 3001 
Q 1428 2844 1947 2747 
L 2328 2669 
Q 3034 2534 3370 2195 
Q 3706 1856 3706 1288 
Q 3706 609 3251 259 
Q 2797 -91 1919 -91 
Q 1588 -91 1214 -16 
Q 841 59 441 206 
L 441 856 
Q 825 641 1194 531 
Q 1563 422 1919 422 
Q 2459 422 2753 634 
Q 3047 847 3047 1241 
Q 3047 1584 2836 1778 
Q 2625 1972 2144 2069 
L 1759 2144 
Q 1053 2284 737 2584 
Q 422 2884 422 3419 
Q 422 4038 858 4394 
Q 1294 4750 2059 4750 
Q 2388 4750 2728 4690 
Q 3069 4631 3425 4513 
z
" transform="scale(0.015625)"/>
       <path id="DejaVuSans-74" d="M 1172 4494 
L 1172 3500 
L 2356 3500 
L 2356 3053 
L 1172 3053 
L 1172 1153 
Q 1172 725 1289 603 
Q 1406 481 1766 481 
L 2356 481 
L 2356 0 
L 1766 0 
Q 1100 0 847 248 
Q 594 497 594 1153 
L 594 3053 
L 172 3053 
L 172 3500 
L 594 3500 
L 594 4494 
L 1172 4494 
z
" transform="scale(0.015625)"/>
       <path id="DejaVuSans-Oblique-3c3" d="M 2219 3044 
Q 1744 3044 1422 2700 
Q 1081 2341 969 1747 
Q 844 1119 1044 756 
Q 1241 397 1706 397 
Q 2166 397 2503 759 
Q 2844 1122 2966 1747 
Q 3075 2319 2881 2700 
Q 2700 3044 2219 3044 
z
M 2309 3503 
L 4219 3500 
L 4106 2925 
L 3463 2925 
Q 3706 2438 3575 1747 
Q 3406 888 2884 400 
Q 2359 -91 1609 -91 
Q 856 -91 525 400 
Q 194 888 363 1747 
Q 528 2609 1050 3097 
Q 1484 3503 2309 3503 
z
" transform="scale(0.015625)"/>
       <path id="DejaVuSans-28" d="M 1984 4856 
Q 1566 4138 1362 3434 
Q 1159 2731 1159 2009 
Q 1159 1288 1364 580 
Q 1569 -128 1984 -844 
L 1484 -844 
Q 1016 -109 783 600 
Q 550 1309 550 2009 
Q 550 2706 781 3412 
Q 1013 4119 1484 4856 
L 1984 4856 
z
" transform="scale(0.015625)"/>
       <path id="DejaVuSans-29" d="M 513 4856 
L 1013 4856 
Q 1481 4119 1714 3412 
Q 1947 2706 1947 2009 
Q 1947 1309 1714 600 
Q 1481 -109 1013 -844 
L 513 -844 
Q 928 -128 1133 580 
Q 1338 1288 1338 2009 
Q 1338 2731 1133 3434 
Q 928 4138 513 4856 
z
" transform="scale(0.015625)"/>
      </defs>
      <use xlink:href="#DejaVuSans-53" transform="translate(0 0.390625)"/>
      <use xlink:href="#DejaVuSans-74" transform="translate(63.476562 0.390625)"/>
      <use xlink:href="#DejaVuSans-72" transform="translate(102.685547 0.390625)"/>
      <use xlink:href="#DejaVuSans-69" transform="translate(143.798828 0.390625)"/>
      <use xlink:href="#DejaVuSans-6e" transform="translate(171.582031 0.390625)"/>
      <use xlink:href="#DejaVuSans-67" transform="translate(234.960938 0.390625)"/>
      <use xlink:href="#DejaVuSans-20" transform="translate(298.4375 0.390625)"/>
      <use xlink:href="#DejaVuSans-74" transform="translate(330.224609 0.390625)"/>
      <use xlink:href="#DejaVuSans-65" transform="translate(369.433594 0.390625)"/>
      <use xlink:href="#DejaVuSans-6e" transform="translate(430.957031 0.390625)"/>
      <use xlink:href="#DejaVuSans-73" transform="translate(494.335938 0.390625)"/>
      <use xlink:href="#DejaVuSans-69" transform="translate(546.435547 0.390625)"/>
      <use xlink:href="#DejaVuSans-6f" transform="translate(574.21875 0.390625)"/>
      <use xlink:href="#DejaVuSans-6e" transform="translate(635.400391 0.390625)"/>
      <use xlink:href="#DejaVuSans-20" transform="translate(698.779297 0.390625)"/>
      <use xlink:href="#DejaVuSans-Oblique-3c3" transform="translate(730.566406 0.390625)"/>
      <use xlink:href="#DejaVuSans-28" transform="translate(793.945312 0.390625)"/>
      <use xlink:href="#DejaVuSans-Oblique-3b2" transform="translate(832.958984 0.390625)"/>
      <use xlink:href="#DejaVuSans-29" transform="translate(896.777344 0.390625)"/>
     </g>
    </g>
   </g>
   <g id="LineCollection_1">
    <path d="M 83.997066 57.269973 
L 83.997066 40.115994 
" clip-path="url(#p943f4b2cda)" style="fill: none; stroke: #a23b72; stroke-width: 2"/>
    <path d="M 149.679434 80.105748 
L 149.679434 41.114634 
" clip-path="url(#p943f4b2cda)" style="fill: none; stroke: #a23b72; stroke-width: 2"/>
    <path d="M 215.361802 49.555354 
L 215.361802 44.231871 
" clip-path="url(#p943f4b2cda)" style="fill: none; stroke: #a23b72; stroke-width: 2"/>
    <path d="M 248.202986 52.246423 
L 248.202986 49.724247 
" clip-path="url(#p943f4b2cda)" style="fill: none; stroke: #a23b72; stroke-width: 2"/>
    <path d="M 281.044171 55.828111 
L 281.044171 54.076145 
" clip-path="url(#p943f4b2cda)" style="fill: none; stroke: #a23b72; stroke-width: 2"/>
    <path d="M 313.885355 71.709316 
L 313.885355 70.206256 
" clip-path="url(#p943f4b2cda)" style="fill: none; stroke: #a23b72; stroke-width: 2"/>
    <path d="M 333.590065 82.547253 
L 333.590065 80.760514 
" clip-path="url(#p943f4b2cda)" style="fill: none; stroke: #a23b72; stroke-width: 2"/>
    <path d="M 346.726539 93.56588 
L 346.726539 90.69892 
" clip-path="url(#p943f4b2cda)" style="fill: none; stroke: #a23b72; stroke-width: 2"/>
    <path d="M 359.863013 112.914567 
L 359.863013 107.725018 
" clip-path="url(#p943f4b2cda)" style="fill: none; stroke: #a23b72; stroke-width: 2"/>
    <path d="M 372.999486 147.879885 
L 372.999486 139.643057 
" clip-path="url(#p943f4b2cda)" style="fill: none; stroke: #a23b72; stroke-width: 2"/>
    <path d="M 386.13596 180.059243 
L 386.13596 170.861694 
" clip-path="url(#p943f4b2cda)" style="fill: none; stroke: #a23b72; stroke-width: 2"/>
    <path d="M 399.272434 200.516269 
L 399.272434 190.959375 
" clip-path="url(#p943f4b2cda)" style="fill: none; stroke: #a23b72; stroke-width: 2"/>
    <path d="M 412.408907 213.320066 
L 412.408907 203.688614 
" clip-path="url(#p943f4b2cda)" style="fill: none; stroke: #a23b72; stroke-width: 2"/>
    <path d="M 425.545381 225.189745 
L 425.545381 215.401019 
" clip-path="url(#p943f4b2cda)" style="fill: none; stroke: #a23b72; stroke-width: 2"/>
    <path d="M 438.681855 235.57703 
L 438.681855 225.7464 
" clip-path="url(#p943f4b2cda)" style="fill: none; stroke: #a23b72; stroke-width: 2"/>
    <path d="M 451.818328 244.474762 
L 451.818328 234.632686 
" clip-path="url(#p943f4b2cda)" style="fill: none; stroke: #a23b72; stroke-width: 2"/>
    <path d="M 478.091275 262.112971 
L 478.091275 252.335673 
" clip-path="url(#p943f4b2cda)" style="fill: none; stroke: #a23b72; stroke-width: 2"/>
    <path d="M 510.93246 281.808854 
L 510.93246 272.037508 
" clip-path="url(#p943f4b2cda)" style="fill: none; stroke: #a23b72; stroke-width: 2"/>
    <path d="M 543.773644 299.628739 
L 543.773644 289.836347 
" clip-path="url(#p943f4b2cda)" style="fill: none; stroke: #a23b72; stroke-width: 2"/>
    <path d="M 609.456012 333.335857 
L 609.456012 323.681115 
" clip-path="url(#p943f4b2cda)" style="fill: none; stroke: #a23b72; stroke-width: 2"/>
    <path d="M 675.13838 365.679631 
L 675.13838 355.963978 
" clip-path="url(#p943f4b2cda)" style="fill: none; stroke: #a23b72; stroke-width: 2"/>
   </g>
   <g id="line2d_55">
    <defs>
     <path id="ma18399c3b8" d="M 4 0 
L -4 -0 
" style="stroke: #a23b72; stroke-width: 1.5"/>
    </defs>
    <g clip-path="url(#p943f4b2cda)">
     <use xlink:href="#ma18399c3b8" x="83.997066" y="57.269973" style="fill: #a23b72; stroke: #a23b72; stroke-width: 1.5"/>
     <use xlink:href="#ma18399c3b8" x="149.679434" y="80.105748" style="fill: #a23b72; stroke: #a23b72; stroke-width: 1.5"/>
     <use xlink:href="#ma18399c3b8" x="215.361802" y="49.555354" style="fill: #a23b72; stroke: #a23b72; stroke-width: 1.5"/>
     <use xlink:href="#ma18399c3b8" x="248.202986" y="52.246423" style="fill: #a23b72; stroke: #a23b72; stroke-width: 1.5"/>
     <use xlink:href="#ma18399c3b8" x="281.044171" y="55.828111" style="fill: #a23b72; stroke: #a23b72; stroke-width: 1.5"/>
     <use xlink:href="#ma18399c3b8" x="313.885355" y="71.709316" style="fill: #a23b72; stroke: #a23b72; stroke-width: 1.5"/>
     <use xlink:href="#ma18399c3b8" x="333.590065" y="82.547253" style="fill: #a23b72; stroke: #a23b72; stroke-width: 1.5"/>
     <use xlink:href="#ma18399c3b8" x="346.726539" y="93.56588" style="fill: #a23b72; stroke: #a23b72; stroke-width: 1.5"/>
     <use xlink:href="#ma18399c3b8" x="359.863013" y="112.914567" style="fill: #a23b72; stroke: #a23b72; stroke-width: 1.5"/>
     <use xlink:href="#ma18399c3b8" x="372.999486" y="147.879885" style="fill: #a23b72; stroke: #a23b72; stroke-width: 1.5"/>
     <use xlink:href="#ma18399c3b8" x="386.13596" y="180.059243" style="fill: #a23b72; stroke: #a23b72; stroke-width: 1.5"/>
     <use xlink:href="#ma18399c3b8" x="399.272434" y="200.516269" style="fill: #a23b72; stroke: #a23b72; stroke-width: 1.5"/>
     <use xlink:href="#ma18399c3b8" x="412.408907" y="213.320066" style="fill: #a23b72; stroke: #a23b72; stroke-width: 1.5"/>
     <use xlink:href="#ma18399c3b8" x="425.545381" y="225.189745" style="fill: #a23b72; stroke: #a23b72; stroke-width: 1.5"/>
     <use xlink:href="#ma18399c3b8" x="438.681855" y="235.57703" style="fill: #a23b72; stroke: #a23b72; stroke-width: 1.5"/>
     <use xlink:href="#ma18399c3b8" x="451.818328" y="244.474762" style="fill: #a23b72; stroke: #a23b72; stroke-width: 1.5"/>
     <use xlink:href="#ma18399c3b8" x="478.091275" y="262.112971" style="fill: #a23b72; stroke: #a23b72; stroke-width: 1.5"/>
     <use xlink:href="#ma18399c3b8" x="510.93246" y="281.808854" style="fill: #a23b72; stroke: #a23b72; stroke-width: 1.5"/>
     <use xlink:href="#ma18399c3b8" x="543.773644" y="299.628739" style="fill: #a23b72; stroke: #a23b72; stroke-width: 1.5"/>
     <use xlink:href="#ma18399c3b8" x="609.456012" y="333.335857" style="fill: #a23b72; stroke: #a23b72; stroke-width: 1.5"/>
     <use xlink:href="#ma18399c3b8" x="675.13838" y="365.679631" style="fill: #a23b72; stroke: #a23b72; stroke-width: 1.5"/>
    </g>
   </g>
   <g id="line2d_56">
    <g clip-path="url(#p943f4b2cda)">
     <use xlink:href="#ma18399c3b8" x="83.997066" y="40.115994" style="fill: #a23b72; stroke: #a23b72; stroke-width: 1.5"/>
     <use xlink:href="#ma18399c3b8" x="149.679434" y="41.114634" style="fill: #a23b72; stroke: #a23b72; stroke-width: 1.5"/>
     <use xlink:href="#ma18399c3b8" x="215.361802" y="44.231871" style="fill: #a23b72; stroke: #a23b72; stroke-width: 1.5"/>
     <use xlink:href="#ma18399c3b8" x="248.202986" y="49.724247" style="fill: #a23b72; stroke: #a23b72; stroke-width: 1.5"/>
     <use xlink:href="#ma18399c3b8" x="281.044171" y="54.076145" style="fill: #a23b72; stroke: #a23b72; stroke-width: 1.5"/>
     <use xlink:href="#ma18399c3b8" x="313.885355" y="70.206256" style="fill: #a23b72; stroke: #a23b72; stroke-width: 1.5"/>
     <use xlink:href="#ma18399c3b8" x="333.590065" y="80.760514" style="fill: #a23b72; stroke: #a23b72; stroke-width: 1.5"/>
     <use xlink:href="#ma18399c3b8" x="346.726539" y="90.69892" style="fill: #a23b72; stroke: #a23b72; stroke-width: 1.5"/>
     <use xlink:href="#ma18399c3b8" x="359.863013" y="107.725018" style="fill: #a23b72; stroke: #a23b72; stroke-width: 1.5"/>
     <use xlink:href="#ma18399c3b8" x="372.999486" y="139.643057" style="fill: #a23b72; stroke: #a23b72; stroke-width: 1.5"/>
     <use xlink:href="#ma18399c3b8" x="386.13596" y="170.861694" style="fill: #a23b72; stroke: #a23b72; stroke-width: 1.5"/>
     <use xlink:href="#ma18399c3b8" x="399.272434" y="190.959375" style="fill: #a23b72; stroke: #a23b72; stroke-width: 1.5"/>
     <use xlink:href="#ma18399c3b8" x="412.408907" y="203.688614" style="fill: #a23b72; stroke: #a23b72; stroke-width: 1.5"/>
     <use xlink:href="#ma18399c3b8" x="425.545381" y="215.401019" style="fill: #a23b72; stroke: #a23b72; stroke-width: 1.5"/>
     <use xlink:href="#ma18399c3b8" x="438.681855" y="225.7464" style="fill: #a23b72; stroke: #a23b72; stroke-width: 1.5"/>
     <use xlink:href="#ma18399c3b8" x="451.818328" y="234.632686" style="fill: #a23b72; stroke: #a23b72; stroke-width: 1.5"/>
     <use xlink:href="#ma18399c3b8" x="478.091275" y="252.335673" style="fill: #a23b72; stroke: #a23b72; stroke-width: 1.5"/>
     <use xlink:href="#ma18399c3b8" x="510.93246" y="272.037508" style="fill: #a23b72; stroke: #a23b72; stroke-width: 1.5"/>
     <use xlink:href="#ma18399c3b8" x="543.773644" y="289.836347" style="fill: #a23b72; stroke: #a23b72; stroke-width: 1.5"/>
     <use xlink:href="#ma18399c3b8" x="609.456012" y="323.681115" style="fill: #a23b72; stroke: #a23b72; stroke-width: 1.5"/>
     <use xlink:href="#ma18399c3b8" x="675.13838" y="355.963978" style="fill: #a23b72; stroke: #a23b72; stroke-width: 1.5"/>
    </g>
   </g>
   <g id="line2d_57">
    <path d="M 83.997066 47.718891 
L 149.679434 55.747815 
L 215.361802 46.799063 
L 248.202986 50.964098 
L 281.044171 54.94188 
L 313.885355 70.950243 
L 333.590065 81.643224 
L 346.726539 92.104961 
L 359.863013 110.229937 
L 372.999486 143.535382 
L 386.13596 175.178702 
L 399.272434 195.433669 
L 412.408907 208.195436 
L 425.545381 219.976336 
L 438.681855 230.33994 
L 451.818328 239.231201 
L 478.091275 256.906019 
L 510.93246 276.605264 
L 543.773644 294.413259 
L 609.456012 328.19809 
L 675.13838 360.507491 
" clip-path="url(#p943f4b2cda)" style="fill: none; stroke: #2e86ab; stroke-width: 2; stroke-linecap: square"/>
    <defs>
     <path id="m1016d56e20" d="M 0 3 
C 0.795609 3 1.55874 2.683901 2.12132 2.12132 
C 2.683901 1.55874 3 0.795609 3 0 
C 3 -0.795609 2.683901 -1.55874 2.12132 -2.12132 
C 1.55874 -2.683901 0.795609 -3 0 -3 
C -0.795609 -3 -1.55874 -2.683901 -2.12132 -2.12132 
C -2.683901 -1.55874 -3 -0.795609 -3 0 
C -3 0.795609 -2.683901 1.55874 -2.12132 2.12132 
C -1.55874 2.683901 -0.795609 3 0 3 
z
" style="stroke: #2e86ab"/>
    </defs>
    <g clip-path="url(#p943f4b2cda)">
     <use xlink:href="#m1016d56e20" x="83.997066" y="47.718891" style="fill: #2e86ab; stroke: #2e86ab"/>
     <use xlink:href="#m1016d56e20" x="149.679434" y="55.747815" style="fill: #2e86ab; stroke: #2e86ab"/>
     <use xlink:href="#m1016d56e20" x="215.361802" y="46.799063" style="fill: #2e86ab; stroke: #2e86ab"/>
     <use xlink:href="#m1016d56e20" x="248.202986" y="50.964098" style="fill: #2e86ab; stroke: #2e86ab"/>
     <use xlink:href="#m1016d56e20" x="281.044171" y="54.94188" style="fill: #2e86ab; stroke: #2e86ab"/>
     <use xlink:href="#m1016d56e20" x="313.885355" y="70.950243" style="fill: #2e86ab; stroke: #2e86ab"/>
     <use xlink:href="#m1016d56e20" x="333.590065" y="81.643224" style="fill: #2e86ab; stroke: #2e86ab"/>
     <use xlink:href="#m1016d56e20" x="346.726539" y="92.104961" style="fill: #2e86ab; stroke: #2e86ab"/>
     <use xlink:href="#m1016d56e20" x="359.863013" y="110.229937" style="fill: #2e86ab; stroke: #2e86ab"/>
     <use xlink:href="#m1016d56e20" x="372.999486" y="143.535382" style="fill: #2e86ab; stroke: #2e86ab"/>
     <use xlink:href="#m1016d56e20" x="386.13596" y="175.178702" style="fill: #2e86ab; stroke: #2e86ab"/>
     <use xlink:href="#m1016d56e20" x="399.272434" y="195.433669" style="fill: #2e86ab; stroke: #2e86ab"/>
     <use xlink:href="#m1016d56e20" x="412.408907" y="208.195436" style="fill: #2e86ab; stroke: #2e86ab"/>
     <use xlink:href="#m1016d56e20" x="425.545381" y="219.976336" style="fill: #2e86ab; stroke: #2e86ab"/>
     <use xlink:href="#m1016d56e20" x="438.681855" y="230.33994" style="fill: #2e86ab; stroke: #2e86ab"/>
     <use xlink:href="#m1016d56e20" x="451.818328" y="239.231201" style="fill: #2e86ab; stroke: #2e86ab"/>
     <use xlink:href="#m1016d56e20" x="478.091275" y="256.906019" style="fill: #2e86ab; stroke: #2e86ab"/>
     <use xlink:href="#m1016d56e20" x="510.93246" y="276.605264" style="fill: #2e86ab; stroke: #2e86ab"/>
     <use xlink:href="#m1016d56e20" x="543.773644" y="294.413259" style="fill: #2e86ab; stroke: #2e86ab"/>
     <use xlink:href="#m1016d56e20" x="609.456012" y="328.19809" style="fill: #2e86ab; stroke: #2e86ab"/>
     <use xlink:href="#m1016d56e20" x="675.13838" y="360.507491" style="fill: #2e86ab; stroke: #2e86ab"/>
    </g>
   </g>
   <g id="patch_4">
    <path d="M 54.44 381.957812 
L 54.44 23.837812 
" style="fill: none; stroke: #000000; stroke-width: 0.8; stroke-linejoin: miter; stroke-linecap: square"/>
   </g>
   <g id="patch_5">
    <path d="M 704.695446 381.957812 
L 704.695446 23.837812 
" style="fill: none; stroke: #000000; stroke-width: 0.8; stroke-linejoin: miter; stroke-linecap: square"/>
   </g>
   <g id="patch_6">
    <path d="M 54.44 381.957812 
L 704.695446 381.957812 
" style="fill: none; stroke: #000000; stroke-width: 0.8; stroke-linejoin: miter; stroke-linecap: square"/>
   </g>
   <g id="patch_7">
    <path d="M 54.44 23.837812 
L 704.695446 23.837812 
" style="fill: none; stroke: #000000; stroke-width: 0.8; stroke-linejoin: miter; stroke-linecap: square"/>
   </g>
   <g id="text_13">
    <g id="patch_8">
     <path d="M 156.983899 63.571596 
L 208.057337 63.571596 
Q 211.057337 63.571596 211.057337 60.571596 
L 211.057337 39.695659 
Q 211.057337 36.695659 208.057337 36.695659 
L 156.983899 36.695659 
Q 153.983899 36.695659 153.983899 39.695659 
L 153.983899 60.571596 
Q 153.983899 63.571596 156.983899 63.571596 
z
" style="fill: #add8e6; opacity: 0.5; stroke: #000000; stroke-linejoin: miter"/>
    </g>
    <!-- Confined -->
    <g transform="translate(160.232337 47.294096) scale(0.1 -0.1)">
     <defs>
      <path id="DejaVuSans-43" d="M 4122 4306 
L 4122 3641 
Q 3803 3938 3442 4084 
Q 3081 4231 2675 4231 
Q 1875 4231 1450 3742 
Q 1025 3253 1025 2328 
Q 1025 1406 1450 917 
Q 1875 428 2675 428 
Q 3081 428 3442 575 
Q 3803 722 4122 1019 
L 4122 359 
Q 3791 134 3420 21 
Q 3050 -91 2638 -91 
Q 1578 -91 968 557 
Q 359 1206 359 2328 
Q 359 3453 968 4101 
Q 1578 4750 2638 4750 
Q 3056 4750 3426 4639 
Q 3797 4528 4122 4306 
z
" transform="scale(0.015625)"/>
      <path id="DejaVuSans-66" d="M 2375 4863 
L 2375 4384 
L 1825 4384 
Q 1516 4384 1395 4259 
Q 1275 4134 1275 3809 
L 1275 3500 
L 2222 3500 
L 2222 3053 
L 1275 3053 
L 1275 0 
L 697 0 
L 697 3053 
L 147 3053 
L 147 3500 
L 697 3500 
L 697 3744 
Q 697 4328 969 4595 
Q 1241 4863 1831 4863 
L 2375 4863 
z
" transform="scale(0.015625)"/>
      <path id="DejaVuSans-64" d="M 2906 2969 
L 2906 4863 
L 3481 4863 
L 3481 0 
L 2906 0 
L 2906 525 
Q 2725 213 2448 61 
Q 2172 -91 1784 -91 
Q 1150 -91 751 415 
Q 353 922 353 1747 
Q 353 2572 751 3078 
Q 1150 3584 1784 3584 
Q 2172 3584 2448 3432 
Q 2725 3281 2906 2969 
z
M 947 1747 
Q 947 1113 1208 752 
Q 1469 391 1925 391 
Q 2381 391 2643 752 
Q 2906 1113 2906 1747 
Q 2906 2381 2643 2742 
Q 2381 3103 1925 3103 
Q 1469 3103 1208 2742 
Q 947 2381 947 1747 
z
" transform="scale(0.015625)"/>
     </defs>
     <use xlink:href="#DejaVuSans-43"/>
     <use xlink:href="#DejaVuSans-6f" x="69.824219"/>
     <use xlink:href="#DejaVuSans-6e" x="131.005859"/>
     <use xlink:href="#DejaVuSans-66" x="194.384766"/>
     <use xlink:href="#DejaVuSans-69" x="229.589844"/>
     <use xlink:href="#DejaVuSans-6e" x="257.373047"/>
     <use xlink:href="#DejaVuSans-65" x="320.751953"/>
     <use xlink:href="#DejaVuSans-64" x="382.275391"/>
    </g>
    <!-- (Area law) -->
    <g transform="translate(156.983899 58.491909) scale(0.1 -0.1)">
     <defs>
      <path id="DejaVuSans-41" d="M 2188 4044 
L 1331 1722 
L 3047 1722 
L 2188 4044 
z
M 1831 4666 
L 2547 4666 
L 4325 0 
L 3669 0 
L 3244 1197 
L 1141 1197 
L 716 0 
L 50 0 
L 1831 4666 
z
" transform="scale(0.015625)"/>
      <path id="DejaVuSans-61" d="M 2194 1759 
Q 1497 1759 1228 1600 
Q 959 1441 959 1056 
Q 959 750 1161 570 
Q 1363 391 1709 391 
Q 2188 391 2477 730 
Q 2766 1069 2766 1631 
L 2766 1759 
L 2194 1759 
z
M 3341 1997 
L 3341 0 
L 2766 0 
L 2766 531 
Q 2569 213 2275 61 
Q 1981 -91 1556 -91 
Q 1019 -91 701 211 
Q 384 513 384 1019 
Q 384 1609 779 1909 
Q 1175 2209 1959 2209 
L 2766 2209 
L 2766 2266 
Q 2766 2663 2505 2880 
Q 2244 3097 1772 3097 
Q 1472 3097 1187 3025 
Q 903 2953 641 2809 
L 641 3341 
Q 956 3463 1253 3523 
Q 1550 3584 1831 3584 
Q 2591 3584 2966 3190 
Q 3341 2797 3341 1997 
z
" transform="scale(0.015625)"/>
      <path id="DejaVuSans-77" d="M 269 3500 
L 844 3500 
L 1563 769 
L 2278 3500 
L 2956 3500 
L 3675 769 
L 4391 3500 
L 4966 3500 
L 4050 0 
L 3372 0 
L 2619 2869 
L 1863 0 
L 1184 0 
L 269 3500 
z
" transform="scale(0.015625)"/>
     </defs>
     <use xlink:href="#DejaVuSans-28"/>
     <use xlink:href="#DejaVuSans-41" x="39.013672"/>
     <use xlink:href="#DejaVuSans-72" x="107.421875"/>
     <use xlink:href="#DejaVuSans-65" x="146.285156"/>
     <use xlink:href="#DejaVuSans-61" x="207.808594"/>
     <use xlink:href="#DejaVuSans-20" x="269.087891"/>
     <use xlink:href="#DejaVuSans-6c" x="300.875"/>
     <use xlink:href="#DejaVuSans-61" x="328.658203"/>
     <use xlink:href="#DejaVuSans-77" x="389.9375"/>
     <use xlink:href="#DejaVuSans-29" x="471.724609"/>
    </g>
   </g>
   <g id="text_14">
    <g id="patch_9">
     <path d="M 538.188265 287.86116 
L 615.04139 287.86116 
Q 618.04139 287.86116 618.04139 284.86116 
L 618.04139 263.985222 
Q 618.04139 260.985222 615.04139 260.985222 
L 538.188265 260.985222 
Q 535.188265 260.985222 535.188265 263.985222 
L 535.188265 284.86116 
Q 535.188265 287.86116 538.188265 287.86116 
z
" style="fill: #ffffe0; opacity: 0.5; stroke: #000000; stroke-linejoin: miter"/>
    </g>
    <!-- Deconfined -->
    <g transform="translate(548.142172 271.58366) scale(0.1 -0.1)">
     <defs>
      <path id="DejaVuSans-44" d="M 1259 4147 
L 1259 519 
L 2022 519 
Q 2988 519 3436 956 
Q 3884 1394 3884 2338 
Q 3884 3275 3436 3711 
Q 2988 4147 2022 4147 
L 1259 4147 
z
M 628 4666 
L 1925 4666 
Q 3281 4666 3915 4102 
Q 4550 3538 4550 2338 
Q 4550 1131 3912 565 
Q 3275 0 1925 0 
L 628 0 
L 628 4666 
z
" transform="scale(0.015625)"/>
     </defs>
     <use xlink:href="#DejaVuSans-44"/>
     <use xlink:href="#DejaVuSans-65" x="77.001953"/>
     <use xlink:href="#DejaVuSans-63" x="138.525391"/>
     <use xlink:href="#DejaVuSans-6f" x="193.505859"/>
     <use xlink:href="#DejaVuSans-6e" x="254.6875"/>
     <use xlink:href="#DejaVuSans-66" x="318.066406"/>
     <use xlink:href="#DejaVuSans-69" x="353.271484"/>
     <use xlink:href="#DejaVuSans-6e" x="381.054688"/>
     <use xlink:href="#DejaVuSans-65" x="444.433594"/>
     <use xlink:href="#DejaVuSans-64" x="505.957031"/>
    </g>
    <!-- (Perimeter law) -->
    <g transform="translate(538.188265 282.781472) scale(0.1 -0.1)">
     <defs>
      <path id="DejaVuSans-50" d="M 1259 4147 
L 1259 2394 
L 2053 2394 
Q 2494 2394 2734 2622 
Q 2975 2850 2975 3272 
Q 2975 3691 2734 3919 
Q 2494 4147 2053 4147 
L 1259 4147 
z
M 628 4666 
L 2053 4666 
Q 2838 4666 3239 4311 
Q 3641 3956 3641 3272 
Q 3641 2581 3239 2228 
Q 2838 1875 2053 1875 
L 1259 1875 
L 1259 0 
L 628 0 
L 628 4666 
z
" transform="scale(0.015625)"/>
      <path id="DejaVuSans-6d" d="M 3328 2828 
Q 3544 3216 3844 3400 
Q 4144 3584 4550 3584 
Q 5097 3584 5394 3201 
Q 5691 2819 5691 2113 
L 5691 0 
L 5113 0 
L 5113 2094 
Q 5113 2597 4934 2840 
Q 4756 3084 4391 3084 
Q 3944 3084 3684 2787 
Q 3425 2491 3425 1978 
L 3425 0 
L 2847 0 
L 2847 2094 
Q 2847 2600 2669 2842 
Q 2491 3084 2119 3084 
Q 1678 3084 1418 2786 
Q 1159 2488 1159 1978 
L 1159 0 
L 581 0 
L 581 3500 
L 1159 3500 
L 1159 2956 
Q 1356 3278 1631 3431 
Q 1906 3584 2284 3584 
Q 2666 3584 2933 3390 
Q 3200 3197 3328 2828 
z
" transform="scale(0.015625)"/>
     </defs>
     <use xlink:href="#DejaVuSans-28"/>
     <use xlink:href="#DejaVuSans-50" x="39.013672"/>
     <use xlink:href="#DejaVuSans-65" x="95.691406"/>
     <use xlink:href="#DejaVuSans-72" x="157.214844"/>
     <use xlink:href="#DejaVuSans-69" x="198.328125"/>
     <use xlink:href="#DejaVuSans-6d" x="226.111328"/>
     <use xlink:href="#DejaVuSans-65" x="323.523438"/>
     <use xlink:href="#DejaVuSans-74" x="385.046875"/>
     <use xlink:href="#DejaVuSans-65" x="424.255859"/>
     <use xlink:href="#DejaVuSans-72" x="485.779297"/>
     <use xlink:href="#DejaVuSans-20" x="526.892578"/>
     <use xlink:href="#DejaVuSans-6c" x="558.679688"/>
     <use xlink:href="#DejaVuSans-61" x="586.462891"/>
     <use xlink:href="#DejaVuSans-77" x="647.742188"/>
     <use xlink:href="#DejaVuSans-29" x="729.529297"/>
    </g>
   </g>
   <g id="text_15">
    <!-- 3D Z$_2$ LGT: Confinement-deconfinement transition (L=8) -->
    <g transform="translate(181.327723 17.837812) scale(0.14 -0.14)">
     <defs>
      <path id="DejaVuSans-5a" d="M 359 4666 
L 4025 4666 
L 4025 4184 
L 1075 531 
L 4097 531 
L 4097 0 
L 288 0 
L 288 481 
L 3238 4134 
L 359 4134 
L 359 4666 
z
" transform="scale(0.015625)"/>
      <path id="DejaVuSans-4c" d="M 628 4666 
L 1259 4666 
L 1259 531 
L 3531 531 
L 3531 0 
L 628 0 
L 628 4666 
z
" transform="scale(0.015625)"/>
      <path id="DejaVuSans-47" d="M 3809 666 
L 3809 1919 
L 2778 1919 
L 2778 2438 
L 4434 2438 
L 4434 434 
Q 4069 175 3628 42 
Q 3188 -91 2688 -91 
Q 1594 -91 976 548 
Q 359 1188 359 2328 
Q 359 3472 976 4111 
Q 1594 4750 2688 4750 
Q 3144 4750 3555 4637 
Q 3966 4525 4313 4306 
L 4313 3634 
Q 3963 3931 3569 4081 
Q 3175 4231 2741 4231 
Q 1884 4231 1454 3753 
Q 1025 3275 1025 2328 
Q 1025 1384 1454 906 
Q 1884 428 2741 428 
Q 3075 428 3337 486 
Q 3600 544 3809 666 
z
" transform="scale(0.015625)"/>
      <path id="DejaVuSans-54" d="M -19 4666 
L 3928 4666 
L 3928 4134 
L 2272 4134 
L 2272 0 
L 1638 0 
L 1638 4134 
L -19 4134 
L -19 4666 
z
" transform="scale(0.015625)"/>
      <path id="DejaVuSans-3a" d="M 750 794 
L 1409 794 
L 1409 0 
L 750 0 
L 750 794 
z
M 750 3309 
L 1409 3309 
L 1409 2516 
L 750 2516 
L 750 3309 
z
" transform="scale(0.015625)"/>
      <path id="DejaVuSans-2d" d="M 313 2009 
L 1997 2009 
L 1997 1497 
L 313 1497 
L 313 2009 
z
" transform="scale(0.015625)"/>
      <path id="DejaVuSans-3d" d="M 678 2906 
L 4684 2906 
L 4684 2381 
L 678 2381 
L 678 2906 
z
M 678 1631 
L 4684 1631 
L 4684 1100 
L 678 1100 
L 678 1631 
z
" transform="scale(0.015625)"/>
     </defs>
     <use xlink:href="#DejaVuSans-33" transform="translate(0 0.015625)"/>
     <use xlink:href="#DejaVuSans-44" transform="translate(59.123047 0.015625)"/>
     <use xlink:href="#DejaVuSans-20" transform="translate(136.125 0.015625)"/>
     <use xlink:href="#DejaVuSans-5a" transform="translate(167.912109 0.015625)"/>
     <use xlink:href="#DejaVuSans-32" transform="translate(237.375 -16.390625) scale(0.7)"/>
     <use xlink:href="#DejaVuSans-20" transform="translate(284.645508 0.015625)"/>
     <use xlink:href="#DejaVuSans-4c" transform="translate(316.432617 0.015625)"/>
     <use xlink:href="#DejaVuSans-47" transform="translate(372.145508 0.015625)"/>
     <use xlink:href="#DejaVuSans-54" transform="translate(449.635742 0.015625)"/>
     <use xlink:href="#DejaVuSans-3a" transform="translate(510.719727 0.015625)"/>
     <use xlink:href="#DejaVuSans-20" transform="translate(544.411133 0.015625)"/>
     <use xlink:href="#DejaVuSans-43" transform="translate(576.198242 0.015625)"/>
     <use xlink:href="#DejaVuSans-6f" transform="translate(646.022461 0.015625)"/>
     <use xlink:href="#DejaVuSans-6e" transform="translate(707.204102 0.015625)"/>
     <use xlink:href="#DejaVuSans-66" transform="translate(770.583008 0.015625)"/>
     <use xlink:href="#DejaVuSans-69" transform="translate(805.788086 0.015625)"/>
     <use xlink:href="#DejaVuSans-6e" transform="translate(833.571289 0.015625)"/>
     <use xlink:href="#DejaVuSans-65" transform="translate(896.950195 0.015625)"/>
     <use xlink:href="#DejaVuSans-6d" transform="translate(958.473633 0.015625)"/>
     <use xlink:href="#DejaVuSans-65" transform="translate(1055.885742 0.015625)"/>
     <use xlink:href="#DejaVuSans-6e" transform="translate(1117.40918 0.015625)"/>
     <use xlink:href="#DejaVuSans-74" transform="translate(1180.788086 0.015625)"/>
     <use xlink:href="#DejaVuSans-2d" transform="translate(1219.99707 0.015625)"/>
     <use xlink:href="#DejaVuSans-64" transform="translate(1256.081055 0.015625)"/>
     <use xlink:href="#DejaVuSans-65" transform="translate(1319.557617 0.015625)"/>
     <use xlink:href="#DejaVuSans-63" transform="translate(1381.081055 0.015625)"/>
     <use xlink:href="#DejaVuSans-6f" transform="translate(1436.061523 0.015625)"/>
     <use xlink:href="#DejaVuSans-6e" transform="translate(1497.243164 0.015625)"/>
     <use xlink:href="#DejaVuSans-66" transform="translate(1560.62207 0.015625)"/>
     <use xlink:href="#DejaVuSans-69" transform="translate(1595.827148 0.015625)"/>
     <use xlink:href="#DejaVuSans-6e" transform="translate(1623.610352 0.015625)"/>
     <use xlink:href="#DejaVuSans-65" transform="translate(1686.989258 0.015625)"/>
     <use xlink:href="#DejaVuSans-6d" transform="translate(1748.512695 0.015625)"/>
     <use xlink:href="#DejaVuSans-65" transform="translate(1845.924805 0.015625)"/>
     <use xlink:href="#DejaVuSans-6e" transform="translate(1907.448242 0.015625)"/>
     <use xlink:href="#DejaVuSans-74" transform="translate(1970.827148 0.015625)"/>
     <use xlink:href="#DejaVuSans-20" transform="translate(2010.036133 0.015625)"/>
     <use xlink:href="#DejaVuSans-74" transform="translate(2041.823242 0.015625)"/>
     <use xlink:href="#DejaVuSans-72" transform="translate(2081.032227 0.015625)"/>
     <use xlink:href="#DejaVuSans-61" transform="translate(2122.145508 0.015625)"/>
     <use xlink:href="#DejaVuSans-6e" transform="translate(2183.424805 0.015625)"/>
     <use xlink:href="#DejaVuSans-73" transform="translate(2246.803711 0.015625)"/>
     <use xlink:href="#DejaVuSans-69" transform="translate(2298.90332 0.015625)"/>
     <use xlink:href="#DejaVuSans-74" transform="translate(2326.686523 0.015625)"/>
     <use xlink:href="#DejaVuSans-69" transform="translate(2365.895508 0.015625)"/>
     <use xlink:href="#DejaVuSans-6f" transform="translate(2393.678711 0.015625)"/>
     <use xlink:href="#DejaVuSans-6e" transform="translate(2454.860352 0.015625)"/>
     <use xlink:href="#DejaVuSans-20" transform="translate(2518.239258 0.015625)"/>
     <use xlink:href="#DejaVuSans-28" transform="translate(2550.026367 0.015625)"/>
     <use xlink:href="#DejaVuSans-4c" transform="translate(2589.040039 0.015625)"/>
     <use xlink:href="#DejaVuSans-3d" transform="translate(2644.75293 0.015625)"/>
     <use xlink:href="#DejaVuSans-38" transform="translate(2728.541992 0.015625)"/>
     <use xlink:href="#DejaVuSans-29" transform="translate(2792.165039 0.015625)"/>
    </g>
   </g>
   <g id="legend_1">
    <g id="patch_10">
     <path d="M 585.042946 48.78375 
L 696.995446 48.78375 
Q 699.195446 48.78375 699.195446 46.58375 
L 699.195446 31.537813 
Q 699.195446 29.337813 696.995446 29.337813 
L 585.042946 29.337813 
Q 582.842946 29.337813 582.842946 31.537813 
L 582.842946 46.58375 
Q 582.842946 48.78375 585.042946 48.78375 
z
" style="fill: #ffffff; opacity: 0.8; stroke: #cccccc; stroke-linejoin: miter"/>
    </g>
    <g id="patch_11">
     <path d="M 587.242946 42.096094 
L 609.242946 42.096094 
L 609.242946 34.396094 
L 587.242946 34.396094 
z
" style="fill: #ff0000; opacity: 0.15; stroke: #ff0000; stroke-linejoin: miter"/>
    </g>
    <g id="text_16">
     <!-- Critical region -->
     <g transform="translate(618.042946 42.096094) scale(0.11 -0.11)">
      <use xlink:href="#DejaVuSans-43"/>
      <use xlink:href="#DejaVuSans-72" x="69.824219"/>
      <use xlink:href="#DejaVuSans-69" x="110.9375"/>
      <use xlink:href="#DejaVuSans-74" x="138.720703"/>
      <use xlink:href="#DejaVuSans-69" x="177.929688"/>
      <use xlink:href="#DejaVuSans-63" x="205.712891"/>
      <use xlink:href="#DejaVuSans-61" x="260.693359"/>
      <use xlink:href="#DejaVuSans-6c" x="321.972656"/>
      <use xlink:href="#DejaVuSans-20" x="349.755859"/>
      <use xlink:href="#DejaVuSans-72" x="381.542969"/>
      <use xlink:href="#DejaVuSans-65" x="420.40625"/>
      <use xlink:href="#DejaVuSans-67" x="481.929688"/>
      <use xlink:href="#DejaVuSans-69" x="545.40625"/>
      <use xlink:href="#DejaVuSans-6f" x="573.189453"/>
      <use xlink:href="#DejaVuSans-6e" x="634.371094"/>
     </g>
    </g>
   </g>
  </g>
 </g>
 <defs>
  <clipPath id="p943f4b2cda">
   <rect x="54.44" y="23.837812" width="650.255446" height="358.12"/>
  </clipPath>
 </defs>
</svg>
