<?xml version="1.0" encoding="UTF-8" standalone="no"?>
<!-- Created with Inkscape (http://www.inkscape.org/) -->

<svg
   xmlns:ns1="http://wanglongqi.github.io/WriteTeX"
   xmlns:dc="http://purl.org/dc/elements/1.1/"
   xmlns:cc="http://creativecommons.org/ns#"
   xmlns:rdf="http://www.w3.org/1999/02/22-rdf-syntax-ns#"
   xmlns:svg="http://www.w3.org/2000/svg"
   xmlns="http://www.w3.org/2000/svg"
   xmlns:sodipodi="http://sodipodi.sourceforge.net/DTD/sodipodi-0.dtd"
   xmlns:inkscape="http://www.inkscape.org/namespaces/inkscape"
   width="297mm"
   height="210mm"
   viewBox="0 0 297 210"
   version="1.1"
   id="svg119"
   inkscape:version="0.92.2 5c3e80d, 2017-08-06"
   sodipodi:docname="mps-gauge-action-v3.svg">
  <sodipodi:namedview
     id="base"
     pagecolor="#ffffff"
     bordercolor="#666666"
     borderopacity="1.0"
     inkscape:pageopacity="0.0"
     inkscape:pageshadow="2"
     inkscape:zoom="0.7"
     inkscape:cx="387.20954"
     inkscape:cy="634.1175"
     inkscape:document-units="mm"
     inkscape:current-layer="g5719"
     showgrid="true"
     inkscape:snap-grids="true"
     inkscape:window-width="1276"
     inkscape:window-height="755"
     inkscape:window-x="4"
     inkscape:window-y="1"
     inkscape:window-maximized="1"
     inkscape:snap-to-guides="false">
    <inkscape:grid
       type="xygrid"
       id="grid1034" />
  </sodipodi:namedview>
  <defs
     id="defs113">
    <inkscape:path-effect
       effect="bspline"
       id="path-effect5634"
       is_visible="true"
       weight="33.333333"
       steps="2"
       helper_size="0"
       apply_no_weight="true"
       apply_with_weight="true"
       only_selected="false" />
    <inkscape:path-effect
       only_selected="false"
       apply_with_weight="true"
       apply_no_weight="true"
       helper_size="0"
       steps="2"
       weight="33.333333"
       is_visible="true"
       id="path-effect5630"
       effect="bspline" />
    <inkscape:path-effect
       effect="bspline"
       id="path-effect5626"
       is_visible="true"
       weight="33.333333"
       steps="2"
       helper_size="0"
       apply_no_weight="true"
       apply_with_weight="true"
       only_selected="false" />
    <inkscape:path-effect
       only_selected="false"
       apply_with_weight="true"
       apply_no_weight="true"
       helper_size="0"
       steps="2"
       weight="33.333333"
       is_visible="true"
       id="path-effect5622"
       effect="bspline" />
    <inkscape:path-effect
       effect="bspline"
       id="path-effect5618"
       is_visible="true"
       weight="33.333333"
       steps="2"
       helper_size="0"
       apply_no_weight="true"
       apply_with_weight="true"
       only_selected="false" />
    <inkscape:path-effect
       effect="bspline"
       id="path-effect5560"
       is_visible="true"
       weight="33.333333"
       steps="2"
       helper_size="0"
       apply_no_weight="true"
       apply_with_weight="true"
       only_selected="false" />
    <inkscape:path-effect
       effect="bspline"
       id="path-effect5556"
       is_visible="true"
       weight="33.333333"
       steps="2"
       helper_size="0"
       apply_no_weight="true"
       apply_with_weight="true"
       only_selected="false" />
  </defs>
  <metadata
     id="metadata116">
    <rdf:RDF>
      <cc:Work
         rdf:about="">
        <dc:format>image/svg+xml</dc:format>
        <dc:type
           rdf:resource="http://purl.org/dc/dcmitype/StillImage" />
        <dc:title></dc:title>
      </cc:Work>
    </rdf:RDF>
  </metadata>
  <g
     inkscape:label="Layer 1"
     inkscape:groupmode="layer"
     id="layer1"
     transform="translate(0,-87)">
    <rect
       style="opacity:1;fill:#4bc6ee;fill-opacity:1;fill-rule:evenodd;stroke:#285de8;stroke-width:0;stroke-linecap:round;stroke-linejoin:miter;stroke-miterlimit:4;stroke-dasharray:none;stroke-dashoffset:0;stroke-opacity:1"
       id="rect4725"
       width="21.166666"
       height="21.166666"
       x="21.166666"
       y="111.79167" />
    <rect
       y="111.79167"
       x="58.208336"
       height="21.166666"
       width="21.166666"
       id="rect5532"
       style="opacity:1;fill:#d78343;fill-opacity:1;fill-rule:evenodd;stroke:#285de8;stroke-width:0;stroke-linecap:round;stroke-linejoin:miter;stroke-miterlimit:4;stroke-dasharray:none;stroke-dashoffset:0;stroke-opacity:1" />
    <rect
       style="opacity:1;fill:#4bc6ee;fill-opacity:1;fill-rule:evenodd;stroke:#285de8;stroke-width:0;stroke-linecap:round;stroke-linejoin:miter;stroke-miterlimit:4;stroke-dasharray:none;stroke-dashoffset:0;stroke-opacity:1"
       id="rect5534"
       width="21.166666"
       height="21.166666"
       x="95.249992"
       y="111.79167" />
    <rect
       y="111.79167"
       x="132.29164"
       height="21.166666"
       width="21.166666"
       id="rect5536"
       style="opacity:1;fill:#4bc6ee;fill-opacity:1;fill-rule:evenodd;stroke:#285de8;stroke-width:0;stroke-linecap:round;stroke-linejoin:miter;stroke-miterlimit:4;stroke-dasharray:none;stroke-dashoffset:0;stroke-opacity:1" />
    <rect
       style="opacity:1;fill:#4bc6ee;fill-opacity:1;fill-rule:evenodd;stroke:#285de8;stroke-width:0;stroke-linecap:round;stroke-linejoin:miter;stroke-miterlimit:4;stroke-dasharray:none;stroke-dashoffset:0;stroke-opacity:1"
       id="rect5538"
       width="21.166666"
       height="21.166666"
       x="169.33334"
       y="111.79167" />
    <path
       style="fill:none;fill-rule:evenodd;stroke:#000000;stroke-width:0.26458332px;stroke-linecap:butt;stroke-linejoin:miter;stroke-opacity:1"
       d="M 42.333332,122.375 H 58.208336"
       id="path5544"
       inkscape:connector-type="polyline"
       inkscape:connector-curvature="0"
       inkscape:connection-start="#rect4725"
       inkscape:connection-end="#rect5532" />
    <path
       style="fill:none;fill-rule:evenodd;stroke:#000000;stroke-width:0.26458332px;stroke-linecap:butt;stroke-linejoin:miter;stroke-opacity:1"
       d="m 79.375002,122.375 h 15.87499"
       id="path5546"
       inkscape:connector-type="polyline"
       inkscape:connector-curvature="0"
       inkscape:connection-start="#rect5532"
       inkscape:connection-end="#rect5534" />
    <path
       style="fill:none;fill-rule:evenodd;stroke:#000000;stroke-width:0.26458332px;stroke-linecap:butt;stroke-linejoin:miter;stroke-opacity:1"
       d="m 105.83333,122.375 v 0"
       id="path5548"
       inkscape:connector-type="polyline"
       inkscape:connector-curvature="0"
       inkscape:connection-start="#rect5534"
       inkscape:connection-end="#rect5534" />
    <path
       style="fill:none;fill-rule:evenodd;stroke:#000000;stroke-width:0.26458332px;stroke-linecap:butt;stroke-linejoin:miter;stroke-opacity:1"
       d="m 116.41666,122.375 h 15.87498"
       id="path5550"
       inkscape:connector-type="polyline"
       inkscape:connector-curvature="0"
       inkscape:connection-start="#rect5534"
       inkscape:connection-end="#rect5536" />
    <path
       style="fill:none;fill-rule:evenodd;stroke:#000000;stroke-width:0.26458332px;stroke-linecap:butt;stroke-linejoin:miter;stroke-opacity:1"
       d="m 153.45831,122.375 h 15.87503"
       id="path5552"
       inkscape:connector-type="polyline"
       inkscape:connector-curvature="0"
       inkscape:connection-start="#rect5536"
       inkscape:connection-end="#rect5538" />
    <path
       style="fill:none;fill-rule:evenodd;stroke:#000000;stroke-width:0.26458332px;stroke-linecap:butt;stroke-linejoin:miter;stroke-opacity:1"
       d="m 5.2916666,122.37501 c 5.2919314,0 10.5833334,0 15.8749994,0"
       id="path5554"
       inkscape:connector-curvature="0"
       inkscape:path-effect="#path-effect5556"
       inkscape:original-d="m 5.2916666,122.37501 c 5.2919314,-2.7e-4 15.8749994,0 15.8749994,0" />
    <path
       style="fill:none;fill-rule:evenodd;stroke:#000000;stroke-width:0.26458332px;stroke-linecap:butt;stroke-linejoin:miter;stroke-opacity:1"
       d="m 190.5,122.37501 c 5.29193,0 10.5836,0 15.875,0"
       id="path5558"
       inkscape:connector-curvature="0"
       inkscape:path-effect="#path-effect5560"
       inkscape:original-d="m 190.5,122.37501 c 5.29193,-2.7e-4 10.5836,-2.7e-4 15.875,0" />
    <path
       style="fill:none;fill-rule:evenodd;stroke:#000000;stroke-width:0.26458332px;stroke-linecap:butt;stroke-linejoin:miter;stroke-opacity:1"
       d="m 31.75,111.79167 c 0,-5.29193 0,-10.5836 0,-15.874999"
       id="path5616"
       inkscape:connector-curvature="0"
       inkscape:path-effect="#path-effect5618"
       inkscape:original-d="m 31.75,111.79167 c 2.64e-4,-5.29193 2.64e-4,-10.5836 0,-15.874999" />
    <path
       inkscape:original-d="m 68.791669,111.79167 c 2.64e-4,-5.29193 2.64e-4,-10.5836 0,-15.874999"
       inkscape:path-effect="#path-effect5622"
       inkscape:connector-curvature="0"
       id="path5620"
       d="m 68.791669,111.79167 c 0,-5.29193 0,-10.5836 0,-15.874999"
       style="fill:none;fill-rule:evenodd;stroke:#000000;stroke-width:0.26458332px;stroke-linecap:butt;stroke-linejoin:miter;stroke-opacity:1" />
    <path
       style="fill:none;fill-rule:evenodd;stroke:#000000;stroke-width:0.26458332px;stroke-linecap:butt;stroke-linejoin:miter;stroke-opacity:1"
       d="m 105.83334,111.79167 c 0,-5.29193 0,-10.5836 0,-15.874999"
       id="path5624"
       inkscape:connector-curvature="0"
       inkscape:path-effect="#path-effect5626"
       inkscape:original-d="m 105.83334,111.79167 c 2.6e-4,-5.29193 2.6e-4,-10.5836 0,-15.874999" />
    <path
       inkscape:original-d="m 142.87503,111.79167 c 2.6e-4,-5.29193 2.6e-4,-10.5836 0,-15.874999"
       inkscape:path-effect="#path-effect5630"
       inkscape:connector-curvature="0"
       id="path5628"
       d="m 142.87503,111.79167 c 0,-5.29193 0,-10.5836 0,-15.874999"
       style="fill:none;fill-rule:evenodd;stroke:#000000;stroke-width:0.26458332px;stroke-linecap:butt;stroke-linejoin:miter;stroke-opacity:1" />
    <path
       style="fill:none;fill-rule:evenodd;stroke:#000000;stroke-width:0.26458332px;stroke-linecap:butt;stroke-linejoin:miter;stroke-opacity:1"
       d="m 179.91672,111.79167 c 0,-5.29193 0,-10.5836 0,-15.874999"
       id="path5632"
       inkscape:connector-curvature="0"
       inkscape:path-effect="#path-effect5634"
       inkscape:original-d="m 179.91672,111.79167 c 2.6e-4,-5.29193 2.6e-4,-10.5836 0,-15.874999" />
    <g
       ns1:text="$A^1$"
       transform="matrix(1.2174324,0,0,1.2174324,-191.00554,-8.3467987)"
       id="g5673">
      <g
         id="surface1">
        <g
           style="fill:#000000;fill-opacity:1"
           id="g5666">
          <path
             inkscape:connector-curvature="0"
             style="stroke:none"
             d="M 1.78125,-1.140625 C 1.390625,-0.484375 1,-0.34375 0.5625,-0.3125 0.4375,-0.296875 0.34375,-0.296875 0.34375,-0.109375 0.34375,-0.046875 0.40625,0 0.484375,0 0.75,0 1.0625,-0.03125 1.328125,-0.03125 c 0.34375,0 0.6875,0.03125 1,0.03125 0.0625,0 0.1875,0 0.1875,-0.1875 0,-0.109375 -0.078125,-0.125 -0.15625,-0.125 -0.21875,-0.015625 -0.46875,-0.09375 -0.46875,-0.34375 0,-0.125 0.0625,-0.234375 0.140625,-0.375 l 0.765625,-1.265625 h 2.5 c 0.015625,0.203125 0.15625,1.5625 0.15625,1.65625 0,0.296875 -0.515625,0.328125 -0.71875,0.328125 C 4.59375,-0.3125 4.5,-0.3125 4.5,-0.109375 4.5,0 4.609375,0 4.640625,0 5.046875,0 5.46875,-0.03125 5.875,-0.03125 6.125,-0.03125 6.765625,0 7.015625,0 7.0625,0 7.1875,0 7.1875,-0.203125 7.1875,-0.3125 7.09375,-0.3125 6.953125,-0.3125 6.34375,-0.3125 6.34375,-0.375 6.3125,-0.671875 l -0.609375,-6.21875 c -0.015625,-0.203125 -0.015625,-0.25 -0.1875,-0.25 -0.15625,0 -0.203125,0.078125 -0.265625,0.171875 z M 2.984375,-2.609375 4.9375,-5.90625 5.265625,-2.609375 Z m 0,0"
             transform="translate(178.585,110.99)"
             id="path5664" />
        </g>
        <g
           style="fill:#000000;fill-opacity:1"
           id="g5670">
          <path
             inkscape:connector-curvature="0"
             style="stroke:none"
             d="m 2.328125,-4.4375 c 0,-0.1875 0,-0.1875 -0.203125,-0.1875 -0.453125,0.4375 -1.078125,0.4375 -1.359375,0.4375 v 0.25 c 0.15625,0 0.625,0 1,-0.1875 v 3.546875 c 0,0.234375 0,0.328125 -0.6875,0.328125 H 0.8125 V 0 c 0.125,0 0.984375,-0.03125 1.234375,-0.03125 0.21875,0 1.09375,0.03125 1.25,0.03125 V -0.25 H 3.03125 c -0.703125,0 -0.703125,-0.09375 -0.703125,-0.328125 z m 0,0"
             transform="translate(186.056,107.375)"
             id="path5668" />
        </g>
      </g>
    </g>
    <g
       id="g5721"
       transform="matrix(1.2174324,0,0,1.2174324,-117.4513,-8.3467987)"
       ns1:text="$A^1$">
      <g
         id="g5719">
        <g
           id="g5773"
           transform="matrix(1.000000,0,0,1.000000,-98.725855,-38.528828)"
           ns1:text="$A^2$">
          <g
             id="g5771">
            <g
               id="g5765"
               style="fill:rgb(0%,0%,0%);fill-opacity:1;">
              <path
                 id="path5763"
                 transform="translate(178.585,110.99)"
                 d="M 1.78125 -1.140625 C 1.390625 -0.484375 1 -0.34375 0.5625 -0.3125 C 0.4375 -0.296875 0.34375 -0.296875 0.34375 -0.109375 C 0.34375 -0.046875 0.40625 0 0.484375 0 C 0.75 0 1.0625 -0.03125 1.328125 -0.03125 C 1.671875 -0.03125 2.015625 0 2.328125 0 C 2.390625 0 2.515625 0 2.515625 -0.1875 C 2.515625 -0.296875 2.4375 -0.3125 2.359375 -0.3125 C 2.140625 -0.328125 1.890625 -0.40625 1.890625 -0.65625 C 1.890625 -0.78125 1.953125 -0.890625 2.03125 -1.03125 L 2.796875 -2.296875 L 5.296875 -2.296875 C 5.3125 -2.09375 5.453125 -0.734375 5.453125 -0.640625 C 5.453125 -0.34375 4.9375 -0.3125 4.734375 -0.3125 C 4.59375 -0.3125 4.5 -0.3125 4.5 -0.109375 C 4.5 0 4.609375 0 4.640625 0 C 5.046875 0 5.46875 -0.03125 5.875 -0.03125 C 6.125 -0.03125 6.765625 0 7.015625 0 C 7.0625 0 7.1875 0 7.1875 -0.203125 C 7.1875 -0.3125 7.09375 -0.3125 6.953125 -0.3125 C 6.34375 -0.3125 6.34375 -0.375 6.3125 -0.671875 L 5.703125 -6.890625 C 5.6875 -7.09375 5.6875 -7.140625 5.515625 -7.140625 C 5.359375 -7.140625 5.3125 -7.0625 5.25 -6.96875 Z M 2.984375 -2.609375 L 4.9375 -5.90625 L 5.265625 -2.609375 Z M 2.984375 -2.609375 "
                 style="stroke:none;" />
            </g>
            <g
               id="g5769"
               style="fill:rgb(0%,0%,0%);fill-opacity:1;">
              <path
                 id="path5767"
                 transform="translate(186.056,107.375)"
                 d="M 3.515625 -1.265625 L 3.28125 -1.265625 C 3.265625 -1.109375 3.1875 -0.703125 3.09375 -0.640625 C 3.046875 -0.59375 2.515625 -0.59375 2.40625 -0.59375 L 1.125 -0.59375 C 1.859375 -1.234375 2.109375 -1.4375 2.515625 -1.765625 C 3.03125 -2.171875 3.515625 -2.609375 3.515625 -3.265625 C 3.515625 -4.109375 2.78125 -4.625 1.890625 -4.625 C 1.03125 -4.625 0.4375 -4.015625 0.4375 -3.375 C 0.4375 -3.03125 0.734375 -2.984375 0.8125 -2.984375 C 0.96875 -2.984375 1.171875 -3.109375 1.171875 -3.359375 C 1.171875 -3.484375 1.125 -3.734375 0.765625 -3.734375 C 0.984375 -4.21875 1.453125 -4.375 1.78125 -4.375 C 2.484375 -4.375 2.84375 -3.828125 2.84375 -3.265625 C 2.84375 -2.65625 2.40625 -2.1875 2.1875 -1.9375 L 0.515625 -0.265625 C 0.4375 -0.203125 0.4375 -0.1875 0.4375 0 L 3.3125 0 Z M 3.515625 -1.265625 "
                 style="stroke:none;" />
            </g>
          </g>
        </g>
      </g>
    </g>
  </g>
</svg>
