<?xml version="1.0" encoding="utf-8" standalone="no"?>
<!DOCTYPE svg PUBLIC "-//W3C//DTD SVG 1.1//EN"
  "http://www.w3.org/Graphics/SVG/1.1/DTD/svg11.dtd">
<svg xmlns:xlink="http://www.w3.org/1999/xlink" width="709.859946pt" height="417.943937pt" viewBox="0 0 709.859946 417.943937" xmlns="http://www.w3.org/2000/svg" version="1.1">
 <metadata>
  <rdf:RDF xmlns:dc="http://purl.org/dc/elements/1.1/" xmlns:cc="http://creativecommons.org/ns#" xmlns:rdf="http://www.w3.org/1999/02/22-rdf-syntax-ns#">
   <cc:Work>
    <dc:type rdf:resource="http://purl.org/dc/dcmitype/StillImage"/>
    <dc:date>2026-06-28T07:29:39.639615</dc:date>
    <dc:format>image/svg+xml</dc:format>
    <dc:creator>
     <cc:Agent>
      <dc:title>Matplotlib v3.9.4, https://matplotlib.org/</dc:title>
     </cc:Agent>
    </dc:creator>
   </cc:Work>
  </rdf:RDF>
 </metadata>
 <defs>
  <style type="text/css">*{stroke-linejoin: round; stroke-linecap: butt}</style>
 </defs>
 <g id="figure_1">
  <g id="patch_1">
   <path d="M 0 417.943937 
L 709.859946 417.943937 
L 709.859946 0 
L 0 0 
z
" style="fill: #ffffff"/>
  </g>
  <g id="axes_1">
   <g id="patch_2">
    <path d="M 57.8 376.485812 
L 702.659946 376.485812 
L 702.659946 23.837812 
L 57.8 23.837812 
z
" style="fill: #ffffff"/>
   </g>
   <g id="matplotlib.axis_1">
    <g id="xtick_1">
     <g id="line2d_1">
      <path d="M 295.933404 376.485812 
L 295.933404 23.837812 
" clip-path="url(#p525f91c65d)" style="fill: none; stroke: #b0b0b0; stroke-opacity: 0.3; stroke-width: 0.8; stroke-linecap: square"/>
     </g>
     <g id="line2d_2">
      <defs>
       <path id="md2b966d652" d="M 0 0 
L 0 3.5 
" style="stroke: #000000; stroke-width: 0.8"/>
      </defs>
      <g>
       <use xlink:href="#md2b966d652" x="295.933404" y="376.485812" style="stroke: #000000; stroke-width: 0.8"/>
      </g>
     </g>
     <g id="text_1">
      <!-- $\mathdefault{10^{0}}$ -->
      <g transform="translate(287.133404 391.08425) scale(0.1 -0.1)">
       <defs>
        <path id="DejaVuSans-31" d="M 794 531 
L 1825 531 
L 1825 4091 
L 703 3866 
L 703 4441 
L 1819 4666 
L 2450 4666 
L 2450 531 
L 3481 531 
L 3481 0 
L 794 0 
L 794 531 
z
" transform="scale(0.015625)"/>
        <path id="DejaVuSans-30" d="M 2034 4250 
Q 1547 4250 1301 3770 
Q 1056 3291 1056 2328 
Q 1056 1369 1301 889 
Q 1547 409 2034 409 
Q 2525 409 2770 889 
Q 3016 1369 3016 2328 
Q 3016 3291 2770 3770 
Q 2525 4250 2034 4250 
z
M 2034 4750 
Q 2819 4750 3233 4129 
Q 3647 3509 3647 2328 
Q 3647 1150 3233 529 
Q 2819 -91 2034 -91 
Q 1250 -91 836 529 
Q 422 1150 422 2328 
Q 422 3509 836 4129 
Q 1250 4750 2034 4750 
z
" transform="scale(0.015625)"/>
       </defs>
       <use xlink:href="#DejaVuSans-31" transform="translate(0 0.765625)"/>
       <use xlink:href="#DejaVuSans-30" transform="translate(63.623047 0.765625)"/>
       <use xlink:href="#DejaVuSans-30" transform="translate(128.203125 39.046875) scale(0.7)"/>
      </g>
     </g>
    </g>
    <g id="xtick_2">
     <g id="line2d_3">
      <defs>
       <path id="m22d5225a32" d="M 0 0 
L 0 2 
" style="stroke: #000000; stroke-width: 0.6"/>
      </defs>
      <g>
       <use xlink:href="#m22d5225a32" x="87.111816" y="376.485812" style="stroke: #000000; stroke-width: 0.6"/>
      </g>
     </g>
    </g>
    <g id="xtick_3">
     <g id="line2d_4">
      <g>
       <use xlink:href="#m22d5225a32" x="142.039078" y="376.485812" style="stroke: #000000; stroke-width: 0.6"/>
      </g>
     </g>
     <g id="text_2">
      <!-- $\mathdefault{6\times10^{-1}}$ -->
      <g transform="translate(120.989078 389.48425) scale(0.1 -0.1)">
       <defs>
        <path id="DejaVuSans-36" d="M 2113 2584 
Q 1688 2584 1439 2293 
Q 1191 2003 1191 1497 
Q 1191 994 1439 701 
Q 1688 409 2113 409 
Q 2538 409 2786 701 
Q 3034 994 3034 1497 
Q 3034 2003 2786 2293 
Q 2538 2584 2113 2584 
z
M 3366 4563 
L 3366 3988 
Q 3128 4100 2886 4159 
Q 2644 4219 2406 4219 
Q 1781 4219 1451 3797 
Q 1122 3375 1075 2522 
Q 1259 2794 1537 2939 
Q 1816 3084 2150 3084 
Q 2853 3084 3261 2657 
Q 3669 2231 3669 1497 
Q 3669 778 3244 343 
Q 2819 -91 2113 -91 
Q 1303 -91 875 529 
Q 447 1150 447 2328 
Q 447 3434 972 4092 
Q 1497 4750 2381 4750 
Q 2619 4750 2861 4703 
Q 3103 4656 3366 4563 
z
" transform="scale(0.015625)"/>
        <path id="DejaVuSans-d7" d="M 4488 3438 
L 3059 2003 
L 4488 575 
L 4116 197 
L 2681 1631 
L 1247 197 
L 878 575 
L 2303 2003 
L 878 3438 
L 1247 3816 
L 2681 2381 
L 4116 3816 
L 4488 3438 
z
" transform="scale(0.015625)"/>
        <path id="DejaVuSans-2212" d="M 678 2272 
L 4684 2272 
L 4684 1741 
L 678 1741 
L 678 2272 
z
" transform="scale(0.015625)"/>
       </defs>
       <use xlink:href="#DejaVuSans-36" transform="translate(0 0.684375)"/>
       <use xlink:href="#DejaVuSans-d7" transform="translate(83.105469 0.684375)"/>
       <use xlink:href="#DejaVuSans-31" transform="translate(186.376953 0.684375)"/>
       <use xlink:href="#DejaVuSans-30" transform="translate(250 0.684375)"/>
       <use xlink:href="#DejaVuSans-2212" transform="translate(314.580078 38.965625) scale(0.7)"/>
       <use xlink:href="#DejaVuSans-31" transform="translate(373.232422 38.965625) scale(0.7)"/>
      </g>
     </g>
    </g>
    <g id="xtick_4">
     <g id="line2d_5">
      <g>
       <use xlink:href="#m22d5225a32" x="188.479417" y="376.485812" style="stroke: #000000; stroke-width: 0.6"/>
      </g>
     </g>
    </g>
    <g id="xtick_5">
     <g id="line2d_6">
      <g>
       <use xlink:href="#m22d5225a32" x="228.707868" y="376.485812" style="stroke: #000000; stroke-width: 0.6"/>
      </g>
     </g>
    </g>
    <g id="xtick_6">
     <g id="line2d_7">
      <g>
       <use xlink:href="#m22d5225a32" x="264.191877" y="376.485812" style="stroke: #000000; stroke-width: 0.6"/>
      </g>
     </g>
    </g>
    <g id="xtick_7">
     <g id="line2d_8">
      <g>
       <use xlink:href="#m22d5225a32" x="504.754993" y="376.485812" style="stroke: #000000; stroke-width: 0.6"/>
      </g>
     </g>
     <g id="text_3">
      <!-- $\mathdefault{2\times10^{0}}$ -->
      <g transform="translate(486.654993 389.48425) scale(0.1 -0.1)">
       <defs>
        <path id="DejaVuSans-32" d="M 1228 531 
L 3431 531 
L 3431 0 
L 469 0 
L 469 531 
Q 828 903 1448 1529 
Q 2069 2156 2228 2338 
Q 2531 2678 2651 2914 
Q 2772 3150 2772 3378 
Q 2772 3750 2511 3984 
Q 2250 4219 1831 4219 
Q 1534 4219 1204 4116 
Q 875 4013 500 3803 
L 500 4441 
Q 881 4594 1212 4672 
Q 1544 4750 1819 4750 
Q 2544 4750 2975 4387 
Q 3406 4025 3406 3419 
Q 3406 3131 3298 2873 
Q 3191 2616 2906 2266 
Q 2828 2175 2409 1742 
Q 1991 1309 1228 531 
z
" transform="scale(0.015625)"/>
       </defs>
       <use xlink:href="#DejaVuSans-32" transform="translate(0 0.765625)"/>
       <use xlink:href="#DejaVuSans-d7" transform="translate(83.105469 0.765625)"/>
       <use xlink:href="#DejaVuSans-31" transform="translate(186.376953 0.765625)"/>
       <use xlink:href="#DejaVuSans-30" transform="translate(250 0.765625)"/>
       <use xlink:href="#DejaVuSans-30" transform="translate(314.580078 39.046875) scale(0.7)"/>
      </g>
     </g>
    </g>
    <g id="xtick_8">
     <g id="line2d_9">
      <g>
       <use xlink:href="#m22d5225a32" x="626.907792" y="376.485812" style="stroke: #000000; stroke-width: 0.6"/>
      </g>
     </g>
     <g id="text_4">
      <!-- $\mathdefault{3\times10^{0}}$ -->
      <g transform="translate(608.807792 389.48425) scale(0.1 -0.1)">
       <defs>
        <path id="DejaVuSans-33" d="M 2597 2516 
Q 3050 2419 3304 2112 
Q 3559 1806 3559 1356 
Q 3559 666 3084 287 
Q 2609 -91 1734 -91 
Q 1441 -91 1130 -33 
Q 819 25 488 141 
L 488 750 
Q 750 597 1062 519 
Q 1375 441 1716 441 
Q 2309 441 2620 675 
Q 2931 909 2931 1356 
Q 2931 1769 2642 2001 
Q 2353 2234 1838 2234 
L 1294 2234 
L 1294 2753 
L 1863 2753 
Q 2328 2753 2575 2939 
Q 2822 3125 2822 3475 
Q 2822 3834 2567 4026 
Q 2313 4219 1838 4219 
Q 1578 4219 1281 4162 
Q 984 4106 628 3988 
L 628 4550 
Q 988 4650 1302 4700 
Q 1616 4750 1894 4750 
Q 2613 4750 3031 4423 
Q 3450 4097 3450 3541 
Q 3450 3153 3228 2886 
Q 3006 2619 2597 2516 
z
" transform="scale(0.015625)"/>
       </defs>
       <use xlink:href="#DejaVuSans-33" transform="translate(0 0.765625)"/>
       <use xlink:href="#DejaVuSans-d7" transform="translate(83.105469 0.765625)"/>
       <use xlink:href="#DejaVuSans-31" transform="translate(186.376953 0.765625)"/>
       <use xlink:href="#DejaVuSans-30" transform="translate(250 0.765625)"/>
       <use xlink:href="#DejaVuSans-30" transform="translate(314.580078 39.046875) scale(0.7)"/>
      </g>
     </g>
    </g>
    <g id="text_5">
     <!-- Spin $j$ -->
     <g transform="translate(360.769973 407.803937) scale(0.14 -0.14)">
      <defs>
       <path id="DejaVuSans-53" d="M 3425 4513 
L 3425 3897 
Q 3066 4069 2747 4153 
Q 2428 4238 2131 4238 
Q 1616 4238 1336 4038 
Q 1056 3838 1056 3469 
Q 1056 3159 1242 3001 
Q 1428 2844 1947 2747 
L 2328 2669 
Q 3034 2534 3370 2195 
Q 3706 1856 3706 1288 
Q 3706 609 3251 259 
Q 2797 -91 1919 -91 
Q 1588 -91 1214 -16 
Q 841 59 441 206 
L 441 856 
Q 825 641 1194 531 
Q 1563 422 1919 422 
Q 2459 422 2753 634 
Q 3047 847 3047 1241 
Q 3047 1584 2836 1778 
Q 2625 1972 2144 2069 
L 1759 2144 
Q 1053 2284 737 2584 
Q 422 2884 422 3419 
Q 422 4038 858 4394 
Q 1294 4750 2059 4750 
Q 2388 4750 2728 4690 
Q 3069 4631 3425 4513 
z
" transform="scale(0.015625)"/>
       <path id="DejaVuSans-70" d="M 1159 525 
L 1159 -1331 
L 581 -1331 
L 581 3500 
L 1159 3500 
L 1159 2969 
Q 1341 3281 1617 3432 
Q 1894 3584 2278 3584 
Q 2916 3584 3314 3078 
Q 3713 2572 3713 1747 
Q 3713 922 3314 415 
Q 2916 -91 2278 -91 
Q 1894 -91 1617 61 
Q 1341 213 1159 525 
z
M 3116 1747 
Q 3116 2381 2855 2742 
Q 2594 3103 2138 3103 
Q 1681 3103 1420 2742 
Q 1159 2381 1159 1747 
Q 1159 1113 1420 752 
Q 1681 391 2138 391 
Q 2594 391 2855 752 
Q 3116 1113 3116 1747 
z
" transform="scale(0.015625)"/>
       <path id="DejaVuSans-69" d="M 603 3500 
L 1178 3500 
L 1178 0 
L 603 0 
L 603 3500 
z
M 603 4863 
L 1178 4863 
L 1178 4134 
L 603 4134 
L 603 4863 
z
" transform="scale(0.015625)"/>
       <path id="DejaVuSans-6e" d="M 3513 2113 
L 3513 0 
L 2938 0 
L 2938 2094 
Q 2938 2591 2744 2837 
Q 2550 3084 2163 3084 
Q 1697 3084 1428 2787 
Q 1159 2491 1159 1978 
L 1159 0 
L 581 0 
L 581 3500 
L 1159 3500 
L 1159 2956 
Q 1366 3272 1645 3428 
Q 1925 3584 2291 3584 
Q 2894 3584 3203 3211 
Q 3513 2838 3513 2113 
z
" transform="scale(0.015625)"/>
       <path id="DejaVuSans-20" transform="scale(0.015625)"/>
       <path id="DejaVuSans-Oblique-6a" d="M 928 3500 
L 1503 3500 
L 813 -63 
L 809 -78 
Q 694 -675 544 -897 
Q 403 -1106 132 -1218 
Q -138 -1331 -506 -1331 
L -722 -1331 
L -628 -844 
L -481 -844 
Q -144 -844 -1 -703 
Q 141 -563 238 -63 
L 928 3500 
z
M 1197 4863 
L 1772 4863 
L 1631 4134 
L 1056 4134 
L 1197 4863 
z
" transform="scale(0.015625)"/>
      </defs>
      <use xlink:href="#DejaVuSans-53" transform="translate(0 0.015625)"/>
      <use xlink:href="#DejaVuSans-70" transform="translate(63.476562 0.015625)"/>
      <use xlink:href="#DejaVuSans-69" transform="translate(126.953125 0.015625)"/>
      <use xlink:href="#DejaVuSans-6e" transform="translate(154.736328 0.015625)"/>
      <use xlink:href="#DejaVuSans-20" transform="translate(218.115234 0.015625)"/>
      <use xlink:href="#DejaVuSans-Oblique-6a" transform="translate(249.902344 0.015625)"/>
     </g>
    </g>
   </g>
   <g id="matplotlib.axis_2">
    <g id="ytick_1">
     <g id="line2d_10">
      <path d="M 57.8 291.503227 
L 702.659946 291.503227 
" clip-path="url(#p525f91c65d)" style="fill: none; stroke: #b0b0b0; stroke-opacity: 0.3; stroke-width: 0.8; stroke-linecap: square"/>
     </g>
     <g id="line2d_11">
      <defs>
       <path id="m81ea2f20bd" d="M 0 0 
L -3.5 0 
" style="stroke: #000000; stroke-width: 0.8"/>
      </defs>
      <g>
       <use xlink:href="#m81ea2f20bd" x="57.8" y="291.503227" style="stroke: #000000; stroke-width: 0.8"/>
      </g>
     </g>
     <g id="text_6">
      <!-- $\mathdefault{10^{-2}}$ -->
      <g transform="translate(27.3 295.302446) scale(0.1 -0.1)">
       <use xlink:href="#DejaVuSans-31" transform="translate(0 0.765625)"/>
       <use xlink:href="#DejaVuSans-30" transform="translate(63.623047 0.765625)"/>
       <use xlink:href="#DejaVuSans-2212" transform="translate(128.203125 39.046875) scale(0.7)"/>
       <use xlink:href="#DejaVuSans-32" transform="translate(186.855469 39.046875) scale(0.7)"/>
      </g>
     </g>
    </g>
    <g id="ytick_2">
     <g id="line2d_12">
      <path d="M 57.8 46.025197 
L 702.659946 46.025197 
" clip-path="url(#p525f91c65d)" style="fill: none; stroke: #b0b0b0; stroke-opacity: 0.3; stroke-width: 0.8; stroke-linecap: square"/>
     </g>
     <g id="line2d_13">
      <g>
       <use xlink:href="#m81ea2f20bd" x="57.8" y="46.025197" style="stroke: #000000; stroke-width: 0.8"/>
      </g>
     </g>
     <g id="text_7">
      <!-- $\mathdefault{10^{-1}}$ -->
      <g transform="translate(27.3 49.824416) scale(0.1 -0.1)">
       <use xlink:href="#DejaVuSans-31" transform="translate(0 0.684375)"/>
       <use xlink:href="#DejaVuSans-30" transform="translate(63.623047 0.684375)"/>
       <use xlink:href="#DejaVuSans-2212" transform="translate(128.203125 38.965625) scale(0.7)"/>
       <use xlink:href="#DejaVuSans-31" transform="translate(186.855469 38.965625) scale(0.7)"/>
      </g>
     </g>
    </g>
    <g id="ytick_3">
     <g id="line2d_14">
      <defs>
       <path id="m7d33412cc8" d="M 0 0 
L -2 0 
" style="stroke: #000000; stroke-width: 0.6"/>
      </defs>
      <g>
       <use xlink:href="#m7d33412cc8" x="57.8" y="365.399477" style="stroke: #000000; stroke-width: 0.6"/>
      </g>
     </g>
    </g>
    <g id="ytick_4">
     <g id="line2d_15">
      <g>
       <use xlink:href="#m7d33412cc8" x="57.8" y="345.962221" style="stroke: #000000; stroke-width: 0.6"/>
      </g>
     </g>
    </g>
    <g id="ytick_5">
     <g id="line2d_16">
      <g>
       <use xlink:href="#m7d33412cc8" x="57.8" y="329.528255" style="stroke: #000000; stroke-width: 0.6"/>
      </g>
     </g>
    </g>
    <g id="ytick_6">
     <g id="line2d_17">
      <g>
       <use xlink:href="#m7d33412cc8" x="57.8" y="315.292506" style="stroke: #000000; stroke-width: 0.6"/>
      </g>
     </g>
    </g>
    <g id="ytick_7">
     <g id="line2d_18">
      <g>
       <use xlink:href="#m7d33412cc8" x="57.8" y="302.735685" style="stroke: #000000; stroke-width: 0.6"/>
      </g>
     </g>
    </g>
    <g id="ytick_8">
     <g id="line2d_19">
      <g>
       <use xlink:href="#m7d33412cc8" x="57.8" y="217.606977" style="stroke: #000000; stroke-width: 0.6"/>
      </g>
     </g>
    </g>
    <g id="ytick_9">
     <g id="line2d_20">
      <g>
       <use xlink:href="#m7d33412cc8" x="57.8" y="174.380441" style="stroke: #000000; stroke-width: 0.6"/>
      </g>
     </g>
    </g>
    <g id="ytick_10">
     <g id="line2d_21">
      <g>
       <use xlink:href="#m7d33412cc8" x="57.8" y="143.710726" style="stroke: #000000; stroke-width: 0.6"/>
      </g>
     </g>
    </g>
    <g id="ytick_11">
     <g id="line2d_22">
      <g>
       <use xlink:href="#m7d33412cc8" x="57.8" y="119.921447" style="stroke: #000000; stroke-width: 0.6"/>
      </g>
     </g>
    </g>
    <g id="ytick_12">
     <g id="line2d_23">
      <g>
       <use xlink:href="#m7d33412cc8" x="57.8" y="100.484191" style="stroke: #000000; stroke-width: 0.6"/>
      </g>
     </g>
    </g>
    <g id="ytick_13">
     <g id="line2d_24">
      <g>
       <use xlink:href="#m7d33412cc8" x="57.8" y="84.050225" style="stroke: #000000; stroke-width: 0.6"/>
      </g>
     </g>
    </g>
    <g id="ytick_14">
     <g id="line2d_25">
      <g>
       <use xlink:href="#m7d33412cc8" x="57.8" y="69.814476" style="stroke: #000000; stroke-width: 0.6"/>
      </g>
     </g>
    </g>
    <g id="ytick_15">
     <g id="line2d_26">
      <g>
       <use xlink:href="#m7d33412cc8" x="57.8" y="57.257656" style="stroke: #000000; stroke-width: 0.6"/>
      </g>
     </g>
    </g>
    <g id="text_8">
     <!-- $|A_v(j)|^2$ -->
     <g transform="translate(19.94 223.541812) rotate(-90) scale(0.14 -0.14)">
      <defs>
       <path id="DejaVuSans-7c" d="M 1344 4891 
L 1344 -1509 
L 813 -1509 
L 813 4891 
L 1344 4891 
z
" transform="scale(0.015625)"/>
       <path id="DejaVuSans-Oblique-41" d="M 2356 4666 
L 3072 4666 
L 3938 0 
L 3278 0 
L 3084 1197 
L 984 1197 
L 325 0 
L -341 0 
L 2356 4666 
z
M 2584 4044 
L 1275 1722 
L 2988 1722 
L 2584 4044 
z
" transform="scale(0.015625)"/>
       <path id="DejaVuSans-Oblique-76" d="M 459 3500 
L 1069 3500 
L 1581 525 
L 3256 3500 
L 3866 3500 
L 1875 0 
L 1100 0 
L 459 3500 
z
" transform="scale(0.015625)"/>
       <path id="DejaVuSans-28" d="M 1984 4856 
Q 1566 4138 1362 3434 
Q 1159 2731 1159 2009 
Q 1159 1288 1364 580 
Q 1569 -128 1984 -844 
L 1484 -844 
Q 1016 -109 783 600 
Q 550 1309 550 2009 
Q 550 2706 781 3412 
Q 1013 4119 1484 4856 
L 1984 4856 
z
" transform="scale(0.015625)"/>
       <path id="DejaVuSans-29" d="M 513 4856 
L 1013 4856 
Q 1481 4119 1714 3412 
Q 1947 2706 1947 2009 
Q 1947 1309 1714 600 
Q 1481 -109 1013 -844 
L 513 -844 
Q 928 -128 1133 580 
Q 1338 1288 1338 2009 
Q 1338 2731 1133 3434 
Q 928 4138 513 4856 
z
" transform="scale(0.015625)"/>
      </defs>
      <use xlink:href="#DejaVuSans-7c" transform="translate(0 0.765625)"/>
      <use xlink:href="#DejaVuSans-Oblique-41" transform="translate(33.691406 0.765625)"/>
      <use xlink:href="#DejaVuSans-Oblique-76" transform="translate(102.099609 -15.640625) scale(0.7)"/>
      <use xlink:href="#DejaVuSans-28" transform="translate(146.259766 0.765625)"/>
      <use xlink:href="#DejaVuSans-Oblique-6a" transform="translate(185.273438 0.765625)"/>
      <use xlink:href="#DejaVuSans-29" transform="translate(213.056641 0.765625)"/>
      <use xlink:href="#DejaVuSans-7c" transform="translate(252.070312 0.765625)"/>
      <use xlink:href="#DejaVuSans-32" transform="translate(286.71875 39.046875) scale(0.7)"/>
     </g>
    </g>
   </g>
   <g id="LineCollection_1">
    <path d="M 87.111816 70.315093 
L 87.111816 70.184654 
" clip-path="url(#p525f91c65d)" style="fill: none; stroke: #e84393; stroke-width: 1.5"/>
    <path d="M 295.933404 156.790548 
L 295.933404 156.620187 
" clip-path="url(#p525f91c65d)" style="fill: none; stroke: #e84393; stroke-width: 1.5"/>
    <path d="M 418.086203 218.244907 
L 418.086203 218.038488 
" clip-path="url(#p525f91c65d)" style="fill: none; stroke: #e84393; stroke-width: 1.5"/>
    <path d="M 504.754993 265.964621 
L 504.754993 265.7262 
" clip-path="url(#p525f91c65d)" style="fill: none; stroke: #e84393; stroke-width: 1.5"/>
    <path d="M 571.980529 304.954968 
L 571.980529 304.687759 
" clip-path="url(#p525f91c65d)" style="fill: none; stroke: #e84393; stroke-width: 1.5"/>
    <path d="M 626.907792 337.902571 
L 626.907792 337.609029 
" clip-path="url(#p525f91c65d)" style="fill: none; stroke: #e84393; stroke-width: 1.5"/>
   </g>
   <g id="line2d_27">
    <defs>
     <path id="mda6e363b37" d="M 5 0 
L -5 -0 
" style="stroke: #e84393; stroke-width: 2"/>
    </defs>
    <g clip-path="url(#p525f91c65d)">
     <use xlink:href="#mda6e363b37" x="87.111816" y="70.315093" style="fill: #e84393; stroke: #e84393; stroke-width: 2"/>
     <use xlink:href="#mda6e363b37" x="295.933404" y="156.790548" style="fill: #e84393; stroke: #e84393; stroke-width: 2"/>
     <use xlink:href="#mda6e363b37" x="418.086203" y="218.244907" style="fill: #e84393; stroke: #e84393; stroke-width: 2"/>
     <use xlink:href="#mda6e363b37" x="504.754993" y="265.964621" style="fill: #e84393; stroke: #e84393; stroke-width: 2"/>
     <use xlink:href="#mda6e363b37" x="571.980529" y="304.954968" style="fill: #e84393; stroke: #e84393; stroke-width: 2"/>
     <use xlink:href="#mda6e363b37" x="626.907792" y="337.902571" style="fill: #e84393; stroke: #e84393; stroke-width: 2"/>
    </g>
   </g>
   <g id="line2d_28">
    <g clip-path="url(#p525f91c65d)">
     <use xlink:href="#mda6e363b37" x="87.111816" y="70.184654" style="fill: #e84393; stroke: #e84393; stroke-width: 2"/>
     <use xlink:href="#mda6e363b37" x="295.933404" y="156.620187" style="fill: #e84393; stroke: #e84393; stroke-width: 2"/>
     <use xlink:href="#mda6e363b37" x="418.086203" y="218.038488" style="fill: #e84393; stroke: #e84393; stroke-width: 2"/>
     <use xlink:href="#mda6e363b37" x="504.754993" y="265.7262" style="fill: #e84393; stroke: #e84393; stroke-width: 2"/>
     <use xlink:href="#mda6e363b37" x="571.980529" y="304.687759" style="fill: #e84393; stroke: #e84393; stroke-width: 2"/>
     <use xlink:href="#mda6e363b37" x="626.907792" y="337.609029" style="fill: #e84393; stroke: #e84393; stroke-width: 2"/>
    </g>
   </g>
   <g id="line2d_29">
    <path d="M 87.111816 39.867267 
L 104.83845 49.561251 
L 121.57975 58.716396 
L 137.43951 67.389461 
L 152.505943 75.628688 
L 166.854648 83.475419 
L 180.55091 90.965354 
L 193.65149 98.129535 
L 206.206051 104.99512 
L 218.258293 111.586007 
L 229.846871 117.923335 
L 241.006142 124.025892 
L 251.766781 129.910453 
L 262.156289 135.592058 
L 272.199415 141.08424 
L 281.918511 146.399223 
L 291.333836 151.548086 
L 300.463804 156.540899 
L 309.325203 161.386842 
L 317.933385 166.094311 
L 326.30242 170.671 
L 334.445236 175.123979 
L 342.373743 179.459761 
L 350.098932 183.684357 
L 357.630971 187.803326 
L 364.979284 191.821823 
L 372.152619 195.744632 
L 379.159118 199.576205 
L 386.006365 203.320689 
L 392.701437 206.981955 
L 399.250953 210.563622 
L 405.661107 214.069078 
L 411.937707 217.501498 
L 418.086203 220.863864 
L 424.111721 224.158978 
L 430.019084 227.389477 
L 435.812837 230.557848 
L 441.497268 233.666435 
L 447.076425 236.717452 
L 452.554137 239.712992 
L 457.934028 242.655039 
L 463.219529 245.545467 
L 468.413897 248.386058 
L 473.520221 251.178501 
L 478.541435 253.924402 
L 483.48033 256.625285 
L 488.339562 259.282604 
L 493.121661 261.897742 
L 497.829036 264.472016 
L 502.463987 267.006684 
L 507.028708 269.502947 
L 511.525297 271.961951 
L 515.955758 274.384792 
L 520.322006 276.772518 
L 524.625878 279.126132 
L 528.869129 281.446596 
L 533.053444 283.73483 
L 537.180439 285.991717 
L 541.251661 288.218105 
L 545.268599 290.414807 
L 549.232681 292.582604 
L 553.145279 294.722247 
L 557.007715 296.834458 
L 560.821258 298.919932 
L 564.587131 300.979336 
L 568.30651 303.013315 
L 571.980529 305.022489 
L 575.610282 307.007455 
L 579.196823 308.96879 
L 582.741168 310.90705 
L 586.244299 312.822772 
L 589.707164 314.716473 
L 593.130676 316.588655 
L 596.515722 318.4398 
L 599.863155 320.270377 
L 603.173802 322.080837 
L 606.448463 323.871617 
L 609.687912 325.643142 
L 612.892899 327.39582 
L 616.064148 329.130049 
L 619.202362 330.846212 
L 622.308223 332.544683 
L 625.382392 334.225822 
L 628.425507 335.88998 
L 631.438191 337.537496 
L 634.421046 339.168699 
L 637.374656 340.78391 
L 640.299591 342.383439 
L 643.1964 343.967588 
L 646.065621 345.536649 
L 648.907772 347.090908 
L 651.723362 348.630641 
L 654.512881 350.156116 
L 657.276807 351.667597 
L 660.015607 353.165336 
L 662.729732 354.649582 
L 665.419624 356.120576 
L 668.085711 357.578552 
L 670.728411 359.023738 
L 673.34813 360.456358 
" clip-path="url(#p525f91c65d)" style="fill: none; stroke-dasharray: 7.4,3.2; stroke-dashoffset: 0; stroke: #3498db; stroke-width: 2"/>
   </g>
   <g id="line2d_30">
    <defs>
     <path id="m9d4c5f402f" d="M 0 4 
C 1.060812 4 2.078319 3.578535 2.828427 2.828427 
C 3.578535 2.078319 4 1.060812 4 0 
C 4 -1.060812 3.578535 -2.078319 2.828427 -2.828427 
C 2.078319 -3.578535 1.060812 -4 0 -4 
C -1.060812 -4 -2.078319 -3.578535 -2.828427 -2.828427 
C -3.578535 -2.078319 -4 -1.060812 -4 0 
C -4 1.060812 -3.578535 2.078319 -2.828427 2.828427 
C -2.078319 3.578535 -1.060812 4 0 4 
z
" style="stroke: #e84393"/>
    </defs>
    <g clip-path="url(#p525f91c65d)">
     <use xlink:href="#m9d4c5f402f" x="87.111816" y="70.249854" style="fill: #e84393; stroke: #e84393"/>
     <use xlink:href="#m9d4c5f402f" x="295.933404" y="156.705334" style="fill: #e84393; stroke: #e84393"/>
     <use xlink:href="#m9d4c5f402f" x="418.086203" y="218.141648" style="fill: #e84393; stroke: #e84393"/>
     <use xlink:href="#m9d4c5f402f" x="504.754993" y="265.845344" style="fill: #e84393; stroke: #e84393"/>
     <use xlink:href="#m9d4c5f402f" x="571.980529" y="304.82128" style="fill: #e84393; stroke: #e84393"/>
     <use xlink:href="#m9d4c5f402f" x="626.907792" y="337.755699" style="fill: #e84393; stroke: #e84393"/>
    </g>
   </g>
   <g id="patch_3">
    <path d="M 57.8 376.485812 
L 57.8 23.837812 
" style="fill: none; stroke: #000000; stroke-width: 0.8; stroke-linejoin: miter; stroke-linecap: square"/>
   </g>
   <g id="patch_4">
    <path d="M 702.659946 376.485812 
L 702.659946 23.837812 
" style="fill: none; stroke: #000000; stroke-width: 0.8; stroke-linejoin: miter; stroke-linecap: square"/>
   </g>
   <g id="patch_5">
    <path d="M 57.8 376.485812 
L 702.659946 376.485812 
" style="fill: none; stroke: #000000; stroke-width: 0.8; stroke-linejoin: miter; stroke-linecap: square"/>
   </g>
   <g id="patch_6">
    <path d="M 57.8 23.837812 
L 702.659946 23.837812 
" style="fill: none; stroke: #000000; stroke-width: 0.8; stroke-linejoin: miter; stroke-linecap: square"/>
   </g>
   <g id="patch_7">
    <path d="M 434.726221 124.658688 
Q 366.306123 140.456585 298.975398 156.002951 
" style="fill: none; stroke: #808080; stroke-linecap: round"/>
    <path d="M 303.757548 157.156656 
L 298.975398 156.002951 
L 302.767652 152.869454 
" style="fill: none; stroke: #808080; stroke-linecap: round"/>
   </g>
   <g id="text_9">
    <!-- j=1 / j=½ = 0.444 -->
    <g style="fill: #808080" transform="translate(418.086203 119.921447) scale(0.11 -0.11)">
     <defs>
      <path id="DejaVuSans-6a" d="M 603 3500 
L 1178 3500 
L 1178 -63 
Q 1178 -731 923 -1031 
Q 669 -1331 103 -1331 
L -116 -1331 
L -116 -844 
L 38 -844 
Q 366 -844 484 -692 
Q 603 -541 603 -63 
L 603 3500 
z
M 603 4863 
L 1178 4863 
L 1178 4134 
L 603 4134 
L 603 4863 
z
" transform="scale(0.015625)"/>
      <path id="DejaVuSans-3d" d="M 678 2906 
L 4684 2906 
L 4684 2381 
L 678 2381 
L 678 2906 
z
M 678 1631 
L 4684 1631 
L 4684 1100 
L 678 1100 
L 678 1631 
z
" transform="scale(0.015625)"/>
      <path id="DejaVuSans-2f" d="M 1625 4666 
L 2156 4666 
L 531 -594 
L 0 -594 
L 1625 4666 
z
" transform="scale(0.015625)"/>
      <path id="DejaVuSans-bd" d="M 488 2431 
L 1125 2431 
L 1125 4341 
L 428 4213 
L 428 4575 
L 1147 4697 
L 1575 4697 
L 1575 2431 
L 2216 2431 
L 2216 2088 
L 488 2088 
L 488 2431 
z
M 4470 332 
L 5795 332 
L 5795 -24 
L 3926 -24 
L 3926 319 
Q 4032 416 4229 591 
Q 5304 1544 5304 1838 
Q 5304 2044 5141 2170 
Q 4979 2297 4713 2297 
Q 4551 2297 4360 2242 
Q 4170 2188 3945 2079 
L 3945 2463 
Q 4185 2551 4393 2594 
Q 4601 2638 4779 2638 
Q 5232 2638 5504 2432 
Q 5776 2226 5776 1888 
Q 5776 1454 4741 566 
Q 4566 416 4470 332 
z
M 4309 4750 
L 4809 4750 
L 1896 -91 
L 1396 -91 
L 4309 4750 
z
" transform="scale(0.015625)"/>
      <path id="DejaVuSans-2e" d="M 684 794 
L 1344 794 
L 1344 0 
L 684 0 
L 684 794 
z
" transform="scale(0.015625)"/>
      <path id="DejaVuSans-34" d="M 2419 4116 
L 825 1625 
L 2419 1625 
L 2419 4116 
z
M 2253 4666 
L 3047 4666 
L 3047 1625 
L 3713 1625 
L 3713 1100 
L 3047 1100 
L 3047 0 
L 2419 0 
L 2419 1100 
L 313 1100 
L 313 1709 
L 2253 4666 
z
" transform="scale(0.015625)"/>
     </defs>
     <use xlink:href="#DejaVuSans-6a"/>
     <use xlink:href="#DejaVuSans-3d" x="27.783203"/>
     <use xlink:href="#DejaVuSans-31" x="111.572266"/>
     <use xlink:href="#DejaVuSans-20" x="175.195312"/>
     <use xlink:href="#DejaVuSans-2f" x="206.982422"/>
     <use xlink:href="#DejaVuSans-20" x="240.673828"/>
     <use xlink:href="#DejaVuSans-6a" x="272.460938"/>
     <use xlink:href="#DejaVuSans-3d" x="300.244141"/>
     <use xlink:href="#DejaVuSans-bd" x="384.033203"/>
     <use xlink:href="#DejaVuSans-20" x="480.957031"/>
     <use xlink:href="#DejaVuSans-3d" x="512.744141"/>
     <use xlink:href="#DejaVuSans-20" x="596.533203"/>
     <use xlink:href="#DejaVuSans-30" x="628.320312"/>
     <use xlink:href="#DejaVuSans-2e" x="691.943359"/>
     <use xlink:href="#DejaVuSans-34" x="723.730469"/>
     <use xlink:href="#DejaVuSans-34" x="787.353516"/>
     <use xlink:href="#DejaVuSans-34" x="850.976562"/>
    </g>
   </g>
   <g id="text_10">
    <!-- FK Vertex Amplitude vs Spin (4-valent, simple intertwiner) -->
    <g transform="translate(176.809973 17.837812) scale(0.14 -0.14)">
     <defs>
      <path id="DejaVuSans-46" d="M 628 4666 
L 3309 4666 
L 3309 4134 
L 1259 4134 
L 1259 2759 
L 3109 2759 
L 3109 2228 
L 1259 2228 
L 1259 0 
L 628 0 
L 628 4666 
z
" transform="scale(0.015625)"/>
      <path id="DejaVuSans-4b" d="M 628 4666 
L 1259 4666 
L 1259 2694 
L 3353 4666 
L 4166 4666 
L 1850 2491 
L 4331 0 
L 3500 0 
L 1259 2247 
L 1259 0 
L 628 0 
L 628 4666 
z
" transform="scale(0.015625)"/>
      <path id="DejaVuSans-56" d="M 1831 0 
L 50 4666 
L 709 4666 
L 2188 738 
L 3669 4666 
L 4325 4666 
L 2547 0 
L 1831 0 
z
" transform="scale(0.015625)"/>
      <path id="DejaVuSans-65" d="M 3597 1894 
L 3597 1613 
L 953 1613 
Q 991 1019 1311 708 
Q 1631 397 2203 397 
Q 2534 397 2845 478 
Q 3156 559 3463 722 
L 3463 178 
Q 3153 47 2828 -22 
Q 2503 -91 2169 -91 
Q 1331 -91 842 396 
Q 353 884 353 1716 
Q 353 2575 817 3079 
Q 1281 3584 2069 3584 
Q 2775 3584 3186 3129 
Q 3597 2675 3597 1894 
z
M 3022 2063 
Q 3016 2534 2758 2815 
Q 2500 3097 2075 3097 
Q 1594 3097 1305 2825 
Q 1016 2553 972 2059 
L 3022 2063 
z
" transform="scale(0.015625)"/>
      <path id="DejaVuSans-72" d="M 2631 2963 
Q 2534 3019 2420 3045 
Q 2306 3072 2169 3072 
Q 1681 3072 1420 2755 
Q 1159 2438 1159 1844 
L 1159 0 
L 581 0 
L 581 3500 
L 1159 3500 
L 1159 2956 
Q 1341 3275 1631 3429 
Q 1922 3584 2338 3584 
Q 2397 3584 2469 3576 
Q 2541 3569 2628 3553 
L 2631 2963 
z
" transform="scale(0.015625)"/>
      <path id="DejaVuSans-74" d="M 1172 4494 
L 1172 3500 
L 2356 3500 
L 2356 3053 
L 1172 3053 
L 1172 1153 
Q 1172 725 1289 603 
Q 1406 481 1766 481 
L 2356 481 
L 2356 0 
L 1766 0 
Q 1100 0 847 248 
Q 594 497 594 1153 
L 594 3053 
L 172 3053 
L 172 3500 
L 594 3500 
L 594 4494 
L 1172 4494 
z
" transform="scale(0.015625)"/>
      <path id="DejaVuSans-78" d="M 3513 3500 
L 2247 1797 
L 3578 0 
L 2900 0 
L 1881 1375 
L 863 0 
L 184 0 
L 1544 1831 
L 300 3500 
L 978 3500 
L 1906 2253 
L 2834 3500 
L 3513 3500 
z
" transform="scale(0.015625)"/>
      <path id="DejaVuSans-41" d="M 2188 4044 
L 1331 1722 
L 3047 1722 
L 2188 4044 
z
M 1831 4666 
L 2547 4666 
L 4325 0 
L 3669 0 
L 3244 1197 
L 1141 1197 
L 716 0 
L 50 0 
L 1831 4666 
z
" transform="scale(0.015625)"/>
      <path id="DejaVuSans-6d" d="M 3328 2828 
Q 3544 3216 3844 3400 
Q 4144 3584 4550 3584 
Q 5097 3584 5394 3201 
Q 5691 2819 5691 2113 
L 5691 0 
L 5113 0 
L 5113 2094 
Q 5113 2597 4934 2840 
Q 4756 3084 4391 3084 
Q 3944 3084 3684 2787 
Q 3425 2491 3425 1978 
L 3425 0 
L 2847 0 
L 2847 2094 
Q 2847 2600 2669 2842 
Q 2491 3084 2119 3084 
Q 1678 3084 1418 2786 
Q 1159 2488 1159 1978 
L 1159 0 
L 581 0 
L 581 3500 
L 1159 3500 
L 1159 2956 
Q 1356 3278 1631 3431 
Q 1906 3584 2284 3584 
Q 2666 3584 2933 3390 
Q 3200 3197 3328 2828 
z
" transform="scale(0.015625)"/>
      <path id="DejaVuSans-6c" d="M 603 4863 
L 1178 4863 
L 1178 0 
L 603 0 
L 603 4863 
z
" transform="scale(0.015625)"/>
      <path id="DejaVuSans-75" d="M 544 1381 
L 544 3500 
L 1119 3500 
L 1119 1403 
Q 1119 906 1312 657 
Q 1506 409 1894 409 
Q 2359 409 2629 706 
Q 2900 1003 2900 1516 
L 2900 3500 
L 3475 3500 
L 3475 0 
L 2900 0 
L 2900 538 
Q 2691 219 2414 64 
Q 2138 -91 1772 -91 
Q 1169 -91 856 284 
Q 544 659 544 1381 
z
M 1991 3584 
L 1991 3584 
z
" transform="scale(0.015625)"/>
      <path id="DejaVuSans-64" d="M 2906 2969 
L 2906 4863 
L 3481 4863 
L 3481 0 
L 2906 0 
L 2906 525 
Q 2725 213 2448 61 
Q 2172 -91 1784 -91 
Q 1150 -91 751 415 
Q 353 922 353 1747 
Q 353 2572 751 3078 
Q 1150 3584 1784 3584 
Q 2172 3584 2448 3432 
Q 2725 3281 2906 2969 
z
M 947 1747 
Q 947 1113 1208 752 
Q 1469 391 1925 391 
Q 2381 391 2643 752 
Q 2906 1113 2906 1747 
Q 2906 2381 2643 2742 
Q 2381 3103 1925 3103 
Q 1469 3103 1208 2742 
Q 947 2381 947 1747 
z
" transform="scale(0.015625)"/>
      <path id="DejaVuSans-76" d="M 191 3500 
L 800 3500 
L 1894 563 
L 2988 3500 
L 3597 3500 
L 2284 0 
L 1503 0 
L 191 3500 
z
" transform="scale(0.015625)"/>
      <path id="DejaVuSans-73" d="M 2834 3397 
L 2834 2853 
Q 2591 2978 2328 3040 
Q 2066 3103 1784 3103 
Q 1356 3103 1142 2972 
Q 928 2841 928 2578 
Q 928 2378 1081 2264 
Q 1234 2150 1697 2047 
L 1894 2003 
Q 2506 1872 2764 1633 
Q 3022 1394 3022 966 
Q 3022 478 2636 193 
Q 2250 -91 1575 -91 
Q 1294 -91 989 -36 
Q 684 19 347 128 
L 347 722 
Q 666 556 975 473 
Q 1284 391 1588 391 
Q 1994 391 2212 530 
Q 2431 669 2431 922 
Q 2431 1156 2273 1281 
Q 2116 1406 1581 1522 
L 1381 1569 
Q 847 1681 609 1914 
Q 372 2147 372 2553 
Q 372 3047 722 3315 
Q 1072 3584 1716 3584 
Q 2034 3584 2315 3537 
Q 2597 3491 2834 3397 
z
" transform="scale(0.015625)"/>
      <path id="DejaVuSans-2d" d="M 313 2009 
L 1997 2009 
L 1997 1497 
L 313 1497 
L 313 2009 
z
" transform="scale(0.015625)"/>
      <path id="DejaVuSans-61" d="M 2194 1759 
Q 1497 1759 1228 1600 
Q 959 1441 959 1056 
Q 959 750 1161 570 
Q 1363 391 1709 391 
Q 2188 391 2477 730 
Q 2766 1069 2766 1631 
L 2766 1759 
L 2194 1759 
z
M 3341 1997 
L 3341 0 
L 2766 0 
L 2766 531 
Q 2569 213 2275 61 
Q 1981 -91 1556 -91 
Q 1019 -91 701 211 
Q 384 513 384 1019 
Q 384 1609 779 1909 
Q 1175 2209 1959 2209 
L 2766 2209 
L 2766 2266 
Q 2766 2663 2505 2880 
Q 2244 3097 1772 3097 
Q 1472 3097 1187 3025 
Q 903 2953 641 2809 
L 641 3341 
Q 956 3463 1253 3523 
Q 1550 3584 1831 3584 
Q 2591 3584 2966 3190 
Q 3341 2797 3341 1997 
z
" transform="scale(0.015625)"/>
      <path id="DejaVuSans-2c" d="M 750 794 
L 1409 794 
L 1409 256 
L 897 -744 
L 494 -744 
L 750 256 
L 750 794 
z
" transform="scale(0.015625)"/>
      <path id="DejaVuSans-77" d="M 269 3500 
L 844 3500 
L 1563 769 
L 2278 3500 
L 2956 3500 
L 3675 769 
L 4391 3500 
L 4966 3500 
L 4050 0 
L 3372 0 
L 2619 2869 
L 1863 0 
L 1184 0 
L 269 3500 
z
" transform="scale(0.015625)"/>
     </defs>
     <use xlink:href="#DejaVuSans-46"/>
     <use xlink:href="#DejaVuSans-4b" x="57.519531"/>
     <use xlink:href="#DejaVuSans-20" x="123.095703"/>
     <use xlink:href="#DejaVuSans-56" x="154.882812"/>
     <use xlink:href="#DejaVuSans-65" x="215.541016"/>
     <use xlink:href="#DejaVuSans-72" x="277.064453"/>
     <use xlink:href="#DejaVuSans-74" x="318.177734"/>
     <use xlink:href="#DejaVuSans-65" x="357.386719"/>
     <use xlink:href="#DejaVuSans-78" x="417.160156"/>
     <use xlink:href="#DejaVuSans-20" x="476.339844"/>
     <use xlink:href="#DejaVuSans-41" x="508.126953"/>
     <use xlink:href="#DejaVuSans-6d" x="576.535156"/>
     <use xlink:href="#DejaVuSans-70" x="673.947266"/>
     <use xlink:href="#DejaVuSans-6c" x="737.423828"/>
     <use xlink:href="#DejaVuSans-69" x="765.207031"/>
     <use xlink:href="#DejaVuSans-74" x="792.990234"/>
     <use xlink:href="#DejaVuSans-75" x="832.199219"/>
     <use xlink:href="#DejaVuSans-64" x="895.578125"/>
     <use xlink:href="#DejaVuSans-65" x="959.054688"/>
     <use xlink:href="#DejaVuSans-20" x="1020.578125"/>
     <use xlink:href="#DejaVuSans-76" x="1052.365234"/>
     <use xlink:href="#DejaVuSans-73" x="1111.544922"/>
     <use xlink:href="#DejaVuSans-20" x="1163.644531"/>
     <use xlink:href="#DejaVuSans-53" x="1195.431641"/>
     <use xlink:href="#DejaVuSans-70" x="1258.908203"/>
     <use xlink:href="#DejaVuSans-69" x="1322.384766"/>
     <use xlink:href="#DejaVuSans-6e" x="1350.167969"/>
     <use xlink:href="#DejaVuSans-20" x="1413.546875"/>
     <use xlink:href="#DejaVuSans-28" x="1445.333984"/>
     <use xlink:href="#DejaVuSans-34" x="1484.347656"/>
     <use xlink:href="#DejaVuSans-2d" x="1547.970703"/>
     <use xlink:href="#DejaVuSans-76" x="1581.429688"/>
     <use xlink:href="#DejaVuSans-61" x="1640.609375"/>
     <use xlink:href="#DejaVuSans-6c" x="1701.888672"/>
     <use xlink:href="#DejaVuSans-65" x="1729.671875"/>
     <use xlink:href="#DejaVuSans-6e" x="1791.195312"/>
     <use xlink:href="#DejaVuSans-74" x="1854.574219"/>
     <use xlink:href="#DejaVuSans-2c" x="1893.783203"/>
     <use xlink:href="#DejaVuSans-20" x="1925.570312"/>
     <use xlink:href="#DejaVuSans-73" x="1957.357422"/>
     <use xlink:href="#DejaVuSans-69" x="2009.457031"/>
     <use xlink:href="#DejaVuSans-6d" x="2037.240234"/>
     <use xlink:href="#DejaVuSans-70" x="2134.652344"/>
     <use xlink:href="#DejaVuSans-6c" x="2198.128906"/>
     <use xlink:href="#DejaVuSans-65" x="2225.912109"/>
     <use xlink:href="#DejaVuSans-20" x="2287.435547"/>
     <use xlink:href="#DejaVuSans-69" x="2319.222656"/>
     <use xlink:href="#DejaVuSans-6e" x="2347.005859"/>
     <use xlink:href="#DejaVuSans-74" x="2410.384766"/>
     <use xlink:href="#DejaVuSans-65" x="2449.59375"/>
     <use xlink:href="#DejaVuSans-72" x="2511.117188"/>
     <use xlink:href="#DejaVuSans-74" x="2552.230469"/>
     <use xlink:href="#DejaVuSans-77" x="2591.439453"/>
     <use xlink:href="#DejaVuSans-69" x="2673.226562"/>
     <use xlink:href="#DejaVuSans-6e" x="2701.009766"/>
     <use xlink:href="#DejaVuSans-65" x="2764.388672"/>
     <use xlink:href="#DejaVuSans-72" x="2825.912109"/>
     <use xlink:href="#DejaVuSans-29" x="2867.025391"/>
    </g>
   </g>
   <g id="legend_1">
    <g id="patch_8">
     <path d="M 498.453696 70.371562 
L 694.259946 70.371562 
Q 696.659946 70.371562 696.659946 67.971562 
L 696.659946 32.237812 
Q 696.659946 29.837812 694.259946 29.837812 
L 498.453696 29.837812 
Q 496.053696 29.837812 496.053696 32.237812 
L 496.053696 67.971562 
Q 496.053696 70.371562 498.453696 70.371562 
z
" style="fill: #ffffff; opacity: 0.8; stroke: #cccccc; stroke-linejoin: miter"/>
    </g>
    <g id="line2d_31">
     <path d="M 500.853696 41.237812 
L 512.853696 41.237812 
L 524.853696 41.237812 
" style="fill: none; stroke-dasharray: 7.4,3.2; stroke-dashoffset: 0; stroke: #3498db; stroke-width: 2"/>
    </g>
    <g id="text_11">
     <!-- Power law fit: $\propto j^{-1.55}$ -->
     <g transform="translate(534.453696 45.437812) scale(0.12 -0.12)">
      <defs>
       <path id="DejaVuSans-50" d="M 1259 4147 
L 1259 2394 
L 2053 2394 
Q 2494 2394 2734 2622 
Q 2975 2850 2975 3272 
Q 2975 3691 2734 3919 
Q 2494 4147 2053 4147 
L 1259 4147 
z
M 628 4666 
L 2053 4666 
Q 2838 4666 3239 4311 
Q 3641 3956 3641 3272 
Q 3641 2581 3239 2228 
Q 2838 1875 2053 1875 
L 1259 1875 
L 1259 0 
L 628 0 
L 628 4666 
z
" transform="scale(0.015625)"/>
       <path id="DejaVuSans-6f" d="M 1959 3097 
Q 1497 3097 1228 2736 
Q 959 2375 959 1747 
Q 959 1119 1226 758 
Q 1494 397 1959 397 
Q 2419 397 2687 759 
Q 2956 1122 2956 1747 
Q 2956 2369 2687 2733 
Q 2419 3097 1959 3097 
z
M 1959 3584 
Q 2709 3584 3137 3096 
Q 3566 2609 3566 1747 
Q 3566 888 3137 398 
Q 2709 -91 1959 -91 
Q 1206 -91 779 398 
Q 353 888 353 1747 
Q 353 2609 779 3096 
Q 1206 3584 1959 3584 
z
" transform="scale(0.015625)"/>
       <path id="DejaVuSans-66" d="M 2375 4863 
L 2375 4384 
L 1825 4384 
Q 1516 4384 1395 4259 
Q 1275 4134 1275 3809 
L 1275 3500 
L 2222 3500 
L 2222 3053 
L 1275 3053 
L 1275 0 
L 697 0 
L 697 3053 
L 147 3053 
L 147 3500 
L 697 3500 
L 697 3744 
Q 697 4328 969 4595 
Q 1241 4863 1831 4863 
L 2375 4863 
z
" transform="scale(0.015625)"/>
       <path id="DejaVuSans-3a" d="M 750 794 
L 1409 794 
L 1409 0 
L 750 0 
L 750 794 
z
M 750 3309 
L 1409 3309 
L 1409 2516 
L 750 2516 
L 750 3309 
z
" transform="scale(0.015625)"/>
       <path id="DejaVuSans-221d" d="M 1647 1134 
Q 2163 1134 2472 1884 
Q 2075 2703 1647 2703 
Q 1334 2703 1175 2478 
Q 1006 2238 1006 1919 
Q 1006 1569 1175 1353 
Q 1350 1134 1647 1134 
z
M 3884 1128 
L 3884 716 
L 3644 716 
Q 3416 716 3247 809 
Q 3078 894 2916 1091 
Q 2819 1203 2666 1466 
Q 2456 1091 2272 925 
Q 2044 725 1681 725 
Q 1259 725 981 1041 
Q 688 1372 688 1919 
Q 688 2444 981 2800 
Q 1241 3116 1688 3116 
Q 1916 3116 2084 3022 
Q 2281 2919 2416 2741 
Q 2541 2581 2666 2366 
Q 2875 2741 3059 2906 
Q 3288 3106 3650 3106 
L 3884 3106 
L 3884 2697 
L 3684 2697 
Q 3222 2697 2859 1947 
Q 3256 1128 3684 1128 
L 3884 1128 
z
" transform="scale(0.015625)"/>
       <path id="DejaVuSans-35" d="M 691 4666 
L 3169 4666 
L 3169 4134 
L 1269 4134 
L 1269 2991 
Q 1406 3038 1543 3061 
Q 1681 3084 1819 3084 
Q 2600 3084 3056 2656 
Q 3513 2228 3513 1497 
Q 3513 744 3044 326 
Q 2575 -91 1722 -91 
Q 1428 -91 1123 -41 
Q 819 9 494 109 
L 494 744 
Q 775 591 1075 516 
Q 1375 441 1709 441 
Q 2250 441 2565 725 
Q 2881 1009 2881 1497 
Q 2881 1984 2565 2268 
Q 2250 2553 1709 2553 
Q 1456 2553 1204 2497 
Q 953 2441 691 2322 
L 691 4666 
z
" transform="scale(0.015625)"/>
      </defs>
      <use xlink:href="#DejaVuSans-50" transform="translate(0 0.684375)"/>
      <use xlink:href="#DejaVuSans-6f" transform="translate(60.302734 0.684375)"/>
      <use xlink:href="#DejaVuSans-77" transform="translate(121.484375 0.684375)"/>
      <use xlink:href="#DejaVuSans-65" transform="translate(203.271484 0.684375)"/>
      <use xlink:href="#DejaVuSans-72" transform="translate(264.794922 0.684375)"/>
      <use xlink:href="#DejaVuSans-20" transform="translate(305.908203 0.684375)"/>
      <use xlink:href="#DejaVuSans-6c" transform="translate(337.695312 0.684375)"/>
      <use xlink:href="#DejaVuSans-61" transform="translate(365.478516 0.684375)"/>
      <use xlink:href="#DejaVuSans-77" transform="translate(426.757812 0.684375)"/>
      <use xlink:href="#DejaVuSans-20" transform="translate(508.544922 0.684375)"/>
      <use xlink:href="#DejaVuSans-66" transform="translate(540.332031 0.684375)"/>
      <use xlink:href="#DejaVuSans-69" transform="translate(575.537109 0.684375)"/>
      <use xlink:href="#DejaVuSans-74" transform="translate(603.320312 0.684375)"/>
      <use xlink:href="#DejaVuSans-3a" transform="translate(642.529297 0.684375)"/>
      <use xlink:href="#DejaVuSans-20" transform="translate(676.220703 0.684375)"/>
      <use xlink:href="#DejaVuSans-221d" transform="translate(727.490234 0.684375)"/>
      <use xlink:href="#DejaVuSans-Oblique-6a" transform="translate(818.408203 0.684375)"/>
      <use xlink:href="#DejaVuSans-2212" transform="translate(853.639115 38.965625) scale(0.7)"/>
      <use xlink:href="#DejaVuSans-31" transform="translate(912.291458 38.965625) scale(0.7)"/>
      <use xlink:href="#DejaVuSans-2e" transform="translate(956.827591 38.965625) scale(0.7)"/>
      <use xlink:href="#DejaVuSans-35" transform="translate(979.078568 38.965625) scale(0.7)"/>
      <use xlink:href="#DejaVuSans-35" transform="translate(1023.614701 38.965625) scale(0.7)"/>
     </g>
    </g>
    <g id="LineCollection_2">
     <path d="M 512.853696 64.875937 
L 512.853696 52.875937 
" style="fill: none; stroke: #e84393; stroke-width: 1.5"/>
    </g>
    <g id="line2d_32">
     <g>
      <use xlink:href="#mda6e363b37" x="512.853696" y="64.875937" style="fill: #e84393; stroke: #e84393; stroke-width: 2"/>
     </g>
    </g>
    <g id="line2d_33">
     <g>
      <use xlink:href="#mda6e363b37" x="512.853696" y="52.875937" style="fill: #e84393; stroke: #e84393; stroke-width: 2"/>
     </g>
    </g>
    <g id="line2d_34"/>
    <g id="line2d_35">
     <g>
      <use xlink:href="#m9d4c5f402f" x="512.853696" y="58.875937" style="fill: #e84393; stroke: #e84393"/>
     </g>
    </g>
    <g id="text_12">
     <!-- Monte Carlo (2M samples) -->
     <g transform="translate(534.453696 63.075937) scale(0.12 -0.12)">
      <defs>
       <path id="DejaVuSans-4d" d="M 628 4666 
L 1569 4666 
L 2759 1491 
L 3956 4666 
L 4897 4666 
L 4897 0 
L 4281 0 
L 4281 4097 
L 3078 897 
L 2444 897 
L 1241 4097 
L 1241 0 
L 628 0 
L 628 4666 
z
" transform="scale(0.015625)"/>
       <path id="DejaVuSans-43" d="M 4122 4306 
L 4122 3641 
Q 3803 3938 3442 4084 
Q 3081 4231 2675 4231 
Q 1875 4231 1450 3742 
Q 1025 3253 1025 2328 
Q 1025 1406 1450 917 
Q 1875 428 2675 428 
Q 3081 428 3442 575 
Q 3803 722 4122 1019 
L 4122 359 
Q 3791 134 3420 21 
Q 3050 -91 2638 -91 
Q 1578 -91 968 557 
Q 359 1206 359 2328 
Q 359 3453 968 4101 
Q 1578 4750 2638 4750 
Q 3056 4750 3426 4639 
Q 3797 4528 4122 4306 
z
" transform="scale(0.015625)"/>
      </defs>
      <use xlink:href="#DejaVuSans-4d"/>
      <use xlink:href="#DejaVuSans-6f" x="86.279297"/>
      <use xlink:href="#DejaVuSans-6e" x="147.460938"/>
      <use xlink:href="#DejaVuSans-74" x="210.839844"/>
      <use xlink:href="#DejaVuSans-65" x="250.048828"/>
      <use xlink:href="#DejaVuSans-20" x="311.572266"/>
      <use xlink:href="#DejaVuSans-43" x="343.359375"/>
      <use xlink:href="#DejaVuSans-61" x="413.183594"/>
      <use xlink:href="#DejaVuSans-72" x="474.462891"/>
      <use xlink:href="#DejaVuSans-6c" x="515.576172"/>
      <use xlink:href="#DejaVuSans-6f" x="543.359375"/>
      <use xlink:href="#DejaVuSans-20" x="604.541016"/>
      <use xlink:href="#DejaVuSans-28" x="636.328125"/>
      <use xlink:href="#DejaVuSans-32" x="675.341797"/>
      <use xlink:href="#DejaVuSans-4d" x="738.964844"/>
      <use xlink:href="#DejaVuSans-20" x="825.244141"/>
      <use xlink:href="#DejaVuSans-73" x="857.03125"/>
      <use xlink:href="#DejaVuSans-61" x="909.130859"/>
      <use xlink:href="#DejaVuSans-6d" x="970.410156"/>
      <use xlink:href="#DejaVuSans-70" x="1067.822266"/>
      <use xlink:href="#DejaVuSans-6c" x="1131.298828"/>
      <use xlink:href="#DejaVuSans-65" x="1159.082031"/>
      <use xlink:href="#DejaVuSans-73" x="1220.605469"/>
      <use xlink:href="#DejaVuSans-29" x="1272.705078"/>
     </g>
    </g>
   </g>
  </g>
 </g>
 <defs>
  <clipPath id="p525f91c65d">
   <rect x="57.8" y="23.837812" width="644.859946" height="352.648"/>
  </clipPath>
 </defs>
</svg>
